<?xml version="1.0" encoding="utf-8" standalone="no"?>
<!DOCTYPE svg PUBLIC "-//W3C//DTD SVG 1.1//EN"
  "http://www.w3.org/Graphics/SVG/1.1/DTD/svg11.dtd">
<svg height="432pt" version="1.1" viewBox="0 0 720 432" width="720pt" xmlns="http://www.w3.org/2000/svg" xmlns:xlink="http://www.w3.org/1999/xlink">
 <metadata>
  <rdf:RDF xmlns:cc="http://creativecommons.org/ns#" xmlns:dc="http://purl.org/dc/elements/1.1/" xmlns:rdf="http://www.w3.org/1999/02/22-rdf-syntax-ns#">
   <cc:Work>
    <dc:type rdf:resource="http://purl.org/dc/dcmitype/StillImage"/>
    <dc:date>2022-12-13T20:03:06.883219</dc:date>
    <dc:format>image/svg+xml</dc:format>
    <dc:creator>
     <cc:Agent>
      <dc:title>Matplotlib v3.4.3, https://matplotlib.org/</dc:title>
     </cc:Agent>
    </dc:creator>
   </cc:Work>
  </rdf:RDF>
 </metadata>
 <defs>
  <style type="text/css">*{stroke-linecap:butt;stroke-linejoin:round;}</style>
 </defs>
 <g id="figure_1">
  <g id="patch_1">
   <path d="M 0 432 
L 720 432 
L 720 0 
L 0 0 
z
" style="fill:#ffffff;"/>
  </g>
  <g id="axes_1">
   <g id="patch_2">
    <path d="M 90 378 
L 648 378 
L 648 51.84 
L 90 51.84 
z
" style="fill:#eaeaf2;"/>
   </g>
   <g id="matplotlib.axis_1">
    <g id="xtick_1">
     <g id="line2d_1">
      <path clip-path="url(#p6aae3e2d0d)" d="M 115.363636 378 
L 115.363636 51.84 
" style="fill:none;stroke:#ffffff;stroke-linecap:round;stroke-width:0.8;"/>
     </g>
     <g id="text_1">
      <!-- 0 -->
      <g style="fill:#262626;" transform="translate(110.909886 395.637812)scale(0.14 -0.14)">
       <defs>
        <path d="M 2034 4250 
Q 1547 4250 1301 3770 
Q 1056 3291 1056 2328 
Q 1056 1369 1301 889 
Q 1547 409 2034 409 
Q 2525 409 2770 889 
Q 3016 1369 3016 2328 
Q 3016 3291 2770 3770 
Q 2525 4250 2034 4250 
z
M 2034 4750 
Q 2819 4750 3233 4129 
Q 3647 3509 3647 2328 
Q 3647 1150 3233 529 
Q 2819 -91 2034 -91 
Q 1250 -91 836 529 
Q 422 1150 422 2328 
Q 422 3509 836 4129 
Q 1250 4750 2034 4750 
z
" id="DejaVuSans-30" transform="scale(0.015625)"/>
       </defs>
       <use xlink:href="#DejaVuSans-30"/>
      </g>
     </g>
    </g>
    <g id="xtick_2">
     <g id="line2d_2">
      <path clip-path="url(#p6aae3e2d0d)" d="M 178.804448 378 
L 178.804448 51.84 
" style="fill:none;stroke:#ffffff;stroke-linecap:round;stroke-width:0.8;"/>
     </g>
     <g id="text_2">
      <!-- 250 -->
      <g style="fill:#262626;" transform="translate(165.443198 395.637812)scale(0.14 -0.14)">
       <defs>
        <path d="M 1228 531 
L 3431 531 
L 3431 0 
L 469 0 
L 469 531 
Q 828 903 1448 1529 
Q 2069 2156 2228 2338 
Q 2531 2678 2651 2914 
Q 2772 3150 2772 3378 
Q 2772 3750 2511 3984 
Q 2250 4219 1831 4219 
Q 1534 4219 1204 4116 
Q 875 4013 500 3803 
L 500 4441 
Q 881 4594 1212 4672 
Q 1544 4750 1819 4750 
Q 2544 4750 2975 4387 
Q 3406 4025 3406 3419 
Q 3406 3131 3298 2873 
Q 3191 2616 2906 2266 
Q 2828 2175 2409 1742 
Q 1991 1309 1228 531 
z
" id="DejaVuSans-32" transform="scale(0.015625)"/>
        <path d="M 691 4666 
L 3169 4666 
L 3169 4134 
L 1269 4134 
L 1269 2991 
Q 1406 3038 1543 3061 
Q 1681 3084 1819 3084 
Q 2600 3084 3056 2656 
Q 3513 2228 3513 1497 
Q 3513 744 3044 326 
Q 2575 -91 1722 -91 
Q 1428 -91 1123 -41 
Q 819 9 494 109 
L 494 744 
Q 775 591 1075 516 
Q 1375 441 1709 441 
Q 2250 441 2565 725 
Q 2881 1009 2881 1497 
Q 2881 1984 2565 2268 
Q 2250 2553 1709 2553 
Q 1456 2553 1204 2497 
Q 953 2441 691 2322 
L 691 4666 
z
" id="DejaVuSans-35" transform="scale(0.015625)"/>
       </defs>
       <use xlink:href="#DejaVuSans-32"/>
       <use x="63.623047" xlink:href="#DejaVuSans-35"/>
       <use x="127.246094" xlink:href="#DejaVuSans-30"/>
      </g>
     </g>
    </g>
    <g id="xtick_3">
     <g id="line2d_3">
      <path clip-path="url(#p6aae3e2d0d)" d="M 242.245259 378 
L 242.245259 51.84 
" style="fill:none;stroke:#ffffff;stroke-linecap:round;stroke-width:0.8;"/>
     </g>
     <g id="text_3">
      <!-- 500 -->
      <g style="fill:#262626;" transform="translate(228.884009 395.637812)scale(0.14 -0.14)">
       <use xlink:href="#DejaVuSans-35"/>
       <use x="63.623047" xlink:href="#DejaVuSans-30"/>
       <use x="127.246094" xlink:href="#DejaVuSans-30"/>
      </g>
     </g>
    </g>
    <g id="xtick_4">
     <g id="line2d_4">
      <path clip-path="url(#p6aae3e2d0d)" d="M 305.68607 378 
L 305.68607 51.84 
" style="fill:none;stroke:#ffffff;stroke-linecap:round;stroke-width:0.8;"/>
     </g>
     <g id="text_4">
      <!-- 750 -->
      <g style="fill:#262626;" transform="translate(292.32482 395.637812)scale(0.14 -0.14)">
       <defs>
        <path d="M 525 4666 
L 3525 4666 
L 3525 4397 
L 1831 0 
L 1172 0 
L 2766 4134 
L 525 4134 
L 525 4666 
z
" id="DejaVuSans-37" transform="scale(0.015625)"/>
       </defs>
       <use xlink:href="#DejaVuSans-37"/>
       <use x="63.623047" xlink:href="#DejaVuSans-35"/>
       <use x="127.246094" xlink:href="#DejaVuSans-30"/>
      </g>
     </g>
    </g>
    <g id="xtick_5">
     <g id="line2d_5">
      <path clip-path="url(#p6aae3e2d0d)" d="M 369.126882 378 
L 369.126882 51.84 
" style="fill:none;stroke:#ffffff;stroke-linecap:round;stroke-width:0.8;"/>
     </g>
     <g id="text_5">
      <!-- 1000 -->
      <g style="fill:#262626;" transform="translate(351.311882 395.637812)scale(0.14 -0.14)">
       <defs>
        <path d="M 794 531 
L 1825 531 
L 1825 4091 
L 703 3866 
L 703 4441 
L 1819 4666 
L 2450 4666 
L 2450 531 
L 3481 531 
L 3481 0 
L 794 0 
L 794 531 
z
" id="DejaVuSans-31" transform="scale(0.015625)"/>
       </defs>
       <use xlink:href="#DejaVuSans-31"/>
       <use x="63.623047" xlink:href="#DejaVuSans-30"/>
       <use x="127.246094" xlink:href="#DejaVuSans-30"/>
       <use x="190.869141" xlink:href="#DejaVuSans-30"/>
      </g>
     </g>
    </g>
    <g id="xtick_6">
     <g id="line2d_6">
      <path clip-path="url(#p6aae3e2d0d)" d="M 432.567693 378 
L 432.567693 51.84 
" style="fill:none;stroke:#ffffff;stroke-linecap:round;stroke-width:0.8;"/>
     </g>
     <g id="text_6">
      <!-- 1250 -->
      <g style="fill:#262626;" transform="translate(414.752693 395.637812)scale(0.14 -0.14)">
       <use xlink:href="#DejaVuSans-31"/>
       <use x="63.623047" xlink:href="#DejaVuSans-32"/>
       <use x="127.246094" xlink:href="#DejaVuSans-35"/>
       <use x="190.869141" xlink:href="#DejaVuSans-30"/>
      </g>
     </g>
    </g>
    <g id="xtick_7">
     <g id="line2d_7">
      <path clip-path="url(#p6aae3e2d0d)" d="M 496.008504 378 
L 496.008504 51.84 
" style="fill:none;stroke:#ffffff;stroke-linecap:round;stroke-width:0.8;"/>
     </g>
     <g id="text_7">
      <!-- 1500 -->
      <g style="fill:#262626;" transform="translate(478.193504 395.637812)scale(0.14 -0.14)">
       <use xlink:href="#DejaVuSans-31"/>
       <use x="63.623047" xlink:href="#DejaVuSans-35"/>
       <use x="127.246094" xlink:href="#DejaVuSans-30"/>
       <use x="190.869141" xlink:href="#DejaVuSans-30"/>
      </g>
     </g>
    </g>
    <g id="xtick_8">
     <g id="line2d_8">
      <path clip-path="url(#p6aae3e2d0d)" d="M 559.449316 378 
L 559.449316 51.84 
" style="fill:none;stroke:#ffffff;stroke-linecap:round;stroke-width:0.8;"/>
     </g>
     <g id="text_8">
      <!-- 1750 -->
      <g style="fill:#262626;" transform="translate(541.634316 395.637812)scale(0.14 -0.14)">
       <use xlink:href="#DejaVuSans-31"/>
       <use x="63.623047" xlink:href="#DejaVuSans-37"/>
       <use x="127.246094" xlink:href="#DejaVuSans-35"/>
       <use x="190.869141" xlink:href="#DejaVuSans-30"/>
      </g>
     </g>
    </g>
    <g id="xtick_9">
     <g id="line2d_9">
      <path clip-path="url(#p6aae3e2d0d)" d="M 622.890127 378 
L 622.890127 51.84 
" style="fill:none;stroke:#ffffff;stroke-linecap:round;stroke-width:0.8;"/>
     </g>
     <g id="text_9">
      <!-- 2000 -->
      <g style="fill:#262626;" transform="translate(605.075127 395.637812)scale(0.14 -0.14)">
       <use xlink:href="#DejaVuSans-32"/>
       <use x="63.623047" xlink:href="#DejaVuSans-30"/>
       <use x="127.246094" xlink:href="#DejaVuSans-30"/>
       <use x="190.869141" xlink:href="#DejaVuSans-30"/>
      </g>
     </g>
    </g>
    <g id="text_10">
     <!-- Номер итерации -->
     <g style="fill:#262626;" transform="translate(307.666875 413.187187)scale(0.14 -0.14)">
      <defs>
       <path d="M 628 4666 
L 1259 4666 
L 1259 2753 
L 3553 2753 
L 3553 4666 
L 4184 4666 
L 4184 0 
L 3553 0 
L 3553 2222 
L 1259 2222 
L 1259 0 
L 628 0 
L 628 4666 
z
" id="DejaVuSans-41d" transform="scale(0.015625)"/>
       <path d="M 1959 3097 
Q 1497 3097 1228 2736 
Q 959 2375 959 1747 
Q 959 1119 1226 758 
Q 1494 397 1959 397 
Q 2419 397 2687 759 
Q 2956 1122 2956 1747 
Q 2956 2369 2687 2733 
Q 2419 3097 1959 3097 
z
M 1959 3584 
Q 2709 3584 3137 3096 
Q 3566 2609 3566 1747 
Q 3566 888 3137 398 
Q 2709 -91 1959 -91 
Q 1206 -91 779 398 
Q 353 888 353 1747 
Q 353 2609 779 3096 
Q 1206 3584 1959 3584 
z
" id="DejaVuSans-43e" transform="scale(0.015625)"/>
       <path d="M 581 3500 
L 1422 3500 
L 2416 1156 
L 3413 3500 
L 4247 3500 
L 4247 0 
L 3669 0 
L 3669 2950 
L 2703 672 
L 2128 672 
L 1159 2950 
L 1159 0 
L 581 0 
L 581 3500 
z
" id="DejaVuSans-43c" transform="scale(0.015625)"/>
       <path d="M 3597 1894 
L 3597 1613 
L 953 1613 
Q 991 1019 1311 708 
Q 1631 397 2203 397 
Q 2534 397 2845 478 
Q 3156 559 3463 722 
L 3463 178 
Q 3153 47 2828 -22 
Q 2503 -91 2169 -91 
Q 1331 -91 842 396 
Q 353 884 353 1716 
Q 353 2575 817 3079 
Q 1281 3584 2069 3584 
Q 2775 3584 3186 3129 
Q 3597 2675 3597 1894 
z
M 3022 2063 
Q 3016 2534 2758 2815 
Q 2500 3097 2075 3097 
Q 1594 3097 1305 2825 
Q 1016 2553 972 2059 
L 3022 2063 
z
" id="DejaVuSans-435" transform="scale(0.015625)"/>
       <path d="M 1159 525 
L 1159 -1331 
L 581 -1331 
L 581 3500 
L 1159 3500 
L 1159 2969 
Q 1341 3281 1617 3432 
Q 1894 3584 2278 3584 
Q 2916 3584 3314 3078 
Q 3713 2572 3713 1747 
Q 3713 922 3314 415 
Q 2916 -91 2278 -91 
Q 1894 -91 1617 61 
Q 1341 213 1159 525 
z
M 3116 1747 
Q 3116 2381 2855 2742 
Q 2594 3103 2138 3103 
Q 1681 3103 1420 2742 
Q 1159 2381 1159 1747 
Q 1159 1113 1420 752 
Q 1681 391 2138 391 
Q 2594 391 2855 752 
Q 3116 1113 3116 1747 
z
" id="DejaVuSans-440" transform="scale(0.015625)"/>
       <path id="DejaVuSans-20" transform="scale(0.015625)"/>
       <path d="M 3578 3500 
L 3578 0 
L 3006 0 
L 3006 2809 
L 1319 0 
L 581 0 
L 581 3500 
L 1153 3500 
L 1153 697 
L 2838 3500 
L 3578 3500 
z
" id="DejaVuSans-438" transform="scale(0.015625)"/>
       <path d="M 188 3500 
L 3541 3500 
L 3541 3041 
L 2147 3041 
L 2147 0 
L 1581 0 
L 1581 3041 
L 188 3041 
L 188 3500 
z
" id="DejaVuSans-442" transform="scale(0.015625)"/>
       <path d="M 2194 1759 
Q 1497 1759 1228 1600 
Q 959 1441 959 1056 
Q 959 750 1161 570 
Q 1363 391 1709 391 
Q 2188 391 2477 730 
Q 2766 1069 2766 1631 
L 2766 1759 
L 2194 1759 
z
M 3341 1997 
L 3341 0 
L 2766 0 
L 2766 531 
Q 2569 213 2275 61 
Q 1981 -91 1556 -91 
Q 1019 -91 701 211 
Q 384 513 384 1019 
Q 384 1609 779 1909 
Q 1175 2209 1959 2209 
L 2766 2209 
L 2766 2266 
Q 2766 2663 2505 2880 
Q 2244 3097 1772 3097 
Q 1472 3097 1187 3025 
Q 903 2953 641 2809 
L 641 3341 
Q 956 3463 1253 3523 
Q 1550 3584 1831 3584 
Q 2591 3584 2966 3190 
Q 3341 2797 3341 1997 
z
" id="DejaVuSans-430" transform="scale(0.015625)"/>
       <path d="M 3603 0 
L 581 0 
L 581 3500 
L 1159 3500 
L 1159 459 
L 3025 459 
L 3025 3500 
L 3603 3500 
L 3603 459 
L 4063 459 
L 4063 -884 
L 3603 -884 
L 3603 0 
z
" id="DejaVuSans-446" transform="scale(0.015625)"/>
      </defs>
      <use xlink:href="#DejaVuSans-41d"/>
      <use x="75.195312" xlink:href="#DejaVuSans-43e"/>
      <use x="136.376953" xlink:href="#DejaVuSans-43c"/>
      <use x="211.816406" xlink:href="#DejaVuSans-435"/>
      <use x="273.339844" xlink:href="#DejaVuSans-440"/>
      <use x="336.816406" xlink:href="#DejaVuSans-20"/>
      <use x="368.603516" xlink:href="#DejaVuSans-438"/>
      <use x="433.59375" xlink:href="#DejaVuSans-442"/>
      <use x="491.845703" xlink:href="#DejaVuSans-435"/>
      <use x="553.369141" xlink:href="#DejaVuSans-440"/>
      <use x="616.845703" xlink:href="#DejaVuSans-430"/>
      <use x="678.125" xlink:href="#DejaVuSans-446"/>
      <use x="746.191406" xlink:href="#DejaVuSans-438"/>
      <use x="811.181641" xlink:href="#DejaVuSans-438"/>
     </g>
    </g>
   </g>
   <g id="matplotlib.axis_2">
    <g id="ytick_1">
     <g id="line2d_10">
      <path clip-path="url(#p6aae3e2d0d)" d="M 90 363.249662 
L 648 363.249662 
" style="fill:none;stroke:#ffffff;stroke-linecap:round;stroke-width:0.8;"/>
     </g>
     <g id="text_11">
      <!-- 0 -->
      <g style="fill:#262626;" transform="translate(74.0925 368.568569)scale(0.14 -0.14)">
       <use xlink:href="#DejaVuSans-30"/>
      </g>
     </g>
    </g>
    <g id="ytick_2">
     <g id="line2d_11">
      <path clip-path="url(#p6aae3e2d0d)" d="M 90 300.645302 
L 648 300.645302 
" style="fill:none;stroke:#ffffff;stroke-linecap:round;stroke-width:0.8;"/>
     </g>
     <g id="text_12">
      <!-- 10 -->
      <g style="fill:#262626;" transform="translate(65.185 305.964208)scale(0.14 -0.14)">
       <use xlink:href="#DejaVuSans-31"/>
       <use x="63.623047" xlink:href="#DejaVuSans-30"/>
      </g>
     </g>
    </g>
    <g id="ytick_3">
     <g id="line2d_12">
      <path clip-path="url(#p6aae3e2d0d)" d="M 90 238.040942 
L 648 238.040942 
" style="fill:none;stroke:#ffffff;stroke-linecap:round;stroke-width:0.8;"/>
     </g>
     <g id="text_13">
      <!-- 20 -->
      <g style="fill:#262626;" transform="translate(65.185 243.359848)scale(0.14 -0.14)">
       <use xlink:href="#DejaVuSans-32"/>
       <use x="63.623047" xlink:href="#DejaVuSans-30"/>
      </g>
     </g>
    </g>
    <g id="ytick_4">
     <g id="line2d_13">
      <path clip-path="url(#p6aae3e2d0d)" d="M 90 175.436581 
L 648 175.436581 
" style="fill:none;stroke:#ffffff;stroke-linecap:round;stroke-width:0.8;"/>
     </g>
     <g id="text_14">
      <!-- 30 -->
      <g style="fill:#262626;" transform="translate(65.185 180.755487)scale(0.14 -0.14)">
       <defs>
        <path d="M 2597 2516 
Q 3050 2419 3304 2112 
Q 3559 1806 3559 1356 
Q 3559 666 3084 287 
Q 2609 -91 1734 -91 
Q 1441 -91 1130 -33 
Q 819 25 488 141 
L 488 750 
Q 750 597 1062 519 
Q 1375 441 1716 441 
Q 2309 441 2620 675 
Q 2931 909 2931 1356 
Q 2931 1769 2642 2001 
Q 2353 2234 1838 2234 
L 1294 2234 
L 1294 2753 
L 1863 2753 
Q 2328 2753 2575 2939 
Q 2822 3125 2822 3475 
Q 2822 3834 2567 4026 
Q 2313 4219 1838 4219 
Q 1578 4219 1281 4162 
Q 984 4106 628 3988 
L 628 4550 
Q 988 4650 1302 4700 
Q 1616 4750 1894 4750 
Q 2613 4750 3031 4423 
Q 3450 4097 3450 3541 
Q 3450 3153 3228 2886 
Q 3006 2619 2597 2516 
z
" id="DejaVuSans-33" transform="scale(0.015625)"/>
       </defs>
       <use xlink:href="#DejaVuSans-33"/>
       <use x="63.623047" xlink:href="#DejaVuSans-30"/>
      </g>
     </g>
    </g>
    <g id="ytick_5">
     <g id="line2d_14">
      <path clip-path="url(#p6aae3e2d0d)" d="M 90 112.832221 
L 648 112.832221 
" style="fill:none;stroke:#ffffff;stroke-linecap:round;stroke-width:0.8;"/>
     </g>
     <g id="text_15">
      <!-- 40 -->
      <g style="fill:#262626;" transform="translate(65.185 118.151127)scale(0.14 -0.14)">
       <defs>
        <path d="M 2419 4116 
L 825 1625 
L 2419 1625 
L 2419 4116 
z
M 2253 4666 
L 3047 4666 
L 3047 1625 
L 3713 1625 
L 3713 1100 
L 3047 1100 
L 3047 0 
L 2419 0 
L 2419 1100 
L 313 1100 
L 313 1709 
L 2253 4666 
z
" id="DejaVuSans-34" transform="scale(0.015625)"/>
       </defs>
       <use xlink:href="#DejaVuSans-34"/>
       <use x="63.623047" xlink:href="#DejaVuSans-30"/>
      </g>
     </g>
    </g>
    <g id="text_16">
     <!-- Время обучения, с -->
     <g style="fill:#262626;" transform="translate(58.273438 283.010312)rotate(-90)scale(0.14 -0.14)">
      <defs>
       <path d="M 1259 2228 
L 1259 519 
L 2272 519 
Q 2781 519 3026 730 
Q 3272 941 3272 1375 
Q 3272 1813 3026 2020 
Q 2781 2228 2272 2228 
L 1259 2228 
z
M 1259 4147 
L 1259 2741 
L 2194 2741 
Q 2656 2741 2882 2914 
Q 3109 3088 3109 3444 
Q 3109 3797 2882 3972 
Q 2656 4147 2194 4147 
L 1259 4147 
z
M 628 4666 
L 2241 4666 
Q 2963 4666 3353 4366 
Q 3744 4066 3744 3513 
Q 3744 3084 3544 2831 
Q 3344 2578 2956 2516 
Q 3422 2416 3680 2098 
Q 3938 1781 3938 1306 
Q 3938 681 3513 340 
Q 3088 0 2303 0 
L 628 0 
L 628 4666 
z
" id="DejaVuSans-412" transform="scale(0.015625)"/>
       <path d="M 1181 2491 
Q 1181 2231 1381 2084 
Q 1581 1938 1953 1938 
L 2728 1938 
L 2728 3041 
L 1953 3041 
Q 1581 3041 1381 2897 
Q 1181 2753 1181 2491 
z
M 363 0 
L 1431 1534 
Q 1069 1616 828 1830 
Q 588 2044 588 2491 
Q 588 2997 923 3248 
Q 1259 3500 1938 3500 
L 3306 3500 
L 3306 0 
L 2728 0 
L 2728 1478 
L 2013 1478 
L 981 0 
L 363 0 
z
" id="DejaVuSans-44f" transform="scale(0.015625)"/>
       <path d="M 1991 3584 
Q 2741 3584 3169 3096 
Q 3597 2609 3597 1747 
Q 3597 888 3169 398 
Q 2741 -91 1991 -91 
Q 1238 -91 822 384 
Q 406 859 384 1747 
L 366 2463 
Q 350 2834 350 2963 
Q 350 3463 531 3831 
Q 816 4409 1308 4659 
Q 1800 4909 2625 4916 
Q 3006 4919 3175 4972 
L 3334 4516 
Q 3181 4453 3041 4450 
L 2259 4397 
Q 1866 4369 1628 4231 
Q 1006 3866 947 3388 
L 925 3213 
Q 1331 3584 1991 3584 
z
M 1991 3097 
Q 1528 3097 1259 2736 
Q 991 2375 991 1747 
Q 991 1119 1258 758 
Q 1525 397 1991 397 
Q 2450 397 2719 759 
Q 2988 1122 2988 1747 
Q 2988 2369 2719 2733 
Q 2450 3097 1991 3097 
z
" id="DejaVuSans-431" transform="scale(0.015625)"/>
       <path d="M 2059 -325 
Q 1816 -950 1584 -1140 
Q 1353 -1331 966 -1331 
L 506 -1331 
L 506 -850 
L 844 -850 
Q 1081 -850 1212 -737 
Q 1344 -625 1503 -206 
L 1606 56 
L 191 3500 
L 800 3500 
L 1894 763 
L 2988 3500 
L 3597 3500 
L 2059 -325 
z
" id="DejaVuSans-443" transform="scale(0.015625)"/>
       <path d="M 2625 0 
L 2625 1472 
L 1553 1472 
Q 1075 1472 756 1769 
Q 469 2038 469 2613 
L 469 3500 
L 1044 3500 
L 1044 2666 
Q 1044 2300 1206 2116 
Q 1372 1931 1697 1931 
L 2625 1931 
L 2625 3500 
L 3200 3500 
L 3200 0 
L 2625 0 
z
" id="DejaVuSans-447" transform="scale(0.015625)"/>
       <path d="M 581 3500 
L 1159 3500 
L 1159 2072 
L 3025 2072 
L 3025 3500 
L 3603 3500 
L 3603 0 
L 3025 0 
L 3025 1613 
L 1159 1613 
L 1159 0 
L 581 0 
L 581 3500 
z
" id="DejaVuSans-43d" transform="scale(0.015625)"/>
       <path d="M 750 794 
L 1409 794 
L 1409 256 
L 897 -744 
L 494 -744 
L 750 256 
L 750 794 
z
" id="DejaVuSans-2c" transform="scale(0.015625)"/>
       <path d="M 3122 3366 
L 3122 2828 
Q 2878 2963 2633 3030 
Q 2388 3097 2138 3097 
Q 1578 3097 1268 2742 
Q 959 2388 959 1747 
Q 959 1106 1268 751 
Q 1578 397 2138 397 
Q 2388 397 2633 464 
Q 2878 531 3122 666 
L 3122 134 
Q 2881 22 2623 -34 
Q 2366 -91 2075 -91 
Q 1284 -91 818 406 
Q 353 903 353 1747 
Q 353 2603 823 3093 
Q 1294 3584 2113 3584 
Q 2378 3584 2631 3529 
Q 2884 3475 3122 3366 
z
" id="DejaVuSans-441" transform="scale(0.015625)"/>
      </defs>
      <use xlink:href="#DejaVuSans-412"/>
      <use x="68.603516" xlink:href="#DejaVuSans-440"/>
      <use x="132.080078" xlink:href="#DejaVuSans-435"/>
      <use x="193.603516" xlink:href="#DejaVuSans-43c"/>
      <use x="269.042969" xlink:href="#DejaVuSans-44f"/>
      <use x="329.199219" xlink:href="#DejaVuSans-20"/>
      <use x="360.986328" xlink:href="#DejaVuSans-43e"/>
      <use x="422.167969" xlink:href="#DejaVuSans-431"/>
      <use x="483.837891" xlink:href="#DejaVuSans-443"/>
      <use x="543.017578" xlink:href="#DejaVuSans-447"/>
      <use x="602.099609" xlink:href="#DejaVuSans-435"/>
      <use x="663.623047" xlink:href="#DejaVuSans-43d"/>
      <use x="729.003906" xlink:href="#DejaVuSans-438"/>
      <use x="793.994141" xlink:href="#DejaVuSans-44f"/>
      <use x="854.150391" xlink:href="#DejaVuSans-2c"/>
      <use x="885.9375" xlink:href="#DejaVuSans-20"/>
      <use x="917.724609" xlink:href="#DejaVuSans-441"/>
     </g>
    </g>
   </g>
   <g id="line2d_15">
    <path clip-path="url(#p6aae3e2d0d)" d="M 115.363636 363.125503 
L 116.124926 362.626219 
L 117.901269 361.734402 
L 119.931375 360.615738 
L 120.692665 360.261934 
L 121.453954 359.884217 
L 122.976534 359.191762 
L 123.48406 358.935748 
L 125.260403 358.023144 
L 126.529219 357.35099 
L 128.051799 356.486538 
L 131.858247 354.302855 
L 132.8733 353.656374 
L 133.888353 352.903498 
L 135.157169 352.255626 
L 135.664696 351.959259 
L 137.441039 351.122968 
L 138.709855 350.49782 
L 142.26254 348.44568 
L 143.02383 347.924648 
L 144.800173 347.012882 
L 145.561463 346.681127 
L 146.322752 346.22161 
L 146.830279 345.925342 
L 148.606621 345.035883 
L 150.382964 344.129527 
L 152.41307 342.946277 
L 152.920597 342.688286 
L 153.93565 342.016267 
L 154.696939 341.6232 
L 156.980809 340.343512 
L 157.742098 340.019832 
L 158.757151 339.423789 
L 160.533494 338.568616 
L 162.056073 337.896531 
L 163.071126 337.395006 
L 169.161444 334.216351 
L 170.176497 333.714228 
L 173.729183 331.827568 
L 174.744236 331.313325 
L 175.759289 330.61912 
L 178.296921 329.364109 
L 184.894766 325.741437 
L 186.671108 324.424213 
L 187.432398 324.103218 
L 188.701214 323.502863 
L 189.462504 323.101375 
L 192.000136 321.79774 
L 193.522716 321.01385 
L 195.806585 319.721571 
L 197.582928 318.737821 
L 198.597981 318.195891 
L 200.88185 316.67244 
L 203.165719 315.259717 
L 207.733458 312.571765 
L 208.240984 312.325433 
L 209.002274 311.909331 
L 209.763564 311.585449 
L 212.808723 309.750915 
L 215.600118 308.100571 
L 216.615171 307.539238 
L 217.376461 306.906075 
L 218.645277 306.11319 
L 219.66033 305.408905 
L 220.42162 304.723089 
L 220.929146 304.494163 
L 221.436673 304.1742 
L 233.871072 296.866823 
L 235.901178 295.325596 
L 236.408704 295.00365 
L 236.916231 294.552935 
L 237.931284 293.798431 
L 241.737733 291.17272 
L 242.752785 290.546383 
L 243.514075 290.064972 
L 244.021602 289.752586 
L 245.036655 289.066705 
L 247.82805 287.198829 
L 250.11192 285.845034 
L 251.380736 285.043514 
L 252.142026 284.700458 
L 253.410842 283.978995 
L 253.918368 283.577201 
L 254.933421 282.904714 
L 256.709764 281.799651 
L 257.471054 281.41988 
L 258.486107 280.926061 
L 259.50116 280.37424 
L 260.769976 279.725565 
L 261.277502 279.35898 
L 261.785029 279.075236 
L 263.561372 278.193916 
L 271.935559 273.807323 
L 273.204375 273.079382 
L 274.726954 272.426593 
L 278.025877 270.637229 
L 279.294693 269.934617 
L 279.802219 269.650185 
L 280.817272 269.098773 
L 284.877484 267.248705 
L 287.66888 265.704178 
L 290.714039 264.122986 
L 291.221565 263.843596 
L 292.490382 263.280796 
L 298.834463 259.953075 
L 299.341989 259.65029 
L 299.849516 259.428046 
L 317.105416 250.976177 
L 318.627996 250.20228 
L 321.165628 249.097323 
L 321.926918 248.719768 
L 323.449497 247.967444 
L 324.718314 247.345451 
L 325.733367 246.772012 
L 333.600027 242.68126 
L 334.107554 242.415786 
L 335.122607 241.759302 
L 336.391423 241.052044 
L 337.152713 240.73578 
L 337.914002 240.251802 
L 338.929055 239.882035 
L 340.705398 239.01489 
L 341.466688 238.40172 
L 344.00432 237.047575 
L 357.453772 229.907096 
L 358.215062 229.514976 
L 360.752695 228.306936 
L 363.036564 227.11847 
L 364.051617 226.589906 
L 366.335486 225.423334 
L 370.649461 223.302085 
L 371.664514 222.882357 
L 374.709673 221.529774 
L 375.724726 220.941761 
L 376.232252 220.628622 
L 376.993542 220.252721 
L 380.292464 218.518467 
L 380.799991 218.304662 
L 381.815044 217.781945 
L 389.174178 214.026391 
L 390.189231 213.490149 
L 391.204284 213.0865 
L 392.726863 212.230617 
L 394.249443 211.428076 
L 400.339761 208.092807 
L 401.354814 207.543157 
L 402.369867 207.007257 
L 404.399973 206.0328 
L 405.668789 205.342652 
L 406.430079 204.8314 
L 406.937605 204.547668 
L 407.952658 204.220248 
L 408.713948 203.730498 
L 409.982764 203.178532 
L 418.864478 198.446485 
L 420.133294 197.806986 
L 422.670926 196.461775 
L 424.954796 195.385452 
L 426.477375 194.426418 
L 429.268771 193.058212 
L 430.283824 192.615303 
L 443.987039 185.59432 
L 444.748329 185.157489 
L 447.285961 183.782736 
L 449.316067 182.823902 
L 451.09241 181.887568 
L 453.122516 180.79808 
L 454.137569 180.24327 
L 471.900996 171.039672 
L 475.199918 169.377672 
L 476.214971 168.733192 
L 478.49884 167.64027 
L 487.88808 162.654478 
L 488.903133 162.247593 
L 490.679476 161.260071 
L 492.963345 160.15319 
L 493.978398 159.694793 
L 496.262267 158.584182 
L 497.023557 158.196535 
L 498.292373 157.528184 
L 502.860112 155.097099 
L 503.875165 154.461342 
L 506.666561 152.642644 
L 507.681614 152.06483 
L 508.18914 151.763034 
L 509.204193 151.147592 
L 510.219246 150.636275 
L 510.726772 150.202252 
L 516.055801 146.995476 
L 516.81709 146.433177 
L 517.324617 146.190269 
L 517.832143 145.882869 
L 519.10096 145.173051 
L 521.638592 143.79196 
L 522.653645 143.307016 
L 528.4902 140.316927 
L 529.759016 139.73721 
L 530.520306 139.298775 
L 531.535359 138.811325 
L 535.595571 136.80556 
L 536.35686 136.280449 
L 537.87944 135.561469 
L 542.193415 133.253031 
L 543.969758 132.257806 
L 544.731047 131.861818 
L 548.283733 130.200734 
L 550.821365 128.882715 
L 551.582655 128.495752 
L 553.358998 127.523978 
L 554.627814 126.69995 
L 557.926736 124.764599 
L 559.449316 123.990247 
L 562.748238 122.20108 
L 563.509527 121.864417 
L 570.107372 117.600615 
L 570.614898 117.273417 
L 572.391241 116.303929 
L 575.690163 114.245984 
L 576.958979 113.631431 
L 577.974032 113.137397 
L 578.481559 112.874315 
L 579.242849 112.364863 
L 581.526718 111.158592 
L 582.288008 110.718516 
L 584.571877 109.404264 
L 590.662195 105.704141 
L 592.946064 104.520388 
L 594.722407 103.531262 
L 596.244986 102.754296 
L 596.752513 102.36521 
L 597.260039 102.063102 
L 600.305198 100.393818 
L 603.096594 98.348358 
L 604.619173 97.626842 
L 606.141753 96.66799 
L 608.171859 95.629894 
L 609.440675 94.792528 
L 614.51594 91.988546 
L 615.530993 91.419595 
L 617.307335 90.454572 
L 620.860021 88.597031 
L 622.636364 87.533201 
L 622.636364 87.533201 
" style="fill:none;stroke:#1f77b4;stroke-linecap:round;stroke-width:1.5;"/>
   </g>
   <g id="line2d_16">
    <path clip-path="url(#p6aae3e2d0d)" d="M 115.363636 363.10055 
L 120.946428 359.713323 
L 121.961481 359.21486 
L 122.976534 358.656955 
L 123.991587 358.134328 
L 124.752876 357.74755 
L 125.514166 357.282699 
L 128.305562 355.73155 
L 129.066852 355.321432 
L 131.350721 354.262931 
L 132.112011 353.906025 
L 132.8733 353.43768 
L 134.903406 352.411479 
L 135.918459 351.846169 
L 137.187275 351.225604 
L 139.978671 349.817991 
L 141.501251 349.14138 
L 142.516304 348.505993 
L 144.038883 347.641846 
L 144.800173 347.260896 
L 147.337805 345.93781 
L 148.860385 345.201178 
L 151.144254 343.997949 
L 152.159307 343.518513 
L 154.443176 342.423988 
L 155.711992 341.807839 
L 161.80231 338.598657 
L 163.32489 337.900645 
L 164.847469 336.998822 
L 166.370049 336.303807 
L 169.415208 334.787157 
L 171.445314 333.602726 
L 173.221656 332.89149 
L 174.236709 332.49443 
L 177.028105 331.010153 
L 181.34208 328.61606 
L 187.939925 325.452474 
L 188.447451 325.076405 
L 189.97003 324.400384 
L 190.985083 323.828352 
L 193.015189 322.93197 
L 194.284006 322.13402 
L 202.911956 317.645218 
L 203.673246 317.194217 
L 204.688299 316.652721 
L 205.195825 316.330297 
L 206.464641 315.67038 
L 207.225931 315.202843 
L 214.838829 311.360056 
L 215.346355 311.026966 
L 216.868934 310.338302 
L 220.675383 308.125148 
L 224.989358 305.699293 
L 225.496885 305.501638 
L 226.765701 304.865175 
L 228.795807 303.921356 
L 230.825913 302.863722 
L 231.840966 302.355841 
L 234.378598 301.074672 
L 237.169994 299.689392 
L 237.677521 299.324343 
L 238.185047 299.126701 
L 239.2001 298.532774 
L 240.215153 297.968234 
L 241.991496 296.958684 
L 243.260312 296.277752 
L 244.782891 295.46075 
L 249.35063 293.181927 
L 249.858156 292.893057 
L 256.963527 289.201959 
L 258.232343 288.522124 
L 262.546319 286.35986 
L 263.053845 285.988891 
L 263.561372 285.753543 
L 266.099004 284.519562 
L 271.681795 281.532863 
L 272.696848 281.058089 
L 273.458138 280.681071 
L 273.965665 280.468806 
L 274.980718 279.991725 
L 275.995771 279.491386 
L 276.75706 279.032825 
L 277.51835 278.648557 
L 278.27964 278.275739 
L 282.847378 275.889336 
L 283.354905 275.704006 
L 284.877484 274.906713 
L 285.638774 274.562329 
L 286.400064 274.070825 
L 287.922643 273.397405 
L 289.445223 272.503207 
L 289.952749 272.30038 
L 290.460276 271.988319 
L 291.475329 271.53099 
L 293.251671 270.488636 
L 295.028014 269.598979 
L 299.849516 266.970932 
L 300.357042 266.730663 
L 306.44736 263.348224 
L 307.20865 262.910557 
L 308.731229 262.103915 
L 310.253809 261.357792 
L 317.35918 257.828777 
L 318.120469 257.480551 
L 318.627996 257.252976 
L 319.135522 257.039058 
L 319.896812 256.598008 
L 331.569921 250.779953 
L 332.584974 250.189139 
L 334.868844 249.043526 
L 335.37637 248.818859 
L 337.152713 247.738611 
L 338.675292 246.99627 
L 344.00432 244.252225 
L 345.780663 243.407523 
L 347.557006 242.386687 
L 348.064532 242.155511 
L 350.094638 241.02013 
L 358.976352 236.53675 
L 359.483878 236.223991 
L 359.991405 236.02965 
L 361.513984 235.230736 
L 363.036564 234.489142 
L 363.797853 234.120293 
L 365.827959 233.06723 
L 366.589249 232.737447 
L 368.365592 231.918673 
L 369.380645 231.481168 
L 373.69462 229.218909 
L 374.709673 228.690519 
L 376.993542 227.424853 
L 378.008595 226.930904 
L 378.769885 226.581553 
L 381.053754 225.436137 
L 387.144072 222.474094 
L 388.159125 221.995646 
L 389.935468 221.217874 
L 390.696757 220.936742 
L 392.4731 219.893493 
L 392.980627 219.642772 
L 394.249443 218.936461 
L 395.772022 218.109221 
L 396.787075 217.647176 
L 403.131156 214.311894 
L 403.892446 214.019275 
L 408.460185 211.719785 
L 412.01287 209.878865 
L 412.77416 209.489044 
L 416.834372 207.506359 
L 418.356951 206.684743 
L 419.625767 206.045078 
L 422.1634 204.719895 
L 422.92469 204.393714 
L 424.193506 203.640533 
L 425.208559 203.185023 
L 426.223612 202.563019 
L 427.238665 202.071527 
L 432.31393 199.203125 
L 432.821456 199.025962 
L 440.688117 194.855781 
L 441.70317 194.258093 
L 442.718223 193.679656 
L 443.987039 193.032939 
L 445.002092 192.546476 
L 452.614989 188.820438 
L 463.526809 183.254326 
L 464.288099 182.915803 
L 465.810678 182.195565 
L 469.617127 180.223391 
L 473.169812 178.474982 
L 474.184865 177.933905 
L 476.214971 176.87327 
L 478.49884 175.694787 
L 480.275183 174.841871 
L 482.812815 173.449561 
L 485.096685 172.301114 
L 486.873027 171.575532 
L 487.634317 171.103 
L 497.784847 166.15199 
L 498.546137 165.75476 
L 500.322479 164.880487 
L 501.083769 164.516641 
L 502.352585 163.912926 
L 503.875165 163.023841 
L 504.890218 162.418344 
L 505.905271 161.952745 
L 516.055801 156.925431 
L 517.324617 156.255533 
L 520.877302 154.567821 
L 522.146119 153.855736 
L 523.668698 153.116002 
L 525.191277 152.284443 
L 526.96762 151.434212 
L 529.759016 150.034863 
L 530.774069 149.58565 
L 532.296648 148.773645 
L 533.819228 148.129012 
L 534.326754 147.792382 
L 534.834281 147.513818 
L 535.595571 147.188856 
L 536.864387 146.598731 
L 538.133203 145.981035 
L 540.163309 144.899603 
L 541.939652 144.0745 
L 543.462231 143.201479 
L 544.223521 142.74967 
L 545.238574 142.179791 
L 553.358998 137.986889 
L 553.866524 137.808492 
L 554.627814 137.354843 
L 556.65792 136.4964 
L 558.180499 135.662234 
L 560.464369 134.509569 
L 562.494475 133.520686 
L 563.002001 133.172482 
L 584.318114 121.774019 
L 585.840693 120.941465 
L 586.855746 120.566583 
L 590.154668 118.803622 
L 590.662195 118.527354 
L 591.169721 118.224161 
L 593.707354 117.013029 
L 595.483696 116.184074 
L 598.275092 114.809835 
L 599.036382 114.342214 
L 602.589067 112.620296 
L 605.380463 111.237378 
L 606.395516 110.748163 
L 608.171859 109.857919 
L 609.186912 109.503813 
L 610.455728 108.817754 
L 612.739597 107.765622 
L 622.636364 102.555909 
L 622.636364 102.555909 
" style="fill:none;stroke:#ff7f0e;stroke-linecap:round;stroke-width:1.5;"/>
   </g>
   <g id="line2d_17">
    <path clip-path="url(#p6aae3e2d0d)" d="M 115.363636 363.174545 
L 116.886216 362.327051 
L 117.901269 361.78937 
L 122.976534 359.177415 
L 124.24535 358.557595 
L 125.00664 358.135021 
L 126.021693 357.547136 
L 127.798035 356.601557 
L 129.066852 356.015394 
L 130.081905 355.649038 
L 132.112011 354.569459 
L 135.664696 352.947669 
L 137.694802 352.10328 
L 139.978671 350.883784 
L 141.501251 349.949173 
L 142.26254 349.585848 
L 149.114148 346.254045 
L 152.159307 344.848222 
L 153.17436 344.323192 
L 155.204466 343.287661 
L 157.995862 341.735261 
L 160.533494 340.405712 
L 164.086179 338.573661 
L 166.116285 337.542081 
L 166.877575 337.107378 
L 168.400155 336.382788 
L 170.937787 334.997079 
L 180.073264 330.225154 
L 182.86466 328.807516 
L 183.625949 328.349771 
L 184.894766 327.813686 
L 188.954977 325.652036 
L 189.462504 325.411487 
L 190.73132 324.714955 
L 192.000136 324.049386 
L 193.522716 323.303433 
L 194.284006 322.890962 
L 197.075401 321.432652 
L 198.090454 320.940221 
L 201.896903 318.830585 
L 204.942062 317.214296 
L 207.733458 315.800094 
L 208.494747 315.400834 
L 219.152804 309.735823 
L 223.974305 307.319988 
L 224.989358 306.892881 
L 225.750648 306.488042 
L 226.511938 306.133181 
L 228.542044 305.133672 
L 238.185047 300.179654 
L 238.692574 299.863621 
L 239.96139 299.219454 
L 240.72268 298.824199 
L 241.991496 298.325844 
L 243.260312 297.744211 
L 244.782891 296.9409 
L 248.843103 294.867167 
L 249.604393 294.393881 
L 255.694711 291.252363 
L 256.709764 290.777016 
L 257.724817 290.25673 
L 258.993633 289.639026 
L 261.023739 288.61827 
L 262.292555 287.93569 
L 264.068898 287.169762 
L 265.083951 286.625046 
L 267.621584 285.36827 
L 268.8904 284.766496 
L 271.428032 283.370023 
L 272.443085 282.943787 
L 274.219428 281.988416 
L 274.980718 281.561982 
L 275.995771 281.067658 
L 277.51835 280.248035 
L 278.27964 279.892007 
L 279.548456 279.182033 
L 280.309746 278.775461 
L 281.578562 278.024872 
L 292.490382 272.547251 
L 293.251671 272.103989 
L 294.012961 271.836587 
L 295.281777 271.17908 
L 300.864569 268.253347 
L 301.879622 267.737442 
L 302.640911 267.339702 
L 310.761335 263.238184 
L 311.268862 262.99221 
L 311.776388 262.66225 
L 312.537678 262.284205 
L 313.806494 261.58739 
L 318.627996 258.859598 
L 319.643049 258.30371 
L 320.658102 257.716181 
L 322.688208 256.668555 
L 328.524762 253.632939 
L 330.047342 252.893041 
L 337.914002 248.657024 
L 338.929055 248.169947 
L 340.451635 247.38072 
L 341.466688 247.02363 
L 342.227978 246.585874 
L 344.76561 245.158904 
L 345.5269 244.622041 
L 347.049479 243.752605 
L 348.825822 242.884248 
L 350.094638 242.165476 
L 354.91614 239.766913 
L 356.438719 239.104912 
L 357.961299 238.217893 
L 361.513984 236.464598 
L 363.54409 235.622394 
L 365.827959 234.435869 
L 366.589249 233.993517 
L 368.365592 233.059227 
L 368.873118 232.840265 
L 387.397835 223.166036 
L 388.920415 222.280562 
L 390.950521 221.213896 
L 392.219337 220.481694 
L 396.025786 218.449487 
L 398.309655 217.315512 
L 403.38492 214.664768 
L 403.638683 214.571547 
L 404.399973 214.042701 
L 406.937605 212.620545 
L 409.729001 211.36389 
L 410.490291 210.911953 
L 413.789213 209.252955 
L 414.550503 208.894328 
L 415.311792 208.525448 
L 417.849425 207.134766 
L 419.118241 206.428712 
L 421.40211 205.103867 
L 422.670926 204.50054 
L 424.701032 203.275297 
L 426.731138 202.208075 
L 428.507481 201.223932 
L 429.268771 200.74457 
L 429.776297 200.502446 
L 430.283824 200.202803 
L 433.075219 198.806476 
L 434.090272 198.238189 
L 434.851562 197.91503 
L 441.956933 194.434999 
L 442.46446 194.17967 
L 443.479512 193.669905 
L 444.240802 193.280076 
L 452.361226 189.07207 
L 453.883806 188.281341 
L 464.795625 182.624436 
L 465.556915 182.276349 
L 466.571968 181.673062 
L 468.094547 181.062087 
L 479.513893 175.243576 
L 480.275183 174.905404 
L 481.797763 174.046207 
L 484.335395 172.727861 
L 485.604211 172.1603 
L 486.619264 171.63127 
L 488.141844 170.95204 
L 488.903133 170.468215 
L 497.531084 166.271185 
L 498.7999 165.653826 
L 499.56119 165.159092 
L 500.068716 164.840033 
L 504.382691 162.651045 
L 505.905271 161.653885 
L 506.920324 161.158215 
L 507.681614 160.713615 
L 509.204193 159.931616 
L 510.726772 159.136275 
L 511.488062 158.798114 
L 512.249352 158.228788 
L 513.010642 157.887981 
L 514.786984 156.967362 
L 516.81709 155.93631 
L 517.57838 155.594709 
L 518.593433 155.02697 
L 519.10096 154.70871 
L 519.608486 154.297784 
L 522.653645 152.57123 
L 523.922461 151.68898 
L 525.191277 151.075247 
L 526.460094 150.432278 
L 527.475147 149.983059 
L 527.982673 149.610678 
L 528.997726 149.055696 
L 530.266542 148.432051 
L 531.535359 147.678682 
L 534.580518 146.24173 
L 535.849334 145.58562 
L 537.371913 144.741658 
L 538.133203 144.36891 
L 540.670835 143.001579 
L 542.447178 142.159872 
L 543.715994 141.403976 
L 546.253627 140.098248 
L 548.283733 139.03529 
L 552.851471 136.490001 
L 553.866524 135.988692 
L 554.374051 135.682389 
L 555.89663 134.878529 
L 557.672973 133.963276 
L 558.434263 133.641359 
L 560.210605 132.585144 
L 561.225658 131.92655 
L 561.986948 131.469209 
L 564.52458 129.909785 
L 565.793397 129.107485 
L 570.614898 126.330119 
L 571.629951 125.865605 
L 573.406294 124.701943 
L 573.913821 124.447991 
L 575.182637 123.684364 
L 576.451453 122.945039 
L 577.974032 122.116819 
L 578.989085 121.687161 
L 579.750375 121.224591 
L 581.019191 120.583154 
L 584.571877 118.555727 
L 585.333167 118.194597 
L 586.855746 117.303168 
L 587.870799 116.781446 
L 588.378326 116.403326 
L 612.739597 103.072659 
L 614.008413 102.15842 
L 615.023466 101.475653 
L 616.038519 100.879312 
L 619.591205 98.32126 
L 620.606258 97.798367 
L 622.636364 96.69659 
L 622.636364 96.69659 
" style="fill:none;stroke:#2ca02c;stroke-linecap:round;stroke-width:1.5;"/>
   </g>
   <g id="line2d_18">
    <path clip-path="url(#p6aae3e2d0d)" d="M 115.363636 363.121373 
L 115.871163 362.861409 
L 116.378689 362.586385 
L 117.647506 361.841538 
L 120.692665 360.17435 
L 121.453954 359.829697 
L 121.961481 359.517864 
L 122.976534 358.984325 
L 123.991587 358.305636 
L 124.499113 358.040375 
L 125.767929 357.152702 
L 126.021693 357.013005 
L 126.529219 356.57633 
L 128.559325 355.505454 
L 130.843194 354.173427 
L 135.918459 350.939631 
L 137.694802 349.9847 
L 138.456092 349.398035 
L 140.232434 348.328117 
L 142.516304 346.974893 
L 143.531357 346.437911 
L 144.292646 346.035332 
L 145.053936 345.663375 
L 146.576516 344.912943 
L 147.845332 344.277974 
L 148.606621 343.871021 
L 149.621674 343.165743 
L 151.905544 342.093249 
L 152.666833 341.69636 
L 153.428123 341.236811 
L 154.950703 340.327785 
L 155.965756 339.869497 
L 156.473282 339.538082 
L 157.234572 339.197539 
L 157.995862 338.790031 
L 160.279731 337.682562 
L 161.041021 337.309155 
L 164.086179 335.885183 
L 166.623812 334.367022 
L 168.400155 333.152514 
L 170.176497 332.275113 
L 173.221656 330.647301 
L 174.236709 330.063095 
L 175.759289 329.128126 
L 176.266815 328.906132 
L 177.281868 328.305926 
L 179.058211 327.538846 
L 180.58079 326.603251 
L 182.86466 325.426666 
L 185.402292 324.076248 
L 186.417345 323.603436 
L 187.178635 323.234446 
L 187.939925 322.791071 
L 192.507663 320.276402 
L 193.776479 319.510206 
L 194.284006 319.299913 
L 204.180772 314.351808 
L 204.942062 313.889271 
L 205.703352 313.449561 
L 207.479694 312.518839 
L 209.5098 311.344398 
L 210.27109 310.846279 
L 210.778617 310.627254 
L 212.301196 309.721636 
L 212.808723 309.502231 
L 213.316249 309.211261 
L 214.077539 308.861447 
L 214.585065 308.594079 
L 215.346355 308.110976 
L 221.18291 305.133573 
L 228.288281 301.469206 
L 229.303333 301.103896 
L 231.079676 300.153708 
L 232.094729 299.582701 
L 233.617309 298.694743 
L 236.154941 297.479445 
L 238.185047 296.490522 
L 239.2001 295.934477 
L 254.425895 287.710387 
L 256.202237 286.466814 
L 256.963527 286.081535 
L 257.724817 285.766311 
L 260.769976 283.989068 
L 265.591478 281.119993 
L 266.352767 280.599176 
L 267.36782 280.040815 
L 268.382873 279.50673 
L 270.920506 278.090414 
L 273.204375 276.615263 
L 274.219428 276.146057 
L 274.980718 275.674555 
L 275.488244 275.406824 
L 276.503297 274.839621 
L 278.27964 273.737579 
L 279.548456 273.031559 
L 280.055983 272.768319 
L 280.563509 272.318051 
L 281.578562 271.829266 
L 282.086088 271.483936 
L 283.354905 270.794684 
L 284.877484 269.911059 
L 285.892537 269.304148 
L 287.415117 268.179355 
L 288.43017 267.576016 
L 289.445223 266.965585 
L 290.206512 266.562166 
L 292.236618 265.572044 
L 293.251671 265.093588 
L 294.520488 264.259256 
L 297.05812 262.847472 
L 298.580699 261.979529 
L 299.595752 261.470397 
L 300.864569 260.733646 
L 301.625858 260.366806 
L 302.387148 259.871345 
L 307.716176 256.686421 
L 308.223703 256.33156 
L 309.492519 255.615961 
L 315.07531 252.482722 
L 316.090363 251.838183 
L 317.105416 251.352206 
L 317.866706 250.961954 
L 323.195734 247.315402 
L 323.449497 247.198484 
L 323.957024 246.809869 
L 325.98713 245.604623 
L 326.74842 245.167834 
L 335.883896 239.347232 
L 338.929055 237.921108 
L 340.451635 237.224369 
L 341.212925 236.693365 
L 342.735504 235.706103 
L 344.76561 234.71064 
L 345.273137 234.397865 
L 346.28819 233.884292 
L 347.049479 233.413415 
L 348.064532 232.920018 
L 349.587112 231.919883 
L 355.169903 228.799926 
L 356.184956 228.352004 
L 357.707536 227.411972 
L 361.006458 225.265503 
L 362.275274 224.344788 
L 363.036564 223.966136 
L 364.559143 223.120093 
L 365.827959 222.111941 
L 366.589249 221.576196 
L 368.111829 220.628628 
L 368.619355 220.308264 
L 369.888171 219.486633 
L 370.649461 219.191596 
L 371.410751 218.80305 
L 379.023648 213.78388 
L 380.038701 213.041305 
L 381.307517 212.093736 
L 381.815044 211.690491 
L 383.591387 210.447635 
L 387.651599 207.920446 
L 389.935468 206.240202 
L 393.23439 204.283763 
L 394.249443 203.616842 
L 395.264496 203.083503 
L 397.802128 201.415029 
L 401.101051 199.588323 
L 401.608577 199.275342 
L 402.369867 198.850331 
L 404.146209 197.812488 
L 405.161262 197.213321 
L 406.937605 196.026553 
L 409.475238 194.550813 
L 410.490291 193.933229 
L 417.849425 189.661986 
L 418.356951 189.282977 
L 420.387057 188.083225 
L 420.894584 187.850454 
L 421.655873 187.462458 
L 422.670926 186.950823 
L 423.939743 186.14209 
L 424.701032 185.716409 
L 425.208559 185.41153 
L 426.984902 184.495501 
L 431.045113 182.513863 
L 432.567693 181.507965 
L 435.105325 180.161956 
L 437.135431 179.103043 
L 438.911774 178.11723 
L 439.926827 177.61107 
L 442.46446 176.285792 
L 443.987039 175.480076 
L 444.748329 175.043676 
L 461.24294 166.021211 
L 465.303152 163.606312 
L 465.810678 163.097037 
L 468.348311 161.767613 
L 469.617127 161.154608 
L 473.169812 158.85727 
L 473.931102 158.501278 
L 478.49884 155.916198 
L 479.006367 155.636993 
L 479.513893 155.390376 
L 480.275183 155.019745 
L 480.78271 154.738262 
L 481.543999 154.382779 
L 482.305289 153.905078 
L 482.812815 153.46876 
L 487.88808 150.195025 
L 488.903133 149.550313 
L 489.41066 149.194003 
L 490.425713 148.528944 
L 497.27732 144.250154 
L 497.784847 143.874849 
L 499.56119 142.916949 
L 504.382691 140.064302 
L 505.397744 139.412603 
L 506.920324 138.612729 
L 509.965483 136.704723 
L 510.473009 136.354791 
L 513.771931 134.012381 
L 514.279458 133.600703 
L 514.786984 133.337842 
L 515.548274 132.700102 
L 516.563327 132.159564 
L 517.832143 131.237681 
L 519.10096 130.435418 
L 523.668698 127.392593 
L 527.221383 124.847852 
L 529.759016 123.532352 
L 531.281595 122.774952 
L 536.103097 119.795639 
L 537.87944 118.809526 
L 538.386966 118.466971 
L 539.402019 118.022194 
L 539.909546 117.576661 
L 540.670835 117.13293 
L 541.178362 116.872622 
L 545.238574 114.67185 
L 545.7461 114.280108 
L 546.253627 114.015384 
L 547.014917 113.541621 
L 549.552549 111.872227 
L 551.328892 110.764513 
L 553.105234 109.525619 
L 553.866524 109.090429 
L 554.627814 108.622404 
L 569.599845 99.989116 
L 570.107372 99.589888 
L 570.868662 99.083488 
L 572.645004 97.737677 
L 573.152531 97.474442 
L 574.67511 96.431861 
L 575.4364 96.012008 
L 577.212743 94.834809 
L 578.481559 94.200755 
L 579.242849 93.767172 
L 581.780481 92.101597 
L 582.288008 91.650544 
L 583.303061 90.913121 
L 584.571877 89.915081 
L 590.408431 85.419103 
L 593.707354 83.09166 
L 594.722407 82.25987 
L 601.066488 78.639859 
L 602.589067 77.824764 
L 603.60412 77.205233 
L 608.425622 74.694313 
L 609.948201 73.840447 
L 610.455728 73.546932 
L 616.546046 70.227323 
L 618.068625 69.328717 
L 618.829915 68.771936 
L 619.844968 68.170706 
L 621.367547 67.430764 
L 622.128837 66.873825 
L 622.636364 66.665455 
L 622.636364 66.665455 
" style="fill:none;stroke:#d62728;stroke-linecap:round;stroke-width:1.5;"/>
   </g>
   <g id="line2d_19">
    <path clip-path="url(#p6aae3e2d0d)" d="M 115.363636 363.13628 
L 115.871163 362.816716 
L 117.139979 362.148205 
L 117.647506 361.882402 
L 118.662559 361.240133 
L 119.170085 361.054222 
L 120.946428 360.033202 
L 122.469007 359.333749 
L 126.021693 357.409864 
L 127.036746 356.965785 
L 128.305562 356.181078 
L 129.320615 355.768383 
L 130.081905 355.364318 
L 130.843194 354.954596 
L 131.604484 354.541658 
L 134.903406 352.73145 
L 135.918459 352.219897 
L 137.187275 351.474524 
L 144.292646 347.714358 
L 144.800173 347.486615 
L 145.561463 346.975573 
L 148.606621 345.344419 
L 149.114148 345.142871 
L 150.382964 344.41118 
L 151.144254 343.803526 
L 153.681886 342.140893 
L 154.443176 341.67959 
L 158.757151 338.97089 
L 160.279731 337.818177 
L 161.294784 337.202652 
L 163.32489 336.124765 
L 165.862522 334.531031 
L 166.623812 334.034897 
L 167.131338 333.632571 
L 168.146391 332.992608 
L 169.161444 332.291503 
L 169.668971 331.955463 
L 170.176497 331.584623 
L 178.043158 326.971592 
L 180.327027 325.814198 
L 182.86466 324.459237 
L 183.625949 324.080931 
L 192.000136 319.3104 
L 192.507663 319.097809 
L 193.268953 318.590507 
L 194.284006 317.972382 
L 195.806585 317.243127 
L 196.567875 316.9014 
L 201.389377 314.306859 
L 202.150666 313.835716 
L 206.210878 311.681146 
L 206.972168 311.261886 
L 207.479694 311.015275 
L 214.077539 307.159994 
L 216.107645 305.841525 
L 218.137751 304.638078 
L 219.406567 303.780087 
L 221.18291 302.767279 
L 221.690436 302.364361 
L 222.197963 302.10486 
L 223.466779 301.364521 
L 227.019464 299.250359 
L 228.288281 298.36817 
L 229.303333 297.79355 
L 232.348492 296.123136 
L 233.617309 295.36661 
L 235.901178 294.008983 
L 240.215153 291.713682 
L 242.245259 290.548558 
L 243.006549 290.248937 
L 246.305471 287.93319 
L 247.320524 287.36206 
L 248.081814 286.832012 
L 253.410842 283.991956 
L 254.425895 283.37708 
L 255.187185 282.90264 
L 257.21729 281.77527 
L 258.486107 281.078324 
L 259.50116 280.551547 
L 260.262449 280.183959 
L 260.769976 279.927699 
L 264.576425 277.830899 
L 265.083951 277.518497 
L 266.606531 276.611094 
L 267.621584 276.065826 
L 272.443085 273.49302 
L 274.219428 272.477698 
L 275.488244 271.845194 
L 275.995771 271.640738 
L 277.010824 271.009882 
L 277.51835 270.754549 
L 278.787166 270.009467 
L 281.578562 268.430997 
L 290.460276 263.327971 
L 290.967802 263.039927 
L 291.475329 262.593653 
L 292.744145 261.783963 
L 293.251671 261.473243 
L 295.028014 260.545438 
L 295.789304 260.212473 
L 297.81941 259.155271 
L 298.326936 258.943494 
L 299.341989 258.296728 
L 300.103279 257.700676 
L 300.610805 257.369771 
L 301.118332 256.925115 
L 303.148438 255.647269 
L 305.432307 254.220231 
L 307.462413 252.650694 
L 308.223703 252.11981 
L 309.492519 250.986866 
L 312.791441 248.981389 
L 313.806494 248.444901 
L 315.07531 247.688104 
L 321.419392 243.670634 
L 332.331211 237.939061 
L 334.107554 236.845931 
L 334.868844 236.478219 
L 337.152713 234.974614 
L 337.914002 234.676543 
L 339.182819 234.031053 
L 340.705398 233.214803 
L 341.974214 232.548235 
L 342.989267 232.10245 
L 343.750557 231.635905 
L 347.049479 229.925619 
L 348.572059 229.108089 
L 350.348401 228.207666 
L 352.124744 227.194651 
L 352.886034 226.754262 
L 357.453772 224.108523 
L 358.468825 223.649495 
L 360.245168 222.775817 
L 363.036564 221.220787 
L 366.589249 219.339301 
L 386.382782 208.468237 
L 386.890309 208.199163 
L 388.159125 207.515893 
L 389.935468 206.730533 
L 390.442994 206.439661 
L 393.23439 204.894331 
L 394.503206 204.151583 
L 397.040839 202.675446 
L 398.055892 202.164462 
L 400.847287 200.503406 
L 405.922552 197.493381 
L 406.937605 197.051361 
L 408.460185 196.238355 
L 410.997817 194.921378 
L 411.759107 194.521958 
L 412.520397 194.112468 
L 415.311792 192.739089 
L 416.834372 191.927403 
L 422.670926 188.684547 
L 425.208559 187.334075 
L 430.03006 184.836527 
L 437.642958 180.376088 
L 445.763382 175.941774 
L 446.524671 175.5292 
L 447.539724 175.051749 
L 450.077357 173.392355 
L 451.09241 172.634945 
L 451.8537 172.109605 
L 452.361226 171.852147 
L 452.868753 171.539911 
L 456.675201 169.43849 
L 458.451544 168.515939 
L 459.974123 167.569527 
L 460.735413 167.097782 
L 462.511756 165.883097 
L 463.019282 165.440201 
L 464.541862 164.609585 
L 466.318205 163.54529 
L 467.587021 162.893341 
L 468.602074 162.118858 
L 469.87089 161.16825 
L 471.139706 160.415999 
L 473.931102 158.739252 
L 475.707445 157.588534 
L 476.722498 156.890733 
L 479.26013 155.367727 
L 480.528946 154.679007 
L 484.335395 152.331949 
L 485.096685 151.863758 
L 485.604211 151.502309 
L 488.395607 149.927021 
L 489.156897 149.576056 
L 490.17195 149.006017 
L 491.694529 148.018233 
L 493.724635 146.885251 
L 494.993451 145.907822 
L 495.500978 145.615387 
L 497.023557 144.659865 
L 498.292373 144.048284 
L 500.576243 142.825883 
L 504.382691 140.512737 
L 505.397744 139.859106 
L 505.905271 139.620719 
L 507.42785 138.684895 
L 508.18914 138.251422 
L 508.696667 138.05814 
L 510.980536 136.793112 
L 511.995589 136.295835 
L 513.010642 135.639004 
L 515.294511 134.479905 
L 515.802037 134.281246 
L 520.877302 131.111826 
L 521.892355 130.607545 
L 526.96762 127.855054 
L 531.027832 125.175255 
L 532.296648 124.54942 
L 534.072991 123.59838 
L 534.834281 123.212303 
L 535.849334 122.627748 
L 537.11815 121.902631 
L 538.386966 121.126554 
L 539.148256 120.667002 
L 540.163309 119.980819 
L 543.208468 118.225366 
L 544.731047 117.531002 
L 545.999864 116.724509 
L 550.060075 114.392774 
L 550.821365 113.905878 
L 551.328892 113.627088 
L 552.090181 113.103012 
L 553.612761 112.202099 
L 559.195552 109.272422 
L 564.270817 105.964249 
L 565.539633 105.437992 
L 567.062213 104.596953 
L 569.853609 103.101959 
L 570.868662 102.410061 
L 571.883715 101.794732 
L 572.391241 101.405241 
L 574.928874 99.866257 
L 576.451453 99.089567 
L 577.212743 98.630102 
L 581.019191 96.411843 
L 582.034244 95.745489 
L 583.556824 94.933782 
L 586.34822 93.372824 
L 587.870799 92.596089 
L 589.393379 91.74682 
L 590.662195 90.931831 
L 591.677248 90.285318 
L 596.498749 87.556702 
L 597.006276 87.273573 
L 598.782619 86.433064 
L 599.543908 86.054982 
L 601.320251 85.016506 
L 606.141753 82.557536 
L 609.440675 80.575225 
L 610.201965 80.119479 
L 612.485834 78.903169 
L 616.038519 76.803269 
L 617.561099 75.855343 
L 619.591205 74.828915 
L 620.352494 74.302221 
L 622.128837 73.377733 
L 622.636364 73.029419 
L 622.636364 73.029419 
" style="fill:none;stroke:#9467bd;stroke-linecap:round;stroke-width:1.5;"/>
   </g>
   <g id="line2d_20">
    <path clip-path="url(#p6aae3e2d0d)" d="M 115.363636 363.110963 
L 116.632453 362.467096 
L 119.170085 361.114011 
L 122.215244 359.048862 
L 125.260403 357.408666 
L 137.694802 350.32382 
L 138.709855 349.771995 
L 146.576516 345.186077 
L 148.099095 344.416779 
L 152.159307 342.130591 
L 155.711992 339.998676 
L 157.995862 338.850954 
L 159.264678 338.110735 
L 160.025968 337.638939 
L 161.294784 336.856272 
L 162.056073 336.435103 
L 164.339943 334.755968 
L 166.877575 333.514923 
L 170.430261 331.717988 
L 170.937787 331.495221 
L 173.221656 330.052088 
L 173.729183 329.719122 
L 174.744236 329.104984 
L 176.013052 328.375479 
L 176.520578 328.027856 
L 177.281868 327.608581 
L 178.043158 327.228653 
L 180.073264 326.191033 
L 181.088317 325.655168 
L 182.10337 325.125509 
L 183.879713 324.123615 
L 185.402292 323.118716 
L 188.447451 321.329509 
L 189.462504 320.584335 
L 191.238847 319.634618 
L 192.507663 319.012557 
L 193.268953 318.534192 
L 193.522716 318.450332 
L 194.030242 318.055966 
L 195.045295 317.548471 
L 196.314112 316.503431 
L 206.972168 310.717694 
L 208.240984 309.839861 
L 210.27109 308.783709 
L 213.570012 307.04254 
L 216.107645 305.501765 
L 216.615171 305.226716 
L 218.137751 304.368303 
L 218.89904 303.737638 
L 220.167857 303.061701 
L 220.929146 302.685365 
L 222.451726 301.881823 
L 223.974305 301.064416 
L 227.273228 299.011047 
L 227.780754 298.638818 
L 228.034517 298.519859 
L 228.542044 298.092778 
L 243.006549 289.673346 
L 245.797944 288.141704 
L 250.365683 285.417876 
L 253.410842 283.387228 
L 254.425895 282.838285 
L 255.187185 282.408047 
L 255.948474 281.941247 
L 260.008686 279.183091 
L 263.815135 276.979622 
L 266.606531 275.543295 
L 267.36782 274.969695 
L 269.144163 273.948324 
L 270.159216 273.315812 
L 271.174269 272.635172 
L 271.681795 272.348758 
L 272.443085 271.954831 
L 274.473191 270.933226 
L 276.249534 269.949206 
L 277.264587 269.36132 
L 278.27964 268.699699 
L 283.354905 265.294891 
L 284.369958 264.742432 
L 289.952749 261.723571 
L 290.460276 261.283577 
L 291.221565 260.902804 
L 292.490382 260.183763 
L 293.251671 259.712538 
L 294.012961 259.251348 
L 297.05812 257.569418 
L 297.81941 257.202077 
L 301.118332 255.65134 
L 308.984992 251.022376 
L 310.507572 249.968168 
L 311.776388 249.318143 
L 316.851653 246.7637 
L 320.911865 244.529637 
L 321.419392 244.14372 
L 322.688208 243.402297 
L 324.46455 242.278444 
L 325.733367 241.672243 
L 326.494656 241.237789 
L 332.077448 238.18968 
L 334.61508 236.734913 
L 339.436582 234.03989 
L 340.197872 233.520761 
L 343.243031 231.993342 
L 345.019373 230.950359 
L 349.587112 228.219797 
L 350.348401 227.833211 
L 352.378507 226.85833 
L 354.91614 225.404061 
L 355.423666 225.131555 
L 357.961299 223.592359 
L 365.06667 219.801712 
L 365.574196 219.443652 
L 366.081723 219.189923 
L 367.350539 218.345324 
L 368.619355 217.573237 
L 370.141935 216.826497 
L 371.156988 216.169359 
L 372.425804 215.540767 
L 374.963436 214.056181 
L 376.232252 213.428233 
L 376.993542 212.915791 
L 377.501069 212.688606 
L 379.531175 211.187883 
L 381.053754 210.383465 
L 383.84515 208.960416 
L 385.875256 207.861327 
L 386.636546 207.434788 
L 387.144072 207.119867 
L 388.666652 206.289416 
L 390.950521 204.774076 
L 391.458047 204.540063 
L 392.219337 204.125732 
L 395.518259 202.212223 
L 397.802128 200.640837 
L 399.070945 199.928672 
L 400.847287 198.882996 
L 401.86234 198.431702 
L 402.62363 198.023129 
L 403.892446 197.367977 
L 404.399973 197.03225 
L 405.922552 196.30707 
L 412.266633 192.405414 
L 413.281686 191.762264 
L 416.073082 190.028843 
L 418.103188 188.994565 
L 418.864478 188.440129 
L 419.879531 187.90469 
L 421.40211 186.874561 
L 422.1634 186.449916 
L 422.92469 185.925662 
L 424.447269 185.223737 
L 425.208559 184.757611 
L 426.223612 184.228874 
L 426.984902 183.78039 
L 427.492428 183.539439 
L 429.015008 182.647609 
L 429.522534 182.391417 
L 430.283824 181.903143 
L 431.045113 181.384097 
L 432.31393 180.624741 
L 436.120378 178.389114 
L 437.389195 177.731314 
L 438.404248 177.143519 
L 440.18059 176.255293 
L 441.195643 175.716762 
L 442.46446 174.756175 
L 443.479512 174.133766 
L 445.002092 173.149064 
L 448.808541 171.313604 
L 452.361226 169.113513 
L 452.868753 168.690371 
L 455.913912 166.585023 
L 456.928964 165.951471 
L 460.227887 164.084548 
L 462.765519 162.554291 
L 463.273046 162.1688 
L 465.049388 161.08131 
L 466.571968 160.379679 
L 467.079494 160.104008 
L 470.378416 158.450016 
L 471.647233 157.781374 
L 472.662286 157.315898 
L 474.692392 155.90646 
L 479.767657 153.170448 
L 482.051526 151.714349 
L 483.066579 151.118943 
L 483.827868 150.532876 
L 484.589158 150.089341 
L 485.096685 149.650125 
L 497.023557 142.742333 
L 498.546137 141.857959 
L 499.053663 141.571052 
L 501.337532 140.243955 
L 503.367638 138.952898 
L 506.920324 136.876922 
L 507.935377 136.326793 
L 516.563327 131.318931 
L 517.324617 130.909297 
L 519.862249 129.397473 
L 521.131066 128.85618 
L 526.713857 125.666247 
L 527.221383 125.353726 
L 528.4902 124.620084 
L 528.997726 124.288203 
L 529.759016 123.8444 
L 533.057938 122.068122 
L 535.341807 120.679533 
L 537.87944 119.100071 
L 538.640729 118.533303 
L 539.148256 118.201295 
L 539.909546 117.705099 
L 540.924599 117.108508 
L 542.447178 116.259724 
L 547.014917 113.83767 
L 548.537496 112.954096 
L 558.688026 107.373724 
L 559.956842 106.464773 
L 560.210605 106.397604 
L 560.971895 105.957353 
L 562.240711 105.111801 
L 563.255764 104.464063 
L 566.554686 102.684061 
L 567.315976 102.154687 
L 567.823503 101.88954 
L 569.346082 101.053275 
L 569.853609 100.68874 
L 572.391241 99.243816 
L 573.913821 98.18514 
L 575.943927 96.92433 
L 582.795534 92.841429 
L 584.318114 92.003816 
L 587.870799 89.903579 
L 594.21488 85.918002 
L 598.275092 83.751188 
L 599.290145 83.166672 
L 600.812725 82.255151 
L 601.320251 81.856021 
L 602.335304 81.210099 
L 604.111647 80.091279 
L 604.619173 79.814786 
L 604.872936 79.502132 
L 605.380463 79.283391 
L 606.141753 78.78337 
L 608.171859 77.628554 
L 609.186912 76.916286 
L 611.724544 75.343118 
L 612.739597 74.796282 
L 613.500887 74.273951 
L 614.008413 73.993773 
L 618.576152 71.59038 
L 619.591205 71.04922 
L 620.606258 70.461459 
L 622.636364 69.376084 
L 622.636364 69.376084 
" style="fill:none;stroke:#8c564b;stroke-linecap:round;stroke-width:1.5;"/>
   </g>
   <g id="patch_3">
    <path d="M 90 378 
L 90 51.84 
" style="fill:none;stroke:#ffffff;stroke-linecap:square;stroke-linejoin:miter;stroke-width:0.8;"/>
   </g>
   <g id="patch_4">
    <path d="M 648 378 
L 648 51.84 
" style="fill:none;stroke:#ffffff;stroke-linecap:square;stroke-linejoin:miter;stroke-width:0.8;"/>
   </g>
   <g id="patch_5">
    <path d="M 90 378 
L 648 378 
" style="fill:none;stroke:#ffffff;stroke-linecap:square;stroke-linejoin:miter;stroke-width:0.8;"/>
   </g>
   <g id="patch_6">
    <path d="M 90 51.84 
L 648 51.84 
" style="fill:none;stroke:#ffffff;stroke-linecap:square;stroke-linejoin:miter;stroke-width:0.8;"/>
   </g>
   <g id="text_17">
    <!-- Зависимость времени обучения от номера итерации и learning rate -->
    <g style="fill:#262626;" transform="translate(69.274875 26.684325)scale(0.168 -0.168)">
     <defs>
      <path d="M 1828 4750 
Q 2597 4750 3084 4423 
Q 3572 4097 3572 3541 
Q 3572 3153 3350 2886 
Q 3128 2619 2719 2516 
Q 3172 2419 3426 2112 
Q 3681 1806 3681 1356 
Q 3681 638 3126 273 
Q 2572 -91 1828 -91 
Q 1447 -91 1003 12 
Q 559 116 422 203 
L 422 853 
Q 900 575 1164 508 
Q 1428 441 1816 441 
Q 2403 441 2728 666 
Q 3053 891 3053 1356 
Q 3053 1769 2764 2001 
Q 2475 2234 1866 2234 
L 1228 2234 
L 1228 2753 
L 1891 2753 
Q 2450 2753 2697 2939 
Q 2944 3125 2944 3475 
Q 2944 3834 2689 4026 
Q 2434 4219 1816 4219 
Q 1397 4219 1253 4181 
Q 1109 4144 469 3903 
L 469 4519 
Q 822 4644 1190 4697 
Q 1559 4750 1828 4750 
z
" id="DejaVuSans-417" transform="scale(0.015625)"/>
      <path d="M 1156 1613 
L 1156 459 
L 1975 459 
Q 2369 459 2575 607 
Q 2781 756 2781 1038 
Q 2781 1319 2575 1466 
Q 2369 1613 1975 1613 
L 1156 1613 
z
M 1156 3041 
L 1156 2072 
L 1913 2072 
Q 2238 2072 2444 2201 
Q 2650 2331 2650 2563 
Q 2650 2794 2444 2917 
Q 2238 3041 1913 3041 
L 1156 3041 
z
M 581 3500 
L 1950 3500 
Q 2566 3500 2897 3275 
Q 3228 3050 3228 2634 
Q 3228 2313 3059 2123 
Q 2891 1934 2559 1888 
Q 2956 1813 3175 1575 
Q 3394 1338 3394 981 
Q 3394 513 3033 256 
Q 2672 0 2003 0 
L 581 0 
L 581 3500 
z
" id="DejaVuSans-432" transform="scale(0.015625)"/>
      <path d="M 2781 1038 
Q 2781 1319 2576 1466 
Q 2372 1613 1978 1613 
L 1159 1613 
L 1159 459 
L 1978 459 
Q 2372 459 2576 607 
Q 2781 756 2781 1038 
z
M 581 3500 
L 1159 3500 
L 1159 2072 
L 2003 2072 
Q 2672 2072 3033 1817 
Q 3394 1563 3394 1038 
Q 3394 513 3033 256 
Q 2672 0 2003 0 
L 581 0 
L 581 3500 
z
" id="DejaVuSans-44c" transform="scale(0.015625)"/>
      <path d="M 603 4863 
L 1178 4863 
L 1178 0 
L 603 0 
L 603 4863 
z
" id="DejaVuSans-6c" transform="scale(0.015625)"/>
      <path d="M 3597 1894 
L 3597 1613 
L 953 1613 
Q 991 1019 1311 708 
Q 1631 397 2203 397 
Q 2534 397 2845 478 
Q 3156 559 3463 722 
L 3463 178 
Q 3153 47 2828 -22 
Q 2503 -91 2169 -91 
Q 1331 -91 842 396 
Q 353 884 353 1716 
Q 353 2575 817 3079 
Q 1281 3584 2069 3584 
Q 2775 3584 3186 3129 
Q 3597 2675 3597 1894 
z
M 3022 2063 
Q 3016 2534 2758 2815 
Q 2500 3097 2075 3097 
Q 1594 3097 1305 2825 
Q 1016 2553 972 2059 
L 3022 2063 
z
" id="DejaVuSans-65" transform="scale(0.015625)"/>
      <path d="M 2194 1759 
Q 1497 1759 1228 1600 
Q 959 1441 959 1056 
Q 959 750 1161 570 
Q 1363 391 1709 391 
Q 2188 391 2477 730 
Q 2766 1069 2766 1631 
L 2766 1759 
L 2194 1759 
z
M 3341 1997 
L 3341 0 
L 2766 0 
L 2766 531 
Q 2569 213 2275 61 
Q 1981 -91 1556 -91 
Q 1019 -91 701 211 
Q 384 513 384 1019 
Q 384 1609 779 1909 
Q 1175 2209 1959 2209 
L 2766 2209 
L 2766 2266 
Q 2766 2663 2505 2880 
Q 2244 3097 1772 3097 
Q 1472 3097 1187 3025 
Q 903 2953 641 2809 
L 641 3341 
Q 956 3463 1253 3523 
Q 1550 3584 1831 3584 
Q 2591 3584 2966 3190 
Q 3341 2797 3341 1997 
z
" id="DejaVuSans-61" transform="scale(0.015625)"/>
      <path d="M 2631 2963 
Q 2534 3019 2420 3045 
Q 2306 3072 2169 3072 
Q 1681 3072 1420 2755 
Q 1159 2438 1159 1844 
L 1159 0 
L 581 0 
L 581 3500 
L 1159 3500 
L 1159 2956 
Q 1341 3275 1631 3429 
Q 1922 3584 2338 3584 
Q 2397 3584 2469 3576 
Q 2541 3569 2628 3553 
L 2631 2963 
z
" id="DejaVuSans-72" transform="scale(0.015625)"/>
      <path d="M 3513 2113 
L 3513 0 
L 2938 0 
L 2938 2094 
Q 2938 2591 2744 2837 
Q 2550 3084 2163 3084 
Q 1697 3084 1428 2787 
Q 1159 2491 1159 1978 
L 1159 0 
L 581 0 
L 581 3500 
L 1159 3500 
L 1159 2956 
Q 1366 3272 1645 3428 
Q 1925 3584 2291 3584 
Q 2894 3584 3203 3211 
Q 3513 2838 3513 2113 
z
" id="DejaVuSans-6e" transform="scale(0.015625)"/>
      <path d="M 603 3500 
L 1178 3500 
L 1178 0 
L 603 0 
L 603 3500 
z
M 603 4863 
L 1178 4863 
L 1178 4134 
L 603 4134 
L 603 4863 
z
" id="DejaVuSans-69" transform="scale(0.015625)"/>
      <path d="M 2906 1791 
Q 2906 2416 2648 2759 
Q 2391 3103 1925 3103 
Q 1463 3103 1205 2759 
Q 947 2416 947 1791 
Q 947 1169 1205 825 
Q 1463 481 1925 481 
Q 2391 481 2648 825 
Q 2906 1169 2906 1791 
z
M 3481 434 
Q 3481 -459 3084 -895 
Q 2688 -1331 1869 -1331 
Q 1566 -1331 1297 -1286 
Q 1028 -1241 775 -1147 
L 775 -588 
Q 1028 -725 1275 -790 
Q 1522 -856 1778 -856 
Q 2344 -856 2625 -561 
Q 2906 -266 2906 331 
L 2906 616 
Q 2728 306 2450 153 
Q 2172 0 1784 0 
Q 1141 0 747 490 
Q 353 981 353 1791 
Q 353 2603 747 3093 
Q 1141 3584 1784 3584 
Q 2172 3584 2450 3431 
Q 2728 3278 2906 2969 
L 2906 3500 
L 3481 3500 
L 3481 434 
z
" id="DejaVuSans-67" transform="scale(0.015625)"/>
      <path d="M 1172 4494 
L 1172 3500 
L 2356 3500 
L 2356 3053 
L 1172 3053 
L 1172 1153 
Q 1172 725 1289 603 
Q 1406 481 1766 481 
L 2356 481 
L 2356 0 
L 1766 0 
Q 1100 0 847 248 
Q 594 497 594 1153 
L 594 3053 
L 172 3053 
L 172 3500 
L 594 3500 
L 594 4494 
L 1172 4494 
z
" id="DejaVuSans-74" transform="scale(0.015625)"/>
     </defs>
     <use xlink:href="#DejaVuSans-417"/>
     <use x="64.111328" xlink:href="#DejaVuSans-430"/>
     <use x="125.390625" xlink:href="#DejaVuSans-432"/>
     <use x="184.326172" xlink:href="#DejaVuSans-438"/>
     <use x="249.316406" xlink:href="#DejaVuSans-441"/>
     <use x="304.296875" xlink:href="#DejaVuSans-438"/>
     <use x="369.287109" xlink:href="#DejaVuSans-43c"/>
     <use x="444.726562" xlink:href="#DejaVuSans-43e"/>
     <use x="505.908203" xlink:href="#DejaVuSans-441"/>
     <use x="560.888672" xlink:href="#DejaVuSans-442"/>
     <use x="619.140625" xlink:href="#DejaVuSans-44c"/>
     <use x="678.076172" xlink:href="#DejaVuSans-20"/>
     <use x="709.863281" xlink:href="#DejaVuSans-432"/>
     <use x="768.798828" xlink:href="#DejaVuSans-440"/>
     <use x="832.275391" xlink:href="#DejaVuSans-435"/>
     <use x="893.798828" xlink:href="#DejaVuSans-43c"/>
     <use x="969.238281" xlink:href="#DejaVuSans-435"/>
     <use x="1030.761719" xlink:href="#DejaVuSans-43d"/>
     <use x="1096.142578" xlink:href="#DejaVuSans-438"/>
     <use x="1161.132812" xlink:href="#DejaVuSans-20"/>
     <use x="1192.919922" xlink:href="#DejaVuSans-43e"/>
     <use x="1254.101562" xlink:href="#DejaVuSans-431"/>
     <use x="1315.771484" xlink:href="#DejaVuSans-443"/>
     <use x="1374.951172" xlink:href="#DejaVuSans-447"/>
     <use x="1434.033203" xlink:href="#DejaVuSans-435"/>
     <use x="1495.556641" xlink:href="#DejaVuSans-43d"/>
     <use x="1560.9375" xlink:href="#DejaVuSans-438"/>
     <use x="1625.927734" xlink:href="#DejaVuSans-44f"/>
     <use x="1686.083984" xlink:href="#DejaVuSans-20"/>
     <use x="1717.871094" xlink:href="#DejaVuSans-43e"/>
     <use x="1779.052734" xlink:href="#DejaVuSans-442"/>
     <use x="1837.304688" xlink:href="#DejaVuSans-20"/>
     <use x="1869.091797" xlink:href="#DejaVuSans-43d"/>
     <use x="1934.472656" xlink:href="#DejaVuSans-43e"/>
     <use x="1995.654297" xlink:href="#DejaVuSans-43c"/>
     <use x="2071.09375" xlink:href="#DejaVuSans-435"/>
     <use x="2132.617188" xlink:href="#DejaVuSans-440"/>
     <use x="2196.09375" xlink:href="#DejaVuSans-430"/>
     <use x="2257.373047" xlink:href="#DejaVuSans-20"/>
     <use x="2289.160156" xlink:href="#DejaVuSans-438"/>
     <use x="2354.150391" xlink:href="#DejaVuSans-442"/>
     <use x="2412.402344" xlink:href="#DejaVuSans-435"/>
     <use x="2473.925781" xlink:href="#DejaVuSans-440"/>
     <use x="2537.402344" xlink:href="#DejaVuSans-430"/>
     <use x="2598.681641" xlink:href="#DejaVuSans-446"/>
     <use x="2666.748047" xlink:href="#DejaVuSans-438"/>
     <use x="2731.738281" xlink:href="#DejaVuSans-438"/>
     <use x="2796.728516" xlink:href="#DejaVuSans-20"/>
     <use x="2828.515625" xlink:href="#DejaVuSans-438"/>
     <use x="2893.505859" xlink:href="#DejaVuSans-20"/>
     <use x="2925.292969" xlink:href="#DejaVuSans-6c"/>
     <use x="2953.076172" xlink:href="#DejaVuSans-65"/>
     <use x="3014.599609" xlink:href="#DejaVuSans-61"/>
     <use x="3075.878906" xlink:href="#DejaVuSans-72"/>
     <use x="3115.242188" xlink:href="#DejaVuSans-6e"/>
     <use x="3178.621094" xlink:href="#DejaVuSans-69"/>
     <use x="3206.404297" xlink:href="#DejaVuSans-6e"/>
     <use x="3269.783203" xlink:href="#DejaVuSans-67"/>
     <use x="3333.259766" xlink:href="#DejaVuSans-20"/>
     <use x="3365.046875" xlink:href="#DejaVuSans-72"/>
     <use x="3406.160156" xlink:href="#DejaVuSans-61"/>
     <use x="3467.439453" xlink:href="#DejaVuSans-74"/>
     <use x="3506.648438" xlink:href="#DejaVuSans-65"/>
    </g>
    <!--  для градиентного бустинга -->
    <g style="fill:#262626;" transform="translate(242.686312 45.84)scale(0.168 -0.168)">
     <defs>
      <path d="M 1384 459 
L 3053 459 
L 3053 3041 
L 1844 3041 
L 1844 2603 
Q 1844 1316 1475 628 
L 1384 459 
z
M 550 459 
Q 834 584 959 850 
Q 1266 1509 1266 2838 
L 1266 3500 
L 3631 3500 
L 3631 459 
L 4091 459 
L 4091 -884 
L 3631 -884 
L 3631 0 
L 794 0 
L 794 -884 
L 334 -884 
L 334 459 
L 550 459 
z
" id="DejaVuSans-434" transform="scale(0.015625)"/>
      <path d="M 238 0 
L 238 478 
Q 806 566 981 959 
Q 1194 1513 1194 2928 
L 1194 3500 
L 3559 3500 
L 3559 0 
L 2984 0 
L 2984 3041 
L 1769 3041 
L 1769 2694 
Q 1769 1344 1494 738 
Q 1200 91 238 0 
z
" id="DejaVuSans-43b" transform="scale(0.015625)"/>
      <path d="M 581 0 
L 581 3500 
L 3050 3500 
L 3050 3041 
L 1159 3041 
L 1159 0 
L 581 0 
z
" id="DejaVuSans-433" transform="scale(0.015625)"/>
     </defs>
     <use xlink:href="#DejaVuSans-20"/>
     <use x="31.787109" xlink:href="#DejaVuSans-434"/>
     <use x="100.927734" xlink:href="#DejaVuSans-43b"/>
     <use x="164.84375" xlink:href="#DejaVuSans-44f"/>
     <use x="225" xlink:href="#DejaVuSans-20"/>
     <use x="256.787109" xlink:href="#DejaVuSans-433"/>
     <use x="309.326172" xlink:href="#DejaVuSans-440"/>
     <use x="372.802734" xlink:href="#DejaVuSans-430"/>
     <use x="434.082031" xlink:href="#DejaVuSans-434"/>
     <use x="503.222656" xlink:href="#DejaVuSans-438"/>
     <use x="568.212891" xlink:href="#DejaVuSans-435"/>
     <use x="629.736328" xlink:href="#DejaVuSans-43d"/>
     <use x="695.117188" xlink:href="#DejaVuSans-442"/>
     <use x="753.369141" xlink:href="#DejaVuSans-43d"/>
     <use x="818.75" xlink:href="#DejaVuSans-43e"/>
     <use x="879.931641" xlink:href="#DejaVuSans-433"/>
     <use x="932.470703" xlink:href="#DejaVuSans-43e"/>
     <use x="993.652344" xlink:href="#DejaVuSans-20"/>
     <use x="1025.439453" xlink:href="#DejaVuSans-431"/>
     <use x="1087.109375" xlink:href="#DejaVuSans-443"/>
     <use x="1146.289062" xlink:href="#DejaVuSans-441"/>
     <use x="1201.269531" xlink:href="#DejaVuSans-442"/>
     <use x="1259.521484" xlink:href="#DejaVuSans-438"/>
     <use x="1324.511719" xlink:href="#DejaVuSans-43d"/>
     <use x="1389.892578" xlink:href="#DejaVuSans-433"/>
     <use x="1442.431641" xlink:href="#DejaVuSans-430"/>
    </g>
   </g>
   <g id="legend_1">
    <g id="patch_7">
     <path d="M 99.8 186.33625 
L 214.963125 186.33625 
Q 217.763125 186.33625 217.763125 183.53625 
L 217.763125 61.64 
Q 217.763125 58.84 214.963125 58.84 
L 99.8 58.84 
Q 97 58.84 97 61.64 
L 97 183.53625 
Q 97 186.33625 99.8 186.33625 
z
" style="fill:#eaeaf2;opacity:0.8;stroke:#cccccc;stroke-linejoin:miter;"/>
    </g>
    <g id="line2d_21">
     <path d="M 102.6 70.177812 
L 130.6 70.177812 
" style="fill:none;stroke:#1f77b4;stroke-linecap:round;stroke-width:1.5;"/>
    </g>
    <g id="line2d_22"/>
    <g id="text_18">
     <!-- lr=1e-05 -->
     <g style="fill:#262626;" transform="translate(141.8 75.077812)scale(0.14 -0.14)">
      <defs>
       <path d="M 678 2906 
L 4684 2906 
L 4684 2381 
L 678 2381 
L 678 2906 
z
M 678 1631 
L 4684 1631 
L 4684 1100 
L 678 1100 
L 678 1631 
z
" id="DejaVuSans-3d" transform="scale(0.015625)"/>
       <path d="M 313 2009 
L 1997 2009 
L 1997 1497 
L 313 1497 
L 313 2009 
z
" id="DejaVuSans-2d" transform="scale(0.015625)"/>
      </defs>
      <use xlink:href="#DejaVuSans-6c"/>
      <use x="27.783203" xlink:href="#DejaVuSans-72"/>
      <use x="68.896484" xlink:href="#DejaVuSans-3d"/>
      <use x="152.685547" xlink:href="#DejaVuSans-31"/>
      <use x="216.308594" xlink:href="#DejaVuSans-65"/>
      <use x="277.832031" xlink:href="#DejaVuSans-2d"/>
      <use x="313.916016" xlink:href="#DejaVuSans-30"/>
      <use x="377.539062" xlink:href="#DejaVuSans-35"/>
     </g>
    </g>
    <g id="line2d_23">
     <path d="M 102.6 90.727187 
L 130.6 90.727187 
" style="fill:none;stroke:#ff7f0e;stroke-linecap:round;stroke-width:1.5;"/>
    </g>
    <g id="line2d_24"/>
    <g id="text_19">
     <!-- lr=0.0001 -->
     <g style="fill:#262626;" transform="translate(141.8 95.627187)scale(0.14 -0.14)">
      <defs>
       <path d="M 684 794 
L 1344 794 
L 1344 0 
L 684 0 
L 684 794 
z
" id="DejaVuSans-2e" transform="scale(0.015625)"/>
      </defs>
      <use xlink:href="#DejaVuSans-6c"/>
      <use x="27.783203" xlink:href="#DejaVuSans-72"/>
      <use x="68.896484" xlink:href="#DejaVuSans-3d"/>
      <use x="152.685547" xlink:href="#DejaVuSans-30"/>
      <use x="216.308594" xlink:href="#DejaVuSans-2e"/>
      <use x="248.095703" xlink:href="#DejaVuSans-30"/>
      <use x="311.71875" xlink:href="#DejaVuSans-30"/>
      <use x="375.341797" xlink:href="#DejaVuSans-30"/>
      <use x="438.964844" xlink:href="#DejaVuSans-31"/>
     </g>
    </g>
    <g id="line2d_25">
     <path d="M 102.6 111.276562 
L 130.6 111.276562 
" style="fill:none;stroke:#2ca02c;stroke-linecap:round;stroke-width:1.5;"/>
    </g>
    <g id="line2d_26"/>
    <g id="text_20">
     <!-- lr=0.001 -->
     <g style="fill:#262626;" transform="translate(141.8 116.176562)scale(0.14 -0.14)">
      <use xlink:href="#DejaVuSans-6c"/>
      <use x="27.783203" xlink:href="#DejaVuSans-72"/>
      <use x="68.896484" xlink:href="#DejaVuSans-3d"/>
      <use x="152.685547" xlink:href="#DejaVuSans-30"/>
      <use x="216.308594" xlink:href="#DejaVuSans-2e"/>
      <use x="248.095703" xlink:href="#DejaVuSans-30"/>
      <use x="311.71875" xlink:href="#DejaVuSans-30"/>
      <use x="375.341797" xlink:href="#DejaVuSans-31"/>
     </g>
    </g>
    <g id="line2d_27">
     <path d="M 102.6 131.825937 
L 130.6 131.825937 
" style="fill:none;stroke:#d62728;stroke-linecap:round;stroke-width:1.5;"/>
    </g>
    <g id="line2d_28"/>
    <g id="text_21">
     <!-- lr=0.01 -->
     <g style="fill:#262626;" transform="translate(141.8 136.725937)scale(0.14 -0.14)">
      <use xlink:href="#DejaVuSans-6c"/>
      <use x="27.783203" xlink:href="#DejaVuSans-72"/>
      <use x="68.896484" xlink:href="#DejaVuSans-3d"/>
      <use x="152.685547" xlink:href="#DejaVuSans-30"/>
      <use x="216.308594" xlink:href="#DejaVuSans-2e"/>
      <use x="248.095703" xlink:href="#DejaVuSans-30"/>
      <use x="311.71875" xlink:href="#DejaVuSans-31"/>
     </g>
    </g>
    <g id="line2d_29">
     <path d="M 102.6 152.375312 
L 130.6 152.375312 
" style="fill:none;stroke:#9467bd;stroke-linecap:round;stroke-width:1.5;"/>
    </g>
    <g id="line2d_30"/>
    <g id="text_22">
     <!-- lr=0.1 -->
     <g style="fill:#262626;" transform="translate(141.8 157.275312)scale(0.14 -0.14)">
      <use xlink:href="#DejaVuSans-6c"/>
      <use x="27.783203" xlink:href="#DejaVuSans-72"/>
      <use x="68.896484" xlink:href="#DejaVuSans-3d"/>
      <use x="152.685547" xlink:href="#DejaVuSans-30"/>
      <use x="216.308594" xlink:href="#DejaVuSans-2e"/>
      <use x="248.095703" xlink:href="#DejaVuSans-31"/>
     </g>
    </g>
    <g id="line2d_31">
     <path d="M 102.6 172.924687 
L 130.6 172.924687 
" style="fill:none;stroke:#8c564b;stroke-linecap:round;stroke-width:1.5;"/>
    </g>
    <g id="line2d_32"/>
    <g id="text_23">
     <!-- lr=1 -->
     <g style="fill:#262626;" transform="translate(141.8 177.824687)scale(0.14 -0.14)">
      <use xlink:href="#DejaVuSans-6c"/>
      <use x="27.783203" xlink:href="#DejaVuSans-72"/>
      <use x="68.896484" xlink:href="#DejaVuSans-3d"/>
      <use x="152.685547" xlink:href="#DejaVuSans-31"/>
     </g>
    </g>
   </g>
  </g>
 </g>
 <defs>
  <clipPath id="p6aae3e2d0d">
   <rect height="326.16" width="558" x="90" y="51.84"/>
  </clipPath>
 </defs>
</svg>
