<?xml version="1.0" encoding="utf-8" standalone="no"?>
<!DOCTYPE svg PUBLIC "-//W3C//DTD SVG 1.1//EN"
  "http://www.w3.org/Graphics/SVG/1.1/DTD/svg11.dtd">
<svg height="432pt" version="1.1" viewBox="0 0 720 432" width="720pt" xmlns="http://www.w3.org/2000/svg" xmlns:xlink="http://www.w3.org/1999/xlink">
 <metadata>
  <rdf:RDF xmlns:cc="http://creativecommons.org/ns#" xmlns:dc="http://purl.org/dc/elements/1.1/" xmlns:rdf="http://www.w3.org/1999/02/22-rdf-syntax-ns#">
   <cc:Work>
    <dc:type rdf:resource="http://purl.org/dc/dcmitype/StillImage"/>
    <dc:date>2022-12-13T20:02:53.096729</dc:date>
    <dc:format>image/svg+xml</dc:format>
    <dc:creator>
     <cc:Agent>
      <dc:title>Matplotlib v3.4.3, https://matplotlib.org/</dc:title>
     </cc:Agent>
    </dc:creator>
   </cc:Work>
  </rdf:RDF>
 </metadata>
 <defs>
  <style type="text/css">*{stroke-linecap:butt;stroke-linejoin:round;}</style>
 </defs>
 <g id="figure_1">
  <g id="patch_1">
   <path d="M 0 432 
L 720 432 
L 720 0 
L 0 0 
z
" style="fill:#ffffff;"/>
  </g>
  <g id="axes_1">
   <g id="patch_2">
    <path d="M 90 378 
L 648 378 
L 648 51.84 
L 90 51.84 
z
" style="fill:#eaeaf2;"/>
   </g>
   <g id="matplotlib.axis_1">
    <g id="xtick_1">
     <g id="line2d_1">
      <path clip-path="url(#p0a26ca5ff1)" d="M 115.363636 378 
L 115.363636 51.84 
" style="fill:none;stroke:#ffffff;stroke-linecap:round;stroke-width:0.8;"/>
     </g>
     <g id="text_1">
      <!-- 0 -->
      <g style="fill:#262626;" transform="translate(110.909886 395.637812)scale(0.14 -0.14)">
       <defs>
        <path d="M 2034 4250 
Q 1547 4250 1301 3770 
Q 1056 3291 1056 2328 
Q 1056 1369 1301 889 
Q 1547 409 2034 409 
Q 2525 409 2770 889 
Q 3016 1369 3016 2328 
Q 3016 3291 2770 3770 
Q 2525 4250 2034 4250 
z
M 2034 4750 
Q 2819 4750 3233 4129 
Q 3647 3509 3647 2328 
Q 3647 1150 3233 529 
Q 2819 -91 2034 -91 
Q 1250 -91 836 529 
Q 422 1150 422 2328 
Q 422 3509 836 4129 
Q 1250 4750 2034 4750 
z
" id="DejaVuSans-30" transform="scale(0.015625)"/>
       </defs>
       <use xlink:href="#DejaVuSans-30"/>
      </g>
     </g>
    </g>
    <g id="xtick_2">
     <g id="line2d_2">
      <path clip-path="url(#p0a26ca5ff1)" d="M 178.804448 378 
L 178.804448 51.84 
" style="fill:none;stroke:#ffffff;stroke-linecap:round;stroke-width:0.8;"/>
     </g>
     <g id="text_2">
      <!-- 250 -->
      <g style="fill:#262626;" transform="translate(165.443198 395.637812)scale(0.14 -0.14)">
       <defs>
        <path d="M 1228 531 
L 3431 531 
L 3431 0 
L 469 0 
L 469 531 
Q 828 903 1448 1529 
Q 2069 2156 2228 2338 
Q 2531 2678 2651 2914 
Q 2772 3150 2772 3378 
Q 2772 3750 2511 3984 
Q 2250 4219 1831 4219 
Q 1534 4219 1204 4116 
Q 875 4013 500 3803 
L 500 4441 
Q 881 4594 1212 4672 
Q 1544 4750 1819 4750 
Q 2544 4750 2975 4387 
Q 3406 4025 3406 3419 
Q 3406 3131 3298 2873 
Q 3191 2616 2906 2266 
Q 2828 2175 2409 1742 
Q 1991 1309 1228 531 
z
" id="DejaVuSans-32" transform="scale(0.015625)"/>
        <path d="M 691 4666 
L 3169 4666 
L 3169 4134 
L 1269 4134 
L 1269 2991 
Q 1406 3038 1543 3061 
Q 1681 3084 1819 3084 
Q 2600 3084 3056 2656 
Q 3513 2228 3513 1497 
Q 3513 744 3044 326 
Q 2575 -91 1722 -91 
Q 1428 -91 1123 -41 
Q 819 9 494 109 
L 494 744 
Q 775 591 1075 516 
Q 1375 441 1709 441 
Q 2250 441 2565 725 
Q 2881 1009 2881 1497 
Q 2881 1984 2565 2268 
Q 2250 2553 1709 2553 
Q 1456 2553 1204 2497 
Q 953 2441 691 2322 
L 691 4666 
z
" id="DejaVuSans-35" transform="scale(0.015625)"/>
       </defs>
       <use xlink:href="#DejaVuSans-32"/>
       <use x="63.623047" xlink:href="#DejaVuSans-35"/>
       <use x="127.246094" xlink:href="#DejaVuSans-30"/>
      </g>
     </g>
    </g>
    <g id="xtick_3">
     <g id="line2d_3">
      <path clip-path="url(#p0a26ca5ff1)" d="M 242.245259 378 
L 242.245259 51.84 
" style="fill:none;stroke:#ffffff;stroke-linecap:round;stroke-width:0.8;"/>
     </g>
     <g id="text_3">
      <!-- 500 -->
      <g style="fill:#262626;" transform="translate(228.884009 395.637812)scale(0.14 -0.14)">
       <use xlink:href="#DejaVuSans-35"/>
       <use x="63.623047" xlink:href="#DejaVuSans-30"/>
       <use x="127.246094" xlink:href="#DejaVuSans-30"/>
      </g>
     </g>
    </g>
    <g id="xtick_4">
     <g id="line2d_4">
      <path clip-path="url(#p0a26ca5ff1)" d="M 305.68607 378 
L 305.68607 51.84 
" style="fill:none;stroke:#ffffff;stroke-linecap:round;stroke-width:0.8;"/>
     </g>
     <g id="text_4">
      <!-- 750 -->
      <g style="fill:#262626;" transform="translate(292.32482 395.637812)scale(0.14 -0.14)">
       <defs>
        <path d="M 525 4666 
L 3525 4666 
L 3525 4397 
L 1831 0 
L 1172 0 
L 2766 4134 
L 525 4134 
L 525 4666 
z
" id="DejaVuSans-37" transform="scale(0.015625)"/>
       </defs>
       <use xlink:href="#DejaVuSans-37"/>
       <use x="63.623047" xlink:href="#DejaVuSans-35"/>
       <use x="127.246094" xlink:href="#DejaVuSans-30"/>
      </g>
     </g>
    </g>
    <g id="xtick_5">
     <g id="line2d_5">
      <path clip-path="url(#p0a26ca5ff1)" d="M 369.126882 378 
L 369.126882 51.84 
" style="fill:none;stroke:#ffffff;stroke-linecap:round;stroke-width:0.8;"/>
     </g>
     <g id="text_5">
      <!-- 1000 -->
      <g style="fill:#262626;" transform="translate(351.311882 395.637812)scale(0.14 -0.14)">
       <defs>
        <path d="M 794 531 
L 1825 531 
L 1825 4091 
L 703 3866 
L 703 4441 
L 1819 4666 
L 2450 4666 
L 2450 531 
L 3481 531 
L 3481 0 
L 794 0 
L 794 531 
z
" id="DejaVuSans-31" transform="scale(0.015625)"/>
       </defs>
       <use xlink:href="#DejaVuSans-31"/>
       <use x="63.623047" xlink:href="#DejaVuSans-30"/>
       <use x="127.246094" xlink:href="#DejaVuSans-30"/>
       <use x="190.869141" xlink:href="#DejaVuSans-30"/>
      </g>
     </g>
    </g>
    <g id="xtick_6">
     <g id="line2d_6">
      <path clip-path="url(#p0a26ca5ff1)" d="M 432.567693 378 
L 432.567693 51.84 
" style="fill:none;stroke:#ffffff;stroke-linecap:round;stroke-width:0.8;"/>
     </g>
     <g id="text_6">
      <!-- 1250 -->
      <g style="fill:#262626;" transform="translate(414.752693 395.637812)scale(0.14 -0.14)">
       <use xlink:href="#DejaVuSans-31"/>
       <use x="63.623047" xlink:href="#DejaVuSans-32"/>
       <use x="127.246094" xlink:href="#DejaVuSans-35"/>
       <use x="190.869141" xlink:href="#DejaVuSans-30"/>
      </g>
     </g>
    </g>
    <g id="xtick_7">
     <g id="line2d_7">
      <path clip-path="url(#p0a26ca5ff1)" d="M 496.008504 378 
L 496.008504 51.84 
" style="fill:none;stroke:#ffffff;stroke-linecap:round;stroke-width:0.8;"/>
     </g>
     <g id="text_7">
      <!-- 1500 -->
      <g style="fill:#262626;" transform="translate(478.193504 395.637812)scale(0.14 -0.14)">
       <use xlink:href="#DejaVuSans-31"/>
       <use x="63.623047" xlink:href="#DejaVuSans-35"/>
       <use x="127.246094" xlink:href="#DejaVuSans-30"/>
       <use x="190.869141" xlink:href="#DejaVuSans-30"/>
      </g>
     </g>
    </g>
    <g id="xtick_8">
     <g id="line2d_8">
      <path clip-path="url(#p0a26ca5ff1)" d="M 559.449316 378 
L 559.449316 51.84 
" style="fill:none;stroke:#ffffff;stroke-linecap:round;stroke-width:0.8;"/>
     </g>
     <g id="text_8">
      <!-- 1750 -->
      <g style="fill:#262626;" transform="translate(541.634316 395.637812)scale(0.14 -0.14)">
       <use xlink:href="#DejaVuSans-31"/>
       <use x="63.623047" xlink:href="#DejaVuSans-37"/>
       <use x="127.246094" xlink:href="#DejaVuSans-35"/>
       <use x="190.869141" xlink:href="#DejaVuSans-30"/>
      </g>
     </g>
    </g>
    <g id="xtick_9">
     <g id="line2d_9">
      <path clip-path="url(#p0a26ca5ff1)" d="M 622.890127 378 
L 622.890127 51.84 
" style="fill:none;stroke:#ffffff;stroke-linecap:round;stroke-width:0.8;"/>
     </g>
     <g id="text_9">
      <!-- 2000 -->
      <g style="fill:#262626;" transform="translate(605.075127 395.637812)scale(0.14 -0.14)">
       <use xlink:href="#DejaVuSans-32"/>
       <use x="63.623047" xlink:href="#DejaVuSans-30"/>
       <use x="127.246094" xlink:href="#DejaVuSans-30"/>
       <use x="190.869141" xlink:href="#DejaVuSans-30"/>
      </g>
     </g>
    </g>
    <g id="text_10">
     <!-- Номер итерации -->
     <g style="fill:#262626;" transform="translate(307.666875 413.187187)scale(0.14 -0.14)">
      <defs>
       <path d="M 628 4666 
L 1259 4666 
L 1259 2753 
L 3553 2753 
L 3553 4666 
L 4184 4666 
L 4184 0 
L 3553 0 
L 3553 2222 
L 1259 2222 
L 1259 0 
L 628 0 
L 628 4666 
z
" id="DejaVuSans-41d" transform="scale(0.015625)"/>
       <path d="M 1959 3097 
Q 1497 3097 1228 2736 
Q 959 2375 959 1747 
Q 959 1119 1226 758 
Q 1494 397 1959 397 
Q 2419 397 2687 759 
Q 2956 1122 2956 1747 
Q 2956 2369 2687 2733 
Q 2419 3097 1959 3097 
z
M 1959 3584 
Q 2709 3584 3137 3096 
Q 3566 2609 3566 1747 
Q 3566 888 3137 398 
Q 2709 -91 1959 -91 
Q 1206 -91 779 398 
Q 353 888 353 1747 
Q 353 2609 779 3096 
Q 1206 3584 1959 3584 
z
" id="DejaVuSans-43e" transform="scale(0.015625)"/>
       <path d="M 581 3500 
L 1422 3500 
L 2416 1156 
L 3413 3500 
L 4247 3500 
L 4247 0 
L 3669 0 
L 3669 2950 
L 2703 672 
L 2128 672 
L 1159 2950 
L 1159 0 
L 581 0 
L 581 3500 
z
" id="DejaVuSans-43c" transform="scale(0.015625)"/>
       <path d="M 3597 1894 
L 3597 1613 
L 953 1613 
Q 991 1019 1311 708 
Q 1631 397 2203 397 
Q 2534 397 2845 478 
Q 3156 559 3463 722 
L 3463 178 
Q 3153 47 2828 -22 
Q 2503 -91 2169 -91 
Q 1331 -91 842 396 
Q 353 884 353 1716 
Q 353 2575 817 3079 
Q 1281 3584 2069 3584 
Q 2775 3584 3186 3129 
Q 3597 2675 3597 1894 
z
M 3022 2063 
Q 3016 2534 2758 2815 
Q 2500 3097 2075 3097 
Q 1594 3097 1305 2825 
Q 1016 2553 972 2059 
L 3022 2063 
z
" id="DejaVuSans-435" transform="scale(0.015625)"/>
       <path d="M 1159 525 
L 1159 -1331 
L 581 -1331 
L 581 3500 
L 1159 3500 
L 1159 2969 
Q 1341 3281 1617 3432 
Q 1894 3584 2278 3584 
Q 2916 3584 3314 3078 
Q 3713 2572 3713 1747 
Q 3713 922 3314 415 
Q 2916 -91 2278 -91 
Q 1894 -91 1617 61 
Q 1341 213 1159 525 
z
M 3116 1747 
Q 3116 2381 2855 2742 
Q 2594 3103 2138 3103 
Q 1681 3103 1420 2742 
Q 1159 2381 1159 1747 
Q 1159 1113 1420 752 
Q 1681 391 2138 391 
Q 2594 391 2855 752 
Q 3116 1113 3116 1747 
z
" id="DejaVuSans-440" transform="scale(0.015625)"/>
       <path id="DejaVuSans-20" transform="scale(0.015625)"/>
       <path d="M 3578 3500 
L 3578 0 
L 3006 0 
L 3006 2809 
L 1319 0 
L 581 0 
L 581 3500 
L 1153 3500 
L 1153 697 
L 2838 3500 
L 3578 3500 
z
" id="DejaVuSans-438" transform="scale(0.015625)"/>
       <path d="M 188 3500 
L 3541 3500 
L 3541 3041 
L 2147 3041 
L 2147 0 
L 1581 0 
L 1581 3041 
L 188 3041 
L 188 3500 
z
" id="DejaVuSans-442" transform="scale(0.015625)"/>
       <path d="M 2194 1759 
Q 1497 1759 1228 1600 
Q 959 1441 959 1056 
Q 959 750 1161 570 
Q 1363 391 1709 391 
Q 2188 391 2477 730 
Q 2766 1069 2766 1631 
L 2766 1759 
L 2194 1759 
z
M 3341 1997 
L 3341 0 
L 2766 0 
L 2766 531 
Q 2569 213 2275 61 
Q 1981 -91 1556 -91 
Q 1019 -91 701 211 
Q 384 513 384 1019 
Q 384 1609 779 1909 
Q 1175 2209 1959 2209 
L 2766 2209 
L 2766 2266 
Q 2766 2663 2505 2880 
Q 2244 3097 1772 3097 
Q 1472 3097 1187 3025 
Q 903 2953 641 2809 
L 641 3341 
Q 956 3463 1253 3523 
Q 1550 3584 1831 3584 
Q 2591 3584 2966 3190 
Q 3341 2797 3341 1997 
z
" id="DejaVuSans-430" transform="scale(0.015625)"/>
       <path d="M 3603 0 
L 581 0 
L 581 3500 
L 1159 3500 
L 1159 459 
L 3025 459 
L 3025 3500 
L 3603 3500 
L 3603 459 
L 4063 459 
L 4063 -884 
L 3603 -884 
L 3603 0 
z
" id="DejaVuSans-446" transform="scale(0.015625)"/>
      </defs>
      <use xlink:href="#DejaVuSans-41d"/>
      <use x="75.195312" xlink:href="#DejaVuSans-43e"/>
      <use x="136.376953" xlink:href="#DejaVuSans-43c"/>
      <use x="211.816406" xlink:href="#DejaVuSans-435"/>
      <use x="273.339844" xlink:href="#DejaVuSans-440"/>
      <use x="336.816406" xlink:href="#DejaVuSans-20"/>
      <use x="368.603516" xlink:href="#DejaVuSans-438"/>
      <use x="433.59375" xlink:href="#DejaVuSans-442"/>
      <use x="491.845703" xlink:href="#DejaVuSans-435"/>
      <use x="553.369141" xlink:href="#DejaVuSans-440"/>
      <use x="616.845703" xlink:href="#DejaVuSans-430"/>
      <use x="678.125" xlink:href="#DejaVuSans-446"/>
      <use x="746.191406" xlink:href="#DejaVuSans-438"/>
      <use x="811.181641" xlink:href="#DejaVuSans-438"/>
     </g>
    </g>
   </g>
   <g id="matplotlib.axis_2">
    <g id="ytick_1">
     <g id="line2d_10">
      <path clip-path="url(#p0a26ca5ff1)" d="M 90 376.837811 
L 648 376.837811 
" style="fill:none;stroke:#ffffff;stroke-linecap:round;stroke-width:0.8;"/>
     </g>
     <g id="text_11">
      <!-- 0 -->
      <g style="fill:#262626;" transform="translate(74.0925 382.156717)scale(0.14 -0.14)">
       <use xlink:href="#DejaVuSans-30"/>
      </g>
     </g>
    </g>
    <g id="ytick_2">
     <g id="line2d_11">
      <path clip-path="url(#p0a26ca5ff1)" d="M 90 325.859696 
L 648 325.859696 
" style="fill:none;stroke:#ffffff;stroke-linecap:round;stroke-width:0.8;"/>
     </g>
     <g id="text_12">
      <!-- 100000 -->
      <g style="fill:#262626;" transform="translate(29.555 331.178602)scale(0.14 -0.14)">
       <use xlink:href="#DejaVuSans-31"/>
       <use x="63.623047" xlink:href="#DejaVuSans-30"/>
       <use x="127.246094" xlink:href="#DejaVuSans-30"/>
       <use x="190.869141" xlink:href="#DejaVuSans-30"/>
       <use x="254.492188" xlink:href="#DejaVuSans-30"/>
       <use x="318.115234" xlink:href="#DejaVuSans-30"/>
      </g>
     </g>
    </g>
    <g id="ytick_3">
     <g id="line2d_12">
      <path clip-path="url(#p0a26ca5ff1)" d="M 90 274.881581 
L 648 274.881581 
" style="fill:none;stroke:#ffffff;stroke-linecap:round;stroke-width:0.8;"/>
     </g>
     <g id="text_13">
      <!-- 200000 -->
      <g style="fill:#262626;" transform="translate(29.555 280.200487)scale(0.14 -0.14)">
       <use xlink:href="#DejaVuSans-32"/>
       <use x="63.623047" xlink:href="#DejaVuSans-30"/>
       <use x="127.246094" xlink:href="#DejaVuSans-30"/>
       <use x="190.869141" xlink:href="#DejaVuSans-30"/>
       <use x="254.492188" xlink:href="#DejaVuSans-30"/>
       <use x="318.115234" xlink:href="#DejaVuSans-30"/>
      </g>
     </g>
    </g>
    <g id="ytick_4">
     <g id="line2d_13">
      <path clip-path="url(#p0a26ca5ff1)" d="M 90 223.903466 
L 648 223.903466 
" style="fill:none;stroke:#ffffff;stroke-linecap:round;stroke-width:0.8;"/>
     </g>
     <g id="text_14">
      <!-- 300000 -->
      <g style="fill:#262626;" transform="translate(29.555 229.222372)scale(0.14 -0.14)">
       <defs>
        <path d="M 2597 2516 
Q 3050 2419 3304 2112 
Q 3559 1806 3559 1356 
Q 3559 666 3084 287 
Q 2609 -91 1734 -91 
Q 1441 -91 1130 -33 
Q 819 25 488 141 
L 488 750 
Q 750 597 1062 519 
Q 1375 441 1716 441 
Q 2309 441 2620 675 
Q 2931 909 2931 1356 
Q 2931 1769 2642 2001 
Q 2353 2234 1838 2234 
L 1294 2234 
L 1294 2753 
L 1863 2753 
Q 2328 2753 2575 2939 
Q 2822 3125 2822 3475 
Q 2822 3834 2567 4026 
Q 2313 4219 1838 4219 
Q 1578 4219 1281 4162 
Q 984 4106 628 3988 
L 628 4550 
Q 988 4650 1302 4700 
Q 1616 4750 1894 4750 
Q 2613 4750 3031 4423 
Q 3450 4097 3450 3541 
Q 3450 3153 3228 2886 
Q 3006 2619 2597 2516 
z
" id="DejaVuSans-33" transform="scale(0.015625)"/>
       </defs>
       <use xlink:href="#DejaVuSans-33"/>
       <use x="63.623047" xlink:href="#DejaVuSans-30"/>
       <use x="127.246094" xlink:href="#DejaVuSans-30"/>
       <use x="190.869141" xlink:href="#DejaVuSans-30"/>
       <use x="254.492188" xlink:href="#DejaVuSans-30"/>
       <use x="318.115234" xlink:href="#DejaVuSans-30"/>
      </g>
     </g>
    </g>
    <g id="ytick_5">
     <g id="line2d_14">
      <path clip-path="url(#p0a26ca5ff1)" d="M 90 172.925351 
L 648 172.925351 
" style="fill:none;stroke:#ffffff;stroke-linecap:round;stroke-width:0.8;"/>
     </g>
     <g id="text_15">
      <!-- 400000 -->
      <g style="fill:#262626;" transform="translate(29.555 178.244257)scale(0.14 -0.14)">
       <defs>
        <path d="M 2419 4116 
L 825 1625 
L 2419 1625 
L 2419 4116 
z
M 2253 4666 
L 3047 4666 
L 3047 1625 
L 3713 1625 
L 3713 1100 
L 3047 1100 
L 3047 0 
L 2419 0 
L 2419 1100 
L 313 1100 
L 313 1709 
L 2253 4666 
z
" id="DejaVuSans-34" transform="scale(0.015625)"/>
       </defs>
       <use xlink:href="#DejaVuSans-34"/>
       <use x="63.623047" xlink:href="#DejaVuSans-30"/>
       <use x="127.246094" xlink:href="#DejaVuSans-30"/>
       <use x="190.869141" xlink:href="#DejaVuSans-30"/>
       <use x="254.492188" xlink:href="#DejaVuSans-30"/>
       <use x="318.115234" xlink:href="#DejaVuSans-30"/>
      </g>
     </g>
    </g>
    <g id="ytick_6">
     <g id="line2d_15">
      <path clip-path="url(#p0a26ca5ff1)" d="M 90 121.947236 
L 648 121.947236 
" style="fill:none;stroke:#ffffff;stroke-linecap:round;stroke-width:0.8;"/>
     </g>
     <g id="text_16">
      <!-- 500000 -->
      <g style="fill:#262626;" transform="translate(29.555 127.266143)scale(0.14 -0.14)">
       <use xlink:href="#DejaVuSans-35"/>
       <use x="63.623047" xlink:href="#DejaVuSans-30"/>
       <use x="127.246094" xlink:href="#DejaVuSans-30"/>
       <use x="190.869141" xlink:href="#DejaVuSans-30"/>
       <use x="254.492188" xlink:href="#DejaVuSans-30"/>
       <use x="318.115234" xlink:href="#DejaVuSans-30"/>
      </g>
     </g>
    </g>
    <g id="ytick_7">
     <g id="line2d_16">
      <path clip-path="url(#p0a26ca5ff1)" d="M 90 70.969121 
L 648 70.969121 
" style="fill:none;stroke:#ffffff;stroke-linecap:round;stroke-width:0.8;"/>
     </g>
     <g id="text_17">
      <!-- 600000 -->
      <g style="fill:#262626;" transform="translate(29.555 76.288028)scale(0.14 -0.14)">
       <defs>
        <path d="M 2113 2584 
Q 1688 2584 1439 2293 
Q 1191 2003 1191 1497 
Q 1191 994 1439 701 
Q 1688 409 2113 409 
Q 2538 409 2786 701 
Q 3034 994 3034 1497 
Q 3034 2003 2786 2293 
Q 2538 2584 2113 2584 
z
M 3366 4563 
L 3366 3988 
Q 3128 4100 2886 4159 
Q 2644 4219 2406 4219 
Q 1781 4219 1451 3797 
Q 1122 3375 1075 2522 
Q 1259 2794 1537 2939 
Q 1816 3084 2150 3084 
Q 2853 3084 3261 2657 
Q 3669 2231 3669 1497 
Q 3669 778 3244 343 
Q 2819 -91 2113 -91 
Q 1303 -91 875 529 
Q 447 1150 447 2328 
Q 447 3434 972 4092 
Q 1497 4750 2381 4750 
Q 2619 4750 2861 4703 
Q 3103 4656 3366 4563 
z
" id="DejaVuSans-36" transform="scale(0.015625)"/>
       </defs>
       <use xlink:href="#DejaVuSans-36"/>
       <use x="63.623047" xlink:href="#DejaVuSans-30"/>
       <use x="127.246094" xlink:href="#DejaVuSans-30"/>
       <use x="190.869141" xlink:href="#DejaVuSans-30"/>
       <use x="254.492188" xlink:href="#DejaVuSans-30"/>
       <use x="318.115234" xlink:href="#DejaVuSans-30"/>
      </g>
     </g>
    </g>
    <g id="text_18">
     <!-- RMSE -->
     <g style="fill:#262626;" transform="translate(22.643437 234.690625)rotate(-90)scale(0.14 -0.14)">
      <defs>
       <path d="M 2841 2188 
Q 3044 2119 3236 1894 
Q 3428 1669 3622 1275 
L 4263 0 
L 3584 0 
L 2988 1197 
Q 2756 1666 2539 1819 
Q 2322 1972 1947 1972 
L 1259 1972 
L 1259 0 
L 628 0 
L 628 4666 
L 2053 4666 
Q 2853 4666 3247 4331 
Q 3641 3997 3641 3322 
Q 3641 2881 3436 2590 
Q 3231 2300 2841 2188 
z
M 1259 4147 
L 1259 2491 
L 2053 2491 
Q 2509 2491 2742 2702 
Q 2975 2913 2975 3322 
Q 2975 3731 2742 3939 
Q 2509 4147 2053 4147 
L 1259 4147 
z
" id="DejaVuSans-52" transform="scale(0.015625)"/>
       <path d="M 628 4666 
L 1569 4666 
L 2759 1491 
L 3956 4666 
L 4897 4666 
L 4897 0 
L 4281 0 
L 4281 4097 
L 3078 897 
L 2444 897 
L 1241 4097 
L 1241 0 
L 628 0 
L 628 4666 
z
" id="DejaVuSans-4d" transform="scale(0.015625)"/>
       <path d="M 3425 4513 
L 3425 3897 
Q 3066 4069 2747 4153 
Q 2428 4238 2131 4238 
Q 1616 4238 1336 4038 
Q 1056 3838 1056 3469 
Q 1056 3159 1242 3001 
Q 1428 2844 1947 2747 
L 2328 2669 
Q 3034 2534 3370 2195 
Q 3706 1856 3706 1288 
Q 3706 609 3251 259 
Q 2797 -91 1919 -91 
Q 1588 -91 1214 -16 
Q 841 59 441 206 
L 441 856 
Q 825 641 1194 531 
Q 1563 422 1919 422 
Q 2459 422 2753 634 
Q 3047 847 3047 1241 
Q 3047 1584 2836 1778 
Q 2625 1972 2144 2069 
L 1759 2144 
Q 1053 2284 737 2584 
Q 422 2884 422 3419 
Q 422 4038 858 4394 
Q 1294 4750 2059 4750 
Q 2388 4750 2728 4690 
Q 3069 4631 3425 4513 
z
" id="DejaVuSans-53" transform="scale(0.015625)"/>
       <path d="M 628 4666 
L 3578 4666 
L 3578 4134 
L 1259 4134 
L 1259 2753 
L 3481 2753 
L 3481 2222 
L 1259 2222 
L 1259 531 
L 3634 531 
L 3634 0 
L 628 0 
L 628 4666 
z
" id="DejaVuSans-45" transform="scale(0.015625)"/>
      </defs>
      <use xlink:href="#DejaVuSans-52"/>
      <use x="69.482422" xlink:href="#DejaVuSans-4d"/>
      <use x="155.761719" xlink:href="#DejaVuSans-53"/>
      <use x="219.238281" xlink:href="#DejaVuSans-45"/>
     </g>
    </g>
   </g>
   <g id="line2d_17">
    <path clip-path="url(#p0a26ca5ff1)" d="M 115.363636 75.356507 
L 116.124926 145.745784 
L 116.886216 193.713437 
L 117.901269 239.307723 
L 118.662559 260.446266 
L 119.423848 274.655318 
L 120.185138 285.097265 
L 120.946428 292.202782 
L 122.215244 298.195103 
L 122.469007 298.873376 
L 122.976534 301.510007 
L 123.230297 301.899359 
L 123.991587 303.425995 
L 124.24535 303.702472 
L 124.499113 304.173536 
L 124.752876 305.247691 
L 126.021693 306.85727 
L 126.782982 307.542127 
L 127.036746 307.657852 
L 127.290509 308.575589 
L 127.544272 308.814374 
L 127.798035 309.627177 
L 128.051799 309.821901 
L 128.305562 310.442875 
L 128.813088 310.889665 
L 129.320615 311.142579 
L 129.574378 311.811378 
L 130.081905 312.073063 
L 130.335668 312.272686 
L 131.096958 313.262163 
L 133.127064 315.165498 
L 133.63459 315.378348 
L 134.142117 315.87223 
L 134.39588 315.933411 
L 134.903406 316.234569 
L 140.486198 319.378556 
L 141.755014 319.798144 
L 142.26254 319.98039 
L 143.02383 320.149698 
L 144.54641 320.569323 
L 145.815226 321.150927 
L 147.084042 321.579469 
L 153.93565 323.449762 
L 155.458229 323.783896 
L 156.727045 324.14348 
L 162.5636 325.554271 
L 164.086179 325.91637 
L 166.877575 326.624631 
L 169.415208 327.154571 
L 170.176497 327.312462 
L 172.71413 327.646467 
L 173.982946 327.941498 
L 175.251762 328.19868 
L 179.565737 328.831274 
L 180.327027 328.972748 
L 191.746373 330.724427 
L 192.2539 330.830904 
L 194.284006 331.162747 
L 221.436673 334.522365 
L 222.705489 334.691924 
L 234.378598 336.009055 
L 252.395789 337.696305 
L 255.187185 338.025601 
L 264.576425 338.917376 
L 278.025877 340.080666 
L 281.832325 340.396778 
L 286.400064 340.80383 
L 289.191459 341.040142 
L 292.997908 341.412306 
L 297.311883 341.775245 
L 303.909728 342.341726 
L 307.20865 342.610965 
L 324.718314 344.072122 
L 340.959161 345.135998 
L 343.496794 345.316438 
L 345.5269 345.452096 
L 354.408613 346.059315 
L 359.991405 346.406219 
L 362.529037 346.588913 
L 370.141935 347.098023 
L 376.993542 347.484145 
L 382.830097 347.797567 
L 389.427941 348.148686 
L 430.537587 350.333164 
L 442.210696 350.929161 
L 455.406385 351.568158 
L 459.466597 351.741967 
L 467.333258 352.145663 
L 472.662286 352.418143 
L 478.245077 352.648874 
L 488.141844 353.06328 
L 504.128928 353.778097 
L 509.711719 354.032955 
L 515.802037 354.287971 
L 534.326754 355.04246 
L 539.655782 355.229798 
L 543.462231 355.380781 
L 566.04716 356.184037 
L 573.660057 356.482061 
L 619.083678 358.002047 
L 622.636364 358.122641 
L 622.636364 358.122641 
" style="fill:none;stroke:#1f77b4;stroke-linecap:round;stroke-width:1.5;"/>
   </g>
   <g id="line2d_18">
    <path clip-path="url(#p0a26ca5ff1)" d="M 115.363636 66.665455 
L 116.124926 137.685643 
L 116.632453 171.225274 
L 117.393742 207.797451 
L 118.155032 236.952645 
L 118.408795 244.941443 
L 119.677612 266.289399 
L 120.438901 274.440297 
L 120.692665 276.053546 
L 120.946428 278.870448 
L 121.961481 282.95134 
L 123.230297 286.874725 
L 123.48406 287.070681 
L 123.737823 286.88887 
L 124.499113 286.947869 
L 124.752876 287.85662 
L 125.260403 288.31061 
L 125.514166 288.405056 
L 125.767929 288.316967 
L 126.529219 288.653778 
L 127.036746 288.738731 
L 127.290509 289.606555 
L 127.544272 289.754242 
L 127.798035 290.505965 
L 128.051799 290.534866 
L 128.305562 291.030403 
L 128.813088 291.182138 
L 129.066852 291.087723 
L 129.320615 291.143752 
L 129.574378 291.613468 
L 130.081905 291.717487 
L 130.335668 291.832598 
L 130.843194 292.648378 
L 131.604484 292.871902 
L 131.858247 293.339125 
L 132.365774 293.342109 
L 132.8733 293.990294 
L 133.63459 294.045722 
L 134.142117 294.480862 
L 134.39588 294.521138 
L 134.649643 294.696263 
L 135.157169 294.814528 
L 135.664696 294.96945 
L 137.441039 295.530588 
L 137.694802 295.53834 
L 137.948565 295.860155 
L 138.202328 295.919724 
L 138.709855 295.828015 
L 138.963618 295.951425 
L 139.471145 295.864747 
L 139.724908 295.904024 
L 140.232434 296.2096 
L 140.739961 296.264423 
L 142.008777 296.493864 
L 143.78512 296.594747 
L 144.038883 296.730312 
L 144.800173 296.761262 
L 154.443176 297.287912 
L 155.204466 297.237676 
L 155.711992 297.327677 
L 156.219519 297.338207 
L 158.757151 297.443939 
L 162.056073 297.601008 
L 163.32489 297.583287 
L 166.370049 297.813232 
L 170.176497 297.868568 
L 173.729183 297.924367 
L 175.251762 297.964444 
L 175.759289 297.942245 
L 176.520578 297.977112 
L 183.625949 297.981173 
L 184.641002 298.033325 
L 187.939925 298.239723 
L 192.2539 298.132224 
L 193.522716 298.170074 
L 194.791532 298.170756 
L 198.851744 298.193444 
L 199.866797 298.16131 
L 207.733458 298.059846 
L 209.5098 298.051787 
L 211.79367 298.076847 
L 214.585065 298.061919 
L 216.361408 298.048377 
L 219.152804 298.098589 
L 221.944199 298.05916 
L 222.959252 298.049547 
L 238.946337 298.153077 
L 246.559234 298.088896 
L 257.471054 298.200149 
L 272.950612 298.290852 
L 274.726954 298.285848 
L 275.995771 298.265945 
L 277.772113 298.245379 
L 279.294693 298.237083 
L 286.90759 298.279215 
L 288.683933 298.244564 
L 299.595752 298.336776 
L 301.879622 298.346709 
L 326.494656 298.349764 
L 329.793579 298.341728 
L 358.976352 298.424033 
L 361.006458 298.437571 
L 420.133294 298.446306 
L 426.477375 298.427355 
L 437.896721 298.392079 
L 606.395516 298.449263 
L 610.201965 298.463132 
L 617.561099 298.443123 
L 622.636364 298.417841 
L 622.636364 298.417841 
" style="fill:none;stroke:#ff7f0e;stroke-linecap:round;stroke-width:1.5;"/>
   </g>
   <g id="line2d_19">
    <path clip-path="url(#p0a26ca5ff1)" d="M 115.363636 268.500434 
L 116.124926 279.869231 
L 116.378689 282.517506 
L 116.632453 282.988973 
L 116.886216 282.450341 
L 117.139979 283.715136 
L 117.393742 283.717945 
L 117.901269 292.090424 
L 118.155032 293.880497 
L 118.408795 294.256621 
L 118.662559 294.315708 
L 118.916322 295.048591 
L 119.170085 296.75656 
L 119.931375 299.208074 
L 120.185138 299.5628 
L 120.438901 300.618046 
L 120.692665 300.969245 
L 120.946428 300.926289 
L 121.200191 301.031162 
L 121.453954 301.959163 
L 121.961481 302.527363 
L 122.469007 302.970737 
L 122.72277 303.882443 
L 123.737823 305.026025 
L 123.991587 304.694919 
L 124.24535 304.786109 
L 124.499113 304.36212 
L 124.752876 304.665513 
L 125.260403 305.831927 
L 125.514166 306.016061 
L 126.021693 306.194081 
L 126.275456 306.283147 
L 126.782982 306.720825 
L 127.036746 306.841892 
L 127.290509 307.13205 
L 127.544272 307.055571 
L 128.305562 307.686772 
L 128.559325 307.4865 
L 129.066852 307.927706 
L 129.320615 308.28409 
L 129.574378 308.282549 
L 130.335668 308.823895 
L 130.589431 308.839204 
L 130.843194 309.260399 
L 131.096958 309.154221 
L 131.350721 309.209435 
L 131.858247 309.817674 
L 132.112011 309.837252 
L 132.619537 310.025937 
L 132.8733 310.062798 
L 133.63459 310.754371 
L 134.142117 310.968561 
L 134.39588 311.262958 
L 134.649643 311.298865 
L 134.903406 311.680268 
L 135.157169 311.692301 
L 135.664696 312.003056 
L 135.918459 312.135931 
L 136.679749 312.184301 
L 136.933512 312.456688 
L 137.187275 312.534977 
L 137.441039 312.834434 
L 138.202328 313.073022 
L 138.456092 313.307663 
L 138.963618 313.463627 
L 139.217381 313.953003 
L 139.724908 314.17282 
L 140.232434 314.203245 
L 140.486198 314.452205 
L 140.739961 314.39459 
L 141.247487 314.821843 
L 141.501251 314.724433 
L 141.755014 314.849055 
L 142.008777 314.795391 
L 142.770067 315.411238 
L 143.02383 315.47786 
L 143.531357 315.825552 
L 143.78512 315.851799 
L 145.307699 316.907262 
L 145.561463 317.198061 
L 146.068989 316.994489 
L 146.322752 317.152111 
L 146.830279 317.250043 
L 147.337805 317.467364 
L 147.845332 317.681915 
L 148.606621 318.306864 
L 148.860385 318.338551 
L 149.114148 318.487461 
L 149.367911 318.478284 
L 149.621674 318.583863 
L 150.129201 318.957808 
L 150.890491 319.409719 
L 151.144254 319.271509 
L 151.398017 319.434997 
L 151.905544 319.400131 
L 152.666833 319.753746 
L 152.920597 319.846933 
L 153.681886 319.782073 
L 153.93565 319.915643 
L 154.443176 319.911819 
L 154.950703 320.295488 
L 155.204466 320.517719 
L 155.458229 320.533979 
L 155.711992 320.721244 
L 156.727045 320.716424 
L 157.995862 320.509224 
L 158.249625 319.979831 
L 158.503388 320.203272 
L 158.757151 320.576661 
L 159.518441 320.643224 
L 159.772204 321.183917 
L 160.787257 321.564769 
L 161.548547 321.261509 
L 162.056073 321.575783 
L 162.5636 321.574566 
L 162.817363 321.498358 
L 163.071126 321.755538 
L 163.32489 321.571276 
L 164.593706 322.185419 
L 164.847469 322.057199 
L 165.608759 322.24826 
L 166.370049 322.474513 
L 168.400155 322.764966 
L 168.907681 322.874189 
L 170.176497 323.011722 
L 171.445314 323.512064 
L 171.699077 323.537793 
L 171.95284 323.736795 
L 172.460367 323.74404 
L 172.967893 323.954216 
L 178.804448 325.472694 
L 179.058211 325.41991 
L 179.565737 325.582402 
L 180.073264 325.659185 
L 180.58079 325.656557 
L 181.34208 325.952759 
L 182.10337 326.097556 
L 183.372186 326.328062 
L 184.641002 326.728339 
L 184.894766 326.682273 
L 185.656055 326.952903 
L 186.163582 327.030938 
L 188.193688 327.550479 
L 188.954977 327.904578 
L 189.462504 327.989021 
L 190.477557 328.362766 
L 190.73132 328.283904 
L 193.268953 328.953353 
L 193.776479 328.970274 
L 194.537769 329.233899 
L 195.552822 329.361941 
L 197.329165 329.747026 
L 200.628087 330.232122 
L 201.64314 330.434113 
L 202.150666 330.479894 
L 204.688299 331.140836 
L 206.210878 331.272484 
L 206.718405 331.485414 
L 207.225931 331.580874 
L 208.240984 331.80062 
L 208.748511 331.805565 
L 210.017327 332.03665 
L 210.524853 332.157905 
L 211.03238 332.236752 
L 211.79367 332.369162 
L 212.808723 332.494881 
L 213.823776 332.584789 
L 215.600118 332.902469 
L 216.615171 333.02963 
L 217.376461 333.174437 
L 217.883987 333.156893 
L 218.645277 333.295338 
L 219.152804 333.388644 
L 221.436673 333.460208 
L 221.944199 333.647503 
L 223.213016 333.740673 
L 223.466779 333.69035 
L 224.481832 333.888213 
L 227.273228 334.351227 
L 227.780754 334.408006 
L 229.04957 334.624482 
L 231.333439 334.946824 
L 232.094729 334.958079 
L 233.109782 335.078771 
L 233.363545 335.002136 
L 235.139888 335.412635 
L 235.647415 335.344767 
L 237.931284 335.590472 
L 239.2001 335.858157 
L 240.468916 336.01648 
L 241.483969 336.221277 
L 241.991496 336.204136 
L 242.499022 336.239214 
L 248.081814 337.231044 
L 249.35063 337.45935 
L 250.619446 337.560496 
L 251.380736 337.675593 
L 252.649552 337.768212 
L 254.172132 338.033358 
L 254.679658 338.130782 
L 255.694711 338.223087 
L 256.709764 338.492719 
L 257.21729 338.502806 
L 257.724817 338.668661 
L 258.232343 338.761266 
L 266.860294 339.705102 
L 267.114057 339.627203 
L 267.875347 339.787404 
L 268.382873 339.718148 
L 269.144163 339.770694 
L 269.905453 339.820451 
L 274.473191 340.311712 
L 274.980718 340.387981 
L 276.503297 340.613988 
L 278.025877 340.73644 
L 278.787166 340.891657 
L 280.309746 341.120451 
L 294.774251 342.690382 
L 295.789304 342.896399 
L 296.550593 342.908689 
L 297.311883 342.985157 
L 298.326936 343.156563 
L 299.088226 343.149413 
L 299.595752 343.196418 
L 300.864569 343.408973 
L 301.372095 343.373345 
L 302.387148 343.359116 
L 303.148438 343.482379 
L 305.178544 343.58786 
L 306.44736 343.721654 
L 307.462413 343.8802 
L 309.746282 344.043864 
L 310.507572 344.09582 
L 311.015098 344.207491 
L 311.522625 344.226578 
L 315.582837 344.605527 
L 317.866706 344.842177 
L 318.374233 344.924869 
L 320.150575 344.972837 
L 322.434444 345.25376 
L 323.195734 345.312125 
L 323.957024 345.453826 
L 327.763473 345.811088 
L 328.270999 345.9013 
L 330.301105 346.070234 
L 332.077448 346.279052 
L 332.584974 346.279377 
L 333.600027 346.424072 
L 334.868844 346.499471 
L 337.152713 346.576247 
L 339.944108 346.813645 
L 340.959161 346.810967 
L 341.720451 346.878908 
L 343.750557 346.821251 
L 344.00432 346.741149 
L 344.511847 346.888258 
L 345.273137 346.881094 
L 346.28819 346.853213 
L 347.557006 346.872886 
L 352.632271 347.609616 
L 354.662377 347.597571 
L 355.169903 347.669836 
L 356.692483 347.786686 
L 358.468825 347.903896 
L 359.230115 347.961614 
L 359.991405 348.089351 
L 361.513984 348.129799 
L 369.126882 348.559264 
L 371.664514 348.754548 
L 372.679567 348.862531 
L 375.2172 349.047938 
L 376.232252 349.077504 
L 377.247305 349.174329 
L 378.262358 349.245569 
L 385.621493 349.539781 
L 389.174178 349.892275 
L 390.442994 349.885743 
L 391.71181 350.055346 
L 392.726863 350.110339 
L 393.99568 350.174588 
L 395.010733 350.183081 
L 395.772022 350.242399 
L 398.817181 350.413708 
L 399.578471 350.507444 
L 400.593524 350.585376 
L 401.354814 350.621931 
L 402.116104 350.622002 
L 403.638683 350.746372 
L 404.653736 350.848328 
L 406.937605 351.058198 
L 407.698895 351.211465 
L 408.206421 351.215017 
L 409.475238 351.324958 
L 411.759107 351.473087 
L 420.133294 352.076997 
L 424.447269 352.516078 
L 434.090272 353.012057 
L 437.642958 353.321259 
L 440.94188 353.393264 
L 442.971986 353.634885 
L 446.524671 353.726579 
L 455.660148 354.639267 
L 456.675201 354.699009 
L 458.451544 354.808103 
L 459.72036 354.866061 
L 461.750466 354.940861 
L 463.019282 354.980357 
L 464.034335 355.035947 
L 465.049388 355.090559 
L 468.348311 355.289063 
L 470.378416 355.447738 
L 471.647233 355.49409 
L 477.230024 355.830539 
L 496.262267 356.943465 
L 497.784847 357.038104 
L 499.053663 357.153609 
L 510.473009 357.843804 
L 511.995589 357.854136 
L 513.010642 357.966604 
L 528.997726 358.846299 
L 530.266542 358.922901 
L 532.550412 359.033368 
L 533.819228 359.111046 
L 537.371913 359.311718 
L 538.894493 359.416142 
L 542.954705 359.72453 
L 544.984811 359.759622 
L 557.41921 360.432496 
L 559.195552 360.447944 
L 560.210605 360.471151 
L 562.240711 360.548919 
L 564.017054 360.665952 
L 572.645004 360.945421 
L 574.421347 361.074341 
L 575.943927 361.073191 
L 580.765428 361.332292 
L 582.288008 361.366619 
L 604.111647 362.430966 
L 610.709491 362.794075 
L 612.232071 362.863522 
L 618.322388 363.045439 
L 620.860021 363.090267 
L 622.636364 363.174545 
L 622.636364 363.174545 
" style="fill:none;stroke:#2ca02c;stroke-linecap:round;stroke-width:1.5;"/>
   </g>
   <g id="line2d_20">
    <path clip-path="url(#p0a26ca5ff1)" d="M 115.363636 248.965432 
L 115.6174 249.080988 
L 115.871163 248.082955 
L 116.124926 251.691702 
L 116.378689 251.870756 
L 116.886216 250.079721 
L 117.393742 244.706187 
L 117.647506 248.270223 
L 117.901269 254.391366 
L 118.408795 252.077299 
L 118.662559 252.732159 
L 118.916322 250.4603 
L 119.170085 250.045839 
L 119.423848 250.933186 
L 119.677612 249.919667 
L 119.931375 247.58085 
L 120.185138 243.389334 
L 120.438901 244.304312 
L 120.692665 244.210535 
L 120.946428 243.407848 
L 121.200191 242.186644 
L 121.453954 242.325363 
L 121.961481 239.292999 
L 122.215244 240.085522 
L 122.469007 238.443728 
L 122.72277 237.638626 
L 122.976534 237.506245 
L 123.230297 237.091771 
L 123.48406 238.232898 
L 123.991587 236.060068 
L 124.24535 236.180144 
L 124.752876 233.061587 
L 125.00664 233.064246 
L 125.260403 233.705785 
L 125.514166 233.498548 
L 125.767929 234.673894 
L 126.021693 232.840455 
L 126.275456 234.901948 
L 126.529219 234.189474 
L 126.782982 234.523038 
L 127.036746 233.684015 
L 127.290509 233.7256 
L 127.544272 234.220277 
L 127.798035 231.840927 
L 128.051799 232.18594 
L 128.305562 232.126416 
L 128.813088 230.027508 
L 129.066852 229.545666 
L 129.320615 229.573516 
L 129.574378 229.462421 
L 129.828141 228.964027 
L 130.081905 229.23221 
L 130.335668 229.187324 
L 130.589431 229.282322 
L 130.843194 228.965298 
L 131.096958 229.32733 
L 131.604484 227.629693 
L 131.858247 227.326913 
L 132.365774 225.550972 
L 132.619537 225.517311 
L 132.8733 224.9352 
L 133.127064 225.264851 
L 133.380827 224.254197 
L 133.63459 224.361001 
L 133.888353 223.849238 
L 134.142117 224.420646 
L 134.39588 224.432426 
L 134.649643 224.787138 
L 134.903406 223.550353 
L 135.157169 223.38379 
L 135.410933 223.609596 
L 135.664696 223.372526 
L 135.918459 222.484946 
L 136.172222 223.086196 
L 136.425986 222.869739 
L 136.933512 223.945373 
L 137.441039 223.611517 
L 137.694802 224.285841 
L 137.948565 223.449944 
L 138.202328 224.875873 
L 138.963618 223.94404 
L 139.217381 224.160713 
L 139.471145 224.638026 
L 139.978671 223.304822 
L 140.232434 223.407682 
L 140.486198 222.988095 
L 140.739961 222.971603 
L 141.755014 221.285502 
L 142.26254 221.39168 
L 142.516304 221.382425 
L 142.770067 221.224089 
L 143.02383 221.627851 
L 143.531357 221.363996 
L 143.78512 221.025963 
L 144.038883 221.238911 
L 144.292646 220.772758 
L 144.54641 220.872352 
L 145.053936 220.203055 
L 145.307699 220.378242 
L 145.561463 220.163947 
L 146.068989 220.193228 
L 146.322752 218.752363 
L 146.576516 218.516303 
L 146.830279 218.685787 
L 147.084042 218.550402 
L 147.337805 218.791001 
L 147.845332 218.276123 
L 148.099095 217.077972 
L 148.352858 217.153157 
L 148.606621 216.985124 
L 149.114148 217.369127 
L 149.621674 216.28342 
L 149.875438 216.301394 
L 150.129201 216.203758 
L 150.382964 215.551736 
L 150.636727 215.89059 
L 150.890491 215.847074 
L 151.144254 215.393569 
L 151.398017 215.37285 
L 151.905544 214.984204 
L 152.666833 212.921481 
L 152.920597 213.272192 
L 153.428123 213.037595 
L 153.681886 213.001515 
L 154.950703 212.166126 
L 155.458229 211.516736 
L 155.711992 211.576658 
L 155.965756 211.293442 
L 156.219519 212.021176 
L 156.473282 211.854666 
L 156.727045 212.162013 
L 156.980809 212.149123 
L 157.234572 212.712601 
L 157.488335 211.565629 
L 157.742098 211.599159 
L 158.249625 211.341394 
L 158.757151 210.469347 
L 159.010915 210.428771 
L 159.264678 211.482745 
L 159.518441 211.530599 
L 159.772204 211.731799 
L 160.025968 211.663031 
L 160.279731 211.235703 
L 160.787257 210.934654 
L 161.041021 210.567508 
L 161.294784 209.765933 
L 161.548547 209.89727 
L 162.056073 209.404513 
L 162.309837 209.030805 
L 162.5636 207.692644 
L 162.817363 207.535032 
L 163.071126 207.918483 
L 163.32489 207.781938 
L 163.832416 207.098033 
L 165.101232 205.940179 
L 165.608759 205.283049 
L 166.370049 205.074141 
L 166.623812 204.564762 
L 167.131338 204.31546 
L 167.638865 204.379575 
L 167.892628 203.537661 
L 168.146391 203.476968 
L 168.400155 203.192906 
L 168.653918 203.320462 
L 169.161444 202.793755 
L 169.415208 202.68875 
L 169.668971 202.936717 
L 169.922734 202.315212 
L 170.430261 201.976198 
L 170.937787 201.683962 
L 171.19155 202.734728 
L 171.95284 202.925287 
L 172.206603 202.3713 
L 172.71413 201.975242 
L 173.221656 200.45967 
L 173.47542 200.379551 
L 173.729183 200.664613 
L 173.982946 200.710606 
L 174.236709 200.548517 
L 174.744236 199.783699 
L 174.997999 199.87749 
L 175.251762 199.509452 
L 175.505525 199.837242 
L 176.013052 199.776321 
L 176.266815 199.559595 
L 177.028105 199.540178 
L 177.281868 199.177892 
L 177.535631 199.485647 
L 177.789395 199.991903 
L 178.043158 199.63857 
L 178.550684 199.353571 
L 180.327027 198.233134 
L 180.58079 198.663107 
L 181.088317 198.232813 
L 181.34208 198.390191 
L 181.595843 198.349184 
L 182.10337 198.597893 
L 182.357133 198.320784 
L 182.610896 198.286992 
L 183.118423 197.39997 
L 183.372186 197.201017 
L 183.625949 197.250532 
L 183.879713 197.521771 
L 184.133476 197.086349 
L 184.894766 196.971735 
L 185.148529 196.843008 
L 185.402292 196.928202 
L 185.656055 196.704075 
L 186.163582 196.978217 
L 187.178635 196.984626 
L 187.686161 196.613045 
L 187.939925 197.23523 
L 188.193688 197.267786 
L 188.447451 196.97767 
L 188.954977 196.860054 
L 189.208741 196.683685 
L 189.462504 196.706924 
L 189.716267 196.47859 
L 190.477557 196.238671 
L 190.73132 196.024387 
L 191.49261 195.959743 
L 191.746373 195.894863 
L 192.000136 195.953052 
L 192.2539 195.888241 
L 192.507663 196.140366 
L 192.761426 196.105036 
L 193.015189 195.85769 
L 193.268953 196.285013 
L 193.522716 196.374805 
L 194.537769 195.631136 
L 194.791532 195.633141 
L 195.045295 195.322842 
L 195.552822 195.225662 
L 195.806585 195.028228 
L 196.060348 195.113279 
L 196.314112 195.063967 
L 197.329165 194.316506 
L 197.582928 194.534625 
L 198.090454 194.305117 
L 198.344218 194.434441 
L 198.597981 194.419133 
L 198.851744 194.522151 
L 199.105507 194.265464 
L 199.613034 194.168464 
L 199.866797 193.939873 
L 201.135613 193.609687 
L 201.389377 193.363112 
L 201.64314 193.475858 
L 202.150666 192.572978 
L 202.404429 192.506098 
L 202.911956 191.677981 
L 203.927009 191.599953 
L 204.180772 191.712804 
L 204.434535 191.636804 
L 204.942062 191.629242 
L 205.449588 191.332761 
L 205.957115 190.719051 
L 206.718405 191.005321 
L 206.972168 190.622723 
L 207.225931 190.77158 
L 207.733458 190.609853 
L 207.987221 190.711731 
L 208.240984 190.450434 
L 208.494747 190.602748 
L 209.256037 190.419347 
L 209.5098 190.555139 
L 209.763564 190.451556 
L 210.27109 190.479485 
L 210.778617 190.435577 
L 211.03238 190.408688 
L 211.286143 190.229648 
L 211.79367 190.390286 
L 212.301196 190.266828 
L 212.554959 190.398734 
L 213.570012 190.317956 
L 214.077539 190.029685 
L 214.585065 189.932959 
L 215.346355 190.600818 
L 215.600118 190.604932 
L 215.853881 190.323417 
L 216.107645 190.218802 
L 216.361408 190.244026 
L 216.615171 190.423026 
L 217.122698 190.4006 
L 217.376461 190.175058 
L 217.630224 190.302462 
L 218.391514 189.965408 
L 218.645277 189.91633 
L 218.89904 190.320722 
L 219.406567 190.432878 
L 220.167857 189.920231 
L 220.42162 189.765657 
L 220.675383 189.899139 
L 220.929146 189.701908 
L 221.18291 189.789091 
L 221.690436 189.510883 
L 221.944199 189.26384 
L 223.213016 189.292999 
L 223.466779 189.193329 
L 223.720542 189.226918 
L 223.974305 188.848624 
L 224.735595 188.504867 
L 224.989358 189.066084 
L 225.750648 188.880745 
L 226.004411 188.938532 
L 226.258175 188.804039 
L 226.511938 188.484451 
L 226.765701 188.508453 
L 227.273228 188.235201 
L 228.034517 188.234537 
L 228.288281 187.85166 
L 228.795807 188.008689 
L 229.04957 188.094174 
L 229.303333 187.629255 
L 230.064623 187.374836 
L 231.079676 186.690254 
L 231.587203 186.95598 
L 231.840966 186.864026 
L 232.094729 187.037041 
L 232.856019 186.744882 
L 233.109782 186.724586 
L 233.363545 186.477005 
L 233.617309 186.46581 
L 233.871072 185.999399 
L 234.124835 186.068364 
L 234.378598 185.744739 
L 234.632362 185.765429 
L 235.139888 186.067115 
L 235.393651 185.964998 
L 235.647415 185.997085 
L 235.901178 186.217336 
L 236.408704 185.901736 
L 236.662468 185.382689 
L 237.169994 185.186401 
L 237.677521 185.384337 
L 238.43881 184.924517 
L 238.692574 184.945474 
L 238.946337 185.096484 
L 239.2001 184.904327 
L 239.96139 185.066026 
L 240.215153 185.006184 
L 240.976443 184.408413 
L 241.230206 184.492683 
L 241.483969 184.455423 
L 241.737733 184.068956 
L 241.991496 184.275105 
L 242.245259 184.17151 
L 242.499022 184.289519 
L 243.767838 183.991254 
L 244.021602 183.809246 
L 244.275365 183.93284 
L 244.529128 183.831343 
L 244.782891 183.894682 
L 245.036655 183.713358 
L 245.290418 183.698479 
L 245.544181 183.89329 
L 247.066761 183.977135 
L 247.574287 183.845061 
L 248.335577 183.366997 
L 248.58934 183.535788 
L 249.604393 183.397121 
L 250.11192 183.570916 
L 250.619446 183.259543 
L 251.888262 183.305905 
L 252.142026 183.169698 
L 252.395789 183.244746 
L 252.903315 183.227267 
L 253.918368 183.200724 
L 254.172132 182.882225 
L 254.425895 182.977857 
L 255.187185 182.811413 
L 255.440948 182.4413 
L 255.694711 182.485859 
L 255.948474 182.110555 
L 256.202237 181.962214 
L 256.456001 182.070464 
L 256.963527 181.816506 
L 257.724817 181.796199 
L 257.97858 181.3861 
L 258.232343 181.457751 
L 258.486107 181.323576 
L 258.993633 181.229228 
L 259.247396 180.902541 
L 260.262449 181.164707 
L 260.769976 180.741776 
L 261.277502 180.860412 
L 261.531266 180.718289 
L 261.785029 180.922701 
L 262.038792 180.906715 
L 262.292555 181.073625 
L 262.800082 180.926641 
L 263.053845 181.08765 
L 263.561372 180.936884 
L 264.068898 181.076358 
L 264.576425 181.021028 
L 265.083951 181.178781 
L 265.337714 180.975596 
L 265.845241 181.003678 
L 266.099004 180.906191 
L 266.352767 181.018859 
L 267.36782 180.886732 
L 267.621584 180.661842 
L 267.875347 180.691465 
L 268.636637 180.314646 
L 269.144163 180.634351 
L 269.397926 180.621648 
L 269.905453 180.334811 
L 270.159216 180.176764 
L 270.412979 180.247342 
L 270.666742 180.095318 
L 270.920506 180.363273 
L 271.428032 180.23015 
L 271.935559 180.117805 
L 272.189322 179.955208 
L 272.443085 179.979678 
L 272.696848 179.842647 
L 273.458138 179.765514 
L 273.711901 179.596085 
L 275.234481 180.040657 
L 275.488244 180.346222 
L 276.249534 180.11327 
L 276.75706 179.815179 
L 277.51835 179.895113 
L 278.025877 179.792792 
L 278.787166 179.828785 
L 279.04093 179.682732 
L 279.294693 179.67774 
L 280.055983 179.299594 
L 280.563509 179.415346 
L 280.817272 179.388385 
L 281.071036 179.550622 
L 281.578562 179.449302 
L 282.593615 179.216846 
L 283.101141 179.071672 
L 284.877484 178.822659 
L 285.385011 178.769619 
L 287.415117 178.534015 
L 288.683933 178.667736 
L 289.191459 178.524514 
L 289.952749 178.666391 
L 290.206512 178.51244 
L 290.967802 178.497992 
L 291.221565 178.363776 
L 291.982855 178.382092 
L 292.236618 178.796971 
L 292.490382 178.853757 
L 292.744145 179.12632 
L 293.505435 178.929949 
L 295.028014 178.877869 
L 295.53554 179.065412 
L 296.043067 178.856879 
L 296.29683 179.038315 
L 296.550593 178.943247 
L 296.804357 179.043085 
L 297.311883 178.859915 
L 298.834463 178.870141 
L 299.088226 179.092493 
L 299.341989 179.16431 
L 300.357042 178.725509 
L 300.610805 178.694799 
L 300.864569 178.880252 
L 301.118332 178.917596 
L 301.372095 178.77831 
L 301.879622 178.861305 
L 302.387148 178.913251 
L 303.148438 178.996611 
L 303.402201 178.822677 
L 303.655964 178.881714 
L 303.909728 178.813384 
L 304.163491 178.628396 
L 304.417254 178.711665 
L 304.924781 178.508788 
L 305.432307 178.44282 
L 305.68607 178.473535 
L 305.939834 178.283218 
L 306.44736 178.297667 
L 307.462413 177.950345 
L 307.716176 178.05121 
L 308.731229 177.687002 
L 309.238756 177.611012 
L 309.492519 177.597304 
L 309.746282 177.388035 
L 310.000045 177.532197 
L 311.776388 177.064964 
L 312.283915 177.042317 
L 313.045204 176.905148 
L 313.298968 177.020677 
L 313.806494 177.006596 
L 314.060257 177.216833 
L 314.567784 177.324615 
L 315.07531 177.050381 
L 315.329074 177.134504 
L 317.105416 176.700069 
L 318.374233 176.890144 
L 318.881759 176.734888 
L 319.135522 176.507202 
L 320.658102 176.52089 
L 320.911865 176.274025 
L 321.673155 176.354366 
L 321.926918 176.415017 
L 322.180681 176.336827 
L 322.434444 176.446446 
L 322.941971 176.388569 
L 323.195734 176.546181 
L 323.957024 176.446036 
L 324.210787 176.308875 
L 324.972077 176.314093 
L 325.479603 176.206679 
L 325.98713 176.208884 
L 326.240893 176.290714 
L 326.74842 176.15274 
L 327.255946 176.152516 
L 328.017236 175.888111 
L 328.270999 176.00785 
L 329.286052 175.812802 
L 329.539815 175.91563 
L 331.316158 175.760634 
L 332.331211 175.830817 
L 332.584974 175.614644 
L 333.853791 175.59987 
L 334.868844 175.296621 
L 335.122607 175.200974 
L 335.630133 175.214188 
L 336.645186 175.25967 
L 337.152713 175.446511 
L 337.660239 175.477573 
L 338.421529 175.202392 
L 338.675292 175.228649 
L 338.929055 175.564207 
L 339.944108 175.670512 
L 341.974214 175.681046 
L 342.227978 175.650318 
L 342.481741 175.78238 
L 343.496794 175.787575 
L 343.750557 175.559927 
L 344.258084 175.591574 
L 345.273137 175.599624 
L 345.5269 175.5653 
L 346.034426 175.688693 
L 346.28819 175.433772 
L 347.049479 175.378148 
L 347.303243 175.640803 
L 347.810769 175.523585 
L 348.064532 175.621112 
L 350.602165 174.994384 
L 351.617218 174.90176 
L 352.124744 174.653467 
L 352.378507 174.733624 
L 354.15485 174.486157 
L 354.91614 174.56607 
L 355.169903 174.465166 
L 355.931193 174.543023 
L 356.946246 174.462743 
L 357.200009 174.502243 
L 357.707536 174.381197 
L 358.215062 174.234305 
L 358.722589 174.198969 
L 360.752695 174.235796 
L 361.513984 174.05258 
L 361.767748 174.146224 
L 362.7828 173.960361 
L 363.290327 173.973174 
L 363.797853 174.10036 
L 364.812906 173.996424 
L 365.320433 173.857595 
L 365.827959 173.817432 
L 366.081723 174.044896 
L 366.589249 174.160868 
L 366.843012 174.145692 
L 367.096776 174.335291 
L 367.604302 174.07967 
L 367.858065 174.075156 
L 368.365592 174.276372 
L 368.619355 174.00205 
L 369.380645 174.063643 
L 369.634408 174.113697 
L 370.141935 173.897033 
L 370.395698 174.104772 
L 370.649461 173.790275 
L 372.425804 173.933557 
L 372.93333 173.976919 
L 374.45591 173.609716 
L 374.963436 173.616104 
L 375.724726 173.442596 
L 376.993542 173.262562 
L 377.501069 173.393343 
L 378.008595 173.31158 
L 378.262358 173.389109 
L 378.516122 173.061184 
L 380.038701 172.936241 
L 380.799991 172.974588 
L 381.053754 173.236281 
L 382.068807 173.210379 
L 382.576334 172.994351 
L 383.591387 173.046247 
L 384.098913 173.093107 
L 384.860203 173.160061 
L 385.621493 172.92126 
L 387.905362 172.921436 
L 388.920415 172.767842 
L 389.427941 172.895689 
L 389.681704 172.606729 
L 390.189231 172.465973 
L 390.442994 172.561921 
L 390.696757 172.390229 
L 391.204284 172.47358 
L 391.458047 172.264213 
L 392.4731 171.963824 
L 393.741916 171.498281 
L 393.99568 171.538436 
L 394.249443 171.756842 
L 394.756969 171.78573 
L 395.264496 171.670906 
L 395.772022 171.676049 
L 397.040839 171.551525 
L 397.548365 171.419721 
L 398.055892 171.374509 
L 398.817181 171.38461 
L 399.324708 171.497375 
L 399.578471 171.439305 
L 399.832234 171.524931 
L 401.101051 171.165559 
L 401.354814 171.065799 
L 401.608577 171.263253 
L 402.116104 171.129167 
L 402.62363 171.16354 
L 402.877393 170.963703 
L 404.399973 170.642318 
L 404.907499 170.650477 
L 405.415026 170.633336 
L 405.668789 170.73005 
L 405.922552 171.047974 
L 406.176315 171.112247 
L 406.683842 171.026186 
L 407.191368 171.01765 
L 407.445132 171.079805 
L 407.698895 171.01195 
L 407.952658 171.064687 
L 408.713948 170.764242 
L 408.967711 170.850367 
L 411.759107 170.396305 
L 413.53545 170.511143 
L 413.789213 170.621141 
L 414.042976 170.605977 
L 414.296739 170.867849 
L 414.804266 170.870073 
L 416.073082 170.719097 
L 416.326845 170.818099 
L 416.834372 170.681722 
L 417.088135 170.792662 
L 417.849425 170.312277 
L 418.103188 170.353113 
L 418.356951 170.524887 
L 419.118241 170.609098 
L 419.372004 170.524562 
L 421.40211 170.862425 
L 422.1634 170.941234 
L 423.178453 170.941367 
L 423.685979 170.971253 
L 424.193506 170.784013 
L 424.954796 170.708 
L 425.462322 170.747124 
L 425.969849 170.721019 
L 426.477375 170.559705 
L 426.731138 170.65599 
L 426.984902 170.547035 
L 428.253718 170.67697 
L 428.761244 170.600239 
L 430.537587 170.764778 
L 432.567693 170.384874 
L 432.821456 170.606326 
L 433.075219 170.56342 
L 433.328983 170.639535 
L 433.836509 170.551981 
L 434.090272 170.735204 
L 434.597799 170.787281 
L 434.851562 170.705352 
L 436.120378 171.022095 
L 436.881668 170.900088 
L 437.135431 170.815919 
L 437.389195 170.918648 
L 437.642958 170.872216 
L 437.896721 170.977076 
L 439.165537 170.711744 
L 439.419301 170.68966 
L 439.673064 170.784838 
L 440.688117 170.724114 
L 441.956933 170.646579 
L 442.210696 170.664453 
L 443.479512 170.208664 
L 443.987039 170.306329 
L 444.748329 170.357931 
L 445.002092 170.279726 
L 445.763382 170.369909 
L 446.270908 170.189762 
L 449.316067 170.030314 
L 449.823594 169.967293 
L 450.077357 169.895291 
L 450.33112 170.015594 
L 450.584883 169.871363 
L 452.868753 170.0201 
L 453.376279 170.072837 
L 453.883806 169.942539 
L 454.137569 170.021585 
L 454.898859 169.961424 
L 455.913912 169.944029 
L 458.705307 169.8817 
L 459.212834 169.847533 
L 459.72036 169.579737 
L 460.48165 169.648862 
L 461.496703 169.693623 
L 463.019282 169.629454 
L 464.288099 169.699767 
L 465.049388 169.622229 
L 465.556915 169.566917 
L 466.064441 169.57613 
L 467.333258 169.591421 
L 468.094547 169.380138 
L 468.348311 169.483902 
L 469.617127 169.3852 
L 469.87089 169.43879 
L 470.378416 169.360014 
L 471.647233 169.339277 
L 471.900996 169.258659 
L 472.408522 169.362032 
L 475.453681 169.295791 
L 479.006367 169.127888 
L 479.513893 169.196117 
L 480.275183 168.972982 
L 481.036473 168.945301 
L 481.543999 168.977302 
L 481.797763 169.071497 
L 482.051526 169.011697 
L 482.305289 169.141796 
L 484.589158 169.052886 
L 485.857974 169.099051 
L 486.111738 169.204042 
L 486.365501 169.153952 
L 486.619264 169.262215 
L 488.395607 168.977686 
L 488.903133 168.826232 
L 492.202056 168.928614 
L 492.455819 168.834847 
L 492.963345 168.902385 
L 493.978398 168.813548 
L 494.485925 168.859983 
L 494.993451 168.660774 
L 496.008504 168.633139 
L 496.769794 168.71404 
L 497.531084 168.63901 
L 499.814953 168.605378 
L 500.322479 168.392046 
L 500.830006 168.476511 
L 501.591296 168.51354 
L 502.098822 168.550677 
L 502.352585 168.645458 
L 502.606349 168.865801 
L 505.905271 168.856149 
L 506.412797 168.760525 
L 506.666561 168.856349 
L 507.42785 168.678375 
L 507.681614 168.506395 
L 510.219246 168.492917 
L 510.473009 168.42042 
L 510.726772 168.513352 
L 511.741825 168.466975 
L 512.249352 168.519718 
L 512.756878 168.350256 
L 514.533221 168.401831 
L 515.040748 168.439521 
L 515.548274 168.328108 
L 516.055801 168.352286 
L 516.81709 168.326862 
L 517.070854 168.521608 
L 517.57838 168.543261 
L 517.832143 168.410596 
L 521.131066 168.374362 
L 522.399882 168.17318 
L 522.653645 168.04594 
L 524.683751 168.042677 
L 524.937514 167.955214 
L 525.445041 167.965814 
L 526.96762 168.226256 
L 527.475147 168.185149 
L 527.982673 168.131751 
L 528.997726 168.062768 
L 529.759016 168.005822 
L 532.042885 168.049611 
L 532.804175 168.234977 
L 536.864387 168.133589 
L 537.11815 168.037323 
L 537.371913 168.095812 
L 537.87944 168.075055 
L 538.640729 168.054424 
L 539.402019 167.973812 
L 541.432125 168.024039 
L 542.193415 167.895123 
L 542.700941 167.863077 
L 543.462231 167.855877 
L 543.969758 167.875776 
L 546.253627 168.045013 
L 546.761153 167.744605 
L 547.776206 167.773702 
L 548.537496 167.617337 
L 549.045023 167.524511 
L 549.552549 167.614046 
L 550.567602 167.643792 
L 550.821365 167.80671 
L 553.358998 167.577203 
L 553.866524 167.5946 
L 554.374051 167.498637 
L 556.404157 167.432393 
L 558.434263 167.449447 
L 558.688026 167.388314 
L 559.449316 167.465125 
L 560.718132 167.607601 
L 561.733185 167.83985 
L 563.002001 167.900869 
L 563.509527 167.866036 
L 565.032107 167.714435 
L 565.539633 167.733648 
L 570.614898 167.917406 
L 574.421347 167.962787 
L 578.735322 167.926054 
L 581.272955 167.923153 
L 582.034244 167.855163 
L 582.795534 167.889205 
L 587.363273 167.660605 
L 587.870799 167.563356 
L 589.647142 167.58876 
L 592.184774 167.596931 
L 592.946064 167.580912 
L 596.244986 167.754329 
L 598.275092 167.676381 
L 598.782619 167.683286 
L 599.036382 167.589858 
L 599.797672 167.68799 
L 600.305198 167.630199 
L 601.320251 167.517515 
L 603.350357 167.566701 
L 603.60412 167.677147 
L 604.111647 167.588175 
L 604.619173 167.516104 
L 605.1267 167.531565 
L 605.634226 167.438631 
L 606.649279 167.47734 
L 608.425622 167.332474 
L 610.709491 167.393067 
L 614.769703 167.222485 
L 615.27723 167.23986 
L 615.784756 167.264459 
L 616.038519 167.344799 
L 616.546046 167.30027 
L 617.053572 167.308519 
L 617.814862 167.196146 
L 619.844968 167.303552 
L 621.113784 167.015119 
L 621.875074 167.045338 
L 622.636364 167.093819 
L 622.636364 167.093819 
" style="fill:none;stroke:#d62728;stroke-linecap:round;stroke-width:1.5;"/>
   </g>
   <g id="patch_3">
    <path d="M 90 378 
L 90 51.84 
" style="fill:none;stroke:#ffffff;stroke-linecap:square;stroke-linejoin:miter;stroke-width:0.8;"/>
   </g>
   <g id="patch_4">
    <path d="M 648 378 
L 648 51.84 
" style="fill:none;stroke:#ffffff;stroke-linecap:square;stroke-linejoin:miter;stroke-width:0.8;"/>
   </g>
   <g id="patch_5">
    <path d="M 90 378 
L 648 378 
" style="fill:none;stroke:#ffffff;stroke-linecap:square;stroke-linejoin:miter;stroke-width:0.8;"/>
   </g>
   <g id="patch_6">
    <path d="M 90 51.84 
L 648 51.84 
" style="fill:none;stroke:#ffffff;stroke-linecap:square;stroke-linejoin:miter;stroke-width:0.8;"/>
   </g>
   <g id="text_19">
    <!-- Зависимость RMSE от номера итерации и learning rate -->
    <g style="fill:#262626;" transform="translate(127.553812 26.684325)scale(0.168 -0.168)">
     <defs>
      <path d="M 1828 4750 
Q 2597 4750 3084 4423 
Q 3572 4097 3572 3541 
Q 3572 3153 3350 2886 
Q 3128 2619 2719 2516 
Q 3172 2419 3426 2112 
Q 3681 1806 3681 1356 
Q 3681 638 3126 273 
Q 2572 -91 1828 -91 
Q 1447 -91 1003 12 
Q 559 116 422 203 
L 422 853 
Q 900 575 1164 508 
Q 1428 441 1816 441 
Q 2403 441 2728 666 
Q 3053 891 3053 1356 
Q 3053 1769 2764 2001 
Q 2475 2234 1866 2234 
L 1228 2234 
L 1228 2753 
L 1891 2753 
Q 2450 2753 2697 2939 
Q 2944 3125 2944 3475 
Q 2944 3834 2689 4026 
Q 2434 4219 1816 4219 
Q 1397 4219 1253 4181 
Q 1109 4144 469 3903 
L 469 4519 
Q 822 4644 1190 4697 
Q 1559 4750 1828 4750 
z
" id="DejaVuSans-417" transform="scale(0.015625)"/>
      <path d="M 1156 1613 
L 1156 459 
L 1975 459 
Q 2369 459 2575 607 
Q 2781 756 2781 1038 
Q 2781 1319 2575 1466 
Q 2369 1613 1975 1613 
L 1156 1613 
z
M 1156 3041 
L 1156 2072 
L 1913 2072 
Q 2238 2072 2444 2201 
Q 2650 2331 2650 2563 
Q 2650 2794 2444 2917 
Q 2238 3041 1913 3041 
L 1156 3041 
z
M 581 3500 
L 1950 3500 
Q 2566 3500 2897 3275 
Q 3228 3050 3228 2634 
Q 3228 2313 3059 2123 
Q 2891 1934 2559 1888 
Q 2956 1813 3175 1575 
Q 3394 1338 3394 981 
Q 3394 513 3033 256 
Q 2672 0 2003 0 
L 581 0 
L 581 3500 
z
" id="DejaVuSans-432" transform="scale(0.015625)"/>
      <path d="M 3122 3366 
L 3122 2828 
Q 2878 2963 2633 3030 
Q 2388 3097 2138 3097 
Q 1578 3097 1268 2742 
Q 959 2388 959 1747 
Q 959 1106 1268 751 
Q 1578 397 2138 397 
Q 2388 397 2633 464 
Q 2878 531 3122 666 
L 3122 134 
Q 2881 22 2623 -34 
Q 2366 -91 2075 -91 
Q 1284 -91 818 406 
Q 353 903 353 1747 
Q 353 2603 823 3093 
Q 1294 3584 2113 3584 
Q 2378 3584 2631 3529 
Q 2884 3475 3122 3366 
z
" id="DejaVuSans-441" transform="scale(0.015625)"/>
      <path d="M 2781 1038 
Q 2781 1319 2576 1466 
Q 2372 1613 1978 1613 
L 1159 1613 
L 1159 459 
L 1978 459 
Q 2372 459 2576 607 
Q 2781 756 2781 1038 
z
M 581 3500 
L 1159 3500 
L 1159 2072 
L 2003 2072 
Q 2672 2072 3033 1817 
Q 3394 1563 3394 1038 
Q 3394 513 3033 256 
Q 2672 0 2003 0 
L 581 0 
L 581 3500 
z
" id="DejaVuSans-44c" transform="scale(0.015625)"/>
      <path d="M 581 3500 
L 1159 3500 
L 1159 2072 
L 3025 2072 
L 3025 3500 
L 3603 3500 
L 3603 0 
L 3025 0 
L 3025 1613 
L 1159 1613 
L 1159 0 
L 581 0 
L 581 3500 
z
" id="DejaVuSans-43d" transform="scale(0.015625)"/>
      <path d="M 603 4863 
L 1178 4863 
L 1178 0 
L 603 0 
L 603 4863 
z
" id="DejaVuSans-6c" transform="scale(0.015625)"/>
      <path d="M 3597 1894 
L 3597 1613 
L 953 1613 
Q 991 1019 1311 708 
Q 1631 397 2203 397 
Q 2534 397 2845 478 
Q 3156 559 3463 722 
L 3463 178 
Q 3153 47 2828 -22 
Q 2503 -91 2169 -91 
Q 1331 -91 842 396 
Q 353 884 353 1716 
Q 353 2575 817 3079 
Q 1281 3584 2069 3584 
Q 2775 3584 3186 3129 
Q 3597 2675 3597 1894 
z
M 3022 2063 
Q 3016 2534 2758 2815 
Q 2500 3097 2075 3097 
Q 1594 3097 1305 2825 
Q 1016 2553 972 2059 
L 3022 2063 
z
" id="DejaVuSans-65" transform="scale(0.015625)"/>
      <path d="M 2194 1759 
Q 1497 1759 1228 1600 
Q 959 1441 959 1056 
Q 959 750 1161 570 
Q 1363 391 1709 391 
Q 2188 391 2477 730 
Q 2766 1069 2766 1631 
L 2766 1759 
L 2194 1759 
z
M 3341 1997 
L 3341 0 
L 2766 0 
L 2766 531 
Q 2569 213 2275 61 
Q 1981 -91 1556 -91 
Q 1019 -91 701 211 
Q 384 513 384 1019 
Q 384 1609 779 1909 
Q 1175 2209 1959 2209 
L 2766 2209 
L 2766 2266 
Q 2766 2663 2505 2880 
Q 2244 3097 1772 3097 
Q 1472 3097 1187 3025 
Q 903 2953 641 2809 
L 641 3341 
Q 956 3463 1253 3523 
Q 1550 3584 1831 3584 
Q 2591 3584 2966 3190 
Q 3341 2797 3341 1997 
z
" id="DejaVuSans-61" transform="scale(0.015625)"/>
      <path d="M 2631 2963 
Q 2534 3019 2420 3045 
Q 2306 3072 2169 3072 
Q 1681 3072 1420 2755 
Q 1159 2438 1159 1844 
L 1159 0 
L 581 0 
L 581 3500 
L 1159 3500 
L 1159 2956 
Q 1341 3275 1631 3429 
Q 1922 3584 2338 3584 
Q 2397 3584 2469 3576 
Q 2541 3569 2628 3553 
L 2631 2963 
z
" id="DejaVuSans-72" transform="scale(0.015625)"/>
      <path d="M 3513 2113 
L 3513 0 
L 2938 0 
L 2938 2094 
Q 2938 2591 2744 2837 
Q 2550 3084 2163 3084 
Q 1697 3084 1428 2787 
Q 1159 2491 1159 1978 
L 1159 0 
L 581 0 
L 581 3500 
L 1159 3500 
L 1159 2956 
Q 1366 3272 1645 3428 
Q 1925 3584 2291 3584 
Q 2894 3584 3203 3211 
Q 3513 2838 3513 2113 
z
" id="DejaVuSans-6e" transform="scale(0.015625)"/>
      <path d="M 603 3500 
L 1178 3500 
L 1178 0 
L 603 0 
L 603 3500 
z
M 603 4863 
L 1178 4863 
L 1178 4134 
L 603 4134 
L 603 4863 
z
" id="DejaVuSans-69" transform="scale(0.015625)"/>
      <path d="M 2906 1791 
Q 2906 2416 2648 2759 
Q 2391 3103 1925 3103 
Q 1463 3103 1205 2759 
Q 947 2416 947 1791 
Q 947 1169 1205 825 
Q 1463 481 1925 481 
Q 2391 481 2648 825 
Q 2906 1169 2906 1791 
z
M 3481 434 
Q 3481 -459 3084 -895 
Q 2688 -1331 1869 -1331 
Q 1566 -1331 1297 -1286 
Q 1028 -1241 775 -1147 
L 775 -588 
Q 1028 -725 1275 -790 
Q 1522 -856 1778 -856 
Q 2344 -856 2625 -561 
Q 2906 -266 2906 331 
L 2906 616 
Q 2728 306 2450 153 
Q 2172 0 1784 0 
Q 1141 0 747 490 
Q 353 981 353 1791 
Q 353 2603 747 3093 
Q 1141 3584 1784 3584 
Q 2172 3584 2450 3431 
Q 2728 3278 2906 2969 
L 2906 3500 
L 3481 3500 
L 3481 434 
z
" id="DejaVuSans-67" transform="scale(0.015625)"/>
      <path d="M 1172 4494 
L 1172 3500 
L 2356 3500 
L 2356 3053 
L 1172 3053 
L 1172 1153 
Q 1172 725 1289 603 
Q 1406 481 1766 481 
L 2356 481 
L 2356 0 
L 1766 0 
Q 1100 0 847 248 
Q 594 497 594 1153 
L 594 3053 
L 172 3053 
L 172 3500 
L 594 3500 
L 594 4494 
L 1172 4494 
z
" id="DejaVuSans-74" transform="scale(0.015625)"/>
     </defs>
     <use xlink:href="#DejaVuSans-417"/>
     <use x="64.111328" xlink:href="#DejaVuSans-430"/>
     <use x="125.390625" xlink:href="#DejaVuSans-432"/>
     <use x="184.326172" xlink:href="#DejaVuSans-438"/>
     <use x="249.316406" xlink:href="#DejaVuSans-441"/>
     <use x="304.296875" xlink:href="#DejaVuSans-438"/>
     <use x="369.287109" xlink:href="#DejaVuSans-43c"/>
     <use x="444.726562" xlink:href="#DejaVuSans-43e"/>
     <use x="505.908203" xlink:href="#DejaVuSans-441"/>
     <use x="560.888672" xlink:href="#DejaVuSans-442"/>
     <use x="619.140625" xlink:href="#DejaVuSans-44c"/>
     <use x="678.076172" xlink:href="#DejaVuSans-20"/>
     <use x="709.863281" xlink:href="#DejaVuSans-52"/>
     <use x="779.345703" xlink:href="#DejaVuSans-4d"/>
     <use x="865.625" xlink:href="#DejaVuSans-53"/>
     <use x="929.101562" xlink:href="#DejaVuSans-45"/>
     <use x="992.285156" xlink:href="#DejaVuSans-20"/>
     <use x="1024.072266" xlink:href="#DejaVuSans-43e"/>
     <use x="1085.253906" xlink:href="#DejaVuSans-442"/>
     <use x="1143.505859" xlink:href="#DejaVuSans-20"/>
     <use x="1175.292969" xlink:href="#DejaVuSans-43d"/>
     <use x="1240.673828" xlink:href="#DejaVuSans-43e"/>
     <use x="1301.855469" xlink:href="#DejaVuSans-43c"/>
     <use x="1377.294922" xlink:href="#DejaVuSans-435"/>
     <use x="1438.818359" xlink:href="#DejaVuSans-440"/>
     <use x="1502.294922" xlink:href="#DejaVuSans-430"/>
     <use x="1563.574219" xlink:href="#DejaVuSans-20"/>
     <use x="1595.361328" xlink:href="#DejaVuSans-438"/>
     <use x="1660.351562" xlink:href="#DejaVuSans-442"/>
     <use x="1718.603516" xlink:href="#DejaVuSans-435"/>
     <use x="1780.126953" xlink:href="#DejaVuSans-440"/>
     <use x="1843.603516" xlink:href="#DejaVuSans-430"/>
     <use x="1904.882812" xlink:href="#DejaVuSans-446"/>
     <use x="1972.949219" xlink:href="#DejaVuSans-438"/>
     <use x="2037.939453" xlink:href="#DejaVuSans-438"/>
     <use x="2102.929688" xlink:href="#DejaVuSans-20"/>
     <use x="2134.716797" xlink:href="#DejaVuSans-438"/>
     <use x="2199.707031" xlink:href="#DejaVuSans-20"/>
     <use x="2231.494141" xlink:href="#DejaVuSans-6c"/>
     <use x="2259.277344" xlink:href="#DejaVuSans-65"/>
     <use x="2320.800781" xlink:href="#DejaVuSans-61"/>
     <use x="2382.080078" xlink:href="#DejaVuSans-72"/>
     <use x="2421.443359" xlink:href="#DejaVuSans-6e"/>
     <use x="2484.822266" xlink:href="#DejaVuSans-69"/>
     <use x="2512.605469" xlink:href="#DejaVuSans-6e"/>
     <use x="2575.984375" xlink:href="#DejaVuSans-67"/>
     <use x="2639.460938" xlink:href="#DejaVuSans-20"/>
     <use x="2671.248047" xlink:href="#DejaVuSans-72"/>
     <use x="2712.361328" xlink:href="#DejaVuSans-61"/>
     <use x="2773.640625" xlink:href="#DejaVuSans-74"/>
     <use x="2812.849609" xlink:href="#DejaVuSans-65"/>
    </g>
    <!--  для градиентного бустинга -->
    <g style="fill:#262626;" transform="translate(242.686312 45.84)scale(0.168 -0.168)">
     <defs>
      <path d="M 1384 459 
L 3053 459 
L 3053 3041 
L 1844 3041 
L 1844 2603 
Q 1844 1316 1475 628 
L 1384 459 
z
M 550 459 
Q 834 584 959 850 
Q 1266 1509 1266 2838 
L 1266 3500 
L 3631 3500 
L 3631 459 
L 4091 459 
L 4091 -884 
L 3631 -884 
L 3631 0 
L 794 0 
L 794 -884 
L 334 -884 
L 334 459 
L 550 459 
z
" id="DejaVuSans-434" transform="scale(0.015625)"/>
      <path d="M 238 0 
L 238 478 
Q 806 566 981 959 
Q 1194 1513 1194 2928 
L 1194 3500 
L 3559 3500 
L 3559 0 
L 2984 0 
L 2984 3041 
L 1769 3041 
L 1769 2694 
Q 1769 1344 1494 738 
Q 1200 91 238 0 
z
" id="DejaVuSans-43b" transform="scale(0.015625)"/>
      <path d="M 1181 2491 
Q 1181 2231 1381 2084 
Q 1581 1938 1953 1938 
L 2728 1938 
L 2728 3041 
L 1953 3041 
Q 1581 3041 1381 2897 
Q 1181 2753 1181 2491 
z
M 363 0 
L 1431 1534 
Q 1069 1616 828 1830 
Q 588 2044 588 2491 
Q 588 2997 923 3248 
Q 1259 3500 1938 3500 
L 3306 3500 
L 3306 0 
L 2728 0 
L 2728 1478 
L 2013 1478 
L 981 0 
L 363 0 
z
" id="DejaVuSans-44f" transform="scale(0.015625)"/>
      <path d="M 581 0 
L 581 3500 
L 3050 3500 
L 3050 3041 
L 1159 3041 
L 1159 0 
L 581 0 
z
" id="DejaVuSans-433" transform="scale(0.015625)"/>
      <path d="M 1991 3584 
Q 2741 3584 3169 3096 
Q 3597 2609 3597 1747 
Q 3597 888 3169 398 
Q 2741 -91 1991 -91 
Q 1238 -91 822 384 
Q 406 859 384 1747 
L 366 2463 
Q 350 2834 350 2963 
Q 350 3463 531 3831 
Q 816 4409 1308 4659 
Q 1800 4909 2625 4916 
Q 3006 4919 3175 4972 
L 3334 4516 
Q 3181 4453 3041 4450 
L 2259 4397 
Q 1866 4369 1628 4231 
Q 1006 3866 947 3388 
L 925 3213 
Q 1331 3584 1991 3584 
z
M 1991 3097 
Q 1528 3097 1259 2736 
Q 991 2375 991 1747 
Q 991 1119 1258 758 
Q 1525 397 1991 397 
Q 2450 397 2719 759 
Q 2988 1122 2988 1747 
Q 2988 2369 2719 2733 
Q 2450 3097 1991 3097 
z
" id="DejaVuSans-431" transform="scale(0.015625)"/>
      <path d="M 2059 -325 
Q 1816 -950 1584 -1140 
Q 1353 -1331 966 -1331 
L 506 -1331 
L 506 -850 
L 844 -850 
Q 1081 -850 1212 -737 
Q 1344 -625 1503 -206 
L 1606 56 
L 191 3500 
L 800 3500 
L 1894 763 
L 2988 3500 
L 3597 3500 
L 2059 -325 
z
" id="DejaVuSans-443" transform="scale(0.015625)"/>
     </defs>
     <use xlink:href="#DejaVuSans-20"/>
     <use x="31.787109" xlink:href="#DejaVuSans-434"/>
     <use x="100.927734" xlink:href="#DejaVuSans-43b"/>
     <use x="164.84375" xlink:href="#DejaVuSans-44f"/>
     <use x="225" xlink:href="#DejaVuSans-20"/>
     <use x="256.787109" xlink:href="#DejaVuSans-433"/>
     <use x="309.326172" xlink:href="#DejaVuSans-440"/>
     <use x="372.802734" xlink:href="#DejaVuSans-430"/>
     <use x="434.082031" xlink:href="#DejaVuSans-434"/>
     <use x="503.222656" xlink:href="#DejaVuSans-438"/>
     <use x="568.212891" xlink:href="#DejaVuSans-435"/>
     <use x="629.736328" xlink:href="#DejaVuSans-43d"/>
     <use x="695.117188" xlink:href="#DejaVuSans-442"/>
     <use x="753.369141" xlink:href="#DejaVuSans-43d"/>
     <use x="818.75" xlink:href="#DejaVuSans-43e"/>
     <use x="879.931641" xlink:href="#DejaVuSans-433"/>
     <use x="932.470703" xlink:href="#DejaVuSans-43e"/>
     <use x="993.652344" xlink:href="#DejaVuSans-20"/>
     <use x="1025.439453" xlink:href="#DejaVuSans-431"/>
     <use x="1087.109375" xlink:href="#DejaVuSans-443"/>
     <use x="1146.289062" xlink:href="#DejaVuSans-441"/>
     <use x="1201.269531" xlink:href="#DejaVuSans-442"/>
     <use x="1259.521484" xlink:href="#DejaVuSans-438"/>
     <use x="1324.511719" xlink:href="#DejaVuSans-43d"/>
     <use x="1389.892578" xlink:href="#DejaVuSans-433"/>
     <use x="1442.431641" xlink:href="#DejaVuSans-430"/>
    </g>
   </g>
  </g>
 </g>
 <defs>
  <clipPath id="p0a26ca5ff1">
   <rect height="326.16" width="558" x="90" y="51.84"/>
  </clipPath>
 </defs>
</svg>
