<?xml version="1.0" encoding="utf-8" standalone="no"?>
<!DOCTYPE svg PUBLIC "-//W3C//DTD SVG 1.1//EN"
  "http://www.w3.org/Graphics/SVG/1.1/DTD/svg11.dtd">
<svg height="432pt" version="1.1" viewBox="0 0 720 432" width="720pt" xmlns="http://www.w3.org/2000/svg" xmlns:xlink="http://www.w3.org/1999/xlink">
 <metadata>
  <rdf:RDF xmlns:cc="http://creativecommons.org/ns#" xmlns:dc="http://purl.org/dc/elements/1.1/" xmlns:rdf="http://www.w3.org/1999/02/22-rdf-syntax-ns#">
   <cc:Work>
    <dc:type rdf:resource="http://purl.org/dc/dcmitype/StillImage"/>
    <dc:date>2022-12-13T20:02:44.614604</dc:date>
    <dc:format>image/svg+xml</dc:format>
    <dc:creator>
     <cc:Agent>
      <dc:title>Matplotlib v3.4.3, https://matplotlib.org/</dc:title>
     </cc:Agent>
    </dc:creator>
   </cc:Work>
  </rdf:RDF>
 </metadata>
 <defs>
  <style type="text/css">*{stroke-linecap:butt;stroke-linejoin:round;}</style>
 </defs>
 <g id="figure_1">
  <g id="patch_1">
   <path d="M 0 432 
L 720 432 
L 720 0 
L 0 0 
z
" style="fill:#ffffff;"/>
  </g>
  <g id="axes_1">
   <g id="patch_2">
    <path d="M 90 378 
L 648 378 
L 648 51.84 
L 90 51.84 
z
" style="fill:#eaeaf2;"/>
   </g>
   <g id="matplotlib.axis_1">
    <g id="xtick_1">
     <g id="line2d_1">
      <path clip-path="url(#p5293f81784)" d="M 115.363636 378 
L 115.363636 51.84 
" style="fill:none;stroke:#ffffff;stroke-linecap:round;stroke-width:0.8;"/>
     </g>
     <g id="text_1">
      <!-- 0 -->
      <g style="fill:#262626;" transform="translate(110.909886 395.637812)scale(0.14 -0.14)">
       <defs>
        <path d="M 2034 4250 
Q 1547 4250 1301 3770 
Q 1056 3291 1056 2328 
Q 1056 1369 1301 889 
Q 1547 409 2034 409 
Q 2525 409 2770 889 
Q 3016 1369 3016 2328 
Q 3016 3291 2770 3770 
Q 2525 4250 2034 4250 
z
M 2034 4750 
Q 2819 4750 3233 4129 
Q 3647 3509 3647 2328 
Q 3647 1150 3233 529 
Q 2819 -91 2034 -91 
Q 1250 -91 836 529 
Q 422 1150 422 2328 
Q 422 3509 836 4129 
Q 1250 4750 2034 4750 
z
" id="DejaVuSans-30" transform="scale(0.015625)"/>
       </defs>
       <use xlink:href="#DejaVuSans-30"/>
      </g>
     </g>
    </g>
    <g id="xtick_2">
     <g id="line2d_2">
      <path clip-path="url(#p5293f81784)" d="M 178.804448 378 
L 178.804448 51.84 
" style="fill:none;stroke:#ffffff;stroke-linecap:round;stroke-width:0.8;"/>
     </g>
     <g id="text_2">
      <!-- 250 -->
      <g style="fill:#262626;" transform="translate(165.443198 395.637812)scale(0.14 -0.14)">
       <defs>
        <path d="M 1228 531 
L 3431 531 
L 3431 0 
L 469 0 
L 469 531 
Q 828 903 1448 1529 
Q 2069 2156 2228 2338 
Q 2531 2678 2651 2914 
Q 2772 3150 2772 3378 
Q 2772 3750 2511 3984 
Q 2250 4219 1831 4219 
Q 1534 4219 1204 4116 
Q 875 4013 500 3803 
L 500 4441 
Q 881 4594 1212 4672 
Q 1544 4750 1819 4750 
Q 2544 4750 2975 4387 
Q 3406 4025 3406 3419 
Q 3406 3131 3298 2873 
Q 3191 2616 2906 2266 
Q 2828 2175 2409 1742 
Q 1991 1309 1228 531 
z
" id="DejaVuSans-32" transform="scale(0.015625)"/>
        <path d="M 691 4666 
L 3169 4666 
L 3169 4134 
L 1269 4134 
L 1269 2991 
Q 1406 3038 1543 3061 
Q 1681 3084 1819 3084 
Q 2600 3084 3056 2656 
Q 3513 2228 3513 1497 
Q 3513 744 3044 326 
Q 2575 -91 1722 -91 
Q 1428 -91 1123 -41 
Q 819 9 494 109 
L 494 744 
Q 775 591 1075 516 
Q 1375 441 1709 441 
Q 2250 441 2565 725 
Q 2881 1009 2881 1497 
Q 2881 1984 2565 2268 
Q 2250 2553 1709 2553 
Q 1456 2553 1204 2497 
Q 953 2441 691 2322 
L 691 4666 
z
" id="DejaVuSans-35" transform="scale(0.015625)"/>
       </defs>
       <use xlink:href="#DejaVuSans-32"/>
       <use x="63.623047" xlink:href="#DejaVuSans-35"/>
       <use x="127.246094" xlink:href="#DejaVuSans-30"/>
      </g>
     </g>
    </g>
    <g id="xtick_3">
     <g id="line2d_3">
      <path clip-path="url(#p5293f81784)" d="M 242.245259 378 
L 242.245259 51.84 
" style="fill:none;stroke:#ffffff;stroke-linecap:round;stroke-width:0.8;"/>
     </g>
     <g id="text_3">
      <!-- 500 -->
      <g style="fill:#262626;" transform="translate(228.884009 395.637812)scale(0.14 -0.14)">
       <use xlink:href="#DejaVuSans-35"/>
       <use x="63.623047" xlink:href="#DejaVuSans-30"/>
       <use x="127.246094" xlink:href="#DejaVuSans-30"/>
      </g>
     </g>
    </g>
    <g id="xtick_4">
     <g id="line2d_4">
      <path clip-path="url(#p5293f81784)" d="M 305.68607 378 
L 305.68607 51.84 
" style="fill:none;stroke:#ffffff;stroke-linecap:round;stroke-width:0.8;"/>
     </g>
     <g id="text_4">
      <!-- 750 -->
      <g style="fill:#262626;" transform="translate(292.32482 395.637812)scale(0.14 -0.14)">
       <defs>
        <path d="M 525 4666 
L 3525 4666 
L 3525 4397 
L 1831 0 
L 1172 0 
L 2766 4134 
L 525 4134 
L 525 4666 
z
" id="DejaVuSans-37" transform="scale(0.015625)"/>
       </defs>
       <use xlink:href="#DejaVuSans-37"/>
       <use x="63.623047" xlink:href="#DejaVuSans-35"/>
       <use x="127.246094" xlink:href="#DejaVuSans-30"/>
      </g>
     </g>
    </g>
    <g id="xtick_5">
     <g id="line2d_5">
      <path clip-path="url(#p5293f81784)" d="M 369.126882 378 
L 369.126882 51.84 
" style="fill:none;stroke:#ffffff;stroke-linecap:round;stroke-width:0.8;"/>
     </g>
     <g id="text_5">
      <!-- 1000 -->
      <g style="fill:#262626;" transform="translate(351.311882 395.637812)scale(0.14 -0.14)">
       <defs>
        <path d="M 794 531 
L 1825 531 
L 1825 4091 
L 703 3866 
L 703 4441 
L 1819 4666 
L 2450 4666 
L 2450 531 
L 3481 531 
L 3481 0 
L 794 0 
L 794 531 
z
" id="DejaVuSans-31" transform="scale(0.015625)"/>
       </defs>
       <use xlink:href="#DejaVuSans-31"/>
       <use x="63.623047" xlink:href="#DejaVuSans-30"/>
       <use x="127.246094" xlink:href="#DejaVuSans-30"/>
       <use x="190.869141" xlink:href="#DejaVuSans-30"/>
      </g>
     </g>
    </g>
    <g id="xtick_6">
     <g id="line2d_6">
      <path clip-path="url(#p5293f81784)" d="M 432.567693 378 
L 432.567693 51.84 
" style="fill:none;stroke:#ffffff;stroke-linecap:round;stroke-width:0.8;"/>
     </g>
     <g id="text_6">
      <!-- 1250 -->
      <g style="fill:#262626;" transform="translate(414.752693 395.637812)scale(0.14 -0.14)">
       <use xlink:href="#DejaVuSans-31"/>
       <use x="63.623047" xlink:href="#DejaVuSans-32"/>
       <use x="127.246094" xlink:href="#DejaVuSans-35"/>
       <use x="190.869141" xlink:href="#DejaVuSans-30"/>
      </g>
     </g>
    </g>
    <g id="xtick_7">
     <g id="line2d_7">
      <path clip-path="url(#p5293f81784)" d="M 496.008504 378 
L 496.008504 51.84 
" style="fill:none;stroke:#ffffff;stroke-linecap:round;stroke-width:0.8;"/>
     </g>
     <g id="text_7">
      <!-- 1500 -->
      <g style="fill:#262626;" transform="translate(478.193504 395.637812)scale(0.14 -0.14)">
       <use xlink:href="#DejaVuSans-31"/>
       <use x="63.623047" xlink:href="#DejaVuSans-35"/>
       <use x="127.246094" xlink:href="#DejaVuSans-30"/>
       <use x="190.869141" xlink:href="#DejaVuSans-30"/>
      </g>
     </g>
    </g>
    <g id="xtick_8">
     <g id="line2d_8">
      <path clip-path="url(#p5293f81784)" d="M 559.449316 378 
L 559.449316 51.84 
" style="fill:none;stroke:#ffffff;stroke-linecap:round;stroke-width:0.8;"/>
     </g>
     <g id="text_8">
      <!-- 1750 -->
      <g style="fill:#262626;" transform="translate(541.634316 395.637812)scale(0.14 -0.14)">
       <use xlink:href="#DejaVuSans-31"/>
       <use x="63.623047" xlink:href="#DejaVuSans-37"/>
       <use x="127.246094" xlink:href="#DejaVuSans-35"/>
       <use x="190.869141" xlink:href="#DejaVuSans-30"/>
      </g>
     </g>
    </g>
    <g id="xtick_9">
     <g id="line2d_9">
      <path clip-path="url(#p5293f81784)" d="M 622.890127 378 
L 622.890127 51.84 
" style="fill:none;stroke:#ffffff;stroke-linecap:round;stroke-width:0.8;"/>
     </g>
     <g id="text_9">
      <!-- 2000 -->
      <g style="fill:#262626;" transform="translate(605.075127 395.637812)scale(0.14 -0.14)">
       <use xlink:href="#DejaVuSans-32"/>
       <use x="63.623047" xlink:href="#DejaVuSans-30"/>
       <use x="127.246094" xlink:href="#DejaVuSans-30"/>
       <use x="190.869141" xlink:href="#DejaVuSans-30"/>
      </g>
     </g>
    </g>
    <g id="text_10">
     <!-- Номер итерации -->
     <g style="fill:#262626;" transform="translate(307.666875 413.187187)scale(0.14 -0.14)">
      <defs>
       <path d="M 628 4666 
L 1259 4666 
L 1259 2753 
L 3553 2753 
L 3553 4666 
L 4184 4666 
L 4184 0 
L 3553 0 
L 3553 2222 
L 1259 2222 
L 1259 0 
L 628 0 
L 628 4666 
z
" id="DejaVuSans-41d" transform="scale(0.015625)"/>
       <path d="M 1959 3097 
Q 1497 3097 1228 2736 
Q 959 2375 959 1747 
Q 959 1119 1226 758 
Q 1494 397 1959 397 
Q 2419 397 2687 759 
Q 2956 1122 2956 1747 
Q 2956 2369 2687 2733 
Q 2419 3097 1959 3097 
z
M 1959 3584 
Q 2709 3584 3137 3096 
Q 3566 2609 3566 1747 
Q 3566 888 3137 398 
Q 2709 -91 1959 -91 
Q 1206 -91 779 398 
Q 353 888 353 1747 
Q 353 2609 779 3096 
Q 1206 3584 1959 3584 
z
" id="DejaVuSans-43e" transform="scale(0.015625)"/>
       <path d="M 581 3500 
L 1422 3500 
L 2416 1156 
L 3413 3500 
L 4247 3500 
L 4247 0 
L 3669 0 
L 3669 2950 
L 2703 672 
L 2128 672 
L 1159 2950 
L 1159 0 
L 581 0 
L 581 3500 
z
" id="DejaVuSans-43c" transform="scale(0.015625)"/>
       <path d="M 3597 1894 
L 3597 1613 
L 953 1613 
Q 991 1019 1311 708 
Q 1631 397 2203 397 
Q 2534 397 2845 478 
Q 3156 559 3463 722 
L 3463 178 
Q 3153 47 2828 -22 
Q 2503 -91 2169 -91 
Q 1331 -91 842 396 
Q 353 884 353 1716 
Q 353 2575 817 3079 
Q 1281 3584 2069 3584 
Q 2775 3584 3186 3129 
Q 3597 2675 3597 1894 
z
M 3022 2063 
Q 3016 2534 2758 2815 
Q 2500 3097 2075 3097 
Q 1594 3097 1305 2825 
Q 1016 2553 972 2059 
L 3022 2063 
z
" id="DejaVuSans-435" transform="scale(0.015625)"/>
       <path d="M 1159 525 
L 1159 -1331 
L 581 -1331 
L 581 3500 
L 1159 3500 
L 1159 2969 
Q 1341 3281 1617 3432 
Q 1894 3584 2278 3584 
Q 2916 3584 3314 3078 
Q 3713 2572 3713 1747 
Q 3713 922 3314 415 
Q 2916 -91 2278 -91 
Q 1894 -91 1617 61 
Q 1341 213 1159 525 
z
M 3116 1747 
Q 3116 2381 2855 2742 
Q 2594 3103 2138 3103 
Q 1681 3103 1420 2742 
Q 1159 2381 1159 1747 
Q 1159 1113 1420 752 
Q 1681 391 2138 391 
Q 2594 391 2855 752 
Q 3116 1113 3116 1747 
z
" id="DejaVuSans-440" transform="scale(0.015625)"/>
       <path id="DejaVuSans-20" transform="scale(0.015625)"/>
       <path d="M 3578 3500 
L 3578 0 
L 3006 0 
L 3006 2809 
L 1319 0 
L 581 0 
L 581 3500 
L 1153 3500 
L 1153 697 
L 2838 3500 
L 3578 3500 
z
" id="DejaVuSans-438" transform="scale(0.015625)"/>
       <path d="M 188 3500 
L 3541 3500 
L 3541 3041 
L 2147 3041 
L 2147 0 
L 1581 0 
L 1581 3041 
L 188 3041 
L 188 3500 
z
" id="DejaVuSans-442" transform="scale(0.015625)"/>
       <path d="M 2194 1759 
Q 1497 1759 1228 1600 
Q 959 1441 959 1056 
Q 959 750 1161 570 
Q 1363 391 1709 391 
Q 2188 391 2477 730 
Q 2766 1069 2766 1631 
L 2766 1759 
L 2194 1759 
z
M 3341 1997 
L 3341 0 
L 2766 0 
L 2766 531 
Q 2569 213 2275 61 
Q 1981 -91 1556 -91 
Q 1019 -91 701 211 
Q 384 513 384 1019 
Q 384 1609 779 1909 
Q 1175 2209 1959 2209 
L 2766 2209 
L 2766 2266 
Q 2766 2663 2505 2880 
Q 2244 3097 1772 3097 
Q 1472 3097 1187 3025 
Q 903 2953 641 2809 
L 641 3341 
Q 956 3463 1253 3523 
Q 1550 3584 1831 3584 
Q 2591 3584 2966 3190 
Q 3341 2797 3341 1997 
z
" id="DejaVuSans-430" transform="scale(0.015625)"/>
       <path d="M 3603 0 
L 581 0 
L 581 3500 
L 1159 3500 
L 1159 459 
L 3025 459 
L 3025 3500 
L 3603 3500 
L 3603 459 
L 4063 459 
L 4063 -884 
L 3603 -884 
L 3603 0 
z
" id="DejaVuSans-446" transform="scale(0.015625)"/>
      </defs>
      <use xlink:href="#DejaVuSans-41d"/>
      <use x="75.195312" xlink:href="#DejaVuSans-43e"/>
      <use x="136.376953" xlink:href="#DejaVuSans-43c"/>
      <use x="211.816406" xlink:href="#DejaVuSans-435"/>
      <use x="273.339844" xlink:href="#DejaVuSans-440"/>
      <use x="336.816406" xlink:href="#DejaVuSans-20"/>
      <use x="368.603516" xlink:href="#DejaVuSans-438"/>
      <use x="433.59375" xlink:href="#DejaVuSans-442"/>
      <use x="491.845703" xlink:href="#DejaVuSans-435"/>
      <use x="553.369141" xlink:href="#DejaVuSans-440"/>
      <use x="616.845703" xlink:href="#DejaVuSans-430"/>
      <use x="678.125" xlink:href="#DejaVuSans-446"/>
      <use x="746.191406" xlink:href="#DejaVuSans-438"/>
      <use x="811.181641" xlink:href="#DejaVuSans-438"/>
     </g>
    </g>
   </g>
   <g id="matplotlib.axis_2">
    <g id="ytick_1">
     <g id="line2d_10">
      <path clip-path="url(#p5293f81784)" d="M 90 361.298355 
L 648 361.298355 
" style="fill:none;stroke:#ffffff;stroke-linecap:round;stroke-width:0.8;"/>
     </g>
     <g id="text_11">
      <!-- 100000 -->
      <g style="fill:#262626;" transform="translate(29.555 366.617261)scale(0.14 -0.14)">
       <use xlink:href="#DejaVuSans-31"/>
       <use x="63.623047" xlink:href="#DejaVuSans-30"/>
       <use x="127.246094" xlink:href="#DejaVuSans-30"/>
       <use x="190.869141" xlink:href="#DejaVuSans-30"/>
       <use x="254.492188" xlink:href="#DejaVuSans-30"/>
       <use x="318.115234" xlink:href="#DejaVuSans-30"/>
      </g>
     </g>
    </g>
    <g id="ytick_2">
     <g id="line2d_11">
      <path clip-path="url(#p5293f81784)" d="M 90 309.099467 
L 648 309.099467 
" style="fill:none;stroke:#ffffff;stroke-linecap:round;stroke-width:0.8;"/>
     </g>
     <g id="text_12">
      <!-- 200000 -->
      <g style="fill:#262626;" transform="translate(29.555 314.418374)scale(0.14 -0.14)">
       <use xlink:href="#DejaVuSans-32"/>
       <use x="63.623047" xlink:href="#DejaVuSans-30"/>
       <use x="127.246094" xlink:href="#DejaVuSans-30"/>
       <use x="190.869141" xlink:href="#DejaVuSans-30"/>
       <use x="254.492188" xlink:href="#DejaVuSans-30"/>
       <use x="318.115234" xlink:href="#DejaVuSans-30"/>
      </g>
     </g>
    </g>
    <g id="ytick_3">
     <g id="line2d_12">
      <path clip-path="url(#p5293f81784)" d="M 90 256.90058 
L 648 256.90058 
" style="fill:none;stroke:#ffffff;stroke-linecap:round;stroke-width:0.8;"/>
     </g>
     <g id="text_13">
      <!-- 300000 -->
      <g style="fill:#262626;" transform="translate(29.555 262.219486)scale(0.14 -0.14)">
       <defs>
        <path d="M 2597 2516 
Q 3050 2419 3304 2112 
Q 3559 1806 3559 1356 
Q 3559 666 3084 287 
Q 2609 -91 1734 -91 
Q 1441 -91 1130 -33 
Q 819 25 488 141 
L 488 750 
Q 750 597 1062 519 
Q 1375 441 1716 441 
Q 2309 441 2620 675 
Q 2931 909 2931 1356 
Q 2931 1769 2642 2001 
Q 2353 2234 1838 2234 
L 1294 2234 
L 1294 2753 
L 1863 2753 
Q 2328 2753 2575 2939 
Q 2822 3125 2822 3475 
Q 2822 3834 2567 4026 
Q 2313 4219 1838 4219 
Q 1578 4219 1281 4162 
Q 984 4106 628 3988 
L 628 4550 
Q 988 4650 1302 4700 
Q 1616 4750 1894 4750 
Q 2613 4750 3031 4423 
Q 3450 4097 3450 3541 
Q 3450 3153 3228 2886 
Q 3006 2619 2597 2516 
z
" id="DejaVuSans-33" transform="scale(0.015625)"/>
       </defs>
       <use xlink:href="#DejaVuSans-33"/>
       <use x="63.623047" xlink:href="#DejaVuSans-30"/>
       <use x="127.246094" xlink:href="#DejaVuSans-30"/>
       <use x="190.869141" xlink:href="#DejaVuSans-30"/>
       <use x="254.492188" xlink:href="#DejaVuSans-30"/>
       <use x="318.115234" xlink:href="#DejaVuSans-30"/>
      </g>
     </g>
    </g>
    <g id="ytick_4">
     <g id="line2d_13">
      <path clip-path="url(#p5293f81784)" d="M 90 204.701693 
L 648 204.701693 
" style="fill:none;stroke:#ffffff;stroke-linecap:round;stroke-width:0.8;"/>
     </g>
     <g id="text_14">
      <!-- 400000 -->
      <g style="fill:#262626;" transform="translate(29.555 210.020599)scale(0.14 -0.14)">
       <defs>
        <path d="M 2419 4116 
L 825 1625 
L 2419 1625 
L 2419 4116 
z
M 2253 4666 
L 3047 4666 
L 3047 1625 
L 3713 1625 
L 3713 1100 
L 3047 1100 
L 3047 0 
L 2419 0 
L 2419 1100 
L 313 1100 
L 313 1709 
L 2253 4666 
z
" id="DejaVuSans-34" transform="scale(0.015625)"/>
       </defs>
       <use xlink:href="#DejaVuSans-34"/>
       <use x="63.623047" xlink:href="#DejaVuSans-30"/>
       <use x="127.246094" xlink:href="#DejaVuSans-30"/>
       <use x="190.869141" xlink:href="#DejaVuSans-30"/>
       <use x="254.492188" xlink:href="#DejaVuSans-30"/>
       <use x="318.115234" xlink:href="#DejaVuSans-30"/>
      </g>
     </g>
    </g>
    <g id="ytick_5">
     <g id="line2d_14">
      <path clip-path="url(#p5293f81784)" d="M 90 152.502805 
L 648 152.502805 
" style="fill:none;stroke:#ffffff;stroke-linecap:round;stroke-width:0.8;"/>
     </g>
     <g id="text_15">
      <!-- 500000 -->
      <g style="fill:#262626;" transform="translate(29.555 157.821711)scale(0.14 -0.14)">
       <use xlink:href="#DejaVuSans-35"/>
       <use x="63.623047" xlink:href="#DejaVuSans-30"/>
       <use x="127.246094" xlink:href="#DejaVuSans-30"/>
       <use x="190.869141" xlink:href="#DejaVuSans-30"/>
       <use x="254.492188" xlink:href="#DejaVuSans-30"/>
       <use x="318.115234" xlink:href="#DejaVuSans-30"/>
      </g>
     </g>
    </g>
    <g id="ytick_6">
     <g id="line2d_15">
      <path clip-path="url(#p5293f81784)" d="M 90 100.303918 
L 648 100.303918 
" style="fill:none;stroke:#ffffff;stroke-linecap:round;stroke-width:0.8;"/>
     </g>
     <g id="text_16">
      <!-- 600000 -->
      <g style="fill:#262626;" transform="translate(29.555 105.622824)scale(0.14 -0.14)">
       <defs>
        <path d="M 2113 2584 
Q 1688 2584 1439 2293 
Q 1191 2003 1191 1497 
Q 1191 994 1439 701 
Q 1688 409 2113 409 
Q 2538 409 2786 701 
Q 3034 994 3034 1497 
Q 3034 2003 2786 2293 
Q 2538 2584 2113 2584 
z
M 3366 4563 
L 3366 3988 
Q 3128 4100 2886 4159 
Q 2644 4219 2406 4219 
Q 1781 4219 1451 3797 
Q 1122 3375 1075 2522 
Q 1259 2794 1537 2939 
Q 1816 3084 2150 3084 
Q 2853 3084 3261 2657 
Q 3669 2231 3669 1497 
Q 3669 778 3244 343 
Q 2819 -91 2113 -91 
Q 1303 -91 875 529 
Q 447 1150 447 2328 
Q 447 3434 972 4092 
Q 1497 4750 2381 4750 
Q 2619 4750 2861 4703 
Q 3103 4656 3366 4563 
z
" id="DejaVuSans-36" transform="scale(0.015625)"/>
       </defs>
       <use xlink:href="#DejaVuSans-36"/>
       <use x="63.623047" xlink:href="#DejaVuSans-30"/>
       <use x="127.246094" xlink:href="#DejaVuSans-30"/>
       <use x="190.869141" xlink:href="#DejaVuSans-30"/>
       <use x="254.492188" xlink:href="#DejaVuSans-30"/>
       <use x="318.115234" xlink:href="#DejaVuSans-30"/>
      </g>
     </g>
    </g>
    <g id="text_17">
     <!-- RMSE -->
     <g style="fill:#262626;" transform="translate(22.643437 234.690625)rotate(-90)scale(0.14 -0.14)">
      <defs>
       <path d="M 2841 2188 
Q 3044 2119 3236 1894 
Q 3428 1669 3622 1275 
L 4263 0 
L 3584 0 
L 2988 1197 
Q 2756 1666 2539 1819 
Q 2322 1972 1947 1972 
L 1259 1972 
L 1259 0 
L 628 0 
L 628 4666 
L 2053 4666 
Q 2853 4666 3247 4331 
Q 3641 3997 3641 3322 
Q 3641 2881 3436 2590 
Q 3231 2300 2841 2188 
z
M 1259 4147 
L 1259 2491 
L 2053 2491 
Q 2509 2491 2742 2702 
Q 2975 2913 2975 3322 
Q 2975 3731 2742 3939 
Q 2509 4147 2053 4147 
L 1259 4147 
z
" id="DejaVuSans-52" transform="scale(0.015625)"/>
       <path d="M 628 4666 
L 1569 4666 
L 2759 1491 
L 3956 4666 
L 4897 4666 
L 4897 0 
L 4281 0 
L 4281 4097 
L 3078 897 
L 2444 897 
L 1241 4097 
L 1241 0 
L 628 0 
L 628 4666 
z
" id="DejaVuSans-4d" transform="scale(0.015625)"/>
       <path d="M 3425 4513 
L 3425 3897 
Q 3066 4069 2747 4153 
Q 2428 4238 2131 4238 
Q 1616 4238 1336 4038 
Q 1056 3838 1056 3469 
Q 1056 3159 1242 3001 
Q 1428 2844 1947 2747 
L 2328 2669 
Q 3034 2534 3370 2195 
Q 3706 1856 3706 1288 
Q 3706 609 3251 259 
Q 2797 -91 1919 -91 
Q 1588 -91 1214 -16 
Q 841 59 441 206 
L 441 856 
Q 825 641 1194 531 
Q 1563 422 1919 422 
Q 2459 422 2753 634 
Q 3047 847 3047 1241 
Q 3047 1584 2836 1778 
Q 2625 1972 2144 2069 
L 1759 2144 
Q 1053 2284 737 2584 
Q 422 2884 422 3419 
Q 422 4038 858 4394 
Q 1294 4750 2059 4750 
Q 2388 4750 2728 4690 
Q 3069 4631 3425 4513 
z
" id="DejaVuSans-53" transform="scale(0.015625)"/>
       <path d="M 628 4666 
L 3578 4666 
L 3578 4134 
L 1259 4134 
L 1259 2753 
L 3481 2753 
L 3481 2222 
L 1259 2222 
L 1259 531 
L 3634 531 
L 3634 0 
L 628 0 
L 628 4666 
z
" id="DejaVuSans-45" transform="scale(0.015625)"/>
      </defs>
      <use xlink:href="#DejaVuSans-52"/>
      <use x="69.482422" xlink:href="#DejaVuSans-4d"/>
      <use x="155.761719" xlink:href="#DejaVuSans-53"/>
      <use x="219.238281" xlink:href="#DejaVuSans-45"/>
     </g>
    </g>
   </g>
   <g id="line2d_16">
    <path clip-path="url(#p5293f81784)" d="M 115.363636 75.629131 
L 117.393742 77.955706 
L 119.931375 80.831565 
L 122.72277 84.010854 
L 128.813088 90.784906 
L 130.843194 92.950115 
L 134.142117 96.44899 
L 136.933512 99.365959 
L 142.008777 104.667365 
L 147.845332 110.671761 
L 150.129201 112.933862 
L 154.443176 117.28639 
L 166.370049 128.724649 
L 168.146391 130.336441 
L 171.699077 133.65702 
L 175.759289 137.380152 
L 179.819501 141.024882 
L 192.2539 151.643384 
L 201.896903 159.697588 
L 206.972168 163.768413 
L 211.286143 167.163186 
L 213.823776 169.222785 
L 215.600118 170.528449 
L 218.89904 173.105027 
L 220.929146 174.600496 
L 229.04957 180.603566 
L 244.782891 191.71358 
L 251.126973 196.016327 
L 254.172132 198.101598 
L 257.724817 200.362474 
L 260.769976 202.309247 
L 266.352767 205.776582 
L 286.1463 217.742415 
L 288.43017 219.022982 
L 295.281777 222.854624 
L 306.701123 229.015277 
L 307.96994 229.699357 
L 324.972077 238.301655 
L 327.255946 239.400583 
L 331.569921 241.500187 
L 335.37637 243.327988 
L 337.406476 244.286621 
L 339.436582 245.149649 
L 346.28819 248.215653 
L 348.572059 249.175101 
L 354.91614 251.910417 
L 363.797853 255.562317 
L 366.335486 256.588882 
L 368.111829 257.305289 
L 372.425804 259.047547 
L 374.709673 259.945083 
L 381.561281 262.645796 
L 383.84515 263.466662 
L 387.905362 265.060255 
L 389.681704 265.723522 
L 392.980627 266.95236 
L 413.53545 274.114866 
L 416.073082 274.939574 
L 420.387057 276.336133 
L 423.685979 277.419075 
L 427.746191 278.660868 
L 431.806403 279.966043 
L 434.090272 280.687286 
L 443.733276 283.442802 
L 447.285961 284.447232 
L 450.33112 285.330351 
L 468.855837 290.366113 
L 470.63218 290.824912 
L 472.916049 291.404449 
L 480.02142 293.103825 
L 488.395607 295.064835 
L 491.440766 295.774625 
L 494.993451 296.547007 
L 526.460094 303.319615 
L 528.236436 303.648854 
L 530.774069 304.153014 
L 532.804175 304.560602 
L 542.954705 306.370057 
L 545.238574 306.774396 
L 549.045023 307.462228 
L 561.733185 309.55957 
L 569.599845 310.873137 
L 576.705216 311.991117 
L 578.735322 312.296875 
L 586.094456 313.408489 
L 590.154668 314.019225 
L 611.978307 317.089873 
L 615.530993 317.572225 
L 622.636364 318.467247 
L 622.636364 318.467247 
" style="fill:none;stroke:#1f77b4;stroke-linecap:round;stroke-width:1.5;"/>
   </g>
   <g id="line2d_17">
    <path clip-path="url(#p5293f81784)" d="M 115.363636 66.665455 
L 117.139979 68.704104 
L 122.976534 75.396846 
L 129.320615 82.452605 
L 135.664696 89.243834 
L 137.694802 91.35848 
L 140.993724 94.81287 
L 143.531357 97.468592 
L 146.068989 100.055616 
L 151.398017 105.478836 
L 152.920597 107.02785 
L 161.294784 115.235214 
L 168.400155 121.845047 
L 170.684024 123.977558 
L 171.445314 124.684776 
L 175.251762 128.21518 
L 177.281868 130.023236 
L 180.58079 132.987349 
L 184.387239 136.258936 
L 191.238847 142.060767 
L 196.567875 146.519233 
L 198.344218 147.926461 
L 200.628087 149.915679 
L 202.658193 151.544265 
L 216.107645 162.134901 
L 233.617309 175.085777 
L 235.393651 176.314973 
L 237.931284 178.186487 
L 239.707627 179.36503 
L 245.797944 183.587319 
L 247.82805 184.956913 
L 249.35063 185.965315 
L 253.664605 188.899548 
L 255.694711 190.175848 
L 271.428032 199.983509 
L 273.204375 201.049886 
L 279.04093 204.578436 
L 291.729092 211.847346 
L 294.012961 213.088901 
L 296.804357 214.622102 
L 299.088226 215.880523 
L 324.972077 228.980256 
L 327.509709 230.189957 
L 343.243031 237.326408 
L 344.76561 238.010411 
L 348.318296 239.531371 
L 352.632271 241.374883 
L 354.15485 242.001011 
L 381.815044 252.854686 
L 386.129019 254.441704 
L 390.696757 256.192257 
L 393.99568 257.35447 
L 397.802128 258.669053 
L 400.847287 259.727767 
L 404.146209 260.864328 
L 408.460185 262.278603 
L 410.744054 263.042382 
L 436.627905 270.976053 
L 439.673064 271.81847 
L 449.062304 274.408792 
L 458.95907 277.088352 
L 460.48165 277.482884 
L 468.602074 279.535162 
L 473.423575 280.703797 
L 475.707445 281.215435 
L 477.483787 281.623683 
L 504.382691 287.404684 
L 507.42785 288.029338 
L 514.279458 289.420225 
L 516.309564 289.81759 
L 518.847196 290.281149 
L 524.683751 291.467177 
L 528.236436 292.094022 
L 530.774069 292.584729 
L 532.550412 292.926884 
L 552.343945 296.139755 
L 555.642867 296.631067 
L 557.165446 296.866677 
L 561.225658 297.482557 
L 563.763291 297.888475 
L 568.077266 298.562209 
L 569.853609 298.829212 
L 573.660057 299.386603 
L 575.943927 299.701592 
L 578.481559 300.078519 
L 604.872936 303.580689 
L 610.963254 304.358024 
L 614.769703 304.883563 
L 618.322388 305.281794 
L 622.636364 305.777758 
L 622.636364 305.777758 
" style="fill:none;stroke:#ff7f0e;stroke-linecap:round;stroke-width:1.5;"/>
   </g>
   <g id="line2d_18">
    <path clip-path="url(#p5293f81784)" d="M 115.363636 78.216269 
L 117.139979 97.660683 
L 120.692665 132.535418 
L 125.00664 169.214524 
L 127.290509 185.898495 
L 127.798035 189.210562 
L 129.320615 199.719974 
L 131.350721 212.189034 
L 136.172222 238.321275 
L 138.963618 251.567784 
L 140.232434 256.922821 
L 143.02383 267.848801 
L 144.292646 272.201621 
L 145.561463 276.380389 
L 150.382964 290.530277 
L 155.711992 302.983803 
L 159.010915 308.876254 
L 160.787257 311.991709 
L 161.548547 313.017528 
L 165.354996 318.574228 
L 165.608759 318.808338 
L 166.370049 319.82452 
L 167.131338 320.764361 
L 167.892628 321.689791 
L 168.400155 322.264062 
L 170.430261 324.409794 
L 171.19155 325.2658 
L 173.729183 327.677242 
L 174.490473 328.465419 
L 175.759289 329.674173 
L 179.819501 332.457121 
L 180.327027 332.814955 
L 181.849607 333.665438 
L 182.86466 334.167887 
L 186.417345 335.857137 
L 192.000136 338.490197 
L 192.761426 338.90545 
L 193.776479 339.328396 
L 195.552822 339.868157 
L 196.060348 340.083198 
L 197.075401 340.412511 
L 197.836691 340.726368 
L 199.866797 341.24775 
L 202.404429 341.981283 
L 211.286143 344.245971 
L 213.823776 344.721134 
L 215.346355 345.15027 
L 217.376461 345.513174 
L 218.137751 345.663169 
L 221.18291 346.107502 
L 222.451726 346.380797 
L 224.735595 346.693821 
L 225.496885 346.797242 
L 227.526991 346.987021 
L 228.288281 347.096536 
L 230.064623 347.357835 
L 231.333439 347.502482 
L 233.109782 347.69528 
L 234.124835 347.807836 
L 235.901178 348.042693 
L 236.916231 348.159444 
L 241.991496 348.668694 
L 252.142026 349.67508 
L 254.679658 349.891198 
L 255.948474 350.014054 
L 264.068898 350.646123 
L 266.352767 350.887131 
L 269.905453 351.123891 
L 271.428032 351.242837 
L 274.219428 351.422641 
L 275.742007 351.542345 
L 284.877484 352.134985 
L 287.66888 352.290634 
L 293.251671 352.667948 
L 295.028014 352.80573 
L 299.088226 353.051051 
L 302.640911 353.27639 
L 312.030151 353.763723 
L 320.404339 354.182802 
L 333.092501 354.818745 
L 338.167766 355.081592 
L 347.303243 355.4794 
L 349.840875 355.598589 
L 357.707536 355.949827 
L 422.417163 358.199437 
L 492.963345 360.215173 
L 523.922461 360.912832 
L 530.266542 361.071473 
L 541.178362 361.311503 
L 555.13534 361.658479 
L 567.062213 361.910677 
L 594.468643 362.560405 
L 616.799809 363.051957 
L 622.636364 363.174545 
L 622.636364 363.174545 
" style="fill:none;stroke:#2ca02c;stroke-linecap:round;stroke-width:1.5;"/>
   </g>
   <g id="line2d_19">
    <path clip-path="url(#p5293f81784)" d="M 115.363636 69.234625 
L 117.139979 88.68327 
L 120.692665 123.521464 
L 124.499113 156.011205 
L 128.813088 187.535382 
L 130.335668 196.6464 
L 131.350721 203.083462 
L 132.619537 210.316066 
L 134.649643 221.485355 
L 136.425986 230.080041 
L 140.739961 249.126142 
L 144.54641 262.915108 
L 149.114148 276.557559 
L 155.204466 290.673652 
L 157.742098 295.468058 
L 159.518441 298.144764 
L 160.025968 299.014949 
L 163.578653 304.058459 
L 163.832416 304.305843 
L 164.339943 305.03791 
L 165.354996 306.410657 
L 165.608759 306.594271 
L 166.370049 307.523116 
L 166.877575 307.963933 
L 167.385102 308.557271 
L 167.638865 308.787793 
L 168.146391 309.513605 
L 169.415208 310.589595 
L 169.668971 310.960356 
L 170.176497 311.311096 
L 170.937787 312.278431 
L 172.71413 313.776059 
L 173.221656 314.265515 
L 173.729183 314.670696 
L 174.236709 315.153307 
L 175.759289 316.520604 
L 179.819501 318.898335 
L 180.327027 319.230377 
L 181.595843 319.789356 
L 185.656055 321.414074 
L 187.178635 321.90184 
L 187.686161 322.141186 
L 188.193688 322.318163 
L 189.208741 322.661703 
L 189.716267 322.855642 
L 190.477557 323.093744 
L 192.2539 324.049877 
L 192.761426 324.238072 
L 193.776479 324.597938 
L 194.537769 324.815221 
L 197.582928 325.619096 
L 198.090454 325.797177 
L 201.896903 326.440356 
L 202.658193 326.719675 
L 203.165719 326.852384 
L 204.180772 327.089632 
L 204.942062 327.317391 
L 206.718405 327.591931 
L 208.748511 327.984641 
L 210.017327 328.314699 
L 214.077539 328.822385 
L 214.838829 329.015642 
L 215.853881 329.229901 
L 216.868934 329.368653 
L 217.630224 329.487688 
L 221.18291 329.828778 
L 221.944199 329.962185 
L 223.213016 330.094921 
L 223.974305 330.208824 
L 224.735595 330.264551 
L 225.496885 330.339741 
L 227.526991 330.423196 
L 228.288281 330.507255 
L 229.81086 330.613574 
L 230.57215 330.709656 
L 234.378598 330.915618 
L 235.393651 331.049125 
L 237.169994 331.156862 
L 250.11192 331.985985 
L 251.380736 332.058886 
L 254.679658 332.209334 
L 256.202237 332.30083 
L 263.815135 332.534387 
L 264.576425 332.640245 
L 265.337714 332.680091 
L 266.352767 332.760661 
L 269.144163 332.868726 
L 273.458138 333.056907 
L 277.010824 333.21722 
L 280.817272 333.314984 
L 283.608668 333.416081 
L 298.834463 333.937541 
L 300.610805 334.024013 
L 306.193597 334.159485 
L 309.746282 334.222754 
L 312.283915 334.240418 
L 320.911865 334.38796 
L 323.195734 334.454491 
L 333.346264 334.740922 
L 336.391423 334.83913 
L 348.318296 335.021397 
L 351.363454 335.066022 
L 356.184956 335.159754 
L 358.215062 335.219718 
L 366.843012 335.242838 
L 375.470963 335.350301 
L 381.053754 335.395241 
L 386.890309 335.46524 
L 393.741916 335.59636 
L 455.913912 336.118419 
L 467.587021 336.21873 
L 496.008504 336.418266 
L 503.621402 336.435523 
L 542.700941 336.528564 
L 559.956842 336.64586 
L 599.036382 336.816887 
L 622.636364 336.876889 
L 622.636364 336.876889 
" style="fill:none;stroke:#d62728;stroke-linecap:round;stroke-width:1.5;"/>
   </g>
   <g id="patch_3">
    <path d="M 90 378 
L 90 51.84 
" style="fill:none;stroke:#ffffff;stroke-linecap:square;stroke-linejoin:miter;stroke-width:0.8;"/>
   </g>
   <g id="patch_4">
    <path d="M 648 378 
L 648 51.84 
" style="fill:none;stroke:#ffffff;stroke-linecap:square;stroke-linejoin:miter;stroke-width:0.8;"/>
   </g>
   <g id="patch_5">
    <path d="M 90 378 
L 648 378 
" style="fill:none;stroke:#ffffff;stroke-linecap:square;stroke-linejoin:miter;stroke-width:0.8;"/>
   </g>
   <g id="patch_6">
    <path d="M 90 51.84 
L 648 51.84 
" style="fill:none;stroke:#ffffff;stroke-linecap:square;stroke-linejoin:miter;stroke-width:0.8;"/>
   </g>
   <g id="text_18">
    <!-- Зависимость RMSE от номера итерации и learning rate -->
    <g style="fill:#262626;" transform="translate(127.553812 26.684325)scale(0.168 -0.168)">
     <defs>
      <path d="M 1828 4750 
Q 2597 4750 3084 4423 
Q 3572 4097 3572 3541 
Q 3572 3153 3350 2886 
Q 3128 2619 2719 2516 
Q 3172 2419 3426 2112 
Q 3681 1806 3681 1356 
Q 3681 638 3126 273 
Q 2572 -91 1828 -91 
Q 1447 -91 1003 12 
Q 559 116 422 203 
L 422 853 
Q 900 575 1164 508 
Q 1428 441 1816 441 
Q 2403 441 2728 666 
Q 3053 891 3053 1356 
Q 3053 1769 2764 2001 
Q 2475 2234 1866 2234 
L 1228 2234 
L 1228 2753 
L 1891 2753 
Q 2450 2753 2697 2939 
Q 2944 3125 2944 3475 
Q 2944 3834 2689 4026 
Q 2434 4219 1816 4219 
Q 1397 4219 1253 4181 
Q 1109 4144 469 3903 
L 469 4519 
Q 822 4644 1190 4697 
Q 1559 4750 1828 4750 
z
" id="DejaVuSans-417" transform="scale(0.015625)"/>
      <path d="M 1156 1613 
L 1156 459 
L 1975 459 
Q 2369 459 2575 607 
Q 2781 756 2781 1038 
Q 2781 1319 2575 1466 
Q 2369 1613 1975 1613 
L 1156 1613 
z
M 1156 3041 
L 1156 2072 
L 1913 2072 
Q 2238 2072 2444 2201 
Q 2650 2331 2650 2563 
Q 2650 2794 2444 2917 
Q 2238 3041 1913 3041 
L 1156 3041 
z
M 581 3500 
L 1950 3500 
Q 2566 3500 2897 3275 
Q 3228 3050 3228 2634 
Q 3228 2313 3059 2123 
Q 2891 1934 2559 1888 
Q 2956 1813 3175 1575 
Q 3394 1338 3394 981 
Q 3394 513 3033 256 
Q 2672 0 2003 0 
L 581 0 
L 581 3500 
z
" id="DejaVuSans-432" transform="scale(0.015625)"/>
      <path d="M 3122 3366 
L 3122 2828 
Q 2878 2963 2633 3030 
Q 2388 3097 2138 3097 
Q 1578 3097 1268 2742 
Q 959 2388 959 1747 
Q 959 1106 1268 751 
Q 1578 397 2138 397 
Q 2388 397 2633 464 
Q 2878 531 3122 666 
L 3122 134 
Q 2881 22 2623 -34 
Q 2366 -91 2075 -91 
Q 1284 -91 818 406 
Q 353 903 353 1747 
Q 353 2603 823 3093 
Q 1294 3584 2113 3584 
Q 2378 3584 2631 3529 
Q 2884 3475 3122 3366 
z
" id="DejaVuSans-441" transform="scale(0.015625)"/>
      <path d="M 2781 1038 
Q 2781 1319 2576 1466 
Q 2372 1613 1978 1613 
L 1159 1613 
L 1159 459 
L 1978 459 
Q 2372 459 2576 607 
Q 2781 756 2781 1038 
z
M 581 3500 
L 1159 3500 
L 1159 2072 
L 2003 2072 
Q 2672 2072 3033 1817 
Q 3394 1563 3394 1038 
Q 3394 513 3033 256 
Q 2672 0 2003 0 
L 581 0 
L 581 3500 
z
" id="DejaVuSans-44c" transform="scale(0.015625)"/>
      <path d="M 581 3500 
L 1159 3500 
L 1159 2072 
L 3025 2072 
L 3025 3500 
L 3603 3500 
L 3603 0 
L 3025 0 
L 3025 1613 
L 1159 1613 
L 1159 0 
L 581 0 
L 581 3500 
z
" id="DejaVuSans-43d" transform="scale(0.015625)"/>
      <path d="M 603 4863 
L 1178 4863 
L 1178 0 
L 603 0 
L 603 4863 
z
" id="DejaVuSans-6c" transform="scale(0.015625)"/>
      <path d="M 3597 1894 
L 3597 1613 
L 953 1613 
Q 991 1019 1311 708 
Q 1631 397 2203 397 
Q 2534 397 2845 478 
Q 3156 559 3463 722 
L 3463 178 
Q 3153 47 2828 -22 
Q 2503 -91 2169 -91 
Q 1331 -91 842 396 
Q 353 884 353 1716 
Q 353 2575 817 3079 
Q 1281 3584 2069 3584 
Q 2775 3584 3186 3129 
Q 3597 2675 3597 1894 
z
M 3022 2063 
Q 3016 2534 2758 2815 
Q 2500 3097 2075 3097 
Q 1594 3097 1305 2825 
Q 1016 2553 972 2059 
L 3022 2063 
z
" id="DejaVuSans-65" transform="scale(0.015625)"/>
      <path d="M 2194 1759 
Q 1497 1759 1228 1600 
Q 959 1441 959 1056 
Q 959 750 1161 570 
Q 1363 391 1709 391 
Q 2188 391 2477 730 
Q 2766 1069 2766 1631 
L 2766 1759 
L 2194 1759 
z
M 3341 1997 
L 3341 0 
L 2766 0 
L 2766 531 
Q 2569 213 2275 61 
Q 1981 -91 1556 -91 
Q 1019 -91 701 211 
Q 384 513 384 1019 
Q 384 1609 779 1909 
Q 1175 2209 1959 2209 
L 2766 2209 
L 2766 2266 
Q 2766 2663 2505 2880 
Q 2244 3097 1772 3097 
Q 1472 3097 1187 3025 
Q 903 2953 641 2809 
L 641 3341 
Q 956 3463 1253 3523 
Q 1550 3584 1831 3584 
Q 2591 3584 2966 3190 
Q 3341 2797 3341 1997 
z
" id="DejaVuSans-61" transform="scale(0.015625)"/>
      <path d="M 2631 2963 
Q 2534 3019 2420 3045 
Q 2306 3072 2169 3072 
Q 1681 3072 1420 2755 
Q 1159 2438 1159 1844 
L 1159 0 
L 581 0 
L 581 3500 
L 1159 3500 
L 1159 2956 
Q 1341 3275 1631 3429 
Q 1922 3584 2338 3584 
Q 2397 3584 2469 3576 
Q 2541 3569 2628 3553 
L 2631 2963 
z
" id="DejaVuSans-72" transform="scale(0.015625)"/>
      <path d="M 3513 2113 
L 3513 0 
L 2938 0 
L 2938 2094 
Q 2938 2591 2744 2837 
Q 2550 3084 2163 3084 
Q 1697 3084 1428 2787 
Q 1159 2491 1159 1978 
L 1159 0 
L 581 0 
L 581 3500 
L 1159 3500 
L 1159 2956 
Q 1366 3272 1645 3428 
Q 1925 3584 2291 3584 
Q 2894 3584 3203 3211 
Q 3513 2838 3513 2113 
z
" id="DejaVuSans-6e" transform="scale(0.015625)"/>
      <path d="M 603 3500 
L 1178 3500 
L 1178 0 
L 603 0 
L 603 3500 
z
M 603 4863 
L 1178 4863 
L 1178 4134 
L 603 4134 
L 603 4863 
z
" id="DejaVuSans-69" transform="scale(0.015625)"/>
      <path d="M 2906 1791 
Q 2906 2416 2648 2759 
Q 2391 3103 1925 3103 
Q 1463 3103 1205 2759 
Q 947 2416 947 1791 
Q 947 1169 1205 825 
Q 1463 481 1925 481 
Q 2391 481 2648 825 
Q 2906 1169 2906 1791 
z
M 3481 434 
Q 3481 -459 3084 -895 
Q 2688 -1331 1869 -1331 
Q 1566 -1331 1297 -1286 
Q 1028 -1241 775 -1147 
L 775 -588 
Q 1028 -725 1275 -790 
Q 1522 -856 1778 -856 
Q 2344 -856 2625 -561 
Q 2906 -266 2906 331 
L 2906 616 
Q 2728 306 2450 153 
Q 2172 0 1784 0 
Q 1141 0 747 490 
Q 353 981 353 1791 
Q 353 2603 747 3093 
Q 1141 3584 1784 3584 
Q 2172 3584 2450 3431 
Q 2728 3278 2906 2969 
L 2906 3500 
L 3481 3500 
L 3481 434 
z
" id="DejaVuSans-67" transform="scale(0.015625)"/>
      <path d="M 1172 4494 
L 1172 3500 
L 2356 3500 
L 2356 3053 
L 1172 3053 
L 1172 1153 
Q 1172 725 1289 603 
Q 1406 481 1766 481 
L 2356 481 
L 2356 0 
L 1766 0 
Q 1100 0 847 248 
Q 594 497 594 1153 
L 594 3053 
L 172 3053 
L 172 3500 
L 594 3500 
L 594 4494 
L 1172 4494 
z
" id="DejaVuSans-74" transform="scale(0.015625)"/>
     </defs>
     <use xlink:href="#DejaVuSans-417"/>
     <use x="64.111328" xlink:href="#DejaVuSans-430"/>
     <use x="125.390625" xlink:href="#DejaVuSans-432"/>
     <use x="184.326172" xlink:href="#DejaVuSans-438"/>
     <use x="249.316406" xlink:href="#DejaVuSans-441"/>
     <use x="304.296875" xlink:href="#DejaVuSans-438"/>
     <use x="369.287109" xlink:href="#DejaVuSans-43c"/>
     <use x="444.726562" xlink:href="#DejaVuSans-43e"/>
     <use x="505.908203" xlink:href="#DejaVuSans-441"/>
     <use x="560.888672" xlink:href="#DejaVuSans-442"/>
     <use x="619.140625" xlink:href="#DejaVuSans-44c"/>
     <use x="678.076172" xlink:href="#DejaVuSans-20"/>
     <use x="709.863281" xlink:href="#DejaVuSans-52"/>
     <use x="779.345703" xlink:href="#DejaVuSans-4d"/>
     <use x="865.625" xlink:href="#DejaVuSans-53"/>
     <use x="929.101562" xlink:href="#DejaVuSans-45"/>
     <use x="992.285156" xlink:href="#DejaVuSans-20"/>
     <use x="1024.072266" xlink:href="#DejaVuSans-43e"/>
     <use x="1085.253906" xlink:href="#DejaVuSans-442"/>
     <use x="1143.505859" xlink:href="#DejaVuSans-20"/>
     <use x="1175.292969" xlink:href="#DejaVuSans-43d"/>
     <use x="1240.673828" xlink:href="#DejaVuSans-43e"/>
     <use x="1301.855469" xlink:href="#DejaVuSans-43c"/>
     <use x="1377.294922" xlink:href="#DejaVuSans-435"/>
     <use x="1438.818359" xlink:href="#DejaVuSans-440"/>
     <use x="1502.294922" xlink:href="#DejaVuSans-430"/>
     <use x="1563.574219" xlink:href="#DejaVuSans-20"/>
     <use x="1595.361328" xlink:href="#DejaVuSans-438"/>
     <use x="1660.351562" xlink:href="#DejaVuSans-442"/>
     <use x="1718.603516" xlink:href="#DejaVuSans-435"/>
     <use x="1780.126953" xlink:href="#DejaVuSans-440"/>
     <use x="1843.603516" xlink:href="#DejaVuSans-430"/>
     <use x="1904.882812" xlink:href="#DejaVuSans-446"/>
     <use x="1972.949219" xlink:href="#DejaVuSans-438"/>
     <use x="2037.939453" xlink:href="#DejaVuSans-438"/>
     <use x="2102.929688" xlink:href="#DejaVuSans-20"/>
     <use x="2134.716797" xlink:href="#DejaVuSans-438"/>
     <use x="2199.707031" xlink:href="#DejaVuSans-20"/>
     <use x="2231.494141" xlink:href="#DejaVuSans-6c"/>
     <use x="2259.277344" xlink:href="#DejaVuSans-65"/>
     <use x="2320.800781" xlink:href="#DejaVuSans-61"/>
     <use x="2382.080078" xlink:href="#DejaVuSans-72"/>
     <use x="2421.443359" xlink:href="#DejaVuSans-6e"/>
     <use x="2484.822266" xlink:href="#DejaVuSans-69"/>
     <use x="2512.605469" xlink:href="#DejaVuSans-6e"/>
     <use x="2575.984375" xlink:href="#DejaVuSans-67"/>
     <use x="2639.460938" xlink:href="#DejaVuSans-20"/>
     <use x="2671.248047" xlink:href="#DejaVuSans-72"/>
     <use x="2712.361328" xlink:href="#DejaVuSans-61"/>
     <use x="2773.640625" xlink:href="#DejaVuSans-74"/>
     <use x="2812.849609" xlink:href="#DejaVuSans-65"/>
    </g>
    <!--  для градиентного бустинга -->
    <g style="fill:#262626;" transform="translate(242.686312 45.84)scale(0.168 -0.168)">
     <defs>
      <path d="M 1384 459 
L 3053 459 
L 3053 3041 
L 1844 3041 
L 1844 2603 
Q 1844 1316 1475 628 
L 1384 459 
z
M 550 459 
Q 834 584 959 850 
Q 1266 1509 1266 2838 
L 1266 3500 
L 3631 3500 
L 3631 459 
L 4091 459 
L 4091 -884 
L 3631 -884 
L 3631 0 
L 794 0 
L 794 -884 
L 334 -884 
L 334 459 
L 550 459 
z
" id="DejaVuSans-434" transform="scale(0.015625)"/>
      <path d="M 238 0 
L 238 478 
Q 806 566 981 959 
Q 1194 1513 1194 2928 
L 1194 3500 
L 3559 3500 
L 3559 0 
L 2984 0 
L 2984 3041 
L 1769 3041 
L 1769 2694 
Q 1769 1344 1494 738 
Q 1200 91 238 0 
z
" id="DejaVuSans-43b" transform="scale(0.015625)"/>
      <path d="M 1181 2491 
Q 1181 2231 1381 2084 
Q 1581 1938 1953 1938 
L 2728 1938 
L 2728 3041 
L 1953 3041 
Q 1581 3041 1381 2897 
Q 1181 2753 1181 2491 
z
M 363 0 
L 1431 1534 
Q 1069 1616 828 1830 
Q 588 2044 588 2491 
Q 588 2997 923 3248 
Q 1259 3500 1938 3500 
L 3306 3500 
L 3306 0 
L 2728 0 
L 2728 1478 
L 2013 1478 
L 981 0 
L 363 0 
z
" id="DejaVuSans-44f" transform="scale(0.015625)"/>
      <path d="M 581 0 
L 581 3500 
L 3050 3500 
L 3050 3041 
L 1159 3041 
L 1159 0 
L 581 0 
z
" id="DejaVuSans-433" transform="scale(0.015625)"/>
      <path d="M 1991 3584 
Q 2741 3584 3169 3096 
Q 3597 2609 3597 1747 
Q 3597 888 3169 398 
Q 2741 -91 1991 -91 
Q 1238 -91 822 384 
Q 406 859 384 1747 
L 366 2463 
Q 350 2834 350 2963 
Q 350 3463 531 3831 
Q 816 4409 1308 4659 
Q 1800 4909 2625 4916 
Q 3006 4919 3175 4972 
L 3334 4516 
Q 3181 4453 3041 4450 
L 2259 4397 
Q 1866 4369 1628 4231 
Q 1006 3866 947 3388 
L 925 3213 
Q 1331 3584 1991 3584 
z
M 1991 3097 
Q 1528 3097 1259 2736 
Q 991 2375 991 1747 
Q 991 1119 1258 758 
Q 1525 397 1991 397 
Q 2450 397 2719 759 
Q 2988 1122 2988 1747 
Q 2988 2369 2719 2733 
Q 2450 3097 1991 3097 
z
" id="DejaVuSans-431" transform="scale(0.015625)"/>
      <path d="M 2059 -325 
Q 1816 -950 1584 -1140 
Q 1353 -1331 966 -1331 
L 506 -1331 
L 506 -850 
L 844 -850 
Q 1081 -850 1212 -737 
Q 1344 -625 1503 -206 
L 1606 56 
L 191 3500 
L 800 3500 
L 1894 763 
L 2988 3500 
L 3597 3500 
L 2059 -325 
z
" id="DejaVuSans-443" transform="scale(0.015625)"/>
     </defs>
     <use xlink:href="#DejaVuSans-20"/>
     <use x="31.787109" xlink:href="#DejaVuSans-434"/>
     <use x="100.927734" xlink:href="#DejaVuSans-43b"/>
     <use x="164.84375" xlink:href="#DejaVuSans-44f"/>
     <use x="225" xlink:href="#DejaVuSans-20"/>
     <use x="256.787109" xlink:href="#DejaVuSans-433"/>
     <use x="309.326172" xlink:href="#DejaVuSans-440"/>
     <use x="372.802734" xlink:href="#DejaVuSans-430"/>
     <use x="434.082031" xlink:href="#DejaVuSans-434"/>
     <use x="503.222656" xlink:href="#DejaVuSans-438"/>
     <use x="568.212891" xlink:href="#DejaVuSans-435"/>
     <use x="629.736328" xlink:href="#DejaVuSans-43d"/>
     <use x="695.117188" xlink:href="#DejaVuSans-442"/>
     <use x="753.369141" xlink:href="#DejaVuSans-43d"/>
     <use x="818.75" xlink:href="#DejaVuSans-43e"/>
     <use x="879.931641" xlink:href="#DejaVuSans-433"/>
     <use x="932.470703" xlink:href="#DejaVuSans-43e"/>
     <use x="993.652344" xlink:href="#DejaVuSans-20"/>
     <use x="1025.439453" xlink:href="#DejaVuSans-431"/>
     <use x="1087.109375" xlink:href="#DejaVuSans-443"/>
     <use x="1146.289062" xlink:href="#DejaVuSans-441"/>
     <use x="1201.269531" xlink:href="#DejaVuSans-442"/>
     <use x="1259.521484" xlink:href="#DejaVuSans-438"/>
     <use x="1324.511719" xlink:href="#DejaVuSans-43d"/>
     <use x="1389.892578" xlink:href="#DejaVuSans-433"/>
     <use x="1442.431641" xlink:href="#DejaVuSans-430"/>
    </g>
   </g>
   <g id="legend_1">
    <g id="patch_7">
     <path d="M 339.1775 146.19125 
L 638.2 146.19125 
Q 641 146.19125 641 143.39125 
L 641 61.64 
Q 641 58.84 638.2 58.84 
L 339.1775 58.84 
Q 336.3775 58.84 336.3775 61.64 
L 336.3775 143.39125 
Q 336.3775 146.19125 339.1775 146.19125 
z
" style="fill:#eaeaf2;opacity:0.8;stroke:#cccccc;stroke-linejoin:miter;"/>
    </g>
    <g id="line2d_20">
     <path d="M 341.9775 70.41625 
L 369.9775 70.41625 
" style="fill:none;stroke:#1f77b4;stroke-linecap:round;stroke-width:1.5;"/>
    </g>
    <g id="line2d_21"/>
    <g id="text_19">
     <!-- Обучающая выборка, lr=0.001 -->
     <g style="fill:#262626;" transform="translate(381.1775 75.31625)scale(0.14 -0.14)">
      <defs>
       <path d="M 2522 4238 
Q 1834 4238 1429 3725 
Q 1025 3213 1025 2328 
Q 1025 1447 1429 934 
Q 1834 422 2522 422 
Q 3209 422 3611 934 
Q 4013 1447 4013 2328 
Q 4013 3213 3611 3725 
Q 3209 4238 2522 4238 
z
M 2522 4750 
Q 3503 4750 4090 4092 
Q 4678 3434 4678 2328 
Q 4678 1225 4090 567 
Q 3503 -91 2522 -91 
Q 1538 -91 948 565 
Q 359 1222 359 2328 
Q 359 3434 948 4092 
Q 1538 4750 2522 4750 
z
" id="DejaVuSans-41e" transform="scale(0.015625)"/>
       <path d="M 2625 0 
L 2625 1472 
L 1553 1472 
Q 1075 1472 756 1769 
Q 469 2038 469 2613 
L 469 3500 
L 1044 3500 
L 1044 2666 
Q 1044 2300 1206 2116 
Q 1372 1931 1697 1931 
L 2625 1931 
L 2625 3500 
L 3200 3500 
L 3200 0 
L 2625 0 
z
" id="DejaVuSans-447" transform="scale(0.015625)"/>
       <path d="M 3431 3097 
Q 2969 3097 2700 2736 
Q 2431 2375 2431 1747 
Q 2431 1119 2698 758 
Q 2966 397 3431 397 
Q 3891 397 4159 759 
Q 4428 1122 4428 1747 
Q 4428 2369 4159 2733 
Q 3891 3097 3431 3097 
z
M 1844 2103 
Q 1903 2697 2292 3140 
Q 2681 3584 3431 3584 
Q 4181 3584 4609 3096 
Q 5038 2609 5038 1747 
Q 5038 888 4609 398 
Q 4181 -91 3431 -91 
Q 2678 -91 2267 381 
Q 1856 853 1828 1628 
L 1178 1628 
L 1178 0 
L 603 0 
L 603 3500 
L 1178 3500 
L 1178 2103 
L 1844 2103 
z
" id="DejaVuSans-44e" transform="scale(0.015625)"/>
       <path d="M 5275 0 
L 581 0 
L 581 3500 
L 1159 3500 
L 1159 459 
L 2638 459 
L 2638 3500 
L 3216 3500 
L 3216 459 
L 4697 459 
L 4697 3500 
L 5275 3500 
L 5275 459 
L 5734 459 
L 5734 -884 
L 5275 -884 
L 5275 0 
z
" id="DejaVuSans-449" transform="scale(0.015625)"/>
       <path d="M 3909 3500 
L 4484 3500 
L 4484 0 
L 3909 0 
L 3909 3500 
z
M 4197 3584 
L 4197 3584 
z
M 2781 1038 
Q 2781 1319 2576 1466 
Q 2372 1613 1978 1613 
L 1159 1613 
L 1159 459 
L 1978 459 
Q 2372 459 2576 607 
Q 2781 756 2781 1038 
z
M 581 3500 
L 1159 3500 
L 1159 2072 
L 2003 2072 
Q 2672 2072 3033 1817 
Q 3394 1563 3394 1038 
Q 3394 513 3033 256 
Q 2672 0 2003 0 
L 581 0 
L 581 3500 
z
" id="DejaVuSans-44b" transform="scale(0.015625)"/>
       <path d="M 581 3500 
L 1153 3500 
L 1153 1856 
L 2775 3500 
L 3481 3500 
L 2144 2147 
L 3653 0 
L 3009 0 
L 1769 1766 
L 1153 1141 
L 1153 0 
L 581 0 
L 581 3500 
z
" id="DejaVuSans-43a" transform="scale(0.015625)"/>
       <path d="M 750 794 
L 1409 794 
L 1409 256 
L 897 -744 
L 494 -744 
L 750 256 
L 750 794 
z
" id="DejaVuSans-2c" transform="scale(0.015625)"/>
       <path d="M 678 2906 
L 4684 2906 
L 4684 2381 
L 678 2381 
L 678 2906 
z
M 678 1631 
L 4684 1631 
L 4684 1100 
L 678 1100 
L 678 1631 
z
" id="DejaVuSans-3d" transform="scale(0.015625)"/>
       <path d="M 684 794 
L 1344 794 
L 1344 0 
L 684 0 
L 684 794 
z
" id="DejaVuSans-2e" transform="scale(0.015625)"/>
      </defs>
      <use xlink:href="#DejaVuSans-41e"/>
      <use x="78.710938" xlink:href="#DejaVuSans-431"/>
      <use x="140.380859" xlink:href="#DejaVuSans-443"/>
      <use x="199.560547" xlink:href="#DejaVuSans-447"/>
      <use x="258.642578" xlink:href="#DejaVuSans-430"/>
      <use x="319.921875" xlink:href="#DejaVuSans-44e"/>
      <use x="404.101562" xlink:href="#DejaVuSans-449"/>
      <use x="498.291016" xlink:href="#DejaVuSans-430"/>
      <use x="559.570312" xlink:href="#DejaVuSans-44f"/>
      <use x="619.726562" xlink:href="#DejaVuSans-20"/>
      <use x="651.513672" xlink:href="#DejaVuSans-432"/>
      <use x="710.449219" xlink:href="#DejaVuSans-44b"/>
      <use x="789.404297" xlink:href="#DejaVuSans-431"/>
      <use x="851.074219" xlink:href="#DejaVuSans-43e"/>
      <use x="912.255859" xlink:href="#DejaVuSans-440"/>
      <use x="975.732422" xlink:href="#DejaVuSans-43a"/>
      <use x="1036.132812" xlink:href="#DejaVuSans-430"/>
      <use x="1097.412109" xlink:href="#DejaVuSans-2c"/>
      <use x="1129.199219" xlink:href="#DejaVuSans-20"/>
      <use x="1160.986328" xlink:href="#DejaVuSans-6c"/>
      <use x="1188.769531" xlink:href="#DejaVuSans-72"/>
      <use x="1229.882812" xlink:href="#DejaVuSans-3d"/>
      <use x="1313.671875" xlink:href="#DejaVuSans-30"/>
      <use x="1377.294922" xlink:href="#DejaVuSans-2e"/>
      <use x="1409.082031" xlink:href="#DejaVuSans-30"/>
      <use x="1472.705078" xlink:href="#DejaVuSans-30"/>
      <use x="1536.328125" xlink:href="#DejaVuSans-31"/>
     </g>
    </g>
    <g id="line2d_22">
     <path d="M 341.9775 91.204062 
L 369.9775 91.204062 
" style="fill:none;stroke:#ff7f0e;stroke-linecap:round;stroke-width:1.5;"/>
    </g>
    <g id="line2d_23"/>
    <g id="text_20">
     <!-- Валидационная выборка, lr=0.001 -->
     <g style="fill:#262626;" transform="translate(381.1775 96.104062)scale(0.14 -0.14)">
      <defs>
       <path d="M 1259 2228 
L 1259 519 
L 2272 519 
Q 2781 519 3026 730 
Q 3272 941 3272 1375 
Q 3272 1813 3026 2020 
Q 2781 2228 2272 2228 
L 1259 2228 
z
M 1259 4147 
L 1259 2741 
L 2194 2741 
Q 2656 2741 2882 2914 
Q 3109 3088 3109 3444 
Q 3109 3797 2882 3972 
Q 2656 4147 2194 4147 
L 1259 4147 
z
M 628 4666 
L 2241 4666 
Q 2963 4666 3353 4366 
Q 3744 4066 3744 3513 
Q 3744 3084 3544 2831 
Q 3344 2578 2956 2516 
Q 3422 2416 3680 2098 
Q 3938 1781 3938 1306 
Q 3938 681 3513 340 
Q 3088 0 2303 0 
L 628 0 
L 628 4666 
z
" id="DejaVuSans-412" transform="scale(0.015625)"/>
      </defs>
      <use xlink:href="#DejaVuSans-412"/>
      <use x="68.603516" xlink:href="#DejaVuSans-430"/>
      <use x="129.882812" xlink:href="#DejaVuSans-43b"/>
      <use x="193.798828" xlink:href="#DejaVuSans-438"/>
      <use x="258.789062" xlink:href="#DejaVuSans-434"/>
      <use x="327.929688" xlink:href="#DejaVuSans-430"/>
      <use x="389.208984" xlink:href="#DejaVuSans-446"/>
      <use x="457.275391" xlink:href="#DejaVuSans-438"/>
      <use x="522.265625" xlink:href="#DejaVuSans-43e"/>
      <use x="583.447266" xlink:href="#DejaVuSans-43d"/>
      <use x="648.828125" xlink:href="#DejaVuSans-43d"/>
      <use x="714.208984" xlink:href="#DejaVuSans-430"/>
      <use x="775.488281" xlink:href="#DejaVuSans-44f"/>
      <use x="835.644531" xlink:href="#DejaVuSans-20"/>
      <use x="867.431641" xlink:href="#DejaVuSans-432"/>
      <use x="926.367188" xlink:href="#DejaVuSans-44b"/>
      <use x="1005.322266" xlink:href="#DejaVuSans-431"/>
      <use x="1066.992188" xlink:href="#DejaVuSans-43e"/>
      <use x="1128.173828" xlink:href="#DejaVuSans-440"/>
      <use x="1191.650391" xlink:href="#DejaVuSans-43a"/>
      <use x="1252.050781" xlink:href="#DejaVuSans-430"/>
      <use x="1313.330078" xlink:href="#DejaVuSans-2c"/>
      <use x="1345.117188" xlink:href="#DejaVuSans-20"/>
      <use x="1376.904297" xlink:href="#DejaVuSans-6c"/>
      <use x="1404.6875" xlink:href="#DejaVuSans-72"/>
      <use x="1445.800781" xlink:href="#DejaVuSans-3d"/>
      <use x="1529.589844" xlink:href="#DejaVuSans-30"/>
      <use x="1593.212891" xlink:href="#DejaVuSans-2e"/>
      <use x="1625" xlink:href="#DejaVuSans-30"/>
      <use x="1688.623047" xlink:href="#DejaVuSans-30"/>
      <use x="1752.246094" xlink:href="#DejaVuSans-31"/>
     </g>
    </g>
    <g id="line2d_24">
     <path d="M 341.9775 111.991875 
L 369.9775 111.991875 
" style="fill:none;stroke:#2ca02c;stroke-linecap:round;stroke-width:1.5;"/>
    </g>
    <g id="line2d_25"/>
    <g id="text_21">
     <!-- Обучающая выборка, lr=0.01 -->
     <g style="fill:#262626;" transform="translate(381.1775 116.891875)scale(0.14 -0.14)">
      <use xlink:href="#DejaVuSans-41e"/>
      <use x="78.710938" xlink:href="#DejaVuSans-431"/>
      <use x="140.380859" xlink:href="#DejaVuSans-443"/>
      <use x="199.560547" xlink:href="#DejaVuSans-447"/>
      <use x="258.642578" xlink:href="#DejaVuSans-430"/>
      <use x="319.921875" xlink:href="#DejaVuSans-44e"/>
      <use x="404.101562" xlink:href="#DejaVuSans-449"/>
      <use x="498.291016" xlink:href="#DejaVuSans-430"/>
      <use x="559.570312" xlink:href="#DejaVuSans-44f"/>
      <use x="619.726562" xlink:href="#DejaVuSans-20"/>
      <use x="651.513672" xlink:href="#DejaVuSans-432"/>
      <use x="710.449219" xlink:href="#DejaVuSans-44b"/>
      <use x="789.404297" xlink:href="#DejaVuSans-431"/>
      <use x="851.074219" xlink:href="#DejaVuSans-43e"/>
      <use x="912.255859" xlink:href="#DejaVuSans-440"/>
      <use x="975.732422" xlink:href="#DejaVuSans-43a"/>
      <use x="1036.132812" xlink:href="#DejaVuSans-430"/>
      <use x="1097.412109" xlink:href="#DejaVuSans-2c"/>
      <use x="1129.199219" xlink:href="#DejaVuSans-20"/>
      <use x="1160.986328" xlink:href="#DejaVuSans-6c"/>
      <use x="1188.769531" xlink:href="#DejaVuSans-72"/>
      <use x="1229.882812" xlink:href="#DejaVuSans-3d"/>
      <use x="1313.671875" xlink:href="#DejaVuSans-30"/>
      <use x="1377.294922" xlink:href="#DejaVuSans-2e"/>
      <use x="1409.082031" xlink:href="#DejaVuSans-30"/>
      <use x="1472.705078" xlink:href="#DejaVuSans-31"/>
     </g>
    </g>
    <g id="line2d_26">
     <path d="M 341.9775 132.779687 
L 369.9775 132.779687 
" style="fill:none;stroke:#d62728;stroke-linecap:round;stroke-width:1.5;"/>
    </g>
    <g id="line2d_27"/>
    <g id="text_22">
     <!-- Валидационная выборка, lr=0.01 -->
     <g style="fill:#262626;" transform="translate(381.1775 137.679688)scale(0.14 -0.14)">
      <use xlink:href="#DejaVuSans-412"/>
      <use x="68.603516" xlink:href="#DejaVuSans-430"/>
      <use x="129.882812" xlink:href="#DejaVuSans-43b"/>
      <use x="193.798828" xlink:href="#DejaVuSans-438"/>
      <use x="258.789062" xlink:href="#DejaVuSans-434"/>
      <use x="327.929688" xlink:href="#DejaVuSans-430"/>
      <use x="389.208984" xlink:href="#DejaVuSans-446"/>
      <use x="457.275391" xlink:href="#DejaVuSans-438"/>
      <use x="522.265625" xlink:href="#DejaVuSans-43e"/>
      <use x="583.447266" xlink:href="#DejaVuSans-43d"/>
      <use x="648.828125" xlink:href="#DejaVuSans-43d"/>
      <use x="714.208984" xlink:href="#DejaVuSans-430"/>
      <use x="775.488281" xlink:href="#DejaVuSans-44f"/>
      <use x="835.644531" xlink:href="#DejaVuSans-20"/>
      <use x="867.431641" xlink:href="#DejaVuSans-432"/>
      <use x="926.367188" xlink:href="#DejaVuSans-44b"/>
      <use x="1005.322266" xlink:href="#DejaVuSans-431"/>
      <use x="1066.992188" xlink:href="#DejaVuSans-43e"/>
      <use x="1128.173828" xlink:href="#DejaVuSans-440"/>
      <use x="1191.650391" xlink:href="#DejaVuSans-43a"/>
      <use x="1252.050781" xlink:href="#DejaVuSans-430"/>
      <use x="1313.330078" xlink:href="#DejaVuSans-2c"/>
      <use x="1345.117188" xlink:href="#DejaVuSans-20"/>
      <use x="1376.904297" xlink:href="#DejaVuSans-6c"/>
      <use x="1404.6875" xlink:href="#DejaVuSans-72"/>
      <use x="1445.800781" xlink:href="#DejaVuSans-3d"/>
      <use x="1529.589844" xlink:href="#DejaVuSans-30"/>
      <use x="1593.212891" xlink:href="#DejaVuSans-2e"/>
      <use x="1625" xlink:href="#DejaVuSans-30"/>
      <use x="1688.623047" xlink:href="#DejaVuSans-31"/>
     </g>
    </g>
   </g>
  </g>
 </g>
 <defs>
  <clipPath id="p5293f81784">
   <rect height="326.16" width="558" x="90" y="51.84"/>
  </clipPath>
 </defs>
</svg>
