<?xml version="1.0" encoding="utf-8" standalone="no"?>
<!DOCTYPE svg PUBLIC "-//W3C//DTD SVG 1.1//EN"
  "http://www.w3.org/Graphics/SVG/1.1/DTD/svg11.dtd">
<svg height="432pt" version="1.1" viewBox="0 0 720 432" width="720pt" xmlns="http://www.w3.org/2000/svg" xmlns:xlink="http://www.w3.org/1999/xlink">
 <metadata>
  <rdf:RDF xmlns:cc="http://creativecommons.org/ns#" xmlns:dc="http://purl.org/dc/elements/1.1/" xmlns:rdf="http://www.w3.org/1999/02/22-rdf-syntax-ns#">
   <cc:Work>
    <dc:type rdf:resource="http://purl.org/dc/dcmitype/StillImage"/>
    <dc:date>2022-12-11T23:44:11.424275</dc:date>
    <dc:format>image/svg+xml</dc:format>
    <dc:creator>
     <cc:Agent>
      <dc:title>Matplotlib v3.4.3, https://matplotlib.org/</dc:title>
     </cc:Agent>
    </dc:creator>
   </cc:Work>
  </rdf:RDF>
 </metadata>
 <defs>
  <style type="text/css">*{stroke-linecap:butt;stroke-linejoin:round;}</style>
 </defs>
 <g id="figure_1">
  <g id="patch_1">
   <path d="M 0 432 
L 720 432 
L 720 0 
L 0 0 
z
" style="fill:#ffffff;"/>
  </g>
  <g id="axes_1">
   <g id="patch_2">
    <path d="M 90 378 
L 648 378 
L 648 51.84 
L 90 51.84 
z
" style="fill:#eaeaf2;"/>
   </g>
   <g id="matplotlib.axis_1">
    <g id="xtick_1">
     <g id="line2d_1">
      <path clip-path="url(#pc4f925f23d)" d="M 114.855856 378 
L 114.855856 51.84 
" style="fill:none;stroke:#ffffff;stroke-linecap:round;stroke-width:0.8;"/>
     </g>
     <g id="text_1">
      <!-- 0 -->
      <g style="fill:#262626;" transform="translate(110.402106 395.637812)scale(0.14 -0.14)">
       <defs>
        <path d="M 2034 4250 
Q 1547 4250 1301 3770 
Q 1056 3291 1056 2328 
Q 1056 1369 1301 889 
Q 1547 409 2034 409 
Q 2525 409 2770 889 
Q 3016 1369 3016 2328 
Q 3016 3291 2770 3770 
Q 2525 4250 2034 4250 
z
M 2034 4750 
Q 2819 4750 3233 4129 
Q 3647 3509 3647 2328 
Q 3647 1150 3233 529 
Q 2819 -91 2034 -91 
Q 1250 -91 836 529 
Q 422 1150 422 2328 
Q 422 3509 836 4129 
Q 1250 4750 2034 4750 
z
" id="DejaVuSans-30" transform="scale(0.015625)"/>
       </defs>
       <use xlink:href="#DejaVuSans-30"/>
      </g>
     </g>
    </g>
    <g id="xtick_2">
     <g id="line2d_2">
      <path clip-path="url(#pc4f925f23d)" d="M 216.411957 378 
L 216.411957 51.84 
" style="fill:none;stroke:#ffffff;stroke-linecap:round;stroke-width:0.8;"/>
     </g>
     <g id="text_2">
      <!-- 200 -->
      <g style="fill:#262626;" transform="translate(203.050707 395.637812)scale(0.14 -0.14)">
       <defs>
        <path d="M 1228 531 
L 3431 531 
L 3431 0 
L 469 0 
L 469 531 
Q 828 903 1448 1529 
Q 2069 2156 2228 2338 
Q 2531 2678 2651 2914 
Q 2772 3150 2772 3378 
Q 2772 3750 2511 3984 
Q 2250 4219 1831 4219 
Q 1534 4219 1204 4116 
Q 875 4013 500 3803 
L 500 4441 
Q 881 4594 1212 4672 
Q 1544 4750 1819 4750 
Q 2544 4750 2975 4387 
Q 3406 4025 3406 3419 
Q 3406 3131 3298 2873 
Q 3191 2616 2906 2266 
Q 2828 2175 2409 1742 
Q 1991 1309 1228 531 
z
" id="DejaVuSans-32" transform="scale(0.015625)"/>
       </defs>
       <use xlink:href="#DejaVuSans-32"/>
       <use x="63.623047" xlink:href="#DejaVuSans-30"/>
       <use x="127.246094" xlink:href="#DejaVuSans-30"/>
      </g>
     </g>
    </g>
    <g id="xtick_3">
     <g id="line2d_3">
      <path clip-path="url(#pc4f925f23d)" d="M 317.968059 378 
L 317.968059 51.84 
" style="fill:none;stroke:#ffffff;stroke-linecap:round;stroke-width:0.8;"/>
     </g>
     <g id="text_3">
      <!-- 400 -->
      <g style="fill:#262626;" transform="translate(304.606809 395.637812)scale(0.14 -0.14)">
       <defs>
        <path d="M 2419 4116 
L 825 1625 
L 2419 1625 
L 2419 4116 
z
M 2253 4666 
L 3047 4666 
L 3047 1625 
L 3713 1625 
L 3713 1100 
L 3047 1100 
L 3047 0 
L 2419 0 
L 2419 1100 
L 313 1100 
L 313 1709 
L 2253 4666 
z
" id="DejaVuSans-34" transform="scale(0.015625)"/>
       </defs>
       <use xlink:href="#DejaVuSans-34"/>
       <use x="63.623047" xlink:href="#DejaVuSans-30"/>
       <use x="127.246094" xlink:href="#DejaVuSans-30"/>
      </g>
     </g>
    </g>
    <g id="xtick_4">
     <g id="line2d_4">
      <path clip-path="url(#pc4f925f23d)" d="M 419.524161 378 
L 419.524161 51.84 
" style="fill:none;stroke:#ffffff;stroke-linecap:round;stroke-width:0.8;"/>
     </g>
     <g id="text_4">
      <!-- 600 -->
      <g style="fill:#262626;" transform="translate(406.162911 395.637812)scale(0.14 -0.14)">
       <defs>
        <path d="M 2113 2584 
Q 1688 2584 1439 2293 
Q 1191 2003 1191 1497 
Q 1191 994 1439 701 
Q 1688 409 2113 409 
Q 2538 409 2786 701 
Q 3034 994 3034 1497 
Q 3034 2003 2786 2293 
Q 2538 2584 2113 2584 
z
M 3366 4563 
L 3366 3988 
Q 3128 4100 2886 4159 
Q 2644 4219 2406 4219 
Q 1781 4219 1451 3797 
Q 1122 3375 1075 2522 
Q 1259 2794 1537 2939 
Q 1816 3084 2150 3084 
Q 2853 3084 3261 2657 
Q 3669 2231 3669 1497 
Q 3669 778 3244 343 
Q 2819 -91 2113 -91 
Q 1303 -91 875 529 
Q 447 1150 447 2328 
Q 447 3434 972 4092 
Q 1497 4750 2381 4750 
Q 2619 4750 2861 4703 
Q 3103 4656 3366 4563 
z
" id="DejaVuSans-36" transform="scale(0.015625)"/>
       </defs>
       <use xlink:href="#DejaVuSans-36"/>
       <use x="63.623047" xlink:href="#DejaVuSans-30"/>
       <use x="127.246094" xlink:href="#DejaVuSans-30"/>
      </g>
     </g>
    </g>
    <g id="xtick_5">
     <g id="line2d_5">
      <path clip-path="url(#pc4f925f23d)" d="M 521.080262 378 
L 521.080262 51.84 
" style="fill:none;stroke:#ffffff;stroke-linecap:round;stroke-width:0.8;"/>
     </g>
     <g id="text_5">
      <!-- 800 -->
      <g style="fill:#262626;" transform="translate(507.719012 395.637812)scale(0.14 -0.14)">
       <defs>
        <path d="M 2034 2216 
Q 1584 2216 1326 1975 
Q 1069 1734 1069 1313 
Q 1069 891 1326 650 
Q 1584 409 2034 409 
Q 2484 409 2743 651 
Q 3003 894 3003 1313 
Q 3003 1734 2745 1975 
Q 2488 2216 2034 2216 
z
M 1403 2484 
Q 997 2584 770 2862 
Q 544 3141 544 3541 
Q 544 4100 942 4425 
Q 1341 4750 2034 4750 
Q 2731 4750 3128 4425 
Q 3525 4100 3525 3541 
Q 3525 3141 3298 2862 
Q 3072 2584 2669 2484 
Q 3125 2378 3379 2068 
Q 3634 1759 3634 1313 
Q 3634 634 3220 271 
Q 2806 -91 2034 -91 
Q 1263 -91 848 271 
Q 434 634 434 1313 
Q 434 1759 690 2068 
Q 947 2378 1403 2484 
z
M 1172 3481 
Q 1172 3119 1398 2916 
Q 1625 2713 2034 2713 
Q 2441 2713 2670 2916 
Q 2900 3119 2900 3481 
Q 2900 3844 2670 4047 
Q 2441 4250 2034 4250 
Q 1625 4250 1398 4047 
Q 1172 3844 1172 3481 
z
" id="DejaVuSans-38" transform="scale(0.015625)"/>
       </defs>
       <use xlink:href="#DejaVuSans-38"/>
       <use x="63.623047" xlink:href="#DejaVuSans-30"/>
       <use x="127.246094" xlink:href="#DejaVuSans-30"/>
      </g>
     </g>
    </g>
    <g id="xtick_6">
     <g id="line2d_6">
      <path clip-path="url(#pc4f925f23d)" d="M 622.636364 378 
L 622.636364 51.84 
" style="fill:none;stroke:#ffffff;stroke-linecap:round;stroke-width:0.8;"/>
     </g>
     <g id="text_6">
      <!-- 1000 -->
      <g style="fill:#262626;" transform="translate(604.821364 395.637812)scale(0.14 -0.14)">
       <defs>
        <path d="M 794 531 
L 1825 531 
L 1825 4091 
L 703 3866 
L 703 4441 
L 1819 4666 
L 2450 4666 
L 2450 531 
L 3481 531 
L 3481 0 
L 794 0 
L 794 531 
z
" id="DejaVuSans-31" transform="scale(0.015625)"/>
       </defs>
       <use xlink:href="#DejaVuSans-31"/>
       <use x="63.623047" xlink:href="#DejaVuSans-30"/>
       <use x="127.246094" xlink:href="#DejaVuSans-30"/>
       <use x="190.869141" xlink:href="#DejaVuSans-30"/>
      </g>
     </g>
    </g>
    <g id="text_7">
     <!-- Количество деревьев -->
     <g style="fill:#262626;" transform="translate(289.13875 413.187187)scale(0.14 -0.14)">
      <defs>
       <path d="M 628 4666 
L 1259 4666 
L 1259 2359 
L 3516 4666 
L 4325 4666 
L 2522 2822 
L 4419 0 
L 3731 0 
L 2113 2403 
L 1259 1531 
L 1259 0 
L 628 0 
L 628 4666 
z
" id="DejaVuSans-41a" transform="scale(0.015625)"/>
       <path d="M 1959 3097 
Q 1497 3097 1228 2736 
Q 959 2375 959 1747 
Q 959 1119 1226 758 
Q 1494 397 1959 397 
Q 2419 397 2687 759 
Q 2956 1122 2956 1747 
Q 2956 2369 2687 2733 
Q 2419 3097 1959 3097 
z
M 1959 3584 
Q 2709 3584 3137 3096 
Q 3566 2609 3566 1747 
Q 3566 888 3137 398 
Q 2709 -91 1959 -91 
Q 1206 -91 779 398 
Q 353 888 353 1747 
Q 353 2609 779 3096 
Q 1206 3584 1959 3584 
z
" id="DejaVuSans-43e" transform="scale(0.015625)"/>
       <path d="M 238 0 
L 238 478 
Q 806 566 981 959 
Q 1194 1513 1194 2928 
L 1194 3500 
L 3559 3500 
L 3559 0 
L 2984 0 
L 2984 3041 
L 1769 3041 
L 1769 2694 
Q 1769 1344 1494 738 
Q 1200 91 238 0 
z
" id="DejaVuSans-43b" transform="scale(0.015625)"/>
       <path d="M 3578 3500 
L 3578 0 
L 3006 0 
L 3006 2809 
L 1319 0 
L 581 0 
L 581 3500 
L 1153 3500 
L 1153 697 
L 2838 3500 
L 3578 3500 
z
" id="DejaVuSans-438" transform="scale(0.015625)"/>
       <path d="M 2625 0 
L 2625 1472 
L 1553 1472 
Q 1075 1472 756 1769 
Q 469 2038 469 2613 
L 469 3500 
L 1044 3500 
L 1044 2666 
Q 1044 2300 1206 2116 
Q 1372 1931 1697 1931 
L 2625 1931 
L 2625 3500 
L 3200 3500 
L 3200 0 
L 2625 0 
z
" id="DejaVuSans-447" transform="scale(0.015625)"/>
       <path d="M 3597 1894 
L 3597 1613 
L 953 1613 
Q 991 1019 1311 708 
Q 1631 397 2203 397 
Q 2534 397 2845 478 
Q 3156 559 3463 722 
L 3463 178 
Q 3153 47 2828 -22 
Q 2503 -91 2169 -91 
Q 1331 -91 842 396 
Q 353 884 353 1716 
Q 353 2575 817 3079 
Q 1281 3584 2069 3584 
Q 2775 3584 3186 3129 
Q 3597 2675 3597 1894 
z
M 3022 2063 
Q 3016 2534 2758 2815 
Q 2500 3097 2075 3097 
Q 1594 3097 1305 2825 
Q 1016 2553 972 2059 
L 3022 2063 
z
" id="DejaVuSans-435" transform="scale(0.015625)"/>
       <path d="M 3122 3366 
L 3122 2828 
Q 2878 2963 2633 3030 
Q 2388 3097 2138 3097 
Q 1578 3097 1268 2742 
Q 959 2388 959 1747 
Q 959 1106 1268 751 
Q 1578 397 2138 397 
Q 2388 397 2633 464 
Q 2878 531 3122 666 
L 3122 134 
Q 2881 22 2623 -34 
Q 2366 -91 2075 -91 
Q 1284 -91 818 406 
Q 353 903 353 1747 
Q 353 2603 823 3093 
Q 1294 3584 2113 3584 
Q 2378 3584 2631 3529 
Q 2884 3475 3122 3366 
z
" id="DejaVuSans-441" transform="scale(0.015625)"/>
       <path d="M 188 3500 
L 3541 3500 
L 3541 3041 
L 2147 3041 
L 2147 0 
L 1581 0 
L 1581 3041 
L 188 3041 
L 188 3500 
z
" id="DejaVuSans-442" transform="scale(0.015625)"/>
       <path d="M 1156 1613 
L 1156 459 
L 1975 459 
Q 2369 459 2575 607 
Q 2781 756 2781 1038 
Q 2781 1319 2575 1466 
Q 2369 1613 1975 1613 
L 1156 1613 
z
M 1156 3041 
L 1156 2072 
L 1913 2072 
Q 2238 2072 2444 2201 
Q 2650 2331 2650 2563 
Q 2650 2794 2444 2917 
Q 2238 3041 1913 3041 
L 1156 3041 
z
M 581 3500 
L 1950 3500 
Q 2566 3500 2897 3275 
Q 3228 3050 3228 2634 
Q 3228 2313 3059 2123 
Q 2891 1934 2559 1888 
Q 2956 1813 3175 1575 
Q 3394 1338 3394 981 
Q 3394 513 3033 256 
Q 2672 0 2003 0 
L 581 0 
L 581 3500 
z
" id="DejaVuSans-432" transform="scale(0.015625)"/>
       <path id="DejaVuSans-20" transform="scale(0.015625)"/>
       <path d="M 1384 459 
L 3053 459 
L 3053 3041 
L 1844 3041 
L 1844 2603 
Q 1844 1316 1475 628 
L 1384 459 
z
M 550 459 
Q 834 584 959 850 
Q 1266 1509 1266 2838 
L 1266 3500 
L 3631 3500 
L 3631 459 
L 4091 459 
L 4091 -884 
L 3631 -884 
L 3631 0 
L 794 0 
L 794 -884 
L 334 -884 
L 334 459 
L 550 459 
z
" id="DejaVuSans-434" transform="scale(0.015625)"/>
       <path d="M 1159 525 
L 1159 -1331 
L 581 -1331 
L 581 3500 
L 1159 3500 
L 1159 2969 
Q 1341 3281 1617 3432 
Q 1894 3584 2278 3584 
Q 2916 3584 3314 3078 
Q 3713 2572 3713 1747 
Q 3713 922 3314 415 
Q 2916 -91 2278 -91 
Q 1894 -91 1617 61 
Q 1341 213 1159 525 
z
M 3116 1747 
Q 3116 2381 2855 2742 
Q 2594 3103 2138 3103 
Q 1681 3103 1420 2742 
Q 1159 2381 1159 1747 
Q 1159 1113 1420 752 
Q 1681 391 2138 391 
Q 2594 391 2855 752 
Q 3116 1113 3116 1747 
z
" id="DejaVuSans-440" transform="scale(0.015625)"/>
       <path d="M 2781 1038 
Q 2781 1319 2576 1466 
Q 2372 1613 1978 1613 
L 1159 1613 
L 1159 459 
L 1978 459 
Q 2372 459 2576 607 
Q 2781 756 2781 1038 
z
M 581 3500 
L 1159 3500 
L 1159 2072 
L 2003 2072 
Q 2672 2072 3033 1817 
Q 3394 1563 3394 1038 
Q 3394 513 3033 256 
Q 2672 0 2003 0 
L 581 0 
L 581 3500 
z
" id="DejaVuSans-44c" transform="scale(0.015625)"/>
      </defs>
      <use xlink:href="#DejaVuSans-41a"/>
      <use x="70.996094" xlink:href="#DejaVuSans-43e"/>
      <use x="132.177734" xlink:href="#DejaVuSans-43b"/>
      <use x="196.09375" xlink:href="#DejaVuSans-438"/>
      <use x="261.083984" xlink:href="#DejaVuSans-447"/>
      <use x="320.166016" xlink:href="#DejaVuSans-435"/>
      <use x="381.689453" xlink:href="#DejaVuSans-441"/>
      <use x="436.669922" xlink:href="#DejaVuSans-442"/>
      <use x="494.921875" xlink:href="#DejaVuSans-432"/>
      <use x="553.857422" xlink:href="#DejaVuSans-43e"/>
      <use x="615.039062" xlink:href="#DejaVuSans-20"/>
      <use x="646.826172" xlink:href="#DejaVuSans-434"/>
      <use x="715.966797" xlink:href="#DejaVuSans-435"/>
      <use x="777.490234" xlink:href="#DejaVuSans-440"/>
      <use x="840.966797" xlink:href="#DejaVuSans-435"/>
      <use x="902.490234" xlink:href="#DejaVuSans-432"/>
      <use x="961.425781" xlink:href="#DejaVuSans-44c"/>
      <use x="1020.361328" xlink:href="#DejaVuSans-435"/>
      <use x="1081.884766" xlink:href="#DejaVuSans-432"/>
     </g>
    </g>
   </g>
   <g id="matplotlib.axis_2">
    <g id="ytick_1">
     <g id="line2d_7">
      <path clip-path="url(#pc4f925f23d)" d="M 90 363.66113 
L 648 363.66113 
" style="fill:none;stroke:#ffffff;stroke-linecap:round;stroke-width:0.8;"/>
     </g>
     <g id="text_8">
      <!-- 0 -->
      <g style="fill:#262626;" transform="translate(74.0925 368.980036)scale(0.14 -0.14)">
       <use xlink:href="#DejaVuSans-30"/>
      </g>
     </g>
    </g>
    <g id="ytick_2">
     <g id="line2d_8">
      <path clip-path="url(#pc4f925f23d)" d="M 90 316.606705 
L 648 316.606705 
" style="fill:none;stroke:#ffffff;stroke-linecap:round;stroke-width:0.8;"/>
     </g>
     <g id="text_9">
      <!-- 10 -->
      <g style="fill:#262626;" transform="translate(65.185 321.925611)scale(0.14 -0.14)">
       <use xlink:href="#DejaVuSans-31"/>
       <use x="63.623047" xlink:href="#DejaVuSans-30"/>
      </g>
     </g>
    </g>
    <g id="ytick_3">
     <g id="line2d_9">
      <path clip-path="url(#pc4f925f23d)" d="M 90 269.552279 
L 648 269.552279 
" style="fill:none;stroke:#ffffff;stroke-linecap:round;stroke-width:0.8;"/>
     </g>
     <g id="text_10">
      <!-- 20 -->
      <g style="fill:#262626;" transform="translate(65.185 274.871186)scale(0.14 -0.14)">
       <use xlink:href="#DejaVuSans-32"/>
       <use x="63.623047" xlink:href="#DejaVuSans-30"/>
      </g>
     </g>
    </g>
    <g id="ytick_4">
     <g id="line2d_10">
      <path clip-path="url(#pc4f925f23d)" d="M 90 222.497854 
L 648 222.497854 
" style="fill:none;stroke:#ffffff;stroke-linecap:round;stroke-width:0.8;"/>
     </g>
     <g id="text_11">
      <!-- 30 -->
      <g style="fill:#262626;" transform="translate(65.185 227.81676)scale(0.14 -0.14)">
       <defs>
        <path d="M 2597 2516 
Q 3050 2419 3304 2112 
Q 3559 1806 3559 1356 
Q 3559 666 3084 287 
Q 2609 -91 1734 -91 
Q 1441 -91 1130 -33 
Q 819 25 488 141 
L 488 750 
Q 750 597 1062 519 
Q 1375 441 1716 441 
Q 2309 441 2620 675 
Q 2931 909 2931 1356 
Q 2931 1769 2642 2001 
Q 2353 2234 1838 2234 
L 1294 2234 
L 1294 2753 
L 1863 2753 
Q 2328 2753 2575 2939 
Q 2822 3125 2822 3475 
Q 2822 3834 2567 4026 
Q 2313 4219 1838 4219 
Q 1578 4219 1281 4162 
Q 984 4106 628 3988 
L 628 4550 
Q 988 4650 1302 4700 
Q 1616 4750 1894 4750 
Q 2613 4750 3031 4423 
Q 3450 4097 3450 3541 
Q 3450 3153 3228 2886 
Q 3006 2619 2597 2516 
z
" id="DejaVuSans-33" transform="scale(0.015625)"/>
       </defs>
       <use xlink:href="#DejaVuSans-33"/>
       <use x="63.623047" xlink:href="#DejaVuSans-30"/>
      </g>
     </g>
    </g>
    <g id="ytick_5">
     <g id="line2d_11">
      <path clip-path="url(#pc4f925f23d)" d="M 90 175.443429 
L 648 175.443429 
" style="fill:none;stroke:#ffffff;stroke-linecap:round;stroke-width:0.8;"/>
     </g>
     <g id="text_12">
      <!-- 40 -->
      <g style="fill:#262626;" transform="translate(65.185 180.762335)scale(0.14 -0.14)">
       <use xlink:href="#DejaVuSans-34"/>
       <use x="63.623047" xlink:href="#DejaVuSans-30"/>
      </g>
     </g>
    </g>
    <g id="ytick_6">
     <g id="line2d_12">
      <path clip-path="url(#pc4f925f23d)" d="M 90 128.389004 
L 648 128.389004 
" style="fill:none;stroke:#ffffff;stroke-linecap:round;stroke-width:0.8;"/>
     </g>
     <g id="text_13">
      <!-- 50 -->
      <g style="fill:#262626;" transform="translate(65.185 133.70791)scale(0.14 -0.14)">
       <defs>
        <path d="M 691 4666 
L 3169 4666 
L 3169 4134 
L 1269 4134 
L 1269 2991 
Q 1406 3038 1543 3061 
Q 1681 3084 1819 3084 
Q 2600 3084 3056 2656 
Q 3513 2228 3513 1497 
Q 3513 744 3044 326 
Q 2575 -91 1722 -91 
Q 1428 -91 1123 -41 
Q 819 9 494 109 
L 494 744 
Q 775 591 1075 516 
Q 1375 441 1709 441 
Q 2250 441 2565 725 
Q 2881 1009 2881 1497 
Q 2881 1984 2565 2268 
Q 2250 2553 1709 2553 
Q 1456 2553 1204 2497 
Q 953 2441 691 2322 
L 691 4666 
z
" id="DejaVuSans-35" transform="scale(0.015625)"/>
       </defs>
       <use xlink:href="#DejaVuSans-35"/>
       <use x="63.623047" xlink:href="#DejaVuSans-30"/>
      </g>
     </g>
    </g>
    <g id="ytick_7">
     <g id="line2d_13">
      <path clip-path="url(#pc4f925f23d)" d="M 90 81.334579 
L 648 81.334579 
" style="fill:none;stroke:#ffffff;stroke-linecap:round;stroke-width:0.8;"/>
     </g>
     <g id="text_14">
      <!-- 60 -->
      <g style="fill:#262626;" transform="translate(65.185 86.653485)scale(0.14 -0.14)">
       <use xlink:href="#DejaVuSans-36"/>
       <use x="63.623047" xlink:href="#DejaVuSans-30"/>
      </g>
     </g>
    </g>
    <g id="text_15">
     <!-- Время, с -->
     <g style="fill:#262626;" transform="translate(58.273438 246.263594)rotate(-90)scale(0.14 -0.14)">
      <defs>
       <path d="M 1259 2228 
L 1259 519 
L 2272 519 
Q 2781 519 3026 730 
Q 3272 941 3272 1375 
Q 3272 1813 3026 2020 
Q 2781 2228 2272 2228 
L 1259 2228 
z
M 1259 4147 
L 1259 2741 
L 2194 2741 
Q 2656 2741 2882 2914 
Q 3109 3088 3109 3444 
Q 3109 3797 2882 3972 
Q 2656 4147 2194 4147 
L 1259 4147 
z
M 628 4666 
L 2241 4666 
Q 2963 4666 3353 4366 
Q 3744 4066 3744 3513 
Q 3744 3084 3544 2831 
Q 3344 2578 2956 2516 
Q 3422 2416 3680 2098 
Q 3938 1781 3938 1306 
Q 3938 681 3513 340 
Q 3088 0 2303 0 
L 628 0 
L 628 4666 
z
" id="DejaVuSans-412" transform="scale(0.015625)"/>
       <path d="M 581 3500 
L 1422 3500 
L 2416 1156 
L 3413 3500 
L 4247 3500 
L 4247 0 
L 3669 0 
L 3669 2950 
L 2703 672 
L 2128 672 
L 1159 2950 
L 1159 0 
L 581 0 
L 581 3500 
z
" id="DejaVuSans-43c" transform="scale(0.015625)"/>
       <path d="M 1181 2491 
Q 1181 2231 1381 2084 
Q 1581 1938 1953 1938 
L 2728 1938 
L 2728 3041 
L 1953 3041 
Q 1581 3041 1381 2897 
Q 1181 2753 1181 2491 
z
M 363 0 
L 1431 1534 
Q 1069 1616 828 1830 
Q 588 2044 588 2491 
Q 588 2997 923 3248 
Q 1259 3500 1938 3500 
L 3306 3500 
L 3306 0 
L 2728 0 
L 2728 1478 
L 2013 1478 
L 981 0 
L 363 0 
z
" id="DejaVuSans-44f" transform="scale(0.015625)"/>
       <path d="M 750 794 
L 1409 794 
L 1409 256 
L 897 -744 
L 494 -744 
L 750 256 
L 750 794 
z
" id="DejaVuSans-2c" transform="scale(0.015625)"/>
      </defs>
      <use xlink:href="#DejaVuSans-412"/>
      <use x="68.603516" xlink:href="#DejaVuSans-440"/>
      <use x="132.080078" xlink:href="#DejaVuSans-435"/>
      <use x="193.603516" xlink:href="#DejaVuSans-43c"/>
      <use x="269.042969" xlink:href="#DejaVuSans-44f"/>
      <use x="329.199219" xlink:href="#DejaVuSans-2c"/>
      <use x="360.986328" xlink:href="#DejaVuSans-20"/>
      <use x="392.773438" xlink:href="#DejaVuSans-441"/>
     </g>
    </g>
   </g>
   <g id="line2d_14">
    <path clip-path="url(#pc4f925f23d)" d="M 115.363636 363.174545 
L 116.379197 362.642013 
L 116.886978 362.433501 
L 122.472563 358.818648 
L 128.058149 355.630085 
L 129.07371 354.994106 
L 129.581491 354.838104 
L 131.612613 353.661671 
L 133.643735 352.573681 
L 134.151515 352.50042 
L 135.167076 351.847897 
L 138.213759 350.003114 
L 138.72154 349.523953 
L 139.22932 349.448082 
L 141.260442 348.309637 
L 142.276003 347.633068 
L 143.291564 347.260632 
L 145.830467 345.913134 
L 146.846028 345.332794 
L 149.892711 343.841415 
L 153.954955 341.537824 
L 155.478296 340.654429 
L 159.540541 338.486547 
L 161.063882 337.686966 
L 161.571663 337.508014 
L 163.602785 336.350479 
L 164.618346 335.933903 
L 166.649468 334.874261 
L 167.157248 334.651075 
L 168.172809 334.042051 
L 168.68059 333.901927 
L 169.18837 333.569615 
L 171.219492 332.877827 
L 174.266175 331.378331 
L 175.789517 330.513518 
L 178.8362 328.832374 
L 180.867322 327.950148 
L 181.375102 327.862288 
L 186.960688 324.952829 
L 187.976249 324.447044 
L 188.99181 323.972846 
L 190.515152 323.341633 
L 191.022932 322.952739 
L 193.561835 321.736862 
L 196.608518 320.015529 
L 197.116298 319.812644 
L 198.131859 319.284884 
L 199.14742 318.795752 
L 200.162981 318.253954 
L 201.178542 317.635698 
L 203.209664 316.58961 
L 204.733006 315.84812 
L 206.256347 315.103323 
L 207.271908 314.621504 
L 208.287469 313.947112 
L 210.318591 312.91959 
L 214.888616 310.512111 
L 215.396396 310.132047 
L 219.45864 308.179022 
L 220.981982 307.253728 
L 223.013104 306.313006 
L 223.520885 306.248778 
L 225.552007 305.189186 
L 226.059787 304.802851 
L 226.567568 304.571541 
L 228.090909 303.420449 
L 229.614251 302.234776 
L 230.122031 301.927542 
L 231.137592 300.985976 
L 233.676495 298.872723 
L 235.707617 297.067378 
L 236.723178 296.427477 
L 238.7543 294.5818 
L 241.800983 292.604083 
L 242.816544 291.813657 
L 245.863227 289.048717 
L 246.371007 288.751518 
L 249.41769 285.903941 
L 249.925471 285.608794 
L 250.941032 284.671669 
L 251.956593 283.952479 
L 254.495495 281.998934 
L 255.003276 281.736521 
L 255.511057 281.306871 
L 258.049959 280.141786 
L 259.06552 279.231919 
L 260.081081 278.429314 
L 263.127764 276.187322 
L 263.635545 275.929434 
L 264.651106 274.924662 
L 265.158886 274.722263 
L 267.190008 273.11229 
L 268.205569 272.131294 
L 269.22113 271.160088 
L 270.744472 269.767302 
L 274.298935 267.06298 
L 276.330057 265.26238 
L 277.345618 264.514238 
L 281.407862 261.448385 
L 282.931204 260.527514 
L 283.438984 259.955287 
L 284.962326 258.621274 
L 286.993448 256.936091 
L 290.547912 254.53284 
L 293.594595 252.100163 
L 294.102375 251.82273 
L 294.610156 251.332717 
L 296.133497 250.557082 
L 297.149058 250.001955 
L 301.719083 246.902154 
L 303.242424 246.182313 
L 312.382473 241.565457 
L 313.398034 241.05371 
L 315.936937 239.591271 
L 317.460278 238.615959 
L 319.999181 237.307147 
L 322.538084 236.088486 
L 324.061425 235.194375 
L 325.076986 234.594862 
L 327.108108 233.674905 
L 328.63145 232.844896 
L 329.647011 232.292247 
L 330.662572 231.959265 
L 332.185913 231.164118 
L 333.201474 230.801646 
L 334.217035 230.308015 
L 336.755938 229.266328 
L 337.263718 228.973717 
L 338.279279 228.600245 
L 339.29484 228.015736 
L 341.325962 226.96252 
L 342.849304 226.161505 
L 344.372645 225.516198 
L 347.927109 223.425179 
L 348.434889 223.324067 
L 348.94267 223.009449 
L 349.45045 222.859607 
L 353.004914 221.039174 
L 354.020475 220.559972 
L 356.559378 219.227664 
L 358.082719 218.542415 
L 360.621622 217.233167 
L 362.144963 216.583599 
L 363.160524 216.006714 
L 364.176085 215.344689 
L 367.222768 213.681199 
L 367.730549 213.526775 
L 368.74611 212.89119 
L 369.761671 212.455405 
L 370.269451 212.369717 
L 371.792793 211.841033 
L 372.808354 211.120874 
L 373.823915 210.590433 
L 381.440622 206.334202 
L 382.963964 205.469152 
L 384.487305 204.787365 
L 386.518428 203.454758 
L 388.54955 202.496562 
L 390.072891 201.817601 
L 390.580672 201.713452 
L 398.197379 197.917996 
L 399.720721 197.23139 
L 401.244062 196.442082 
L 402.767404 195.709349 
L 403.782965 195.118689 
L 407.337428 193.473106 
L 407.845209 193.170534 
L 408.352989 193.07753 
L 409.876331 192.340502 
L 410.891892 191.818195 
L 411.907453 191.290794 
L 419.01638 187.873393 
L 420.539722 187.003922 
L 421.555283 186.408411 
L 422.063063 186.305292 
L 424.601966 185.025287 
L 425.617527 184.500337 
L 426.125307 184.390481 
L 430.187551 182.38519 
L 430.695332 182.21652 
L 431.710893 181.570165 
L 434.249795 180.846276 
L 442.882064 176.650819 
L 445.928747 174.772631 
L 446.944308 174.443416 
L 448.467649 173.644888 
L 448.97543 173.563436 
L 450.498771 172.808433 
L 452.022113 172.053693 
L 452.529894 171.794035 
L 453.037674 171.669475 
L 455.068796 170.44663 
L 456.084357 169.873632 
L 456.592138 169.515512 
L 458.115479 168.894137 
L 460.654382 167.559215 
L 461.669943 166.882692 
L 462.685504 166.3174 
L 464.716626 165.1752 
L 467.255528 163.779122 
L 467.763309 163.556869 
L 468.271089 163.208314 
L 469.28665 162.80034 
L 471.317772 161.707473 
L 472.333333 161.10344 
L 479.950041 156.856641 
L 480.965602 156.060148 
L 483.504505 154.828623 
L 484.012285 154.530611 
L 485.535627 153.996859 
L 486.043407 153.633407 
L 487.058968 152.739518 
L 492.644554 148.534505 
L 493.152334 147.956588 
L 494.167895 147.100449 
L 494.675676 146.642879 
L 495.183456 146.343792 
L 495.691237 145.875105 
L 496.706798 145.283671 
L 499.2457 143.088596 
L 502.292383 140.814254 
L 506.354627 137.024865 
L 506.862408 136.745977 
L 508.89353 135.160965 
L 510.416871 134.211864 
L 512.447993 132.744817 
L 513.463554 131.755268 
L 513.971335 131.352191 
L 514.479115 131.105527 
L 516.002457 129.955133 
L 517.525799 128.782474 
L 518.54136 128.196469 
L 520.572482 126.466016 
L 521.588043 125.642763 
L 524.126945 123.196691 
L 525.142506 122.691169 
L 526.665848 121.174366 
L 527.173628 120.749339 
L 527.681409 120.547836 
L 531.235872 118.000627 
L 531.743653 117.772709 
L 533.774775 116.248577 
L 535.805897 114.615433 
L 537.329238 113.521954 
L 537.837019 112.982476 
L 538.85258 112.172748 
L 541.391482 110.240607 
L 542.914824 109.420681 
L 543.422604 108.983032 
L 543.930385 108.7099 
L 545.961507 106.853189 
L 546.469287 106.452543 
L 546.977068 106.242656 
L 548.50041 105.331033 
L 549.515971 104.572476 
L 551.039312 103.280359 
L 552.562654 101.944966 
L 553.070434 101.412868 
L 553.578215 101.304226 
L 557.132678 98.950132 
L 558.148239 98.417646 
L 558.65602 98.169474 
L 559.1638 97.789378 
L 560.687142 97.176356 
L 561.702703 96.639155 
L 565.764947 94.559487 
L 566.780508 94.138422 
L 567.796069 93.654607 
L 568.81163 92.997154 
L 572.873874 90.775767 
L 573.381654 90.676021 
L 574.397215 90.152418 
L 575.412776 89.610699 
L 576.428337 89.00764 
L 577.443898 88.634322 
L 582.013923 86.777334 
L 595.216216 80.26921 
L 597.247338 79.331359 
L 598.262899 78.846741 
L 601.309582 77.405441 
L 606.387387 75.040203 
L 607.402948 74.358969 
L 612.988534 71.393088 
L 616.542998 69.497568 
L 618.066339 68.871875 
L 619.0819 68.302185 
L 621.620803 66.991214 
L 622.128583 66.894426 
L 622.636364 66.665455 
L 622.636364 66.665455 
" style="fill:none;stroke:#800080;stroke-linecap:round;stroke-width:1.5;"/>
   </g>
   <g id="patch_3">
    <path d="M 90 378 
L 90 51.84 
" style="fill:none;stroke:#ffffff;stroke-linecap:square;stroke-linejoin:miter;stroke-width:0.8;"/>
   </g>
   <g id="patch_4">
    <path d="M 648 378 
L 648 51.84 
" style="fill:none;stroke:#ffffff;stroke-linecap:square;stroke-linejoin:miter;stroke-width:0.8;"/>
   </g>
   <g id="patch_5">
    <path d="M 90 378 
L 648 378 
" style="fill:none;stroke:#ffffff;stroke-linecap:square;stroke-linejoin:miter;stroke-width:0.8;"/>
   </g>
   <g id="patch_6">
    <path d="M 90 51.84 
L 648 51.84 
" style="fill:none;stroke:#ffffff;stroke-linecap:square;stroke-linejoin:miter;stroke-width:0.8;"/>
   </g>
   <g id="text_16">
    <!-- Зависимость времени обучения от количетсва деревьев -->
    <g style="fill:#262626;" transform="translate(117.044625 27.027675)scale(0.168 -0.168)">
     <defs>
      <path d="M 1828 4750 
Q 2597 4750 3084 4423 
Q 3572 4097 3572 3541 
Q 3572 3153 3350 2886 
Q 3128 2619 2719 2516 
Q 3172 2419 3426 2112 
Q 3681 1806 3681 1356 
Q 3681 638 3126 273 
Q 2572 -91 1828 -91 
Q 1447 -91 1003 12 
Q 559 116 422 203 
L 422 853 
Q 900 575 1164 508 
Q 1428 441 1816 441 
Q 2403 441 2728 666 
Q 3053 891 3053 1356 
Q 3053 1769 2764 2001 
Q 2475 2234 1866 2234 
L 1228 2234 
L 1228 2753 
L 1891 2753 
Q 2450 2753 2697 2939 
Q 2944 3125 2944 3475 
Q 2944 3834 2689 4026 
Q 2434 4219 1816 4219 
Q 1397 4219 1253 4181 
Q 1109 4144 469 3903 
L 469 4519 
Q 822 4644 1190 4697 
Q 1559 4750 1828 4750 
z
" id="DejaVuSans-417" transform="scale(0.015625)"/>
      <path d="M 2194 1759 
Q 1497 1759 1228 1600 
Q 959 1441 959 1056 
Q 959 750 1161 570 
Q 1363 391 1709 391 
Q 2188 391 2477 730 
Q 2766 1069 2766 1631 
L 2766 1759 
L 2194 1759 
z
M 3341 1997 
L 3341 0 
L 2766 0 
L 2766 531 
Q 2569 213 2275 61 
Q 1981 -91 1556 -91 
Q 1019 -91 701 211 
Q 384 513 384 1019 
Q 384 1609 779 1909 
Q 1175 2209 1959 2209 
L 2766 2209 
L 2766 2266 
Q 2766 2663 2505 2880 
Q 2244 3097 1772 3097 
Q 1472 3097 1187 3025 
Q 903 2953 641 2809 
L 641 3341 
Q 956 3463 1253 3523 
Q 1550 3584 1831 3584 
Q 2591 3584 2966 3190 
Q 3341 2797 3341 1997 
z
" id="DejaVuSans-430" transform="scale(0.015625)"/>
      <path d="M 581 3500 
L 1159 3500 
L 1159 2072 
L 3025 2072 
L 3025 3500 
L 3603 3500 
L 3603 0 
L 3025 0 
L 3025 1613 
L 1159 1613 
L 1159 0 
L 581 0 
L 581 3500 
z
" id="DejaVuSans-43d" transform="scale(0.015625)"/>
      <path d="M 1991 3584 
Q 2741 3584 3169 3096 
Q 3597 2609 3597 1747 
Q 3597 888 3169 398 
Q 2741 -91 1991 -91 
Q 1238 -91 822 384 
Q 406 859 384 1747 
L 366 2463 
Q 350 2834 350 2963 
Q 350 3463 531 3831 
Q 816 4409 1308 4659 
Q 1800 4909 2625 4916 
Q 3006 4919 3175 4972 
L 3334 4516 
Q 3181 4453 3041 4450 
L 2259 4397 
Q 1866 4369 1628 4231 
Q 1006 3866 947 3388 
L 925 3213 
Q 1331 3584 1991 3584 
z
M 1991 3097 
Q 1528 3097 1259 2736 
Q 991 2375 991 1747 
Q 991 1119 1258 758 
Q 1525 397 1991 397 
Q 2450 397 2719 759 
Q 2988 1122 2988 1747 
Q 2988 2369 2719 2733 
Q 2450 3097 1991 3097 
z
" id="DejaVuSans-431" transform="scale(0.015625)"/>
      <path d="M 2059 -325 
Q 1816 -950 1584 -1140 
Q 1353 -1331 966 -1331 
L 506 -1331 
L 506 -850 
L 844 -850 
Q 1081 -850 1212 -737 
Q 1344 -625 1503 -206 
L 1606 56 
L 191 3500 
L 800 3500 
L 1894 763 
L 2988 3500 
L 3597 3500 
L 2059 -325 
z
" id="DejaVuSans-443" transform="scale(0.015625)"/>
      <path d="M 581 3500 
L 1153 3500 
L 1153 1856 
L 2775 3500 
L 3481 3500 
L 2144 2147 
L 3653 0 
L 3009 0 
L 1769 1766 
L 1153 1141 
L 1153 0 
L 581 0 
L 581 3500 
z
" id="DejaVuSans-43a" transform="scale(0.015625)"/>
     </defs>
     <use xlink:href="#DejaVuSans-417"/>
     <use x="64.111328" xlink:href="#DejaVuSans-430"/>
     <use x="125.390625" xlink:href="#DejaVuSans-432"/>
     <use x="184.326172" xlink:href="#DejaVuSans-438"/>
     <use x="249.316406" xlink:href="#DejaVuSans-441"/>
     <use x="304.296875" xlink:href="#DejaVuSans-438"/>
     <use x="369.287109" xlink:href="#DejaVuSans-43c"/>
     <use x="444.726562" xlink:href="#DejaVuSans-43e"/>
     <use x="505.908203" xlink:href="#DejaVuSans-441"/>
     <use x="560.888672" xlink:href="#DejaVuSans-442"/>
     <use x="619.140625" xlink:href="#DejaVuSans-44c"/>
     <use x="678.076172" xlink:href="#DejaVuSans-20"/>
     <use x="709.863281" xlink:href="#DejaVuSans-432"/>
     <use x="768.798828" xlink:href="#DejaVuSans-440"/>
     <use x="832.275391" xlink:href="#DejaVuSans-435"/>
     <use x="893.798828" xlink:href="#DejaVuSans-43c"/>
     <use x="969.238281" xlink:href="#DejaVuSans-435"/>
     <use x="1030.761719" xlink:href="#DejaVuSans-43d"/>
     <use x="1096.142578" xlink:href="#DejaVuSans-438"/>
     <use x="1161.132812" xlink:href="#DejaVuSans-20"/>
     <use x="1192.919922" xlink:href="#DejaVuSans-43e"/>
     <use x="1254.101562" xlink:href="#DejaVuSans-431"/>
     <use x="1315.771484" xlink:href="#DejaVuSans-443"/>
     <use x="1374.951172" xlink:href="#DejaVuSans-447"/>
     <use x="1434.033203" xlink:href="#DejaVuSans-435"/>
     <use x="1495.556641" xlink:href="#DejaVuSans-43d"/>
     <use x="1560.9375" xlink:href="#DejaVuSans-438"/>
     <use x="1625.927734" xlink:href="#DejaVuSans-44f"/>
     <use x="1686.083984" xlink:href="#DejaVuSans-20"/>
     <use x="1717.871094" xlink:href="#DejaVuSans-43e"/>
     <use x="1779.052734" xlink:href="#DejaVuSans-442"/>
     <use x="1837.304688" xlink:href="#DejaVuSans-20"/>
     <use x="1869.091797" xlink:href="#DejaVuSans-43a"/>
     <use x="1929.492188" xlink:href="#DejaVuSans-43e"/>
     <use x="1990.673828" xlink:href="#DejaVuSans-43b"/>
     <use x="2054.589844" xlink:href="#DejaVuSans-438"/>
     <use x="2119.580078" xlink:href="#DejaVuSans-447"/>
     <use x="2178.662109" xlink:href="#DejaVuSans-435"/>
     <use x="2240.185547" xlink:href="#DejaVuSans-442"/>
     <use x="2298.4375" xlink:href="#DejaVuSans-441"/>
     <use x="2353.417969" xlink:href="#DejaVuSans-432"/>
     <use x="2412.353516" xlink:href="#DejaVuSans-430"/>
     <use x="2473.632812" xlink:href="#DejaVuSans-20"/>
     <use x="2505.419922" xlink:href="#DejaVuSans-434"/>
     <use x="2574.560547" xlink:href="#DejaVuSans-435"/>
     <use x="2636.083984" xlink:href="#DejaVuSans-440"/>
     <use x="2699.560547" xlink:href="#DejaVuSans-435"/>
     <use x="2761.083984" xlink:href="#DejaVuSans-432"/>
     <use x="2820.019531" xlink:href="#DejaVuSans-44c"/>
     <use x="2878.955078" xlink:href="#DejaVuSans-435"/>
     <use x="2940.478516" xlink:href="#DejaVuSans-432"/>
    </g>
    <!--  в случайном лесе -->
    <g style="fill:#262626;" transform="translate(288.21825 45.84)scale(0.168 -0.168)">
     <defs>
      <path d="M 3578 3500 
L 3578 0 
L 3006 0 
L 3006 2809 
L 1319 0 
L 581 0 
L 581 3500 
L 1153 3500 
L 1153 697 
L 2838 3500 
L 3578 3500 
z
M 1103 4862 
L 1472 4862 
Q 1506 4628 1657 4510 
Q 1809 4393 2081 4393 
Q 2350 4393 2500 4509 
Q 2650 4625 2691 4862 
L 3059 4862 
Q 3028 4415 2781 4190 
Q 2534 3965 2081 3965 
Q 1628 3965 1381 4190 
Q 1134 4415 1103 4862 
z
" id="DejaVuSans-439" transform="scale(0.015625)"/>
     </defs>
     <use xlink:href="#DejaVuSans-20"/>
     <use x="31.787109" xlink:href="#DejaVuSans-432"/>
     <use x="90.722656" xlink:href="#DejaVuSans-20"/>
     <use x="122.509766" xlink:href="#DejaVuSans-441"/>
     <use x="177.490234" xlink:href="#DejaVuSans-43b"/>
     <use x="241.40625" xlink:href="#DejaVuSans-443"/>
     <use x="300.585938" xlink:href="#DejaVuSans-447"/>
     <use x="359.667969" xlink:href="#DejaVuSans-430"/>
     <use x="420.947266" xlink:href="#DejaVuSans-439"/>
     <use x="485.9375" xlink:href="#DejaVuSans-43d"/>
     <use x="551.318359" xlink:href="#DejaVuSans-43e"/>
     <use x="612.5" xlink:href="#DejaVuSans-43c"/>
     <use x="687.939453" xlink:href="#DejaVuSans-20"/>
     <use x="719.726562" xlink:href="#DejaVuSans-43b"/>
     <use x="783.642578" xlink:href="#DejaVuSans-435"/>
     <use x="845.166016" xlink:href="#DejaVuSans-441"/>
     <use x="900.146484" xlink:href="#DejaVuSans-435"/>
    </g>
   </g>
  </g>
 </g>
 <defs>
  <clipPath id="pc4f925f23d">
   <rect height="326.16" width="558" x="90" y="51.84"/>
  </clipPath>
 </defs>
</svg>
