<?xml version="1.0" encoding="utf-8" standalone="no"?>
<!DOCTYPE svg PUBLIC "-//W3C//DTD SVG 1.1//EN"
  "http://www.w3.org/Graphics/SVG/1.1/DTD/svg11.dtd">
<svg height="432pt" version="1.1" viewBox="0 0 720 432" width="720pt" xmlns="http://www.w3.org/2000/svg" xmlns:xlink="http://www.w3.org/1999/xlink">
 <metadata>
  <rdf:RDF xmlns:cc="http://creativecommons.org/ns#" xmlns:dc="http://purl.org/dc/elements/1.1/" xmlns:rdf="http://www.w3.org/1999/02/22-rdf-syntax-ns#">
   <cc:Work>
    <dc:type rdf:resource="http://purl.org/dc/dcmitype/StillImage"/>
    <dc:date>2022-12-11T23:44:11.138276</dc:date>
    <dc:format>image/svg+xml</dc:format>
    <dc:creator>
     <cc:Agent>
      <dc:title>Matplotlib v3.4.3, https://matplotlib.org/</dc:title>
     </cc:Agent>
    </dc:creator>
   </cc:Work>
  </rdf:RDF>
 </metadata>
 <defs>
  <style type="text/css">*{stroke-linecap:butt;stroke-linejoin:round;}</style>
 </defs>
 <g id="figure_1">
  <g id="patch_1">
   <path d="M 0 432 
L 720 432 
L 720 0 
L 0 0 
z
" style="fill:#ffffff;"/>
  </g>
  <g id="axes_1">
   <g id="patch_2">
    <path d="M 90 378 
L 648 378 
L 648 51.84 
L 90 51.84 
z
" style="fill:#eaeaf2;"/>
   </g>
   <g id="matplotlib.axis_1">
    <g id="xtick_1">
     <g id="line2d_1">
      <path clip-path="url(#p05ad53c898)" d="M 114.855856 378 
L 114.855856 51.84 
" style="fill:none;stroke:#ffffff;stroke-linecap:round;stroke-width:0.8;"/>
     </g>
     <g id="text_1">
      <!-- 0 -->
      <g style="fill:#262626;" transform="translate(110.402106 395.637812)scale(0.14 -0.14)">
       <defs>
        <path d="M 2034 4250 
Q 1547 4250 1301 3770 
Q 1056 3291 1056 2328 
Q 1056 1369 1301 889 
Q 1547 409 2034 409 
Q 2525 409 2770 889 
Q 3016 1369 3016 2328 
Q 3016 3291 2770 3770 
Q 2525 4250 2034 4250 
z
M 2034 4750 
Q 2819 4750 3233 4129 
Q 3647 3509 3647 2328 
Q 3647 1150 3233 529 
Q 2819 -91 2034 -91 
Q 1250 -91 836 529 
Q 422 1150 422 2328 
Q 422 3509 836 4129 
Q 1250 4750 2034 4750 
z
" id="DejaVuSans-30" transform="scale(0.015625)"/>
       </defs>
       <use xlink:href="#DejaVuSans-30"/>
      </g>
     </g>
    </g>
    <g id="xtick_2">
     <g id="line2d_2">
      <path clip-path="url(#p05ad53c898)" d="M 216.411957 378 
L 216.411957 51.84 
" style="fill:none;stroke:#ffffff;stroke-linecap:round;stroke-width:0.8;"/>
     </g>
     <g id="text_2">
      <!-- 200 -->
      <g style="fill:#262626;" transform="translate(203.050707 395.637812)scale(0.14 -0.14)">
       <defs>
        <path d="M 1228 531 
L 3431 531 
L 3431 0 
L 469 0 
L 469 531 
Q 828 903 1448 1529 
Q 2069 2156 2228 2338 
Q 2531 2678 2651 2914 
Q 2772 3150 2772 3378 
Q 2772 3750 2511 3984 
Q 2250 4219 1831 4219 
Q 1534 4219 1204 4116 
Q 875 4013 500 3803 
L 500 4441 
Q 881 4594 1212 4672 
Q 1544 4750 1819 4750 
Q 2544 4750 2975 4387 
Q 3406 4025 3406 3419 
Q 3406 3131 3298 2873 
Q 3191 2616 2906 2266 
Q 2828 2175 2409 1742 
Q 1991 1309 1228 531 
z
" id="DejaVuSans-32" transform="scale(0.015625)"/>
       </defs>
       <use xlink:href="#DejaVuSans-32"/>
       <use x="63.623047" xlink:href="#DejaVuSans-30"/>
       <use x="127.246094" xlink:href="#DejaVuSans-30"/>
      </g>
     </g>
    </g>
    <g id="xtick_3">
     <g id="line2d_3">
      <path clip-path="url(#p05ad53c898)" d="M 317.968059 378 
L 317.968059 51.84 
" style="fill:none;stroke:#ffffff;stroke-linecap:round;stroke-width:0.8;"/>
     </g>
     <g id="text_3">
      <!-- 400 -->
      <g style="fill:#262626;" transform="translate(304.606809 395.637812)scale(0.14 -0.14)">
       <defs>
        <path d="M 2419 4116 
L 825 1625 
L 2419 1625 
L 2419 4116 
z
M 2253 4666 
L 3047 4666 
L 3047 1625 
L 3713 1625 
L 3713 1100 
L 3047 1100 
L 3047 0 
L 2419 0 
L 2419 1100 
L 313 1100 
L 313 1709 
L 2253 4666 
z
" id="DejaVuSans-34" transform="scale(0.015625)"/>
       </defs>
       <use xlink:href="#DejaVuSans-34"/>
       <use x="63.623047" xlink:href="#DejaVuSans-30"/>
       <use x="127.246094" xlink:href="#DejaVuSans-30"/>
      </g>
     </g>
    </g>
    <g id="xtick_4">
     <g id="line2d_4">
      <path clip-path="url(#p05ad53c898)" d="M 419.524161 378 
L 419.524161 51.84 
" style="fill:none;stroke:#ffffff;stroke-linecap:round;stroke-width:0.8;"/>
     </g>
     <g id="text_4">
      <!-- 600 -->
      <g style="fill:#262626;" transform="translate(406.162911 395.637812)scale(0.14 -0.14)">
       <defs>
        <path d="M 2113 2584 
Q 1688 2584 1439 2293 
Q 1191 2003 1191 1497 
Q 1191 994 1439 701 
Q 1688 409 2113 409 
Q 2538 409 2786 701 
Q 3034 994 3034 1497 
Q 3034 2003 2786 2293 
Q 2538 2584 2113 2584 
z
M 3366 4563 
L 3366 3988 
Q 3128 4100 2886 4159 
Q 2644 4219 2406 4219 
Q 1781 4219 1451 3797 
Q 1122 3375 1075 2522 
Q 1259 2794 1537 2939 
Q 1816 3084 2150 3084 
Q 2853 3084 3261 2657 
Q 3669 2231 3669 1497 
Q 3669 778 3244 343 
Q 2819 -91 2113 -91 
Q 1303 -91 875 529 
Q 447 1150 447 2328 
Q 447 3434 972 4092 
Q 1497 4750 2381 4750 
Q 2619 4750 2861 4703 
Q 3103 4656 3366 4563 
z
" id="DejaVuSans-36" transform="scale(0.015625)"/>
       </defs>
       <use xlink:href="#DejaVuSans-36"/>
       <use x="63.623047" xlink:href="#DejaVuSans-30"/>
       <use x="127.246094" xlink:href="#DejaVuSans-30"/>
      </g>
     </g>
    </g>
    <g id="xtick_5">
     <g id="line2d_5">
      <path clip-path="url(#p05ad53c898)" d="M 521.080262 378 
L 521.080262 51.84 
" style="fill:none;stroke:#ffffff;stroke-linecap:round;stroke-width:0.8;"/>
     </g>
     <g id="text_5">
      <!-- 800 -->
      <g style="fill:#262626;" transform="translate(507.719012 395.637812)scale(0.14 -0.14)">
       <defs>
        <path d="M 2034 2216 
Q 1584 2216 1326 1975 
Q 1069 1734 1069 1313 
Q 1069 891 1326 650 
Q 1584 409 2034 409 
Q 2484 409 2743 651 
Q 3003 894 3003 1313 
Q 3003 1734 2745 1975 
Q 2488 2216 2034 2216 
z
M 1403 2484 
Q 997 2584 770 2862 
Q 544 3141 544 3541 
Q 544 4100 942 4425 
Q 1341 4750 2034 4750 
Q 2731 4750 3128 4425 
Q 3525 4100 3525 3541 
Q 3525 3141 3298 2862 
Q 3072 2584 2669 2484 
Q 3125 2378 3379 2068 
Q 3634 1759 3634 1313 
Q 3634 634 3220 271 
Q 2806 -91 2034 -91 
Q 1263 -91 848 271 
Q 434 634 434 1313 
Q 434 1759 690 2068 
Q 947 2378 1403 2484 
z
M 1172 3481 
Q 1172 3119 1398 2916 
Q 1625 2713 2034 2713 
Q 2441 2713 2670 2916 
Q 2900 3119 2900 3481 
Q 2900 3844 2670 4047 
Q 2441 4250 2034 4250 
Q 1625 4250 1398 4047 
Q 1172 3844 1172 3481 
z
" id="DejaVuSans-38" transform="scale(0.015625)"/>
       </defs>
       <use xlink:href="#DejaVuSans-38"/>
       <use x="63.623047" xlink:href="#DejaVuSans-30"/>
       <use x="127.246094" xlink:href="#DejaVuSans-30"/>
      </g>
     </g>
    </g>
    <g id="xtick_6">
     <g id="line2d_6">
      <path clip-path="url(#p05ad53c898)" d="M 622.636364 378 
L 622.636364 51.84 
" style="fill:none;stroke:#ffffff;stroke-linecap:round;stroke-width:0.8;"/>
     </g>
     <g id="text_6">
      <!-- 1000 -->
      <g style="fill:#262626;" transform="translate(604.821364 395.637812)scale(0.14 -0.14)">
       <defs>
        <path d="M 794 531 
L 1825 531 
L 1825 4091 
L 703 3866 
L 703 4441 
L 1819 4666 
L 2450 4666 
L 2450 531 
L 3481 531 
L 3481 0 
L 794 0 
L 794 531 
z
" id="DejaVuSans-31" transform="scale(0.015625)"/>
       </defs>
       <use xlink:href="#DejaVuSans-31"/>
       <use x="63.623047" xlink:href="#DejaVuSans-30"/>
       <use x="127.246094" xlink:href="#DejaVuSans-30"/>
       <use x="190.869141" xlink:href="#DejaVuSans-30"/>
      </g>
     </g>
    </g>
    <g id="text_7">
     <!-- Количество деревьев -->
     <g style="fill:#262626;" transform="translate(289.13875 413.187187)scale(0.14 -0.14)">
      <defs>
       <path d="M 628 4666 
L 1259 4666 
L 1259 2359 
L 3516 4666 
L 4325 4666 
L 2522 2822 
L 4419 0 
L 3731 0 
L 2113 2403 
L 1259 1531 
L 1259 0 
L 628 0 
L 628 4666 
z
" id="DejaVuSans-41a" transform="scale(0.015625)"/>
       <path d="M 1959 3097 
Q 1497 3097 1228 2736 
Q 959 2375 959 1747 
Q 959 1119 1226 758 
Q 1494 397 1959 397 
Q 2419 397 2687 759 
Q 2956 1122 2956 1747 
Q 2956 2369 2687 2733 
Q 2419 3097 1959 3097 
z
M 1959 3584 
Q 2709 3584 3137 3096 
Q 3566 2609 3566 1747 
Q 3566 888 3137 398 
Q 2709 -91 1959 -91 
Q 1206 -91 779 398 
Q 353 888 353 1747 
Q 353 2609 779 3096 
Q 1206 3584 1959 3584 
z
" id="DejaVuSans-43e" transform="scale(0.015625)"/>
       <path d="M 238 0 
L 238 478 
Q 806 566 981 959 
Q 1194 1513 1194 2928 
L 1194 3500 
L 3559 3500 
L 3559 0 
L 2984 0 
L 2984 3041 
L 1769 3041 
L 1769 2694 
Q 1769 1344 1494 738 
Q 1200 91 238 0 
z
" id="DejaVuSans-43b" transform="scale(0.015625)"/>
       <path d="M 3578 3500 
L 3578 0 
L 3006 0 
L 3006 2809 
L 1319 0 
L 581 0 
L 581 3500 
L 1153 3500 
L 1153 697 
L 2838 3500 
L 3578 3500 
z
" id="DejaVuSans-438" transform="scale(0.015625)"/>
       <path d="M 2625 0 
L 2625 1472 
L 1553 1472 
Q 1075 1472 756 1769 
Q 469 2038 469 2613 
L 469 3500 
L 1044 3500 
L 1044 2666 
Q 1044 2300 1206 2116 
Q 1372 1931 1697 1931 
L 2625 1931 
L 2625 3500 
L 3200 3500 
L 3200 0 
L 2625 0 
z
" id="DejaVuSans-447" transform="scale(0.015625)"/>
       <path d="M 3597 1894 
L 3597 1613 
L 953 1613 
Q 991 1019 1311 708 
Q 1631 397 2203 397 
Q 2534 397 2845 478 
Q 3156 559 3463 722 
L 3463 178 
Q 3153 47 2828 -22 
Q 2503 -91 2169 -91 
Q 1331 -91 842 396 
Q 353 884 353 1716 
Q 353 2575 817 3079 
Q 1281 3584 2069 3584 
Q 2775 3584 3186 3129 
Q 3597 2675 3597 1894 
z
M 3022 2063 
Q 3016 2534 2758 2815 
Q 2500 3097 2075 3097 
Q 1594 3097 1305 2825 
Q 1016 2553 972 2059 
L 3022 2063 
z
" id="DejaVuSans-435" transform="scale(0.015625)"/>
       <path d="M 3122 3366 
L 3122 2828 
Q 2878 2963 2633 3030 
Q 2388 3097 2138 3097 
Q 1578 3097 1268 2742 
Q 959 2388 959 1747 
Q 959 1106 1268 751 
Q 1578 397 2138 397 
Q 2388 397 2633 464 
Q 2878 531 3122 666 
L 3122 134 
Q 2881 22 2623 -34 
Q 2366 -91 2075 -91 
Q 1284 -91 818 406 
Q 353 903 353 1747 
Q 353 2603 823 3093 
Q 1294 3584 2113 3584 
Q 2378 3584 2631 3529 
Q 2884 3475 3122 3366 
z
" id="DejaVuSans-441" transform="scale(0.015625)"/>
       <path d="M 188 3500 
L 3541 3500 
L 3541 3041 
L 2147 3041 
L 2147 0 
L 1581 0 
L 1581 3041 
L 188 3041 
L 188 3500 
z
" id="DejaVuSans-442" transform="scale(0.015625)"/>
       <path d="M 1156 1613 
L 1156 459 
L 1975 459 
Q 2369 459 2575 607 
Q 2781 756 2781 1038 
Q 2781 1319 2575 1466 
Q 2369 1613 1975 1613 
L 1156 1613 
z
M 1156 3041 
L 1156 2072 
L 1913 2072 
Q 2238 2072 2444 2201 
Q 2650 2331 2650 2563 
Q 2650 2794 2444 2917 
Q 2238 3041 1913 3041 
L 1156 3041 
z
M 581 3500 
L 1950 3500 
Q 2566 3500 2897 3275 
Q 3228 3050 3228 2634 
Q 3228 2313 3059 2123 
Q 2891 1934 2559 1888 
Q 2956 1813 3175 1575 
Q 3394 1338 3394 981 
Q 3394 513 3033 256 
Q 2672 0 2003 0 
L 581 0 
L 581 3500 
z
" id="DejaVuSans-432" transform="scale(0.015625)"/>
       <path id="DejaVuSans-20" transform="scale(0.015625)"/>
       <path d="M 1384 459 
L 3053 459 
L 3053 3041 
L 1844 3041 
L 1844 2603 
Q 1844 1316 1475 628 
L 1384 459 
z
M 550 459 
Q 834 584 959 850 
Q 1266 1509 1266 2838 
L 1266 3500 
L 3631 3500 
L 3631 459 
L 4091 459 
L 4091 -884 
L 3631 -884 
L 3631 0 
L 794 0 
L 794 -884 
L 334 -884 
L 334 459 
L 550 459 
z
" id="DejaVuSans-434" transform="scale(0.015625)"/>
       <path d="M 1159 525 
L 1159 -1331 
L 581 -1331 
L 581 3500 
L 1159 3500 
L 1159 2969 
Q 1341 3281 1617 3432 
Q 1894 3584 2278 3584 
Q 2916 3584 3314 3078 
Q 3713 2572 3713 1747 
Q 3713 922 3314 415 
Q 2916 -91 2278 -91 
Q 1894 -91 1617 61 
Q 1341 213 1159 525 
z
M 3116 1747 
Q 3116 2381 2855 2742 
Q 2594 3103 2138 3103 
Q 1681 3103 1420 2742 
Q 1159 2381 1159 1747 
Q 1159 1113 1420 752 
Q 1681 391 2138 391 
Q 2594 391 2855 752 
Q 3116 1113 3116 1747 
z
" id="DejaVuSans-440" transform="scale(0.015625)"/>
       <path d="M 2781 1038 
Q 2781 1319 2576 1466 
Q 2372 1613 1978 1613 
L 1159 1613 
L 1159 459 
L 1978 459 
Q 2372 459 2576 607 
Q 2781 756 2781 1038 
z
M 581 3500 
L 1159 3500 
L 1159 2072 
L 2003 2072 
Q 2672 2072 3033 1817 
Q 3394 1563 3394 1038 
Q 3394 513 3033 256 
Q 2672 0 2003 0 
L 581 0 
L 581 3500 
z
" id="DejaVuSans-44c" transform="scale(0.015625)"/>
      </defs>
      <use xlink:href="#DejaVuSans-41a"/>
      <use x="70.996094" xlink:href="#DejaVuSans-43e"/>
      <use x="132.177734" xlink:href="#DejaVuSans-43b"/>
      <use x="196.09375" xlink:href="#DejaVuSans-438"/>
      <use x="261.083984" xlink:href="#DejaVuSans-447"/>
      <use x="320.166016" xlink:href="#DejaVuSans-435"/>
      <use x="381.689453" xlink:href="#DejaVuSans-441"/>
      <use x="436.669922" xlink:href="#DejaVuSans-442"/>
      <use x="494.921875" xlink:href="#DejaVuSans-432"/>
      <use x="553.857422" xlink:href="#DejaVuSans-43e"/>
      <use x="615.039062" xlink:href="#DejaVuSans-20"/>
      <use x="646.826172" xlink:href="#DejaVuSans-434"/>
      <use x="715.966797" xlink:href="#DejaVuSans-435"/>
      <use x="777.490234" xlink:href="#DejaVuSans-440"/>
      <use x="840.966797" xlink:href="#DejaVuSans-435"/>
      <use x="902.490234" xlink:href="#DejaVuSans-432"/>
      <use x="961.425781" xlink:href="#DejaVuSans-44c"/>
      <use x="1020.361328" xlink:href="#DejaVuSans-435"/>
      <use x="1081.884766" xlink:href="#DejaVuSans-432"/>
     </g>
    </g>
   </g>
   <g id="matplotlib.axis_2">
    <g id="ytick_1">
     <g id="line2d_7">
      <path clip-path="url(#p05ad53c898)" d="M 90 320.23615 
L 648 320.23615 
" style="fill:none;stroke:#ffffff;stroke-linecap:round;stroke-width:0.8;"/>
     </g>
     <g id="text_8">
      <!-- 100000 -->
      <g style="fill:#262626;" transform="translate(29.555 325.555056)scale(0.14 -0.14)">
       <use xlink:href="#DejaVuSans-31"/>
       <use x="63.623047" xlink:href="#DejaVuSans-30"/>
       <use x="127.246094" xlink:href="#DejaVuSans-30"/>
       <use x="190.869141" xlink:href="#DejaVuSans-30"/>
       <use x="254.492188" xlink:href="#DejaVuSans-30"/>
       <use x="318.115234" xlink:href="#DejaVuSans-30"/>
      </g>
     </g>
    </g>
    <g id="ytick_2">
     <g id="line2d_8">
      <path clip-path="url(#p05ad53c898)" d="M 90 256.115985 
L 648 256.115985 
" style="fill:none;stroke:#ffffff;stroke-linecap:round;stroke-width:0.8;"/>
     </g>
     <g id="text_9">
      <!-- 150000 -->
      <g style="fill:#262626;" transform="translate(29.555 261.434891)scale(0.14 -0.14)">
       <defs>
        <path d="M 691 4666 
L 3169 4666 
L 3169 4134 
L 1269 4134 
L 1269 2991 
Q 1406 3038 1543 3061 
Q 1681 3084 1819 3084 
Q 2600 3084 3056 2656 
Q 3513 2228 3513 1497 
Q 3513 744 3044 326 
Q 2575 -91 1722 -91 
Q 1428 -91 1123 -41 
Q 819 9 494 109 
L 494 744 
Q 775 591 1075 516 
Q 1375 441 1709 441 
Q 2250 441 2565 725 
Q 2881 1009 2881 1497 
Q 2881 1984 2565 2268 
Q 2250 2553 1709 2553 
Q 1456 2553 1204 2497 
Q 953 2441 691 2322 
L 691 4666 
z
" id="DejaVuSans-35" transform="scale(0.015625)"/>
       </defs>
       <use xlink:href="#DejaVuSans-31"/>
       <use x="63.623047" xlink:href="#DejaVuSans-35"/>
       <use x="127.246094" xlink:href="#DejaVuSans-30"/>
       <use x="190.869141" xlink:href="#DejaVuSans-30"/>
       <use x="254.492188" xlink:href="#DejaVuSans-30"/>
       <use x="318.115234" xlink:href="#DejaVuSans-30"/>
      </g>
     </g>
    </g>
    <g id="ytick_3">
     <g id="line2d_9">
      <path clip-path="url(#p05ad53c898)" d="M 90 191.995821 
L 648 191.995821 
" style="fill:none;stroke:#ffffff;stroke-linecap:round;stroke-width:0.8;"/>
     </g>
     <g id="text_10">
      <!-- 200000 -->
      <g style="fill:#262626;" transform="translate(29.555 197.314727)scale(0.14 -0.14)">
       <use xlink:href="#DejaVuSans-32"/>
       <use x="63.623047" xlink:href="#DejaVuSans-30"/>
       <use x="127.246094" xlink:href="#DejaVuSans-30"/>
       <use x="190.869141" xlink:href="#DejaVuSans-30"/>
       <use x="254.492188" xlink:href="#DejaVuSans-30"/>
       <use x="318.115234" xlink:href="#DejaVuSans-30"/>
      </g>
     </g>
    </g>
    <g id="ytick_4">
     <g id="line2d_10">
      <path clip-path="url(#p05ad53c898)" d="M 90 127.875656 
L 648 127.875656 
" style="fill:none;stroke:#ffffff;stroke-linecap:round;stroke-width:0.8;"/>
     </g>
     <g id="text_11">
      <!-- 250000 -->
      <g style="fill:#262626;" transform="translate(29.555 133.194562)scale(0.14 -0.14)">
       <use xlink:href="#DejaVuSans-32"/>
       <use x="63.623047" xlink:href="#DejaVuSans-35"/>
       <use x="127.246094" xlink:href="#DejaVuSans-30"/>
       <use x="190.869141" xlink:href="#DejaVuSans-30"/>
       <use x="254.492188" xlink:href="#DejaVuSans-30"/>
       <use x="318.115234" xlink:href="#DejaVuSans-30"/>
      </g>
     </g>
    </g>
    <g id="ytick_5">
     <g id="line2d_11">
      <path clip-path="url(#p05ad53c898)" d="M 90 63.755491 
L 648 63.755491 
" style="fill:none;stroke:#ffffff;stroke-linecap:round;stroke-width:0.8;"/>
     </g>
     <g id="text_12">
      <!-- 300000 -->
      <g style="fill:#262626;" transform="translate(29.555 69.074398)scale(0.14 -0.14)">
       <defs>
        <path d="M 2597 2516 
Q 3050 2419 3304 2112 
Q 3559 1806 3559 1356 
Q 3559 666 3084 287 
Q 2609 -91 1734 -91 
Q 1441 -91 1130 -33 
Q 819 25 488 141 
L 488 750 
Q 750 597 1062 519 
Q 1375 441 1716 441 
Q 2309 441 2620 675 
Q 2931 909 2931 1356 
Q 2931 1769 2642 2001 
Q 2353 2234 1838 2234 
L 1294 2234 
L 1294 2753 
L 1863 2753 
Q 2328 2753 2575 2939 
Q 2822 3125 2822 3475 
Q 2822 3834 2567 4026 
Q 2313 4219 1838 4219 
Q 1578 4219 1281 4162 
Q 984 4106 628 3988 
L 628 4550 
Q 988 4650 1302 4700 
Q 1616 4750 1894 4750 
Q 2613 4750 3031 4423 
Q 3450 4097 3450 3541 
Q 3450 3153 3228 2886 
Q 3006 2619 2597 2516 
z
" id="DejaVuSans-33" transform="scale(0.015625)"/>
       </defs>
       <use xlink:href="#DejaVuSans-33"/>
       <use x="63.623047" xlink:href="#DejaVuSans-30"/>
       <use x="127.246094" xlink:href="#DejaVuSans-30"/>
       <use x="190.869141" xlink:href="#DejaVuSans-30"/>
       <use x="254.492188" xlink:href="#DejaVuSans-30"/>
       <use x="318.115234" xlink:href="#DejaVuSans-30"/>
      </g>
     </g>
    </g>
    <g id="text_13">
     <!-- RMSE -->
     <g style="fill:#262626;" transform="translate(22.643437 234.690625)rotate(-90)scale(0.14 -0.14)">
      <defs>
       <path d="M 2841 2188 
Q 3044 2119 3236 1894 
Q 3428 1669 3622 1275 
L 4263 0 
L 3584 0 
L 2988 1197 
Q 2756 1666 2539 1819 
Q 2322 1972 1947 1972 
L 1259 1972 
L 1259 0 
L 628 0 
L 628 4666 
L 2053 4666 
Q 2853 4666 3247 4331 
Q 3641 3997 3641 3322 
Q 3641 2881 3436 2590 
Q 3231 2300 2841 2188 
z
M 1259 4147 
L 1259 2491 
L 2053 2491 
Q 2509 2491 2742 2702 
Q 2975 2913 2975 3322 
Q 2975 3731 2742 3939 
Q 2509 4147 2053 4147 
L 1259 4147 
z
" id="DejaVuSans-52" transform="scale(0.015625)"/>
       <path d="M 628 4666 
L 1569 4666 
L 2759 1491 
L 3956 4666 
L 4897 4666 
L 4897 0 
L 4281 0 
L 4281 4097 
L 3078 897 
L 2444 897 
L 1241 4097 
L 1241 0 
L 628 0 
L 628 4666 
z
" id="DejaVuSans-4d" transform="scale(0.015625)"/>
       <path d="M 3425 4513 
L 3425 3897 
Q 3066 4069 2747 4153 
Q 2428 4238 2131 4238 
Q 1616 4238 1336 4038 
Q 1056 3838 1056 3469 
Q 1056 3159 1242 3001 
Q 1428 2844 1947 2747 
L 2328 2669 
Q 3034 2534 3370 2195 
Q 3706 1856 3706 1288 
Q 3706 609 3251 259 
Q 2797 -91 1919 -91 
Q 1588 -91 1214 -16 
Q 841 59 441 206 
L 441 856 
Q 825 641 1194 531 
Q 1563 422 1919 422 
Q 2459 422 2753 634 
Q 3047 847 3047 1241 
Q 3047 1584 2836 1778 
Q 2625 1972 2144 2069 
L 1759 2144 
Q 1053 2284 737 2584 
Q 422 2884 422 3419 
Q 422 4038 858 4394 
Q 1294 4750 2059 4750 
Q 2388 4750 2728 4690 
Q 3069 4631 3425 4513 
z
" id="DejaVuSans-53" transform="scale(0.015625)"/>
       <path d="M 628 4666 
L 3578 4666 
L 3578 4134 
L 1259 4134 
L 1259 2753 
L 3481 2753 
L 3481 2222 
L 1259 2222 
L 1259 531 
L 3634 531 
L 3634 0 
L 628 0 
L 628 4666 
z
" id="DejaVuSans-45" transform="scale(0.015625)"/>
      </defs>
      <use xlink:href="#DejaVuSans-52"/>
      <use x="69.482422" xlink:href="#DejaVuSans-4d"/>
      <use x="155.761719" xlink:href="#DejaVuSans-53"/>
      <use x="219.238281" xlink:href="#DejaVuSans-45"/>
     </g>
    </g>
   </g>
   <g id="line2d_12">
    <path clip-path="url(#p05ad53c898)" d="M 115.363636 214.808908 
L 115.871417 238.635053 
L 116.379197 281.084565 
L 116.886978 293.552597 
L 117.394758 313.773602 
L 117.902539 325.118814 
L 118.410319 329.851971 
L 118.9181 331.876878 
L 119.42588 334.679599 
L 119.933661 339.32461 
L 120.949222 344.721197 
L 121.457002 343.382443 
L 121.964783 342.379923 
L 122.980344 347.473369 
L 123.488124 347.956711 
L 123.995905 347.472015 
L 125.011466 351.483364 
L 125.519247 351.520781 
L 126.027027 353.00804 
L 126.534808 352.368006 
L 127.042588 353.378217 
L 127.550369 353.49745 
L 128.058149 353.184813 
L 128.56593 354.013817 
L 129.07371 354.504763 
L 129.581491 354.285236 
L 131.104832 357.24725 
L 131.612613 357.090505 
L 132.120393 356.790853 
L 132.628174 356.875575 
L 133.135954 357.24247 
L 133.643735 357.910338 
L 134.151515 355.344169 
L 134.659296 355.100809 
L 135.167076 355.73382 
L 135.674857 355.654835 
L 136.182637 355.995143 
L 136.690418 356.835089 
L 138.213759 357.565563 
L 138.72154 358.121818 
L 139.22932 355.82258 
L 139.737101 355.991381 
L 140.244881 356.449612 
L 141.260442 356.855437 
L 141.768223 357.290796 
L 142.276003 357.401529 
L 142.783784 355.902277 
L 143.291564 355.972956 
L 143.799345 355.913598 
L 144.307125 355.581446 
L 145.322686 355.812114 
L 145.830467 356.06245 
L 146.338247 356.185008 
L 146.846028 356.620093 
L 147.353808 356.431391 
L 147.861589 356.545416 
L 148.369369 356.518621 
L 148.87715 356.640676 
L 149.38493 356.369777 
L 150.400491 356.322972 
L 150.908272 356.107777 
L 151.416052 356.278674 
L 152.431613 356.132269 
L 152.939394 356.373362 
L 154.462735 357.784858 
L 154.970516 358.0199 
L 155.478296 357.812122 
L 156.493857 358.458961 
L 157.001638 358.184506 
L 158.52498 358.551378 
L 159.03276 358.782959 
L 160.048321 358.842833 
L 160.556102 359.098049 
L 161.063882 359.075131 
L 161.571663 358.785088 
L 162.587224 358.873536 
L 163.602785 359.446655 
L 164.618346 359.352387 
L 165.126126 359.021989 
L 166.649468 359.175831 
L 168.172809 359.125736 
L 168.68059 358.832126 
L 169.696151 358.780864 
L 170.203931 357.687248 
L 171.727273 358.217012 
L 172.235053 358.252709 
L 172.742834 358.55867 
L 173.758395 358.77403 
L 174.773956 358.695094 
L 175.281736 358.012455 
L 175.789517 358.322675 
L 176.297297 358.295595 
L 176.805078 358.437333 
L 177.312858 358.448619 
L 178.328419 358.147468 
L 178.8362 358.153338 
L 179.34398 358.312427 
L 179.851761 358.225908 
L 180.359541 358.463991 
L 181.375102 357.516818 
L 182.390663 357.241285 
L 182.898444 357.337463 
L 183.406224 357.591431 
L 184.421785 357.625481 
L 184.929566 357.761864 
L 185.437346 357.668321 
L 185.945127 357.835848 
L 186.452907 357.810897 
L 186.960688 357.925093 
L 187.468468 357.68544 
L 187.976249 357.644751 
L 188.484029 357.887336 
L 189.49959 357.920465 
L 190.007371 357.238908 
L 190.515152 357.286692 
L 191.022932 357.465203 
L 192.038493 357.619769 
L 192.546274 357.425024 
L 193.561835 357.451384 
L 194.577396 357.811617 
L 197.116298 358.047523 
L 198.131859 358.081377 
L 198.63964 358.265182 
L 199.14742 358.054996 
L 200.670762 358.396442 
L 201.178542 358.569676 
L 202.194103 358.482589 
L 202.701884 358.58742 
L 203.209664 358.517626 
L 204.225225 358.503973 
L 205.748567 358.288499 
L 206.256347 358.401951 
L 207.271908 358.345799 
L 207.779689 358.482798 
L 209.810811 358.349487 
L 211.334152 358.394947 
L 211.841933 358.568526 
L 214.380835 358.728983 
L 214.888616 358.655372 
L 215.396396 358.76581 
L 216.919738 358.748156 
L 217.935299 358.854228 
L 218.95086 359.134191 
L 219.45864 359.144073 
L 219.966421 359.319124 
L 220.981982 359.278166 
L 221.489762 359.469321 
L 222.505324 359.451575 
L 223.013104 359.462318 
L 223.520885 359.000378 
L 224.028665 359.023203 
L 224.536446 359.195656 
L 228.59869 359.284133 
L 230.122031 359.17178 
L 230.629812 359.304357 
L 233.168714 359.383282 
L 235.199836 359.877069 
L 235.707617 359.954678 
L 236.215397 359.806273 
L 239.769861 359.94688 
L 240.785422 359.905243 
L 241.293202 359.671745 
L 241.800983 359.605423 
L 244.339885 360.193474 
L 246.371007 359.973051 
L 247.894349 360.274101 
L 248.402129 360.412906 
L 250.433251 360.579755 
L 251.448812 360.730236 
L 251.956593 360.584531 
L 255.511057 360.939895 
L 257.542179 360.630214 
L 258.049959 360.488257 
L 258.55774 360.628538 
L 259.573301 360.658206 
L 260.081081 360.712808 
L 261.096642 360.627636 
L 261.604423 360.74763 
L 262.112203 360.74231 
L 263.127764 360.93197 
L 264.143325 361.058427 
L 264.651106 361.168162 
L 265.158886 361.044227 
L 266.174447 361.200699 
L 268.205569 361.53164 
L 269.22113 361.651425 
L 270.744472 361.837777 
L 271.760033 361.781176 
L 272.267813 361.926677 
L 273.283374 361.918511 
L 274.298935 361.864452 
L 275.314496 361.827275 
L 276.837838 362.045159 
L 277.853399 362.141087 
L 278.361179 362.099065 
L 278.86896 362.17715 
L 279.37674 362.086389 
L 279.884521 362.186555 
L 283.946765 362.041722 
L 285.470106 362.142253 
L 286.485667 362.217336 
L 287.501229 362.249428 
L 288.009009 362.102115 
L 288.51679 362.125158 
L 289.02457 361.997894 
L 292.579034 362.047446 
L 294.102375 362.095198 
L 295.117936 362.18278 
L 296.133497 362.101425 
L 296.641278 362.00993 
L 304.257985 362.589548 
L 311.366912 362.615074 
L 311.874693 362.725925 
L 315.429156 362.669366 
L 317.460278 362.815968 
L 318.475839 362.882281 
L 324.569206 362.983567 
L 325.584767 363.008021 
L 327.108108 363.020528 
L 328.63145 363.123148 
L 339.29484 363.156499 
L 340.818182 363.110434 
L 345.895987 362.876936 
L 347.927109 362.916917 
L 348.434889 362.810456 
L 349.45045 362.73345 
L 352.497133 362.670563 
L 354.020475 362.743219 
L 362.652744 362.55594 
L 364.176085 362.635394 
L 369.761671 362.73466 
L 370.269451 362.571399 
L 371.285012 362.63939 
L 371.792793 362.416791 
L 374.839476 362.473702 
L 375.855037 362.520214 
L 377.886159 362.529144 
L 379.4095 362.496821 
L 380.932842 362.562537 
L 382.456183 362.735526 
L 390.072891 362.8325 
L 390.580672 362.681904 
L 392.611794 362.743627 
L 394.642916 362.828824 
L 407.845209 362.81753 
L 408.352989 362.674305 
L 411.907453 362.850945 
L 414.446355 362.888283 
L 414.954136 362.642158 
L 415.969697 362.609066 
L 416.985258 362.566072 
L 421.555283 362.517466 
L 422.063063 362.338717 
L 423.078624 362.282131 
L 425.109746 362.321965 
L 427.140868 362.163196 
L 430.187551 362.025892 
L 431.203112 362.010532 
L 432.218673 361.959284 
L 434.249795 361.702298 
L 435.773137 361.788945 
L 436.280917 361.500526 
L 437.804259 361.485536 
L 440.343161 361.523019 
L 442.882064 361.605104 
L 448.467649 361.605307 
L 448.97543 361.429625 
L 455.576577 361.542844 
L 457.607699 361.626583 
L 466.747748 361.943068 
L 468.271089 362.023016 
L 469.28665 361.905136 
L 471.825553 361.812348 
L 479.44226 361.848307 
L 480.965602 361.921093 
L 492.644554 361.845292 
L 495.183456 361.898558 
L 498.73792 361.868071 
L 504.323505 361.991516 
L 505.846847 362.009156 
L 508.89353 362.038095 
L 510.924652 362.04473 
L 521.588043 361.980155 
L 524.126945 362.015795 
L 534.790336 361.867227 
L 536.313677 361.927133 
L 544.438165 361.907268 
L 556.624898 361.744076 
L 557.640459 361.783372 
L 560.687142 361.69984 
L 564.241605 361.695207 
L 565.764947 361.703668 
L 568.303849 361.746372 
L 571.858313 361.831218 
L 575.412776 361.76602 
L 577.951679 361.757023 
L 578.459459 361.789947 
L 579.47502 361.646786 
L 586.076167 361.754672 
L 587.599509 361.767852 
L 589.630631 361.742976 
L 592.169533 361.723102 
L 615.527437 361.664619 
L 617.558559 361.658839 
L 622.636364 361.557173 
L 622.636364 361.557173 
" style="fill:none;stroke:#0000ff;stroke-linecap:round;stroke-width:1.5;"/>
   </g>
   <g id="line2d_13">
    <path clip-path="url(#p05ad53c898)" d="M 115.363636 68.687641 
L 115.871417 66.665455 
L 116.379197 144.87042 
L 116.886978 159.461098 
L 117.394758 185.603363 
L 117.902539 197.731288 
L 118.410319 202.949848 
L 118.9181 201.465285 
L 119.42588 200.847127 
L 119.933661 208.915428 
L 120.441441 209.373282 
L 120.949222 208.984779 
L 121.457002 204.091659 
L 121.964783 201.030992 
L 122.472563 201.170393 
L 122.980344 201.495471 
L 123.488124 200.680519 
L 123.995905 197.088193 
L 124.503686 197.822475 
L 125.011466 201.830915 
L 125.519247 200.028307 
L 126.027027 202.305815 
L 126.534808 201.32238 
L 127.042588 201.246221 
L 127.550369 200.481993 
L 128.058149 198.267876 
L 128.56593 200.980508 
L 129.07371 200.9438 
L 129.581491 199.16899 
L 131.104832 204.772514 
L 131.612613 203.402889 
L 132.120393 202.478407 
L 132.628174 202.80829 
L 133.643735 205.344704 
L 134.659296 205.586488 
L 135.167076 206.230534 
L 135.674857 204.765995 
L 136.182637 205.935448 
L 136.690418 207.468302 
L 137.198198 207.501183 
L 137.705979 207.782098 
L 138.72154 209.174581 
L 139.22932 208.100331 
L 139.737101 208.441711 
L 140.244881 208.628339 
L 141.260442 207.546267 
L 141.768223 208.821111 
L 142.276003 208.420659 
L 142.783784 206.773574 
L 143.291564 206.365607 
L 143.799345 206.136308 
L 144.307125 205.486598 
L 144.814906 204.356748 
L 146.338247 203.334972 
L 146.846028 204.359903 
L 147.861589 203.48567 
L 148.369369 204.037569 
L 148.87715 204.125757 
L 149.38493 203.808291 
L 149.892711 204.065147 
L 150.400491 203.324978 
L 150.908272 202.204769 
L 151.416052 201.865012 
L 151.923833 201.691122 
L 152.431613 200.989738 
L 154.970516 206.399702 
L 155.478296 205.678023 
L 155.986077 206.236379 
L 156.493857 206.610861 
L 157.001638 206.146271 
L 157.509419 206.391267 
L 158.017199 206.014594 
L 159.03276 205.708196 
L 160.048321 204.626913 
L 160.556102 205.170008 
L 161.571663 205.056564 
L 162.079443 205.368832 
L 162.587224 205.040196 
L 163.602785 206.183974 
L 164.110565 206.054725 
L 165.126126 205.108535 
L 165.633907 204.979559 
L 166.141687 205.884961 
L 166.649468 205.360657 
L 167.157248 205.323037 
L 167.665029 204.872166 
L 168.172809 204.646484 
L 168.68059 204.954131 
L 169.18837 204.813549 
L 170.203931 204.199966 
L 170.711712 204.639387 
L 171.727273 205.763672 
L 172.235053 205.641774 
L 173.758395 206.988543 
L 174.266175 206.792272 
L 174.773956 206.214465 
L 175.281736 205.429037 
L 175.789517 206.222196 
L 176.297297 205.715038 
L 176.805078 205.61178 
L 177.820639 205.215041 
L 178.328419 204.73437 
L 178.8362 204.651895 
L 179.34398 204.79736 
L 179.851761 204.421542 
L 180.359541 204.849612 
L 180.867322 204.313841 
L 181.375102 204.164137 
L 181.882883 203.718271 
L 182.390663 202.940851 
L 182.898444 202.955823 
L 183.406224 203.64771 
L 183.914005 203.410207 
L 184.929566 203.783648 
L 185.437346 203.464932 
L 185.945127 203.983671 
L 186.960688 203.865435 
L 187.468468 203.262324 
L 187.976249 202.909658 
L 188.484029 203.681255 
L 188.99181 203.602004 
L 189.49959 203.306839 
L 190.007371 202.706368 
L 190.515152 202.433557 
L 191.022932 202.873389 
L 191.530713 202.700469 
L 192.038493 202.889957 
L 192.546274 202.42112 
L 194.069615 203.013188 
L 194.577396 203.506664 
L 195.085176 203.568295 
L 196.100737 203.060932 
L 197.624079 203.190493 
L 198.131859 202.92221 
L 198.63964 203.277443 
L 199.14742 202.919487 
L 199.655201 202.897279 
L 201.178542 204.175226 
L 202.194103 203.670324 
L 202.701884 204.198867 
L 204.225225 203.496379 
L 204.733006 203.496862 
L 205.240786 203.249255 
L 207.271908 202.763474 
L 207.779689 203.11352 
L 209.30303 202.507156 
L 210.826372 202.259147 
L 211.334152 202.085289 
L 211.841933 202.408965 
L 212.349713 202.347083 
L 212.857494 202.74694 
L 213.365274 202.642733 
L 213.873055 202.257798 
L 214.380835 202.367698 
L 214.888616 202.150769 
L 215.396396 202.460703 
L 215.904177 202.207691 
L 216.411957 202.082163 
L 216.919738 202.175231 
L 217.427518 202.122711 
L 218.443079 202.6297 
L 218.95086 202.712957 
L 219.45864 202.583822 
L 219.966421 202.78059 
L 220.474201 202.634989 
L 220.981982 202.349597 
L 221.489762 202.969658 
L 222.505324 202.879197 
L 223.013104 203.054266 
L 223.520885 203.08102 
L 224.028665 202.981191 
L 224.536446 203.390779 
L 225.552007 203.102327 
L 226.059787 203.245572 
L 226.567568 203.634873 
L 227.075348 203.481342 
L 227.583129 203.480699 
L 228.59869 202.995452 
L 229.10647 202.648563 
L 230.122031 202.426335 
L 230.629812 202.770672 
L 231.645373 202.697031 
L 232.660934 202.341706 
L 233.168714 202.544121 
L 234.184275 203.361304 
L 235.199836 203.840659 
L 235.707617 204.242008 
L 236.215397 203.943719 
L 237.230958 204.090299 
L 238.246519 203.648639 
L 238.7543 203.762668 
L 240.785422 203.500215 
L 241.293202 203.656255 
L 241.800983 203.491225 
L 244.339885 204.829408 
L 244.847666 204.75744 
L 245.355446 204.562466 
L 245.863227 204.500991 
L 246.371007 204.259091 
L 246.878788 204.477011 
L 247.386568 204.841911 
L 247.894349 204.896054 
L 248.402129 205.174967 
L 248.90991 205.129881 
L 249.41769 205.49728 
L 250.433251 205.449696 
L 250.941032 205.780023 
L 251.448812 205.723457 
L 251.956593 205.420487 
L 252.464373 205.621895 
L 252.972154 205.651039 
L 253.479934 206.146834 
L 253.987715 206.153841 
L 254.495495 206.511365 
L 255.511057 206.627242 
L 256.526618 206.613247 
L 257.034398 206.379584 
L 257.542179 206.528357 
L 258.049959 206.271305 
L 258.55774 206.518323 
L 259.06552 206.355312 
L 260.588862 206.648212 
L 261.096642 206.524933 
L 261.604423 206.729949 
L 262.112203 206.752266 
L 262.619984 207.083208 
L 263.127764 207.177808 
L 263.635545 207.139591 
L 264.651106 207.628983 
L 265.158886 207.554915 
L 265.666667 207.796217 
L 266.174447 207.805442 
L 267.697789 208.554852 
L 268.71335 208.44452 
L 269.728911 208.894405 
L 270.236691 209.199492 
L 270.744472 209.203794 
L 271.760033 208.865155 
L 272.267813 209.134565 
L 273.283374 208.98865 
L 273.791155 208.757777 
L 274.806716 208.547057 
L 275.822277 208.428459 
L 276.837838 208.889 
L 278.361179 208.651058 
L 278.86896 208.765045 
L 279.37674 208.568106 
L 279.884521 208.68356 
L 280.392301 208.680591 
L 281.915643 208.446763 
L 283.438984 208.32515 
L 283.946765 208.196573 
L 284.454545 208.302 
L 284.962326 208.192249 
L 285.470106 208.422869 
L 285.977887 208.299259 
L 286.485667 208.45748 
L 289.532351 207.811726 
L 290.547912 208.061615 
L 291.055692 208.127047 
L 293.594595 207.804134 
L 294.102375 207.80523 
L 294.610156 208.023093 
L 295.625717 207.904319 
L 297.149058 207.715814 
L 297.656839 207.718715 
L 299.18018 208.244582 
L 299.687961 208.108388 
L 300.195741 208.104155 
L 301.719083 208.608523 
L 302.734644 208.358704 
L 303.242424 208.678345 
L 303.750205 208.68883 
L 304.257985 208.875464 
L 304.765766 208.817119 
L 305.781327 208.91992 
L 306.289107 208.91311 
L 306.796888 209.13118 
L 307.812449 209.131998 
L 309.33579 209.030563 
L 310.859132 208.81106 
L 311.874693 209.158851 
L 312.382473 209.052238 
L 312.890254 209.111022 
L 313.905815 208.863779 
L 315.936937 208.59621 
L 316.444717 208.749538 
L 316.952498 208.66976 
L 318.475839 208.978725 
L 318.98362 208.926542 
L 319.4914 209.19029 
L 319.999181 209.249661 
L 320.506962 209.476773 
L 323.045864 208.995167 
L 324.569206 209.272215 
L 325.076986 209.404002 
L 327.108108 209.143107 
L 327.615889 209.326096 
L 328.123669 209.379232 
L 331.170352 208.950513 
L 333.201474 209.392616 
L 333.709255 209.541502 
L 335.232596 209.463654 
L 335.740377 209.667956 
L 337.771499 209.91245 
L 338.279279 209.859538 
L 338.78706 209.99673 
L 339.802621 209.991801 
L 341.325962 209.729199 
L 342.341523 210.012371 
L 343.357084 209.619312 
L 343.864865 209.561198 
L 344.372645 209.375789 
L 346.911548 209.277203 
L 347.419328 209.367848 
L 347.927109 209.195227 
L 348.94267 209.194495 
L 349.45045 209.05923 
L 350.466011 208.947828 
L 350.973792 208.844987 
L 351.481572 208.980499 
L 352.497133 208.896545 
L 353.004914 209.111365 
L 353.512695 208.95166 
L 354.020475 209.060102 
L 354.528256 208.985384 
L 355.036036 209.103032 
L 356.051597 208.991374 
L 356.559378 208.997656 
L 357.574939 208.757791 
L 358.082719 208.905513 
L 360.621622 208.746281 
L 361.637183 208.765217 
L 362.652744 208.602515 
L 363.668305 208.817683 
L 364.176085 208.783551 
L 365.191646 209.022459 
L 366.207207 208.839061 
L 366.714988 209.020253 
L 368.74611 208.920483 
L 369.761671 208.830438 
L 370.269451 208.818647 
L 370.777232 208.97028 
L 371.285012 208.982301 
L 371.792793 208.788969 
L 372.808354 208.722613 
L 373.823915 208.615596 
L 374.839476 208.698567 
L 375.347256 208.872083 
L 378.90172 208.483273 
L 379.4095 208.589117 
L 379.917281 208.553635 
L 380.425061 208.714472 
L 380.932842 208.665414 
L 381.440622 208.925418 
L 381.948403 208.866906 
L 382.456183 209.005492 
L 382.963964 209.0118 
L 383.979525 208.86259 
L 384.487305 208.815477 
L 385.502867 208.976701 
L 386.518428 208.873649 
L 388.041769 208.714288 
L 388.54955 208.780883 
L 389.05733 208.707418 
L 389.565111 208.863636 
L 390.580672 208.833913 
L 391.596233 208.682102 
L 392.104013 208.620301 
L 394.135135 209.117661 
L 395.150696 208.961259 
L 395.658477 209.093583 
L 400.736282 208.694816 
L 403.275184 208.957093 
L 404.290745 208.746095 
L 406.829648 208.698782 
L 408.352989 208.553548 
L 409.36855 208.76676 
L 410.384111 208.613761 
L 411.399672 208.834468 
L 413.430794 208.790269 
L 419.01638 208.491522 
L 420.031941 208.701907 
L 422.570844 208.287485 
L 423.078624 208.227716 
L 423.586405 208.346258 
L 424.601966 208.296288 
L 425.109746 208.382205 
L 425.617527 208.24947 
L 427.648649 208.279547 
L 428.66421 208.145967 
L 430.187551 207.928439 
L 431.203112 207.861764 
L 431.710893 207.96671 
L 433.234234 207.788204 
L 434.249795 207.676509 
L 434.757576 207.656516 
L 435.265356 207.806155 
L 438.312039 207.538216 
L 438.81982 207.665729 
L 439.835381 207.625364 
L 440.343161 207.736064 
L 441.866503 207.639728 
L 442.882064 207.818418 
L 444.913186 207.758637 
L 445.928747 207.806739 
L 446.944308 207.795125 
L 448.467649 207.622536 
L 449.48321 207.569718 
L 449.990991 207.684783 
L 451.006552 207.590652 
L 451.514333 207.717202 
L 453.545455 207.433377 
L 454.561016 207.5239 
L 457.099918 207.837638 
L 462.177723 207.791744 
L 463.193284 207.890825 
L 465.224406 207.872042 
L 465.732187 208.045658 
L 466.239967 207.997757 
L 467.255528 208.191037 
L 467.763309 208.154026 
L 468.271089 208.244161 
L 470.302211 207.960281 
L 471.317772 207.963677 
L 475.380016 207.674085 
L 475.887797 207.681923 
L 476.395577 207.809232 
L 479.44226 207.703343 
L 479.950041 207.816856 
L 485.027846 207.696271 
L 486.043407 207.583853 
L 487.566749 207.668819 
L 489.597871 207.42722 
L 490.105651 207.511981 
L 492.644554 207.39672 
L 493.152334 207.478764 
L 494.167895 207.453086 
L 495.183456 207.490826 
L 496.199017 207.332725 
L 498.73792 207.13092 
L 501.276822 207.204832 
L 504.323505 207.451677 
L 504.831286 207.532366 
L 506.354627 207.425095 
L 507.877969 207.480938 
L 508.89353 207.414294 
L 509.909091 207.511768 
L 510.924652 207.550516 
L 517.018018 207.048759 
L 519.556921 206.949484 
L 522.603604 207.217076 
L 524.634726 207.166244 
L 528.189189 207.222337 
L 529.20475 207.28813 
L 529.712531 207.340967 
L 531.743653 207.145035 
L 536.821458 207.171396 
L 537.329238 207.083166 
L 537.837019 207.149035 
L 538.344799 207.101272 
L 539.36036 207.194072 
L 542.914824 207.196355 
L 543.930385 207.001611 
L 546.977068 206.884285 
L 547.484848 206.849557 
L 547.992629 206.973495 
L 549.515971 206.867984 
L 551.547093 206.76073 
L 553.070434 206.991855 
L 553.578215 206.925283 
L 555.101556 207.138755 
L 556.624898 206.97676 
L 557.132678 207.100592 
L 561.702703 206.679493 
L 562.718264 206.677254 
L 563.226044 206.660833 
L 564.241605 206.75462 
L 564.749386 206.829029 
L 566.780508 206.546625 
L 567.288288 206.629954 
L 567.796069 206.584147 
L 570.334971 206.856674 
L 571.858313 206.815377 
L 576.936118 206.61024 
L 578.96724 206.674398 
L 579.47502 206.550049 
L 582.013923 206.583468 
L 582.521704 206.685208 
L 583.029484 206.620294 
L 583.537265 206.708333 
L 584.045045 206.648499 
L 584.552826 206.70311 
L 585.568387 206.598687 
L 591.153972 206.838273 
L 594.708436 206.620631 
L 596.231777 206.443616 
L 598.77068 206.453896 
L 599.27846 206.533744 
L 600.294021 206.470625 
L 600.801802 206.583045 
L 601.817363 206.643874 
L 602.832924 206.683986 
L 604.864046 206.496524 
L 606.387387 206.453757 
L 606.895168 206.533433 
L 607.910729 206.456387 
L 609.43407 206.660542 
L 620.097461 206.433808 
L 621.113022 206.422897 
L 622.128583 206.299345 
L 622.636364 206.208899 
L 622.636364 206.208899 
" style="fill:none;stroke:#ff0000;stroke-linecap:round;stroke-width:1.5;"/>
   </g>
   <g id="patch_3">
    <path d="M 90 378 
L 90 51.84 
" style="fill:none;stroke:#ffffff;stroke-linecap:square;stroke-linejoin:miter;stroke-width:0.8;"/>
   </g>
   <g id="patch_4">
    <path d="M 648 378 
L 648 51.84 
" style="fill:none;stroke:#ffffff;stroke-linecap:square;stroke-linejoin:miter;stroke-width:0.8;"/>
   </g>
   <g id="patch_5">
    <path d="M 90 378 
L 648 378 
" style="fill:none;stroke:#ffffff;stroke-linecap:square;stroke-linejoin:miter;stroke-width:0.8;"/>
   </g>
   <g id="patch_6">
    <path d="M 90 51.84 
L 648 51.84 
" style="fill:none;stroke:#ffffff;stroke-linecap:square;stroke-linejoin:miter;stroke-width:0.8;"/>
   </g>
   <g id="text_14">
    <!-- Зависимость RMSE от количетсва деревьев -->
    <g style="fill:#262626;" transform="translate(175.323562 27.027675)scale(0.168 -0.168)">
     <defs>
      <path d="M 1828 4750 
Q 2597 4750 3084 4423 
Q 3572 4097 3572 3541 
Q 3572 3153 3350 2886 
Q 3128 2619 2719 2516 
Q 3172 2419 3426 2112 
Q 3681 1806 3681 1356 
Q 3681 638 3126 273 
Q 2572 -91 1828 -91 
Q 1447 -91 1003 12 
Q 559 116 422 203 
L 422 853 
Q 900 575 1164 508 
Q 1428 441 1816 441 
Q 2403 441 2728 666 
Q 3053 891 3053 1356 
Q 3053 1769 2764 2001 
Q 2475 2234 1866 2234 
L 1228 2234 
L 1228 2753 
L 1891 2753 
Q 2450 2753 2697 2939 
Q 2944 3125 2944 3475 
Q 2944 3834 2689 4026 
Q 2434 4219 1816 4219 
Q 1397 4219 1253 4181 
Q 1109 4144 469 3903 
L 469 4519 
Q 822 4644 1190 4697 
Q 1559 4750 1828 4750 
z
" id="DejaVuSans-417" transform="scale(0.015625)"/>
      <path d="M 2194 1759 
Q 1497 1759 1228 1600 
Q 959 1441 959 1056 
Q 959 750 1161 570 
Q 1363 391 1709 391 
Q 2188 391 2477 730 
Q 2766 1069 2766 1631 
L 2766 1759 
L 2194 1759 
z
M 3341 1997 
L 3341 0 
L 2766 0 
L 2766 531 
Q 2569 213 2275 61 
Q 1981 -91 1556 -91 
Q 1019 -91 701 211 
Q 384 513 384 1019 
Q 384 1609 779 1909 
Q 1175 2209 1959 2209 
L 2766 2209 
L 2766 2266 
Q 2766 2663 2505 2880 
Q 2244 3097 1772 3097 
Q 1472 3097 1187 3025 
Q 903 2953 641 2809 
L 641 3341 
Q 956 3463 1253 3523 
Q 1550 3584 1831 3584 
Q 2591 3584 2966 3190 
Q 3341 2797 3341 1997 
z
" id="DejaVuSans-430" transform="scale(0.015625)"/>
      <path d="M 581 3500 
L 1422 3500 
L 2416 1156 
L 3413 3500 
L 4247 3500 
L 4247 0 
L 3669 0 
L 3669 2950 
L 2703 672 
L 2128 672 
L 1159 2950 
L 1159 0 
L 581 0 
L 581 3500 
z
" id="DejaVuSans-43c" transform="scale(0.015625)"/>
      <path d="M 581 3500 
L 1153 3500 
L 1153 1856 
L 2775 3500 
L 3481 3500 
L 2144 2147 
L 3653 0 
L 3009 0 
L 1769 1766 
L 1153 1141 
L 1153 0 
L 581 0 
L 581 3500 
z
" id="DejaVuSans-43a" transform="scale(0.015625)"/>
     </defs>
     <use xlink:href="#DejaVuSans-417"/>
     <use x="64.111328" xlink:href="#DejaVuSans-430"/>
     <use x="125.390625" xlink:href="#DejaVuSans-432"/>
     <use x="184.326172" xlink:href="#DejaVuSans-438"/>
     <use x="249.316406" xlink:href="#DejaVuSans-441"/>
     <use x="304.296875" xlink:href="#DejaVuSans-438"/>
     <use x="369.287109" xlink:href="#DejaVuSans-43c"/>
     <use x="444.726562" xlink:href="#DejaVuSans-43e"/>
     <use x="505.908203" xlink:href="#DejaVuSans-441"/>
     <use x="560.888672" xlink:href="#DejaVuSans-442"/>
     <use x="619.140625" xlink:href="#DejaVuSans-44c"/>
     <use x="678.076172" xlink:href="#DejaVuSans-20"/>
     <use x="709.863281" xlink:href="#DejaVuSans-52"/>
     <use x="779.345703" xlink:href="#DejaVuSans-4d"/>
     <use x="865.625" xlink:href="#DejaVuSans-53"/>
     <use x="929.101562" xlink:href="#DejaVuSans-45"/>
     <use x="992.285156" xlink:href="#DejaVuSans-20"/>
     <use x="1024.072266" xlink:href="#DejaVuSans-43e"/>
     <use x="1085.253906" xlink:href="#DejaVuSans-442"/>
     <use x="1143.505859" xlink:href="#DejaVuSans-20"/>
     <use x="1175.292969" xlink:href="#DejaVuSans-43a"/>
     <use x="1235.693359" xlink:href="#DejaVuSans-43e"/>
     <use x="1296.875" xlink:href="#DejaVuSans-43b"/>
     <use x="1360.791016" xlink:href="#DejaVuSans-438"/>
     <use x="1425.78125" xlink:href="#DejaVuSans-447"/>
     <use x="1484.863281" xlink:href="#DejaVuSans-435"/>
     <use x="1546.386719" xlink:href="#DejaVuSans-442"/>
     <use x="1604.638672" xlink:href="#DejaVuSans-441"/>
     <use x="1659.619141" xlink:href="#DejaVuSans-432"/>
     <use x="1718.554688" xlink:href="#DejaVuSans-430"/>
     <use x="1779.833984" xlink:href="#DejaVuSans-20"/>
     <use x="1811.621094" xlink:href="#DejaVuSans-434"/>
     <use x="1880.761719" xlink:href="#DejaVuSans-435"/>
     <use x="1942.285156" xlink:href="#DejaVuSans-440"/>
     <use x="2005.761719" xlink:href="#DejaVuSans-435"/>
     <use x="2067.285156" xlink:href="#DejaVuSans-432"/>
     <use x="2126.220703" xlink:href="#DejaVuSans-44c"/>
     <use x="2185.15625" xlink:href="#DejaVuSans-435"/>
     <use x="2246.679688" xlink:href="#DejaVuSans-432"/>
    </g>
    <!--  в случайном лесе -->
    <g style="fill:#262626;" transform="translate(288.21825 45.84)scale(0.168 -0.168)">
     <defs>
      <path d="M 2059 -325 
Q 1816 -950 1584 -1140 
Q 1353 -1331 966 -1331 
L 506 -1331 
L 506 -850 
L 844 -850 
Q 1081 -850 1212 -737 
Q 1344 -625 1503 -206 
L 1606 56 
L 191 3500 
L 800 3500 
L 1894 763 
L 2988 3500 
L 3597 3500 
L 2059 -325 
z
" id="DejaVuSans-443" transform="scale(0.015625)"/>
      <path d="M 3578 3500 
L 3578 0 
L 3006 0 
L 3006 2809 
L 1319 0 
L 581 0 
L 581 3500 
L 1153 3500 
L 1153 697 
L 2838 3500 
L 3578 3500 
z
M 1103 4862 
L 1472 4862 
Q 1506 4628 1657 4510 
Q 1809 4393 2081 4393 
Q 2350 4393 2500 4509 
Q 2650 4625 2691 4862 
L 3059 4862 
Q 3028 4415 2781 4190 
Q 2534 3965 2081 3965 
Q 1628 3965 1381 4190 
Q 1134 4415 1103 4862 
z
" id="DejaVuSans-439" transform="scale(0.015625)"/>
      <path d="M 581 3500 
L 1159 3500 
L 1159 2072 
L 3025 2072 
L 3025 3500 
L 3603 3500 
L 3603 0 
L 3025 0 
L 3025 1613 
L 1159 1613 
L 1159 0 
L 581 0 
L 581 3500 
z
" id="DejaVuSans-43d" transform="scale(0.015625)"/>
     </defs>
     <use xlink:href="#DejaVuSans-20"/>
     <use x="31.787109" xlink:href="#DejaVuSans-432"/>
     <use x="90.722656" xlink:href="#DejaVuSans-20"/>
     <use x="122.509766" xlink:href="#DejaVuSans-441"/>
     <use x="177.490234" xlink:href="#DejaVuSans-43b"/>
     <use x="241.40625" xlink:href="#DejaVuSans-443"/>
     <use x="300.585938" xlink:href="#DejaVuSans-447"/>
     <use x="359.667969" xlink:href="#DejaVuSans-430"/>
     <use x="420.947266" xlink:href="#DejaVuSans-439"/>
     <use x="485.9375" xlink:href="#DejaVuSans-43d"/>
     <use x="551.318359" xlink:href="#DejaVuSans-43e"/>
     <use x="612.5" xlink:href="#DejaVuSans-43c"/>
     <use x="687.939453" xlink:href="#DejaVuSans-20"/>
     <use x="719.726562" xlink:href="#DejaVuSans-43b"/>
     <use x="783.642578" xlink:href="#DejaVuSans-435"/>
     <use x="845.166016" xlink:href="#DejaVuSans-441"/>
     <use x="900.146484" xlink:href="#DejaVuSans-435"/>
    </g>
   </g>
   <g id="legend_1">
    <g id="patch_7">
     <path d="M 409.531875 104.615625 
L 638.2 104.615625 
Q 641 104.615625 641 101.815625 
L 641 61.64 
Q 641 58.84 638.2 58.84 
L 409.531875 58.84 
Q 406.731875 58.84 406.731875 61.64 
L 406.731875 101.815625 
Q 406.731875 104.615625 409.531875 104.615625 
z
" style="fill:#eaeaf2;opacity:0.8;stroke:#cccccc;stroke-linejoin:miter;"/>
    </g>
    <g id="line2d_14">
     <path d="M 412.331875 70.41625 
L 440.331875 70.41625 
" style="fill:none;stroke:#0000ff;stroke-linecap:round;stroke-width:1.5;"/>
    </g>
    <g id="line2d_15"/>
    <g id="text_15">
     <!-- Обучающая выборка -->
     <g style="fill:#262626;" transform="translate(451.531875 75.31625)scale(0.14 -0.14)">
      <defs>
       <path d="M 2522 4238 
Q 1834 4238 1429 3725 
Q 1025 3213 1025 2328 
Q 1025 1447 1429 934 
Q 1834 422 2522 422 
Q 3209 422 3611 934 
Q 4013 1447 4013 2328 
Q 4013 3213 3611 3725 
Q 3209 4238 2522 4238 
z
M 2522 4750 
Q 3503 4750 4090 4092 
Q 4678 3434 4678 2328 
Q 4678 1225 4090 567 
Q 3503 -91 2522 -91 
Q 1538 -91 948 565 
Q 359 1222 359 2328 
Q 359 3434 948 4092 
Q 1538 4750 2522 4750 
z
" id="DejaVuSans-41e" transform="scale(0.015625)"/>
       <path d="M 1991 3584 
Q 2741 3584 3169 3096 
Q 3597 2609 3597 1747 
Q 3597 888 3169 398 
Q 2741 -91 1991 -91 
Q 1238 -91 822 384 
Q 406 859 384 1747 
L 366 2463 
Q 350 2834 350 2963 
Q 350 3463 531 3831 
Q 816 4409 1308 4659 
Q 1800 4909 2625 4916 
Q 3006 4919 3175 4972 
L 3334 4516 
Q 3181 4453 3041 4450 
L 2259 4397 
Q 1866 4369 1628 4231 
Q 1006 3866 947 3388 
L 925 3213 
Q 1331 3584 1991 3584 
z
M 1991 3097 
Q 1528 3097 1259 2736 
Q 991 2375 991 1747 
Q 991 1119 1258 758 
Q 1525 397 1991 397 
Q 2450 397 2719 759 
Q 2988 1122 2988 1747 
Q 2988 2369 2719 2733 
Q 2450 3097 1991 3097 
z
" id="DejaVuSans-431" transform="scale(0.015625)"/>
       <path d="M 3431 3097 
Q 2969 3097 2700 2736 
Q 2431 2375 2431 1747 
Q 2431 1119 2698 758 
Q 2966 397 3431 397 
Q 3891 397 4159 759 
Q 4428 1122 4428 1747 
Q 4428 2369 4159 2733 
Q 3891 3097 3431 3097 
z
M 1844 2103 
Q 1903 2697 2292 3140 
Q 2681 3584 3431 3584 
Q 4181 3584 4609 3096 
Q 5038 2609 5038 1747 
Q 5038 888 4609 398 
Q 4181 -91 3431 -91 
Q 2678 -91 2267 381 
Q 1856 853 1828 1628 
L 1178 1628 
L 1178 0 
L 603 0 
L 603 3500 
L 1178 3500 
L 1178 2103 
L 1844 2103 
z
" id="DejaVuSans-44e" transform="scale(0.015625)"/>
       <path d="M 5275 0 
L 581 0 
L 581 3500 
L 1159 3500 
L 1159 459 
L 2638 459 
L 2638 3500 
L 3216 3500 
L 3216 459 
L 4697 459 
L 4697 3500 
L 5275 3500 
L 5275 459 
L 5734 459 
L 5734 -884 
L 5275 -884 
L 5275 0 
z
" id="DejaVuSans-449" transform="scale(0.015625)"/>
       <path d="M 1181 2491 
Q 1181 2231 1381 2084 
Q 1581 1938 1953 1938 
L 2728 1938 
L 2728 3041 
L 1953 3041 
Q 1581 3041 1381 2897 
Q 1181 2753 1181 2491 
z
M 363 0 
L 1431 1534 
Q 1069 1616 828 1830 
Q 588 2044 588 2491 
Q 588 2997 923 3248 
Q 1259 3500 1938 3500 
L 3306 3500 
L 3306 0 
L 2728 0 
L 2728 1478 
L 2013 1478 
L 981 0 
L 363 0 
z
" id="DejaVuSans-44f" transform="scale(0.015625)"/>
       <path d="M 3909 3500 
L 4484 3500 
L 4484 0 
L 3909 0 
L 3909 3500 
z
M 4197 3584 
L 4197 3584 
z
M 2781 1038 
Q 2781 1319 2576 1466 
Q 2372 1613 1978 1613 
L 1159 1613 
L 1159 459 
L 1978 459 
Q 2372 459 2576 607 
Q 2781 756 2781 1038 
z
M 581 3500 
L 1159 3500 
L 1159 2072 
L 2003 2072 
Q 2672 2072 3033 1817 
Q 3394 1563 3394 1038 
Q 3394 513 3033 256 
Q 2672 0 2003 0 
L 581 0 
L 581 3500 
z
" id="DejaVuSans-44b" transform="scale(0.015625)"/>
      </defs>
      <use xlink:href="#DejaVuSans-41e"/>
      <use x="78.710938" xlink:href="#DejaVuSans-431"/>
      <use x="140.380859" xlink:href="#DejaVuSans-443"/>
      <use x="199.560547" xlink:href="#DejaVuSans-447"/>
      <use x="258.642578" xlink:href="#DejaVuSans-430"/>
      <use x="319.921875" xlink:href="#DejaVuSans-44e"/>
      <use x="404.101562" xlink:href="#DejaVuSans-449"/>
      <use x="498.291016" xlink:href="#DejaVuSans-430"/>
      <use x="559.570312" xlink:href="#DejaVuSans-44f"/>
      <use x="619.726562" xlink:href="#DejaVuSans-20"/>
      <use x="651.513672" xlink:href="#DejaVuSans-432"/>
      <use x="710.449219" xlink:href="#DejaVuSans-44b"/>
      <use x="789.404297" xlink:href="#DejaVuSans-431"/>
      <use x="851.074219" xlink:href="#DejaVuSans-43e"/>
      <use x="912.255859" xlink:href="#DejaVuSans-440"/>
      <use x="975.732422" xlink:href="#DejaVuSans-43a"/>
      <use x="1036.132812" xlink:href="#DejaVuSans-430"/>
     </g>
    </g>
    <g id="line2d_16">
     <path d="M 412.331875 91.204062 
L 440.331875 91.204062 
" style="fill:none;stroke:#ff0000;stroke-linecap:round;stroke-width:1.5;"/>
    </g>
    <g id="line2d_17"/>
    <g id="text_16">
     <!-- Валидационная выборка -->
     <g style="fill:#262626;" transform="translate(451.531875 96.104062)scale(0.14 -0.14)">
      <defs>
       <path d="M 1259 2228 
L 1259 519 
L 2272 519 
Q 2781 519 3026 730 
Q 3272 941 3272 1375 
Q 3272 1813 3026 2020 
Q 2781 2228 2272 2228 
L 1259 2228 
z
M 1259 4147 
L 1259 2741 
L 2194 2741 
Q 2656 2741 2882 2914 
Q 3109 3088 3109 3444 
Q 3109 3797 2882 3972 
Q 2656 4147 2194 4147 
L 1259 4147 
z
M 628 4666 
L 2241 4666 
Q 2963 4666 3353 4366 
Q 3744 4066 3744 3513 
Q 3744 3084 3544 2831 
Q 3344 2578 2956 2516 
Q 3422 2416 3680 2098 
Q 3938 1781 3938 1306 
Q 3938 681 3513 340 
Q 3088 0 2303 0 
L 628 0 
L 628 4666 
z
" id="DejaVuSans-412" transform="scale(0.015625)"/>
       <path d="M 3603 0 
L 581 0 
L 581 3500 
L 1159 3500 
L 1159 459 
L 3025 459 
L 3025 3500 
L 3603 3500 
L 3603 459 
L 4063 459 
L 4063 -884 
L 3603 -884 
L 3603 0 
z
" id="DejaVuSans-446" transform="scale(0.015625)"/>
      </defs>
      <use xlink:href="#DejaVuSans-412"/>
      <use x="68.603516" xlink:href="#DejaVuSans-430"/>
      <use x="129.882812" xlink:href="#DejaVuSans-43b"/>
      <use x="193.798828" xlink:href="#DejaVuSans-438"/>
      <use x="258.789062" xlink:href="#DejaVuSans-434"/>
      <use x="327.929688" xlink:href="#DejaVuSans-430"/>
      <use x="389.208984" xlink:href="#DejaVuSans-446"/>
      <use x="457.275391" xlink:href="#DejaVuSans-438"/>
      <use x="522.265625" xlink:href="#DejaVuSans-43e"/>
      <use x="583.447266" xlink:href="#DejaVuSans-43d"/>
      <use x="648.828125" xlink:href="#DejaVuSans-43d"/>
      <use x="714.208984" xlink:href="#DejaVuSans-430"/>
      <use x="775.488281" xlink:href="#DejaVuSans-44f"/>
      <use x="835.644531" xlink:href="#DejaVuSans-20"/>
      <use x="867.431641" xlink:href="#DejaVuSans-432"/>
      <use x="926.367188" xlink:href="#DejaVuSans-44b"/>
      <use x="1005.322266" xlink:href="#DejaVuSans-431"/>
      <use x="1066.992188" xlink:href="#DejaVuSans-43e"/>
      <use x="1128.173828" xlink:href="#DejaVuSans-440"/>
      <use x="1191.650391" xlink:href="#DejaVuSans-43a"/>
      <use x="1252.050781" xlink:href="#DejaVuSans-430"/>
     </g>
    </g>
   </g>
  </g>
 </g>
 <defs>
  <clipPath id="p05ad53c898">
   <rect height="326.16" width="558" x="90" y="51.84"/>
  </clipPath>
 </defs>
</svg>
