<?xml version="1.0" encoding="utf-8" standalone="no"?>
<!DOCTYPE svg PUBLIC "-//W3C//DTD SVG 1.1//EN"
  "http://www.w3.org/Graphics/SVG/1.1/DTD/svg11.dtd">
<svg height="432pt" version="1.1" viewBox="0 0 720 432" width="720pt" xmlns="http://www.w3.org/2000/svg" xmlns:xlink="http://www.w3.org/1999/xlink">
 <metadata>
  <rdf:RDF xmlns:cc="http://creativecommons.org/ns#" xmlns:dc="http://purl.org/dc/elements/1.1/" xmlns:rdf="http://www.w3.org/1999/02/22-rdf-syntax-ns#">
   <cc:Work>
    <dc:type rdf:resource="http://purl.org/dc/dcmitype/StillImage"/>
    <dc:date>2022-12-12T00:13:26.540611</dc:date>
    <dc:format>image/svg+xml</dc:format>
    <dc:creator>
     <cc:Agent>
      <dc:title>Matplotlib v3.4.3, https://matplotlib.org/</dc:title>
     </cc:Agent>
    </dc:creator>
   </cc:Work>
  </rdf:RDF>
 </metadata>
 <defs>
  <style type="text/css">*{stroke-linecap:butt;stroke-linejoin:round;}</style>
 </defs>
 <g id="figure_1">
  <g id="patch_1">
   <path d="M 0 432 
L 720 432 
L 720 0 
L 0 0 
z
" style="fill:#ffffff;"/>
  </g>
  <g id="axes_1">
   <g id="patch_2">
    <path d="M 90 378 
L 648 378 
L 648 51.84 
L 90 51.84 
z
" style="fill:#eaeaf2;"/>
   </g>
   <g id="matplotlib.axis_1">
    <g id="xtick_1">
     <g id="line2d_1">
      <path clip-path="url(#p28eed594a7)" d="M 171.727273 378 
L 171.727273 51.84 
" style="fill:none;stroke:#ffffff;stroke-linecap:round;stroke-width:0.8;"/>
     </g>
     <g id="text_1">
      <!-- 0.2 -->
      <g style="fill:#262626;" transform="translate(160.595085 395.637812)scale(0.14 -0.14)">
       <defs>
        <path d="M 2034 4250 
Q 1547 4250 1301 3770 
Q 1056 3291 1056 2328 
Q 1056 1369 1301 889 
Q 1547 409 2034 409 
Q 2525 409 2770 889 
Q 3016 1369 3016 2328 
Q 3016 3291 2770 3770 
Q 2525 4250 2034 4250 
z
M 2034 4750 
Q 2819 4750 3233 4129 
Q 3647 3509 3647 2328 
Q 3647 1150 3233 529 
Q 2819 -91 2034 -91 
Q 1250 -91 836 529 
Q 422 1150 422 2328 
Q 422 3509 836 4129 
Q 1250 4750 2034 4750 
z
" id="DejaVuSans-30" transform="scale(0.015625)"/>
        <path d="M 684 794 
L 1344 794 
L 1344 0 
L 684 0 
L 684 794 
z
" id="DejaVuSans-2e" transform="scale(0.015625)"/>
        <path d="M 1228 531 
L 3431 531 
L 3431 0 
L 469 0 
L 469 531 
Q 828 903 1448 1529 
Q 2069 2156 2228 2338 
Q 2531 2678 2651 2914 
Q 2772 3150 2772 3378 
Q 2772 3750 2511 3984 
Q 2250 4219 1831 4219 
Q 1534 4219 1204 4116 
Q 875 4013 500 3803 
L 500 4441 
Q 881 4594 1212 4672 
Q 1544 4750 1819 4750 
Q 2544 4750 2975 4387 
Q 3406 4025 3406 3419 
Q 3406 3131 3298 2873 
Q 3191 2616 2906 2266 
Q 2828 2175 2409 1742 
Q 1991 1309 1228 531 
z
" id="DejaVuSans-32" transform="scale(0.015625)"/>
       </defs>
       <use xlink:href="#DejaVuSans-30"/>
       <use x="63.623047" xlink:href="#DejaVuSans-2e"/>
       <use x="95.410156" xlink:href="#DejaVuSans-32"/>
      </g>
     </g>
    </g>
    <g id="xtick_2">
     <g id="line2d_2">
      <path clip-path="url(#p28eed594a7)" d="M 284.454545 378 
L 284.454545 51.84 
" style="fill:none;stroke:#ffffff;stroke-linecap:round;stroke-width:0.8;"/>
     </g>
     <g id="text_2">
      <!-- 0.4 -->
      <g style="fill:#262626;" transform="translate(273.322358 395.637812)scale(0.14 -0.14)">
       <defs>
        <path d="M 2419 4116 
L 825 1625 
L 2419 1625 
L 2419 4116 
z
M 2253 4666 
L 3047 4666 
L 3047 1625 
L 3713 1625 
L 3713 1100 
L 3047 1100 
L 3047 0 
L 2419 0 
L 2419 1100 
L 313 1100 
L 313 1709 
L 2253 4666 
z
" id="DejaVuSans-34" transform="scale(0.015625)"/>
       </defs>
       <use xlink:href="#DejaVuSans-30"/>
       <use x="63.623047" xlink:href="#DejaVuSans-2e"/>
       <use x="95.410156" xlink:href="#DejaVuSans-34"/>
      </g>
     </g>
    </g>
    <g id="xtick_3">
     <g id="line2d_3">
      <path clip-path="url(#p28eed594a7)" d="M 397.181818 378 
L 397.181818 51.84 
" style="fill:none;stroke:#ffffff;stroke-linecap:round;stroke-width:0.8;"/>
     </g>
     <g id="text_3">
      <!-- 0.6 -->
      <g style="fill:#262626;" transform="translate(386.049631 395.637812)scale(0.14 -0.14)">
       <defs>
        <path d="M 2113 2584 
Q 1688 2584 1439 2293 
Q 1191 2003 1191 1497 
Q 1191 994 1439 701 
Q 1688 409 2113 409 
Q 2538 409 2786 701 
Q 3034 994 3034 1497 
Q 3034 2003 2786 2293 
Q 2538 2584 2113 2584 
z
M 3366 4563 
L 3366 3988 
Q 3128 4100 2886 4159 
Q 2644 4219 2406 4219 
Q 1781 4219 1451 3797 
Q 1122 3375 1075 2522 
Q 1259 2794 1537 2939 
Q 1816 3084 2150 3084 
Q 2853 3084 3261 2657 
Q 3669 2231 3669 1497 
Q 3669 778 3244 343 
Q 2819 -91 2113 -91 
Q 1303 -91 875 529 
Q 447 1150 447 2328 
Q 447 3434 972 4092 
Q 1497 4750 2381 4750 
Q 2619 4750 2861 4703 
Q 3103 4656 3366 4563 
z
" id="DejaVuSans-36" transform="scale(0.015625)"/>
       </defs>
       <use xlink:href="#DejaVuSans-30"/>
       <use x="63.623047" xlink:href="#DejaVuSans-2e"/>
       <use x="95.410156" xlink:href="#DejaVuSans-36"/>
      </g>
     </g>
    </g>
    <g id="xtick_4">
     <g id="line2d_4">
      <path clip-path="url(#p28eed594a7)" d="M 509.909091 378 
L 509.909091 51.84 
" style="fill:none;stroke:#ffffff;stroke-linecap:round;stroke-width:0.8;"/>
     </g>
     <g id="text_4">
      <!-- 0.8 -->
      <g style="fill:#262626;" transform="translate(498.776903 395.637812)scale(0.14 -0.14)">
       <defs>
        <path d="M 2034 2216 
Q 1584 2216 1326 1975 
Q 1069 1734 1069 1313 
Q 1069 891 1326 650 
Q 1584 409 2034 409 
Q 2484 409 2743 651 
Q 3003 894 3003 1313 
Q 3003 1734 2745 1975 
Q 2488 2216 2034 2216 
z
M 1403 2484 
Q 997 2584 770 2862 
Q 544 3141 544 3541 
Q 544 4100 942 4425 
Q 1341 4750 2034 4750 
Q 2731 4750 3128 4425 
Q 3525 4100 3525 3541 
Q 3525 3141 3298 2862 
Q 3072 2584 2669 2484 
Q 3125 2378 3379 2068 
Q 3634 1759 3634 1313 
Q 3634 634 3220 271 
Q 2806 -91 2034 -91 
Q 1263 -91 848 271 
Q 434 634 434 1313 
Q 434 1759 690 2068 
Q 947 2378 1403 2484 
z
M 1172 3481 
Q 1172 3119 1398 2916 
Q 1625 2713 2034 2713 
Q 2441 2713 2670 2916 
Q 2900 3119 2900 3481 
Q 2900 3844 2670 4047 
Q 2441 4250 2034 4250 
Q 1625 4250 1398 4047 
Q 1172 3844 1172 3481 
z
" id="DejaVuSans-38" transform="scale(0.015625)"/>
       </defs>
       <use xlink:href="#DejaVuSans-30"/>
       <use x="63.623047" xlink:href="#DejaVuSans-2e"/>
       <use x="95.410156" xlink:href="#DejaVuSans-38"/>
      </g>
     </g>
    </g>
    <g id="xtick_5">
     <g id="line2d_5">
      <path clip-path="url(#p28eed594a7)" d="M 622.636364 378 
L 622.636364 51.84 
" style="fill:none;stroke:#ffffff;stroke-linecap:round;stroke-width:0.8;"/>
     </g>
     <g id="text_5">
      <!-- 1.0 -->
      <g style="fill:#262626;" transform="translate(611.504176 395.637812)scale(0.14 -0.14)">
       <defs>
        <path d="M 794 531 
L 1825 531 
L 1825 4091 
L 703 3866 
L 703 4441 
L 1819 4666 
L 2450 4666 
L 2450 531 
L 3481 531 
L 3481 0 
L 794 0 
L 794 531 
z
" id="DejaVuSans-31" transform="scale(0.015625)"/>
       </defs>
       <use xlink:href="#DejaVuSans-31"/>
       <use x="63.623047" xlink:href="#DejaVuSans-2e"/>
       <use x="95.410156" xlink:href="#DejaVuSans-30"/>
      </g>
     </g>
    </g>
    <g id="text_6">
     <!-- Размерность подвыборки признаков для одного -->
     <g style="fill:#262626;" transform="translate(189.489375 413.425625)scale(0.14 -0.14)">
      <defs>
       <path d="M 1259 4147 
L 1259 2394 
L 2053 2394 
Q 2494 2394 2734 2622 
Q 2975 2850 2975 3272 
Q 2975 3691 2734 3919 
Q 2494 4147 2053 4147 
L 1259 4147 
z
M 628 4666 
L 2053 4666 
Q 2838 4666 3239 4311 
Q 3641 3956 3641 3272 
Q 3641 2581 3239 2228 
Q 2838 1875 2053 1875 
L 1259 1875 
L 1259 0 
L 628 0 
L 628 4666 
z
" id="DejaVuSans-420" transform="scale(0.015625)"/>
       <path d="M 2194 1759 
Q 1497 1759 1228 1600 
Q 959 1441 959 1056 
Q 959 750 1161 570 
Q 1363 391 1709 391 
Q 2188 391 2477 730 
Q 2766 1069 2766 1631 
L 2766 1759 
L 2194 1759 
z
M 3341 1997 
L 3341 0 
L 2766 0 
L 2766 531 
Q 2569 213 2275 61 
Q 1981 -91 1556 -91 
Q 1019 -91 701 211 
Q 384 513 384 1019 
Q 384 1609 779 1909 
Q 1175 2209 1959 2209 
L 2766 2209 
L 2766 2266 
Q 2766 2663 2505 2880 
Q 2244 3097 1772 3097 
Q 1472 3097 1187 3025 
Q 903 2953 641 2809 
L 641 3341 
Q 956 3463 1253 3523 
Q 1550 3584 1831 3584 
Q 2591 3584 2966 3190 
Q 3341 2797 3341 1997 
z
" id="DejaVuSans-430" transform="scale(0.015625)"/>
       <path d="M 2206 1888 
Q 2594 1813 2809 1584 
Q 3025 1356 3025 1019 
Q 3025 478 2622 193 
Q 2219 -91 1475 -91 
Q 1225 -91 961 -47 
Q 697 -3 416 84 
L 416 619 
Q 638 503 903 445 
Q 1169 388 1459 388 
Q 1931 388 2195 563 
Q 2459 738 2459 1019 
Q 2459 1294 2225 1461 
Q 1991 1628 1563 1628 
L 1100 1628 
L 1100 2103 
L 1584 2103 
Q 1947 2103 2158 2242 
Q 2369 2381 2369 2600 
Q 2369 2800 2151 2944 
Q 1934 3088 1563 3088 
Q 1341 3088 1089 3047 
Q 838 3006 534 2916 
L 534 3438 
Q 841 3513 1106 3550 
Q 1372 3588 1609 3588 
Q 2222 3588 2576 3342 
Q 2931 3097 2931 2656 
Q 2931 2366 2743 2164 
Q 2556 1963 2206 1888 
z
" id="DejaVuSans-437" transform="scale(0.015625)"/>
       <path d="M 581 3500 
L 1422 3500 
L 2416 1156 
L 3413 3500 
L 4247 3500 
L 4247 0 
L 3669 0 
L 3669 2950 
L 2703 672 
L 2128 672 
L 1159 2950 
L 1159 0 
L 581 0 
L 581 3500 
z
" id="DejaVuSans-43c" transform="scale(0.015625)"/>
       <path d="M 3597 1894 
L 3597 1613 
L 953 1613 
Q 991 1019 1311 708 
Q 1631 397 2203 397 
Q 2534 397 2845 478 
Q 3156 559 3463 722 
L 3463 178 
Q 3153 47 2828 -22 
Q 2503 -91 2169 -91 
Q 1331 -91 842 396 
Q 353 884 353 1716 
Q 353 2575 817 3079 
Q 1281 3584 2069 3584 
Q 2775 3584 3186 3129 
Q 3597 2675 3597 1894 
z
M 3022 2063 
Q 3016 2534 2758 2815 
Q 2500 3097 2075 3097 
Q 1594 3097 1305 2825 
Q 1016 2553 972 2059 
L 3022 2063 
z
" id="DejaVuSans-435" transform="scale(0.015625)"/>
       <path d="M 1159 525 
L 1159 -1331 
L 581 -1331 
L 581 3500 
L 1159 3500 
L 1159 2969 
Q 1341 3281 1617 3432 
Q 1894 3584 2278 3584 
Q 2916 3584 3314 3078 
Q 3713 2572 3713 1747 
Q 3713 922 3314 415 
Q 2916 -91 2278 -91 
Q 1894 -91 1617 61 
Q 1341 213 1159 525 
z
M 3116 1747 
Q 3116 2381 2855 2742 
Q 2594 3103 2138 3103 
Q 1681 3103 1420 2742 
Q 1159 2381 1159 1747 
Q 1159 1113 1420 752 
Q 1681 391 2138 391 
Q 2594 391 2855 752 
Q 3116 1113 3116 1747 
z
" id="DejaVuSans-440" transform="scale(0.015625)"/>
       <path d="M 581 3500 
L 1159 3500 
L 1159 2072 
L 3025 2072 
L 3025 3500 
L 3603 3500 
L 3603 0 
L 3025 0 
L 3025 1613 
L 1159 1613 
L 1159 0 
L 581 0 
L 581 3500 
z
" id="DejaVuSans-43d" transform="scale(0.015625)"/>
       <path d="M 1959 3097 
Q 1497 3097 1228 2736 
Q 959 2375 959 1747 
Q 959 1119 1226 758 
Q 1494 397 1959 397 
Q 2419 397 2687 759 
Q 2956 1122 2956 1747 
Q 2956 2369 2687 2733 
Q 2419 3097 1959 3097 
z
M 1959 3584 
Q 2709 3584 3137 3096 
Q 3566 2609 3566 1747 
Q 3566 888 3137 398 
Q 2709 -91 1959 -91 
Q 1206 -91 779 398 
Q 353 888 353 1747 
Q 353 2609 779 3096 
Q 1206 3584 1959 3584 
z
" id="DejaVuSans-43e" transform="scale(0.015625)"/>
       <path d="M 3122 3366 
L 3122 2828 
Q 2878 2963 2633 3030 
Q 2388 3097 2138 3097 
Q 1578 3097 1268 2742 
Q 959 2388 959 1747 
Q 959 1106 1268 751 
Q 1578 397 2138 397 
Q 2388 397 2633 464 
Q 2878 531 3122 666 
L 3122 134 
Q 2881 22 2623 -34 
Q 2366 -91 2075 -91 
Q 1284 -91 818 406 
Q 353 903 353 1747 
Q 353 2603 823 3093 
Q 1294 3584 2113 3584 
Q 2378 3584 2631 3529 
Q 2884 3475 3122 3366 
z
" id="DejaVuSans-441" transform="scale(0.015625)"/>
       <path d="M 188 3500 
L 3541 3500 
L 3541 3041 
L 2147 3041 
L 2147 0 
L 1581 0 
L 1581 3041 
L 188 3041 
L 188 3500 
z
" id="DejaVuSans-442" transform="scale(0.015625)"/>
       <path d="M 2781 1038 
Q 2781 1319 2576 1466 
Q 2372 1613 1978 1613 
L 1159 1613 
L 1159 459 
L 1978 459 
Q 2372 459 2576 607 
Q 2781 756 2781 1038 
z
M 581 3500 
L 1159 3500 
L 1159 2072 
L 2003 2072 
Q 2672 2072 3033 1817 
Q 3394 1563 3394 1038 
Q 3394 513 3033 256 
Q 2672 0 2003 0 
L 581 0 
L 581 3500 
z
" id="DejaVuSans-44c" transform="scale(0.015625)"/>
       <path id="DejaVuSans-20" transform="scale(0.015625)"/>
       <path d="M 3603 3500 
L 3603 0 
L 3025 0 
L 3025 3041 
L 1159 3041 
L 1159 0 
L 581 0 
L 581 3500 
L 3603 3500 
z
" id="DejaVuSans-43f" transform="scale(0.015625)"/>
       <path d="M 1384 459 
L 3053 459 
L 3053 3041 
L 1844 3041 
L 1844 2603 
Q 1844 1316 1475 628 
L 1384 459 
z
M 550 459 
Q 834 584 959 850 
Q 1266 1509 1266 2838 
L 1266 3500 
L 3631 3500 
L 3631 459 
L 4091 459 
L 4091 -884 
L 3631 -884 
L 3631 0 
L 794 0 
L 794 -884 
L 334 -884 
L 334 459 
L 550 459 
z
" id="DejaVuSans-434" transform="scale(0.015625)"/>
       <path d="M 1156 1613 
L 1156 459 
L 1975 459 
Q 2369 459 2575 607 
Q 2781 756 2781 1038 
Q 2781 1319 2575 1466 
Q 2369 1613 1975 1613 
L 1156 1613 
z
M 1156 3041 
L 1156 2072 
L 1913 2072 
Q 2238 2072 2444 2201 
Q 2650 2331 2650 2563 
Q 2650 2794 2444 2917 
Q 2238 3041 1913 3041 
L 1156 3041 
z
M 581 3500 
L 1950 3500 
Q 2566 3500 2897 3275 
Q 3228 3050 3228 2634 
Q 3228 2313 3059 2123 
Q 2891 1934 2559 1888 
Q 2956 1813 3175 1575 
Q 3394 1338 3394 981 
Q 3394 513 3033 256 
Q 2672 0 2003 0 
L 581 0 
L 581 3500 
z
" id="DejaVuSans-432" transform="scale(0.015625)"/>
       <path d="M 3909 3500 
L 4484 3500 
L 4484 0 
L 3909 0 
L 3909 3500 
z
M 4197 3584 
L 4197 3584 
z
M 2781 1038 
Q 2781 1319 2576 1466 
Q 2372 1613 1978 1613 
L 1159 1613 
L 1159 459 
L 1978 459 
Q 2372 459 2576 607 
Q 2781 756 2781 1038 
z
M 581 3500 
L 1159 3500 
L 1159 2072 
L 2003 2072 
Q 2672 2072 3033 1817 
Q 3394 1563 3394 1038 
Q 3394 513 3033 256 
Q 2672 0 2003 0 
L 581 0 
L 581 3500 
z
" id="DejaVuSans-44b" transform="scale(0.015625)"/>
       <path d="M 1991 3584 
Q 2741 3584 3169 3096 
Q 3597 2609 3597 1747 
Q 3597 888 3169 398 
Q 2741 -91 1991 -91 
Q 1238 -91 822 384 
Q 406 859 384 1747 
L 366 2463 
Q 350 2834 350 2963 
Q 350 3463 531 3831 
Q 816 4409 1308 4659 
Q 1800 4909 2625 4916 
Q 3006 4919 3175 4972 
L 3334 4516 
Q 3181 4453 3041 4450 
L 2259 4397 
Q 1866 4369 1628 4231 
Q 1006 3866 947 3388 
L 925 3213 
Q 1331 3584 1991 3584 
z
M 1991 3097 
Q 1528 3097 1259 2736 
Q 991 2375 991 1747 
Q 991 1119 1258 758 
Q 1525 397 1991 397 
Q 2450 397 2719 759 
Q 2988 1122 2988 1747 
Q 2988 2369 2719 2733 
Q 2450 3097 1991 3097 
z
" id="DejaVuSans-431" transform="scale(0.015625)"/>
       <path d="M 581 3500 
L 1153 3500 
L 1153 1856 
L 2775 3500 
L 3481 3500 
L 2144 2147 
L 3653 0 
L 3009 0 
L 1769 1766 
L 1153 1141 
L 1153 0 
L 581 0 
L 581 3500 
z
" id="DejaVuSans-43a" transform="scale(0.015625)"/>
       <path d="M 3578 3500 
L 3578 0 
L 3006 0 
L 3006 2809 
L 1319 0 
L 581 0 
L 581 3500 
L 1153 3500 
L 1153 697 
L 2838 3500 
L 3578 3500 
z
" id="DejaVuSans-438" transform="scale(0.015625)"/>
       <path d="M 238 0 
L 238 478 
Q 806 566 981 959 
Q 1194 1513 1194 2928 
L 1194 3500 
L 3559 3500 
L 3559 0 
L 2984 0 
L 2984 3041 
L 1769 3041 
L 1769 2694 
Q 1769 1344 1494 738 
Q 1200 91 238 0 
z
" id="DejaVuSans-43b" transform="scale(0.015625)"/>
       <path d="M 1181 2491 
Q 1181 2231 1381 2084 
Q 1581 1938 1953 1938 
L 2728 1938 
L 2728 3041 
L 1953 3041 
Q 1581 3041 1381 2897 
Q 1181 2753 1181 2491 
z
M 363 0 
L 1431 1534 
Q 1069 1616 828 1830 
Q 588 2044 588 2491 
Q 588 2997 923 3248 
Q 1259 3500 1938 3500 
L 3306 3500 
L 3306 0 
L 2728 0 
L 2728 1478 
L 2013 1478 
L 981 0 
L 363 0 
z
" id="DejaVuSans-44f" transform="scale(0.015625)"/>
       <path d="M 581 0 
L 581 3500 
L 3050 3500 
L 3050 3041 
L 1159 3041 
L 1159 0 
L 581 0 
z
" id="DejaVuSans-433" transform="scale(0.015625)"/>
      </defs>
      <use xlink:href="#DejaVuSans-420"/>
      <use x="60.302734" xlink:href="#DejaVuSans-430"/>
      <use x="121.582031" xlink:href="#DejaVuSans-437"/>
      <use x="174.755859" xlink:href="#DejaVuSans-43c"/>
      <use x="250.195312" xlink:href="#DejaVuSans-435"/>
      <use x="311.71875" xlink:href="#DejaVuSans-440"/>
      <use x="375.195312" xlink:href="#DejaVuSans-43d"/>
      <use x="440.576172" xlink:href="#DejaVuSans-43e"/>
      <use x="501.757812" xlink:href="#DejaVuSans-441"/>
      <use x="556.738281" xlink:href="#DejaVuSans-442"/>
      <use x="614.990234" xlink:href="#DejaVuSans-44c"/>
      <use x="673.925781" xlink:href="#DejaVuSans-20"/>
      <use x="705.712891" xlink:href="#DejaVuSans-43f"/>
      <use x="771.09375" xlink:href="#DejaVuSans-43e"/>
      <use x="832.275391" xlink:href="#DejaVuSans-434"/>
      <use x="901.416016" xlink:href="#DejaVuSans-432"/>
      <use x="960.351562" xlink:href="#DejaVuSans-44b"/>
      <use x="1039.306641" xlink:href="#DejaVuSans-431"/>
      <use x="1100.976562" xlink:href="#DejaVuSans-43e"/>
      <use x="1162.158203" xlink:href="#DejaVuSans-440"/>
      <use x="1225.634766" xlink:href="#DejaVuSans-43a"/>
      <use x="1286.035156" xlink:href="#DejaVuSans-438"/>
      <use x="1351.025391" xlink:href="#DejaVuSans-20"/>
      <use x="1382.8125" xlink:href="#DejaVuSans-43f"/>
      <use x="1448.193359" xlink:href="#DejaVuSans-440"/>
      <use x="1511.669922" xlink:href="#DejaVuSans-438"/>
      <use x="1576.660156" xlink:href="#DejaVuSans-437"/>
      <use x="1629.833984" xlink:href="#DejaVuSans-43d"/>
      <use x="1695.214844" xlink:href="#DejaVuSans-430"/>
      <use x="1756.494141" xlink:href="#DejaVuSans-43a"/>
      <use x="1816.894531" xlink:href="#DejaVuSans-43e"/>
      <use x="1878.076172" xlink:href="#DejaVuSans-432"/>
      <use x="1937.011719" xlink:href="#DejaVuSans-20"/>
      <use x="1968.798828" xlink:href="#DejaVuSans-434"/>
      <use x="2037.939453" xlink:href="#DejaVuSans-43b"/>
      <use x="2101.855469" xlink:href="#DejaVuSans-44f"/>
      <use x="2162.011719" xlink:href="#DejaVuSans-20"/>
      <use x="2193.798828" xlink:href="#DejaVuSans-43e"/>
      <use x="2254.980469" xlink:href="#DejaVuSans-434"/>
      <use x="2324.121094" xlink:href="#DejaVuSans-43d"/>
      <use x="2389.501953" xlink:href="#DejaVuSans-43e"/>
      <use x="2450.683594" xlink:href="#DejaVuSans-433"/>
      <use x="2503.222656" xlink:href="#DejaVuSans-43e"/>
     </g>
     <!--  дерева (доля всех признаков) -->
     <g style="fill:#262626;" transform="translate(255.298125 429.102562)scale(0.14 -0.14)">
      <defs>
       <path d="M 1984 4856 
Q 1566 4138 1362 3434 
Q 1159 2731 1159 2009 
Q 1159 1288 1364 580 
Q 1569 -128 1984 -844 
L 1484 -844 
Q 1016 -109 783 600 
Q 550 1309 550 2009 
Q 550 2706 781 3412 
Q 1013 4119 1484 4856 
L 1984 4856 
z
" id="DejaVuSans-28" transform="scale(0.015625)"/>
       <path d="M 3513 3500 
L 2247 1797 
L 3578 0 
L 2900 0 
L 1881 1375 
L 863 0 
L 184 0 
L 1544 1831 
L 300 3500 
L 978 3500 
L 1906 2253 
L 2834 3500 
L 3513 3500 
z
" id="DejaVuSans-445" transform="scale(0.015625)"/>
       <path d="M 513 4856 
L 1013 4856 
Q 1481 4119 1714 3412 
Q 1947 2706 1947 2009 
Q 1947 1309 1714 600 
Q 1481 -109 1013 -844 
L 513 -844 
Q 928 -128 1133 580 
Q 1338 1288 1338 2009 
Q 1338 2731 1133 3434 
Q 928 4138 513 4856 
z
" id="DejaVuSans-29" transform="scale(0.015625)"/>
      </defs>
      <use xlink:href="#DejaVuSans-20"/>
      <use x="31.787109" xlink:href="#DejaVuSans-434"/>
      <use x="100.927734" xlink:href="#DejaVuSans-435"/>
      <use x="162.451172" xlink:href="#DejaVuSans-440"/>
      <use x="225.927734" xlink:href="#DejaVuSans-435"/>
      <use x="287.451172" xlink:href="#DejaVuSans-432"/>
      <use x="346.386719" xlink:href="#DejaVuSans-430"/>
      <use x="407.666016" xlink:href="#DejaVuSans-20"/>
      <use x="439.453125" xlink:href="#DejaVuSans-28"/>
      <use x="478.466797" xlink:href="#DejaVuSans-434"/>
      <use x="547.607422" xlink:href="#DejaVuSans-43e"/>
      <use x="608.789062" xlink:href="#DejaVuSans-43b"/>
      <use x="672.705078" xlink:href="#DejaVuSans-44f"/>
      <use x="732.861328" xlink:href="#DejaVuSans-20"/>
      <use x="764.648438" xlink:href="#DejaVuSans-432"/>
      <use x="823.583984" xlink:href="#DejaVuSans-441"/>
      <use x="878.564453" xlink:href="#DejaVuSans-435"/>
      <use x="940.087891" xlink:href="#DejaVuSans-445"/>
      <use x="999.267578" xlink:href="#DejaVuSans-20"/>
      <use x="1031.054688" xlink:href="#DejaVuSans-43f"/>
      <use x="1096.435547" xlink:href="#DejaVuSans-440"/>
      <use x="1159.912109" xlink:href="#DejaVuSans-438"/>
      <use x="1224.902344" xlink:href="#DejaVuSans-437"/>
      <use x="1278.076172" xlink:href="#DejaVuSans-43d"/>
      <use x="1343.457031" xlink:href="#DejaVuSans-430"/>
      <use x="1404.736328" xlink:href="#DejaVuSans-43a"/>
      <use x="1465.136719" xlink:href="#DejaVuSans-43e"/>
      <use x="1526.318359" xlink:href="#DejaVuSans-432"/>
      <use x="1585.253906" xlink:href="#DejaVuSans-29"/>
     </g>
    </g>
   </g>
   <g id="matplotlib.axis_2">
    <g id="ytick_1">
     <g id="line2d_6">
      <path clip-path="url(#p28eed594a7)" d="M 90 339.958557 
L 648 339.958557 
" style="fill:none;stroke:#ffffff;stroke-linecap:round;stroke-width:0.8;"/>
     </g>
     <g id="text_7">
      <!-- 20 -->
      <g style="fill:#262626;" transform="translate(65.185 345.277463)scale(0.14 -0.14)">
       <use xlink:href="#DejaVuSans-32"/>
       <use x="63.623047" xlink:href="#DejaVuSans-30"/>
      </g>
     </g>
    </g>
    <g id="ytick_2">
     <g id="line2d_7">
      <path clip-path="url(#p28eed594a7)" d="M 90 279.605439 
L 648 279.605439 
" style="fill:none;stroke:#ffffff;stroke-linecap:round;stroke-width:0.8;"/>
     </g>
     <g id="text_8">
      <!-- 40 -->
      <g style="fill:#262626;" transform="translate(65.185 284.924345)scale(0.14 -0.14)">
       <use xlink:href="#DejaVuSans-34"/>
       <use x="63.623047" xlink:href="#DejaVuSans-30"/>
      </g>
     </g>
    </g>
    <g id="ytick_3">
     <g id="line2d_8">
      <path clip-path="url(#p28eed594a7)" d="M 90 219.252321 
L 648 219.252321 
" style="fill:none;stroke:#ffffff;stroke-linecap:round;stroke-width:0.8;"/>
     </g>
     <g id="text_9">
      <!-- 60 -->
      <g style="fill:#262626;" transform="translate(65.185 224.571227)scale(0.14 -0.14)">
       <use xlink:href="#DejaVuSans-36"/>
       <use x="63.623047" xlink:href="#DejaVuSans-30"/>
      </g>
     </g>
    </g>
    <g id="ytick_4">
     <g id="line2d_9">
      <path clip-path="url(#p28eed594a7)" d="M 90 158.899203 
L 648 158.899203 
" style="fill:none;stroke:#ffffff;stroke-linecap:round;stroke-width:0.8;"/>
     </g>
     <g id="text_10">
      <!-- 80 -->
      <g style="fill:#262626;" transform="translate(65.185 164.218109)scale(0.14 -0.14)">
       <use xlink:href="#DejaVuSans-38"/>
       <use x="63.623047" xlink:href="#DejaVuSans-30"/>
      </g>
     </g>
    </g>
    <g id="ytick_5">
     <g id="line2d_10">
      <path clip-path="url(#p28eed594a7)" d="M 90 98.546085 
L 648 98.546085 
" style="fill:none;stroke:#ffffff;stroke-linecap:round;stroke-width:0.8;"/>
     </g>
     <g id="text_11">
      <!-- 100 -->
      <g style="fill:#262626;" transform="translate(56.2775 103.864991)scale(0.14 -0.14)">
       <use xlink:href="#DejaVuSans-31"/>
       <use x="63.623047" xlink:href="#DejaVuSans-30"/>
       <use x="127.246094" xlink:href="#DejaVuSans-30"/>
      </g>
     </g>
    </g>
    <g id="text_12">
     <!-- Время, с -->
     <g style="fill:#262626;" transform="translate(49.365937 246.263594)rotate(-90)scale(0.14 -0.14)">
      <defs>
       <path d="M 1259 2228 
L 1259 519 
L 2272 519 
Q 2781 519 3026 730 
Q 3272 941 3272 1375 
Q 3272 1813 3026 2020 
Q 2781 2228 2272 2228 
L 1259 2228 
z
M 1259 4147 
L 1259 2741 
L 2194 2741 
Q 2656 2741 2882 2914 
Q 3109 3088 3109 3444 
Q 3109 3797 2882 3972 
Q 2656 4147 2194 4147 
L 1259 4147 
z
M 628 4666 
L 2241 4666 
Q 2963 4666 3353 4366 
Q 3744 4066 3744 3513 
Q 3744 3084 3544 2831 
Q 3344 2578 2956 2516 
Q 3422 2416 3680 2098 
Q 3938 1781 3938 1306 
Q 3938 681 3513 340 
Q 3088 0 2303 0 
L 628 0 
L 628 4666 
z
" id="DejaVuSans-412" transform="scale(0.015625)"/>
       <path d="M 750 794 
L 1409 794 
L 1409 256 
L 897 -744 
L 494 -744 
L 750 256 
L 750 794 
z
" id="DejaVuSans-2c" transform="scale(0.015625)"/>
      </defs>
      <use xlink:href="#DejaVuSans-412"/>
      <use x="68.603516" xlink:href="#DejaVuSans-440"/>
      <use x="132.080078" xlink:href="#DejaVuSans-435"/>
      <use x="193.603516" xlink:href="#DejaVuSans-43c"/>
      <use x="269.042969" xlink:href="#DejaVuSans-44f"/>
      <use x="329.199219" xlink:href="#DejaVuSans-2c"/>
      <use x="360.986328" xlink:href="#DejaVuSans-20"/>
      <use x="392.773438" xlink:href="#DejaVuSans-441"/>
     </g>
    </g>
   </g>
   <g id="line2d_11">
    <path clip-path="url(#p28eed594a7)" d="M 115.363636 363.174545 
L 171.727273 332.483777 
L 228.090909 300.330251 
L 284.454545 265.23674 
L 340.818182 235.073906 
L 340.818182 237.80183 
L 453.545455 177.052346 
L 509.909091 143.753566 
L 566.272727 113.837782 
L 622.636364 66.665455 
" style="fill:none;stroke:#800080;stroke-linecap:round;stroke-width:1.5;"/>
   </g>
   <g id="patch_3">
    <path d="M 90 378 
L 90 51.84 
" style="fill:none;stroke:#ffffff;stroke-linecap:square;stroke-linejoin:miter;stroke-width:0.8;"/>
   </g>
   <g id="patch_4">
    <path d="M 648 378 
L 648 51.84 
" style="fill:none;stroke:#ffffff;stroke-linecap:square;stroke-linejoin:miter;stroke-width:0.8;"/>
   </g>
   <g id="patch_5">
    <path d="M 90 378 
L 648 378 
" style="fill:none;stroke:#ffffff;stroke-linecap:square;stroke-linejoin:miter;stroke-width:0.8;"/>
   </g>
   <g id="patch_6">
    <path d="M 90 51.84 
L 648 51.84 
" style="fill:none;stroke:#ffffff;stroke-linecap:square;stroke-linejoin:miter;stroke-width:0.8;"/>
   </g>
   <g id="text_13">
    <!-- Зависимость времени обучения от размерности подвыборки признаков -->
    <g style="fill:#262626;" transform="translate(48.509812 27.027675)scale(0.168 -0.168)">
     <defs>
      <path d="M 1828 4750 
Q 2597 4750 3084 4423 
Q 3572 4097 3572 3541 
Q 3572 3153 3350 2886 
Q 3128 2619 2719 2516 
Q 3172 2419 3426 2112 
Q 3681 1806 3681 1356 
Q 3681 638 3126 273 
Q 2572 -91 1828 -91 
Q 1447 -91 1003 12 
Q 559 116 422 203 
L 422 853 
Q 900 575 1164 508 
Q 1428 441 1816 441 
Q 2403 441 2728 666 
Q 3053 891 3053 1356 
Q 3053 1769 2764 2001 
Q 2475 2234 1866 2234 
L 1228 2234 
L 1228 2753 
L 1891 2753 
Q 2450 2753 2697 2939 
Q 2944 3125 2944 3475 
Q 2944 3834 2689 4026 
Q 2434 4219 1816 4219 
Q 1397 4219 1253 4181 
Q 1109 4144 469 3903 
L 469 4519 
Q 822 4644 1190 4697 
Q 1559 4750 1828 4750 
z
" id="DejaVuSans-417" transform="scale(0.015625)"/>
      <path d="M 2059 -325 
Q 1816 -950 1584 -1140 
Q 1353 -1331 966 -1331 
L 506 -1331 
L 506 -850 
L 844 -850 
Q 1081 -850 1212 -737 
Q 1344 -625 1503 -206 
L 1606 56 
L 191 3500 
L 800 3500 
L 1894 763 
L 2988 3500 
L 3597 3500 
L 2059 -325 
z
" id="DejaVuSans-443" transform="scale(0.015625)"/>
      <path d="M 2625 0 
L 2625 1472 
L 1553 1472 
Q 1075 1472 756 1769 
Q 469 2038 469 2613 
L 469 3500 
L 1044 3500 
L 1044 2666 
Q 1044 2300 1206 2116 
Q 1372 1931 1697 1931 
L 2625 1931 
L 2625 3500 
L 3200 3500 
L 3200 0 
L 2625 0 
z
" id="DejaVuSans-447" transform="scale(0.015625)"/>
     </defs>
     <use xlink:href="#DejaVuSans-417"/>
     <use x="64.111328" xlink:href="#DejaVuSans-430"/>
     <use x="125.390625" xlink:href="#DejaVuSans-432"/>
     <use x="184.326172" xlink:href="#DejaVuSans-438"/>
     <use x="249.316406" xlink:href="#DejaVuSans-441"/>
     <use x="304.296875" xlink:href="#DejaVuSans-438"/>
     <use x="369.287109" xlink:href="#DejaVuSans-43c"/>
     <use x="444.726562" xlink:href="#DejaVuSans-43e"/>
     <use x="505.908203" xlink:href="#DejaVuSans-441"/>
     <use x="560.888672" xlink:href="#DejaVuSans-442"/>
     <use x="619.140625" xlink:href="#DejaVuSans-44c"/>
     <use x="678.076172" xlink:href="#DejaVuSans-20"/>
     <use x="709.863281" xlink:href="#DejaVuSans-432"/>
     <use x="768.798828" xlink:href="#DejaVuSans-440"/>
     <use x="832.275391" xlink:href="#DejaVuSans-435"/>
     <use x="893.798828" xlink:href="#DejaVuSans-43c"/>
     <use x="969.238281" xlink:href="#DejaVuSans-435"/>
     <use x="1030.761719" xlink:href="#DejaVuSans-43d"/>
     <use x="1096.142578" xlink:href="#DejaVuSans-438"/>
     <use x="1161.132812" xlink:href="#DejaVuSans-20"/>
     <use x="1192.919922" xlink:href="#DejaVuSans-43e"/>
     <use x="1254.101562" xlink:href="#DejaVuSans-431"/>
     <use x="1315.771484" xlink:href="#DejaVuSans-443"/>
     <use x="1374.951172" xlink:href="#DejaVuSans-447"/>
     <use x="1434.033203" xlink:href="#DejaVuSans-435"/>
     <use x="1495.556641" xlink:href="#DejaVuSans-43d"/>
     <use x="1560.9375" xlink:href="#DejaVuSans-438"/>
     <use x="1625.927734" xlink:href="#DejaVuSans-44f"/>
     <use x="1686.083984" xlink:href="#DejaVuSans-20"/>
     <use x="1717.871094" xlink:href="#DejaVuSans-43e"/>
     <use x="1779.052734" xlink:href="#DejaVuSans-442"/>
     <use x="1837.304688" xlink:href="#DejaVuSans-20"/>
     <use x="1869.091797" xlink:href="#DejaVuSans-440"/>
     <use x="1932.568359" xlink:href="#DejaVuSans-430"/>
     <use x="1993.847656" xlink:href="#DejaVuSans-437"/>
     <use x="2047.021484" xlink:href="#DejaVuSans-43c"/>
     <use x="2122.460938" xlink:href="#DejaVuSans-435"/>
     <use x="2183.984375" xlink:href="#DejaVuSans-440"/>
     <use x="2247.460938" xlink:href="#DejaVuSans-43d"/>
     <use x="2312.841797" xlink:href="#DejaVuSans-43e"/>
     <use x="2374.023438" xlink:href="#DejaVuSans-441"/>
     <use x="2429.003906" xlink:href="#DejaVuSans-442"/>
     <use x="2487.255859" xlink:href="#DejaVuSans-438"/>
     <use x="2552.246094" xlink:href="#DejaVuSans-20"/>
     <use x="2584.033203" xlink:href="#DejaVuSans-43f"/>
     <use x="2649.414062" xlink:href="#DejaVuSans-43e"/>
     <use x="2710.595703" xlink:href="#DejaVuSans-434"/>
     <use x="2779.736328" xlink:href="#DejaVuSans-432"/>
     <use x="2838.671875" xlink:href="#DejaVuSans-44b"/>
     <use x="2917.626953" xlink:href="#DejaVuSans-431"/>
     <use x="2979.296875" xlink:href="#DejaVuSans-43e"/>
     <use x="3040.478516" xlink:href="#DejaVuSans-440"/>
     <use x="3103.955078" xlink:href="#DejaVuSans-43a"/>
     <use x="3164.355469" xlink:href="#DejaVuSans-438"/>
     <use x="3229.345703" xlink:href="#DejaVuSans-20"/>
     <use x="3261.132812" xlink:href="#DejaVuSans-43f"/>
     <use x="3326.513672" xlink:href="#DejaVuSans-440"/>
     <use x="3389.990234" xlink:href="#DejaVuSans-438"/>
     <use x="3454.980469" xlink:href="#DejaVuSans-437"/>
     <use x="3508.154297" xlink:href="#DejaVuSans-43d"/>
     <use x="3573.535156" xlink:href="#DejaVuSans-430"/>
     <use x="3634.814453" xlink:href="#DejaVuSans-43a"/>
     <use x="3695.214844" xlink:href="#DejaVuSans-43e"/>
     <use x="3756.396484" xlink:href="#DejaVuSans-432"/>
    </g>
    <!--  для одного дерева в случайном лесе -->
    <g style="fill:#262626;" transform="translate(201.270375 45.84)scale(0.168 -0.168)">
     <defs>
      <path d="M 3578 3500 
L 3578 0 
L 3006 0 
L 3006 2809 
L 1319 0 
L 581 0 
L 581 3500 
L 1153 3500 
L 1153 697 
L 2838 3500 
L 3578 3500 
z
M 1103 4862 
L 1472 4862 
Q 1506 4628 1657 4510 
Q 1809 4393 2081 4393 
Q 2350 4393 2500 4509 
Q 2650 4625 2691 4862 
L 3059 4862 
Q 3028 4415 2781 4190 
Q 2534 3965 2081 3965 
Q 1628 3965 1381 4190 
Q 1134 4415 1103 4862 
z
" id="DejaVuSans-439" transform="scale(0.015625)"/>
     </defs>
     <use xlink:href="#DejaVuSans-20"/>
     <use x="31.787109" xlink:href="#DejaVuSans-434"/>
     <use x="100.927734" xlink:href="#DejaVuSans-43b"/>
     <use x="164.84375" xlink:href="#DejaVuSans-44f"/>
     <use x="225" xlink:href="#DejaVuSans-20"/>
     <use x="256.787109" xlink:href="#DejaVuSans-43e"/>
     <use x="317.96875" xlink:href="#DejaVuSans-434"/>
     <use x="387.109375" xlink:href="#DejaVuSans-43d"/>
     <use x="452.490234" xlink:href="#DejaVuSans-43e"/>
     <use x="513.671875" xlink:href="#DejaVuSans-433"/>
     <use x="566.210938" xlink:href="#DejaVuSans-43e"/>
     <use x="627.392578" xlink:href="#DejaVuSans-20"/>
     <use x="659.179688" xlink:href="#DejaVuSans-434"/>
     <use x="728.320312" xlink:href="#DejaVuSans-435"/>
     <use x="789.84375" xlink:href="#DejaVuSans-440"/>
     <use x="853.320312" xlink:href="#DejaVuSans-435"/>
     <use x="914.84375" xlink:href="#DejaVuSans-432"/>
     <use x="973.779297" xlink:href="#DejaVuSans-430"/>
     <use x="1035.058594" xlink:href="#DejaVuSans-20"/>
     <use x="1066.845703" xlink:href="#DejaVuSans-432"/>
     <use x="1125.78125" xlink:href="#DejaVuSans-20"/>
     <use x="1157.568359" xlink:href="#DejaVuSans-441"/>
     <use x="1212.548828" xlink:href="#DejaVuSans-43b"/>
     <use x="1276.464844" xlink:href="#DejaVuSans-443"/>
     <use x="1335.644531" xlink:href="#DejaVuSans-447"/>
     <use x="1394.726562" xlink:href="#DejaVuSans-430"/>
     <use x="1456.005859" xlink:href="#DejaVuSans-439"/>
     <use x="1520.996094" xlink:href="#DejaVuSans-43d"/>
     <use x="1586.376953" xlink:href="#DejaVuSans-43e"/>
     <use x="1647.558594" xlink:href="#DejaVuSans-43c"/>
     <use x="1722.998047" xlink:href="#DejaVuSans-20"/>
     <use x="1754.785156" xlink:href="#DejaVuSans-43b"/>
     <use x="1818.701172" xlink:href="#DejaVuSans-435"/>
     <use x="1880.224609" xlink:href="#DejaVuSans-441"/>
     <use x="1935.205078" xlink:href="#DejaVuSans-435"/>
    </g>
   </g>
  </g>
 </g>
 <defs>
  <clipPath id="p28eed594a7">
   <rect height="326.16" width="558" x="90" y="51.84"/>
  </clipPath>
 </defs>
</svg>
